<svg version="1.2" xmlns="http://www.w3.org/2000/svg" viewBox="0 0 628 472" width="628" height="472">
	<title>&lt;Group&gt;</title>
	<defs>
		<linearGradient id="g1" x2="1" gradientUnits="userSpaceOnUse" gradientTransform="matrix(11.756,0,0,16.122,64.929,89.283)">
			<stop offset="0" stop-color="#78d1ef"/>
			<stop offset=".2" stop-color="#7cc79a"/>
			<stop offset=".4" stop-color="#fbb02b"/>
			<stop offset=".6" stop-color="#f5882b"/>
			<stop offset=".8" stop-color="#f1662a"/>
			<stop offset="1" stop-color="#ed2a28"/>
		</linearGradient>
	</defs>
	<style>
		.s0 { fill: url(#g1) } 
		.s1 { mix-blend-mode: multiply;fill: #e6e7e8 } 
		.s2 { fill: #f7f7f7;stroke: #454849;stroke-miterlimit:10;stroke-width: .4 } 
		.s3 { fill: none;stroke: #454849;stroke-miterlimit:10;stroke-width: .4 } 
		.s4 { fill: #77d0ef } 
		.s5 { fill: #ef662b } 
		.s6 { fill: #fbb12e } 
		.s7 { fill: #7bc799 } 
		.s8 { fill: #ea2b2a } 
		.s9 { fill: #f5882b } 
	</style>
	<g id="&lt;Group&gt;">
		<path id="&lt;Path&gt;" class="s0" d="m70.9 91.4c-0.9-1.2-2.3-2-3.9-2.1l-1.6 1.3c0 0.2-0.1 0.6-0.2 0.9-0.2 1-0.4 2-0.1 3 0.1 0.5 0.4 0.9 0.6 1.3 0.2 0.4 0.4 0.7 0.4 1l0.1 0.4c0.4 1 1.4 1.3 1.9 1.4q1.1 2.7 3.9 5.2l0.1 0.1c0.8 0.8 1.7 1.5 2.8 1.5q0.4 0 0.8-0.2c0.4-0.2 0.8-0.6 0.9-1 0.3-1-0.3-1.8-0.7-2.6q-0.2-0.2-0.3-0.3 0-0.3 0-0.5c0-0.4 0-0.9 0-1.3q0-0.2 0.1-0.3c0.1-0.5 0.4-1.2-0.1-2q-0.4-0.8-1.5-0.9-0.5-0.1-1.1-0.1c-0.2-0.1-0.6-0.1-0.9-0.1 0.3-1.8-0.2-3.5-1.2-4.7z"/>
		<path id="&lt;Compound Path&gt;" fill-rule="evenodd" class="s1" d="m611.4 339.6q0.1 0 0.1-0.1c-0.1 0.1-0.2 0.4-0.3 0.6l-0.1 0.3c-0.2 0.5-0.6 0.9-0.8 1.3-0.3 0.3-0.5 0.6-0.6 0.8-0.6 2.1-1.2 3.4-3.4 4.9l-0.5 0.2c-0.2 0.2-0.9 1.2-1.2 1.7-0.3 0.4-0.6 0.8-0.8 1-0.8 0.9-1.6 1.5-2.5 2.1-0.7 0.5-1.3 1-1.9 1.5-3 3.2-5.2 6-4.9 10.1v0.4c0.1 1 0.3 2.9-1.3 3.8-0.6 0.3-1.1 0.4-1.6 0.5-0.4 0-0.4 0-0.5 0.1q-0.1 0.2-0.2 0.4c-0.2 0.6-0.6 1.4-1.5 1.8q-0.2 0.1-0.4 0.1 0 0.1 0.1 0.3 0.2 0 0.4-0.1 0.5 0 1-0.1c0.2 0 0.5-0.1 0.8-0.3 0.5-0.3 1.2-0.6 2.1-0.6q0.2 0 0.3 0l1.3 1.5c-0.1 1.3-0.4 2.9-1.5 4.2q-0.6 0.6-1.2 0.9 0.3 0.2 0.5 0.5c0.6 1.2-0.4 2.7-1.3 4.1q-0.3 0.3-0.4 0.5c-0.6 1.3-1.3 2.8-1.6 4.2q-0.1 0.6-0.3 1.1c-0.3 1.6-0.6 3.4-1.9 4.7-1 1.1-1.4 1.7-1.5 2.9q0 0.5 0 1-0.1 0.6-0.1 1.2l-0.5 0.9c-0.2 0.2-0.6 0.8-0.8 1.2l-0.2 0.4c-0.2 0.4-1.6 3.5-1.8 3.8l-0.7-0.3-0.9 1.2c-1.8-0.4-1.6-2.6-1.6-3.7q0.1-0.2 0.1-0.3c0-0.7-0.2-1.7-0.4-2q0 0 0 0c0 0-0.2-0.1-0.4-0.1q-0.4-0.2-0.7-0.5l-0.2-0.1c-1.1-0.7-1.8-1.2-1.9-2-0.2-1.2 0.6-2.3 1.5-3.3 0.2-0.3 0.6-0.7 0.7-0.9 0.1-0.3 0.1-0.6 0-1-0.3 0.3-0.6 0.5-1 0.6 0.1 1.2-0.8 2.2-1.4 2.9l-0.6 0.8c-0.4 0.4-0.8 0.8-1 1.2-0.4 0.7-1 1.1-1.8 1.1-0.3 0-0.6-0.1-0.8-0.2q-0.2 0-0.3 0-0.4 0-0.8-0.1c-1 0-1.1 0.3-1.1 0.4-0.2 1.2-0.8 1.8-1.4 2.4q-0.1 0.1-0.3 0.3c0 0.1-0.1 0.2-0.1 0.4-0.1 0.3-0.2 0.8-0.6 1.3-0.4 0.6-1 0.9-1.3 1q-0.2 0.1-0.3 0.1c0 0.1-0.1 0.4-0.2 0.7q-0.1 0.6-0.4 1.1c-0.5 1-1.4 1.7-2.1 2.3l-0.3 0.2c0 0.1-0.1 0.3-0.2 0.4-0.1 0.3-0.2 0.7-0.4 1-0.4 0.5-0.9 0.8-1.6 0.8-1 0-2-0.8-3.1-1.8q-0.2-0.2-0.4-0.3c-0.2-0.1-0.3-0.2-0.4-0.2q-0.1 0-0.4 0.1c-0.2 2.2-0.4 2.5-1.5 2.5h-0.1l-11-1c-0.7-0.1-2.5-0.2-4.8-0.4-3.9-0.4-9.5-0.9-14.1-1.3-3.1-0.3-5.2-0.5-6.6-0.7-0.2 2.7-0.4 5.5-0.7 8.1l-0.3 3.2c-0.1 1.5-1.8 1.5-2.6 1.5-1 0-2.5-0.1-3.9-0.3q0.2 0.4 0.3 0.8c0.1 0.9 0.2 1 0.8 1.6q0.2 0.2 0.5 0.5c0.7 0.8 1 1.6 1.3 2.3q0.2 0.5 0.4 0.9c0 0 0.1 0 0.2 0.1 0.2 0 0.6 0.1 0.9 0.3 1 0.4 1.3 1.3 1.4 1.8q0.1 0.1 0.1 0.2c0.3 0.2 0.8 0.2 1.3 0.3q0.4 0.1 0.8 0.2c3.4 0.7 3.4 3.5 3.4 5.2 0 1.6 0.1 2.2 0.7 2.5 0.2 0.1 0.6 0.2 0.9 0.3 1.3 0.3 3.8 0.9 3.6 3.4-0.1 1.1-0.6 2-0.9 2.8q-0.3 0.5-0.5 1c-0.1 0.4-0.1 0.7 0 1.4 0.1 0.5 0.1 1.1 0.1 1.7l-1.5 1.3-26.5-1.9c-0.6 0.8-1.8 2.7-2.3 3.5-0.3 0.5-0.5 0.9-0.6 1.1l-7.9 11.4q0.1 0.2 0.5 0.6 0.2 0.3 0.5 0.5c0.5 0.6 1.2 1.3 1.5 2.3 0.5 1.7-0.7 2.7-1.3 3.2q-0.2 0.1-0.4 0.3c0 0.1 0 0.3 0 0.5 0 0.4 0 1-0.3 1.6-0.4 1.1-0.4 1.4-0.3 2.5 0.3 2.4-1.3 4.2-2.5 5.5l-0.2 0.2h-2.1c-2.7-3.3-5.1-6.8-7.5-10.3q-1.3-2-2.7-4l-1-1.3c-0.3-0.6-0.9-1-1.5-1.5-0.7-0.5-1.4-1.1-2-1.9q-0.7-0.9-1.4-1.7c-1.5-2-3-4-4.7-5.8-1.4-1.5-3-3-4.6-4.4q-1-0.9-2-1.8-0.3-0.3-0.8-0.8c-0.6-0.7-2.5-2.7-3.2-2.9v-0.3q-0.2 0.1-0.5 0.1-0.6 0-1.1-0.3c-0.3-0.3-0.8-0.5-1.3-0.7-0.4-0.1-1-0.4-1.5-0.7-0.3-0.2-0.6-0.4-0.9-0.7-0.2-0.2-0.4-0.5-0.6-0.5q0.1 0 0.2 0l0.1-0.9-0.5 0.7c-1.3-0.2-2.5-0.6-3.6-1.1-1.1-0.5-2.2-0.9-3.3-0.9q-0.2 0-0.5 0.1c-0.4 0-0.8 0.1-1.1 0.1q-0.8 0-1.4-0.3-0.2-0.2-0.4-0.4-0.4 0-0.8-0.1h-0.2l-0.3-0.1q-0.4-0.1-0.8-0.1-0.7 0-1.4 0.2-0.5 0-1 0.1h-0.2c-0.5 0-0.9-0.1-1.3-0.2-0.3-0.1-0.6-0.1-0.8-0.1-0.1 0-0.1 0.2-0.2 0.2-0.2 0.4-0.5 0.8-1 1.1-0.6 0.5-1.3 0.7-1.9 1q-0.7 0.3-1.2 0.6c-1.2 0.7-2.4 1.2-3.9 1.5l-10.2 2.4c-0.4 0.1-1 0.5-1.5 0.9-0.7 0.4-1.4 1-2.3 1.2q-1.2 0.4-2.5 0.4-0.6 0-1.2-0.1-0.5-0.1-1.1-0.2c-0.2-0.1-0.5-0.2-0.6-0.2-0.4 0.5-1.2 1.1-2.6 1.1-2.2 0-4.8-1.5-7.1-2.9l-0.9-0.6c-1.1-0.6-2.2-1.3-3.2-2.2-1.3-1.5-2.5-1.8-4.7-2.4-1.2-0.3-2.5-0.5-3.8-0.6-1.2-0.2-2.5-0.4-3.7-0.6-2.4-0.6-3.5-1.9-4.5-3.1-0.5-0.6-1-1.2-1.6-1.7-2.4-1.8-4.3-3-6.2-3.7q-1.7-0.8-3.1-0.9c-1.6-0.1-2.9-1.7-3.7-2.7l0.1-0.4c-1.1-1-2.1-3.1-2.1-3.1q0-0.2-0.1-0.3-0.5 0.3-1.1 0.3c-1.2 0-2.6-0.8-4.3-1.9-0.4-0.3-0.7-0.5-1-0.6-1.3-0.7-3.1-1.1-4.8-1.5q-1.3-0.3-2.6-0.7l-3.6-1.1c-0.4-0.1-0.7-0.3-0.9-0.5-1.2-0.1-2.1-1-2.8-1.7-0.2-0.3-0.5-0.6-0.7-0.7l-0.5-0.8q-0.1 0-0.2 0-0.2 0-0.3 0l-0.6-0.2c-0.7-0.4-1.2-1-1.6-1.4-0.6-0.7-1-1-1.6-1.1-1.9-0.4-3.3-1.2-4.7-2l-2-1.1c-2.2-1.2-4.5-2.5-6.7-3.8l-0.4-0.3c-1.5-0.9-3-1.8-4.6-2.1-1.2-0.3-1.6-1.1-1.8-1.5 0-0.2-0.1-0.2-0.1-0.3q-0.6-0.6-1.1-1.2c-1.4-1.6-3-3.4-4.8-3.7l-0.2-0.1c-1.2-0.4-1.3-1.6-1.4-2q-0.2 0-0.3-0.1c-0.4-0.1-0.9-0.3-1.3-0.6-1.2-1-1.9-2.3-2.5-3.4l-0.3-0.5c-1.5-3-3.2-4.7-4.7-4.7q-0.6 0-1.2 0.3c-0.2 0.3-0.5 0.5-0.8 0.7l-0.1 0.1-0.8 0.3q-0.1 0-0.2 0c-1.3 0-2.5-0.7-3.5-1.3-2.1-1.3-3.9-2.2-6.2-2.4-2.6-0.3-4.6-1.7-6.3-3l-0.3-0.2c-1.4-1-3-1.8-4.9-2.5l-0.8-0.3c-1.5-0.5-3.1-1.1-4.5-2-1.4-0.9-1.8-2.2-2.2-3.2-0.3-0.7-0.5-1.3-0.9-1.7-0.4-0.4-0.9-0.8-1.5-1.1q-0.4-0.3-0.8-0.6v-2-0.2c0 0-0.1 0.1-0.1 0.2q0 0.1 0 0.1 0 0 0-0.1h-0.2c-2.4-3.4-5.2-5.7-9.6-8-0.2-0.1-0.3-0.2-0.5-0.2-0.6-0.3-1.6-0.9-1.5-2.3-1.6 0-2.9-0.7-4-1.3l-0.3-0.2-0.2-0.6q-0.5-0.3-1-0.7c-0.4-0.3-1-0.8-1.3-0.8l-0.1-1.4v1.4q0 0-0.1 0c-0.4 0-1.4 0-1.9-0.7-0.4-0.5-0.5-0.9-0.5-1.3-0.6-0.1-1.2-0.2-1.7-0.6-1.5-1.2-2.2-3-2.8-4.5v-0.2q-0.2-0.5-0.4-1c-0.2-0.6-0.4-1.2-0.6-1.6l-0.1-0.2c0-0.1-0.2-0.2-0.7-0.4-0.4-0.2-0.9-0.5-1.4-0.9-0.8-0.7-1.3-1.8-1.8-2.7q-0.2-0.5-0.5-0.9c-0.7-1.3-1.4-2.6-2.1-4.3-0.6-1.3-1-2.7-1.2-4.4q-0.1-0.4-0.1-0.8c0-0.4-0.1-0.8-0.2-1.1q-0.1-0.3-0.4-0.7c-0.2-0.4-0.5-0.8-0.7-1.3q0-0.2-0.2-0.4c-0.4-0.8-1.5-2.7 0.1-3.9 0.8-0.7 2.8-1.6 4.1-1.6h0.3q0.5 0.1 1.1 0.1c1.9 0 3-0.4 3.3-0.8 0 0 0.1-0.1 0.1-0.5v-0.2l-0.2-0.1c-0.1-0.5-0.7-1.5-1-1.6 0 0-0.1 0-0.3 0.1q-0.4 0-0.9 0-0.2 0-0.5 0c-0.7-0.1-1.2-0.5-1.6-0.8-0.1-0.1-0.3-0.3-0.3-0.3l-0.8-2.5q0.5-0.4 1.1-0.8 1-0.8 1.9-1.6c0.5-0.4 0.9-0.8 1.4-1.3 0.7-0.8 1.4-1.6 2.5-2.2 0.1-0.3 0-1 0-1.4q-0.1-0.4-0.1-0.8c0-1.7 0.4-3.4 1.2-4.7q0.2-0.4 0.2-0.5-0.1-0.1-0.2-0.1-0.4-0.2-0.9-0.4c-0.9-0.4-2-0.8-2.8-1.8-0.3-0.4-1-1.5-1-2.7-0.5-0.5-0.7-1.2-0.8-1.6q0-0.2-0.1-0.4c-0.1-0.5-0.6-1.2-1.1-1.8q-0.5-0.6-0.9-1.2c-1.1-1.8-0.9-3.1-0.5-4.8 0.3-1.1 0.3-2.2 0.4-3.3q0-0.9 0.1-1.9l0.3-0.2c-0.2-0.6 0-1.1 0.2-1.5-1.5-1.2-2.9-4.8-2.9-4.9-0.9-2.4-2.2-4.3-3.5-5l0.2-0.6-0.4 0.3c-1-0.6-1.4-1.9-1.7-2.7-0.2-0.8-0.7-1.4-1.6-2.2-0.8-0.8-1.4-1.4-2.1-2.4-0.1 0-0.4-0.2-0.6-0.3-0.7-0.3-2-0.9-2-2.3 0-1.6-1.3-3.3-2.6-4.9l-0.2-0.3c-0.4-0.9-1-1.9-1.8-2.7q-0.1-0.2-0.3-0.3c-0.6-0.5-1.3-1.2-1.6-2.2-0.8-2.2-1.5-4.2-3.1-6q-0.6-0.7-1.3-1.4-0.5-0.5-1.1-1.1-0.5-0.6-0.9-1.1c-0.5-0.7-1-1.2-1.5-1.6l-0.4-0.2c-0.8-0.5-2-1.3-2.4-2.7-0.2-0.1-0.6-0.4-0.8-0.6-0.6-0.4-1.1-0.8-1.5-1.3-0.3-0.4-0.6-0.6-1.1-1q-0.4-0.2-0.9-0.6c-0.6-0.5-1.4-1.1-1.7-1.8q-0.4-0.2-0.7-0.6 0 0 0-0.1c-1.3-0.4-2.2-1.5-3-2.4-0.4-0.3-0.7-0.6-0.9-0.8-1.1-0.9-1.3-1.9-1.2-2.9 0-0.1 0-0.1-0.2-0.4-0.2-0.2-0.4-0.6-0.5-1.1l0.1-0.8c-1.2-0.8-1.6-1.8-2-2.6q-0.2-0.4-0.4-0.9c-0.1-0.1-0.6-0.6-0.9-0.9-1.1-1.1-2.1-2.1-2-3.3l0.6-0.5q-0.1-0.2-0.2-0.4-0.1-0.2-0.1-0.4l-0.6 0.1c-1.3-1.6-1.9-2.3-3.5-3.1q-0.4-0.3-0.8-0.5c-0.2-0.2-0.5-0.4-0.7-0.4q-0.3-0.1-0.8-0.1c-0.4 0-0.9 0-1.3-0.1-0.8-0.1-1.4-0.6-1.9-1-0.2-0.1-0.5-0.3-0.6-0.4l-0.3-1.2q-0.4-0.1-0.6-0.2l-0.2-0.1c0 0-0.1 0-0.2 0.1l-0.3 0.1-0.7 0.2c-1.2 0-1.6-1.1-1.7-1.7-0.1-0.1-0.2-0.4-0.2-0.4 0 0 0.2 0.2 0.4 0.3l-0.7-1.1q-0.7-0.4-1.3-1.3 0-0.1 0-0.1c-0.4 0.1-0.8 0.2-1.5 0.2-1.8 0-3-0.9-3.1-2.3v-0.2c0-0.2 0-1.2 0-1.3h0.3q-0.6-0.4-0.9-1.1c-0.4-0.8-0.3-1.7 0.2-2.5 0.1-0.2 0.4-0.6 0.5-0.6q-0.1-0.1-0.1-0.3c-0.3-1-0.6-2.2 0.3-3.5q0.4-0.5 0.8-1 0.4-0.6 0.9-1.2c0-0.1 0.1-0.2 0.2-0.5 0.6-1 1-1.6 1.6-1.9l0.4-0.1v-0.1c-0.1-0.5 0.1-1.2 0.3-2.1 0.4-1.3-0.4-3.1-1.3-4.4-0.3-0.5-0.6-0.8-1.2-1.1q-0.1-0.1-0.3-0.2-0.2-0.1-0.5-0.2-0.4 0-1 0c-1.3 0-3.3-0.2-3.3-0.2l-0.5-0.1c-3.3-1.6-3.9-5-4.1-7.5-0.2-1.5-0.4-2.1-0.6-2.3q-0.3 0-0.7 0c-1.3 0-2.1-0.5-3-1.1q-0.1-0.1-0.3-0.2-0.3-0.1-0.7-0.1c-1.1-0.1-2.7-0.3-3.5-1.7-0.5-1-1.2-2-2-2.9l0.3-1.2q-0.1 0-0.2 0c-0.6 0-1.4-0.4-1.7-1.4-0.2-0.7-0.1-1.4-0.1-2 0-0.4 0-0.7 0-1-0.1-0.3-0.2-0.6-0.4-1q-0.1-0.3-0.3-0.7v-0.1c-0.3-0.6-0.8-1.8-0.1-2.8 0.3-0.3 0.6-0.6 1-0.7q-0.1-0.3-0.2-0.7-0.4-0.9-0.2-1.6c-0.5 0-1-0.1-1.4-0.3l-0.4-0.1q-0.3 0-0.7-0.1c-0.2 0.7-0.7 1.2-1.6 1.2q-0.5 0-0.9-0.2c-0.9-0.5-1.3-1.4-1.6-2.2-0.1-0.2-0.2-0.5-0.3-0.7-0.4 0.2-0.8 0.4-1.3 0.4-0.5 0-1.1-0.1-1.6-0.7q-0.4-0.5-0.7-1-0.2-0.2-0.3-0.4l-1.3-1.7q-0.3-0.4-0.6-0.7c-0.5-0.8-1.2-1.6-1.6-2.5q-0.2-0.5-0.4-0.9c-0.2-0.6-0.3-1-0.6-1.3l-0.1-0.1c-0.6-0.7-0.7-1.4-0.7-1.9q-1.5-0.6-2.8-1.5c-1.6-1.1-2.2-2.1-2.8-3.2q-0.3-0.5-0.6-1c-0.3-0.6-0.8-1.1-1.3-1.6-0.6-0.7-1.3-1.3-1.8-2.2q-0.5-0.8-0.3-1.5c-0.5-0.5-0.8-1.1-1-1.7-0.2-0.3-0.3-0.6-0.4-0.7-0.1-0.2-0.4-0.3-0.6-0.5q-0.3-0.2-0.7-0.4c0 0.1-0.2 0.7-0.2 0.7q0 0.1-0.1 0.5c-0.1 1-0.4 2.8-2 3.1q-0.2 0-0.5 0c-1 0-2.1-0.5-2.9-0.9l-0.5-0.2q-0.3-0.1-0.8-0.3c0.3 0.7 0.1 1.5-0.3 2.2-0.4 0.6-1.1 1-1.7 1-0.8 0-1.6-0.5-1.8-1.5-0.4-0.6-0.4-1.3-0.1-1.9 0.4-0.8 1.2-1.3 2-1.3q0-0.1 0-0.2-0.1-0.1-0.2-0.1c0.1 0 0.3 0.2 0.5 0.2v-0.1l-1.2-1c-0.3-1.2 1.1-1.9 1.2-2 0.5-0.2 0.6-0.5 0.6-2 0-1.3 0-2.9 1.2-4 0.2-0.3 0.7-0.6 1.4-0.6q0.2 0 0.6 0.1 0 0 0.1 0 0.3-0.2 0.5-0.3c-0.3-0.4-0.5-0.9-0.6-1.3-1.1-1.5-0.6-2.9 0-3.9-0.2-0.4-0.6-0.8-0.9-1.1l-0.6-0.8c-1.4-1.6-2.9-3.4-3.3-5.7 0-0.4 0-0.8 0-1.1q0 0 0-0.1-0.9-0.2-1.3-0.9c-0.5-0.8-0.2-1.7 0-2.2 0.1-0.3 0.1-0.5 0.2-0.6q0-0.6-0.1-1.3c0-0.5 0-1.2 0.1-1.9 0-0.6 0-0.7-0.4-1.1q-0.1-0.1-0.3-0.3c-0.6-0.5-1.6-1.4-1.5-2.8 0-0.6 0.2-1.1 0.3-1.4 0.2-0.5 0.2-0.5 0.1-0.7-0.3-0.8-0.9-1.6-1.6-2.5-0.8-0.9-1.6-1.9-2.1-3.2-0.7-1.7-1-3.1-0.7-4.5 0.1-0.6 0.3-1 0.5-1.4 0.1-0.4 0.2-0.7 0.2-0.9 0.1-0.3 0-0.6 0-0.9-0.2-0.6-0.3-1.3 0.2-2q0.4-0.4 1-0.5 0-0.2 0-0.4 0-0.4 0-0.7h-0.2c-0.7 0-2.3-0.9-2.8-1.8q-0.4 0-0.8-0.1-0.8-0.2-1.7-0.3-0.8-0.2-1.6-0.4c-1-0.2-1.6-0.7-2.1-1.1q-0.3-0.3-0.7-0.5c-1.4-0.3-1.7-1.2-1.7-2 0-0.5 0-0.9 0.1-1.4 0.1-0.8 0.1-0.9-1.4-1.7l-0.3-0.1q-0.4-0.2-1-0.6c-0.4-0.2-0.9-0.6-1.3-0.8-0.5 1-1.2 2.2-2.7 2.4q-0.1 0-0.3 0c-1.7 0-3.3-1-4.3-1.7-1.3-0.8-2.4-1.7-3.6-2.6l-0.5-0.5c-0.4-0.3-0.8-0.7-1.2-1.1-0.6-0.6-1.1-1.2-1.6-1.3q0 0.3-0.2 0.8c-0.2 0.3-0.7 0.8-1.7 0.8q-0.2 0-0.4 0-0.4 0-0.7-0.2c-0.2 0.7-0.8 1.1-1 1.3q-0.1 0-0.2 0.1c-0.3 0.8-0.3 1.8-0.4 2.8-0.1 1.1-0.2 2.2-0.6 3.3-0.4 1.6-0.3 3-0.2 4.7q0.1 0.7 0.1 1.4 0.2 0 0.3 0.1c0.7 0.2 2.4 0.7 2.5 3 0 1.1-0.1 2.1-0.3 3q-0.2 0.9-0.2 1.8c-0.1 0.7 0.1 1.4 0.3 2.2q0.2 0.8 0.3 1.6c0.2 1.5-0.1 2.9-0.4 4.1-0.3 1.2-0.5 2.3-0.3 3.4 0.5 2 2 4 3.9 5.5l0.5 0.6c0.3 0.6 0.1 1.3 0 1.8q0.3 0.1 0.5 0.3c0.3 0.2 0.4 0.3 0.6 0.3 1.8 0.3 2.3 1.3 2.6 1.9q0.1 0.3 0.3 0.6c0.5 0.8 1.3 1.4 1.9 2 0.9 0.9 1.8 1.7 2.6 2.6q0.8 0.9 1.7 1.9l0.4 0.3c0.8 0.8 1.7 1.6 2.3 2.6 0.4 0.7 0.6 1.3 0.8 1.9 0.1 0.5 0.3 0.9 0.5 1.2l0.3 0.4q1.7 2.8 2 3.1l-0.8 0.7v0.3l0.5 0.8q0.4-0.2 0.9-0.2 0.3 0 0.6 0.1c1.5 0.7 1.6 2.3 1.6 3.2q0 0.2 0.1 0.4 0.2 0 0.4 0 0.3-0.1 0.6-0.1c2.1 0 2.4 1.8 2.6 2.7l0.1 0.3c0.3 1.4 0.4 2.7 0.3 3.9v0.2c0 0.3 0 0.8 0.1 0.9 0.4 0.7 0.8 0.9 1 0.9q0.1 0 0.1 0c0.2 0 0.4 0 0.6 0q0.5-0.1 1-0.1 0.4 0 0.7 0c2 0.5 1.6 2.8 1.4 4.3 0 0.4-0.1 1-0.1 1.4q0.1 0.1 0.2 0.2c0.5 0.6 1.2 1.4 1.4 2.7q0 0.7 0 1.3c-0.1 0.5-0.1 0.8 0 1.2q0.3 0.2 0.5 0.5c0.7 1 0.2 2.5-0.2 3.7 0.3 0.3 0.6 0.6 0.8 1.2 0.1 0.5 0 0.9 0 1.2 0.9 0.6 1.3 1.2 1.7 2.1q0.1 0 0.1 0 0.4 0.1 0.8 0.2c1.7 0.8 4.1 2.1 4.4 4.7q0 0.6 0 1.2c0 0.7 0.1 1.3 0.3 1.8q0.1 0.3 0.3 0.5c0.4 0.6 0.9 1.5 0.8 2.6 0 0.6 0.6 0.9 2.9 1.5 0.8 0.2 1.5 0.4 2.1 0.7l0.9 1.4c-0.2 1.5-1.5 1.9-2 2.1 0 0.3 0.3 0.6 0.7 1.1q0.1 0.3 0.3 0.5c0.3-0.3 0.7-0.4 1.2-0.4 0.8 0 1.4 0.5 1.8 0.9 0.4 0.4 0.9 0.8 1.5 1.2 0.8 0.6 1.7 1.2 2.4 2.1 0.9 1.1 0.7 2.5 0.6 3.4 0 0.4 0 1 0 1.2 0.2 0.1 0.4 0.2 0.7 0.2 0.5 0.2 1.3 0.4 1.7 1.3 0.3 0.9-0.2 1.8-0.4 2.2q-0.2 0.3-0.2 0.4 0 0.1 0.3 0.3c1.1 0.9 1.2 1.6 1 2.8q0 0.3-0.1 0.7c-0.1 0.5-0.1 0.9 0 1.1q0.1 0.3 0.2 0.6c0.3 0.5 0.6 1.2 0.7 1.9q0.1 0.6 0 1c0.5-0.8 1.6-1 2.1-1.1q0.2 0 0.3 0 0.2-0.1 0.5-0.1c0.5 0 1 0.3 1.4 0.7 0.6 0.7 0.7 1.8 0.6 2.6l-0.5 0.9q-0.5 0.4-1.1 0.4-0.1 0-0.2 0-0.3 0.7-0.6 1.4l-0.1 0.1v0.1c-0.2 0.8-0.5 2-1.5 2.4 0.4 0.5 0.6 1.1 0.7 1.6q0.2 0.4 0.4 0.9c0.2 0.4 0.5 0.7 1.1 0.9 2 0.8 2 2 1.7 3 0 0.2-0.1 0.4 0 0.7 0 0.5 0.2 1 0.6 1.6q0.1 0.3 0.2 0.6c0.4 0.8 0.5 1.6 0.6 2.3q0 0.3 0.1 0.7c0.1 0.8 0.6 1.7 1.1 2.3q0.1 0.2 0.4 0.4 0.2 0.1 0.3 0.2 0.1 0 0.1-0.1l2.3-0.1c0.1 0.1 0.5 0.4 0.8 0.6 1 0.8 1.5 1.3 1.7 1.9q0 0.2 0.1 0.4c0.8 2.6 0.9 3.1 0.5 3.8l-1.1 0.6-0.2 0.1c-0.5 0-1.1-0.4-1.6-0.8 0 0.6-0.1 1.2-0.1 1.7l-0.1 0.1c-0.2 1-0.7 1.6-1.1 2.2q-0.3 0.4-0.5 0.8c-0.3 0.4-0.2 1 0.1 1.9 0.5 1.2 0.5 2.1 0.5 3.1q0.1 0.3 0.1 0.7c0 0.5 0.2 0.7 1.2 1.4l0.5 0.4c0.9 0.7 1.3 1 2.2 1.2 0.5 0 1 0.2 1.4 0.6q0.1 0 0.1 0 0-0.2-0.1-0.3c0-0.5-0.1-1.4 0.2-2.2-0.7-0.4-1.2-1.1-1.4-1.8-0.3-0.8-0.7-2.4-0.4-3.7l1.5-1c1.4 0.2 3 3.2 3 3.4v0.5q0 0.1 0 0.2c0 0.3 0 0.8-0.1 1.3q0.3 0.1 0.7 0.4c0.6 0.5 0.9 1.2 1 1.8q0.6 0.7 1.1 1.2c0.2 0.2 0.4 0.3 0.7 0.5 0.5 0.4 1.1 0.8 1.6 1.3-0.5-1.5-0.5-2.8 0-3.9l1.4-0.9c0.9 0.1 1.4 0.9 2.2 2.5 2 4.1 1.7 4.6 1.4 5.1l-1.3 0.6c0.7 0.8 0.6 2.1 0.5 2.8-0.1 0.3-0.1 0.7-0.1 1 1 1.1 1.6 2 1.5 4 0 0.8 0.1 1.2 0.3 1.4 0.1 0.2 0.5 0.3 1 0.4 0.8 0.2 2 0.4 2.7 1.6 0.7 1 1.2 2.6 1.3 2.9q0.3 1.4 0.1 3c-0.3 2.1-1.2 4.1-2.5 5.5-0.9 0.9-1.9 1.2-2.8 1.5-0.8 0.3-1.2 0.5-1.5 0.9-1.2 1.7-3.4 3.6-5.8 3.6q-0.8 0-1.6-0.4c-3-1.2-3.4-4.8-3.6-6.5l-0.1-0.8c-0.2-1.8-0.4-3.6-1.3-4.9-0.7-1-1-2-1.3-3-0.5-1.4-0.8-2.2-1.9-2.8q-0.7-0.3-1.3-0.6c-1.6-0.8-3.3-1.6-4.5-3.9-0.6-1.2-1.1-1.8-2-2.3-1-0.5-2.1-1.2-2.6-2.4-0.6-1.4-1.1-2.5-2.2-3.5-1.9-1.9-4.3-3.6-6.2-4.9-0.6-0.4-1.4-0.5-2.3-0.7-0.9-0.2-1.8-0.3-2.8-0.8q-0.4 0.3-1 0.3-0.3 0-0.5-0.1c-1.6-0.3-2.6-1.4-3.5-2.5-0.5-0.5-0.9-1.1-1.3-1.3-0.5-0.3-0.7-0.6-0.9-0.9q-0.2 0.1-0.5 0.1l-1.1-0.4c-0.6-0.6-0.9-1.3-1.1-1.9-0.1-0.3-0.2-0.6-0.3-0.7-1.2-1.1-0.7-2.1-0.4-2.7 0-0.2-0.2-0.5-0.2-0.7q0-0.1 0-0.1-0.1 0-0.1 0c-0.4-0.2-1.2-0.5-1.6-1.3-0.5-1.3 0.3-2.5 1-3.6 0.2-0.3 0.5-0.7 0.5-0.9 0 0 0-0.2 0.1-0.4 0.2-1.6 0.4-2.8 1.4-3 0-0.6 0.2-1 0.5-1.4l0.2-0.3c2.7-4.5 2.1-10.5 0.5-14.6q-0.1-0.3-0.2-0.7c-0.3-0.8-0.7-1.8-1.2-2.2q-0.1-0.1-0.3-0.3c-0.5-0.3-1.4-0.8-1.6-1.8-0.2-0.8-0.1-1.6 0-2.2 0-0.6 0-1.1 0-1.5q-0.1 0-0.1-0.1c0 0-0.4 0-0.4 0-0.5 0-1.6 0-2.5-0.8l-0.2-0.2c-0.4-0.4-0.5-0.5-0.7-0.5h-0.3c-0.9-0.1-2.3-0.2-3.2-1.6-0.2-0.3-0.5-0.6-0.8-1-0.5-0.6-1.2-1.3-1.5-2.2-0.1-0.1-0.2-0.2-0.4-0.2-0.4-0.1-0.9-0.2-1.5-0.6-0.4-0.4-0.8-0.8-1-1.2-0.3-0.3-0.4-0.6-0.6-0.7-0.4-0.2-0.7-0.5-0.9-1-0.4-0.2-0.8-0.5-1-0.8q-0.1 0-0.1-0.1 0 0 0 0c-0.5-0.1-1.3-0.4-1.7-1.2-0.6-0.3-1.1-0.7-1.7-1.1-0.4-0.3-1.2-0.9-1.5-0.9q0 0.2-0.1 0.4c-0.1 0.3-0.6 1.4-1.9 1.4q-0.4 0-0.9-0.2-1-0.4-2.1-1.1c-1.4-1-1.9-2-2.4-3.3-0.4-0.9-1-1.6-1.6-1.9-0.1 0-0.2 0.1-0.3 0.1-0.3 0.2-0.7 0.4-1.2 0.4-0.5 0-0.9-0.1-1.2-0.4-0.8-0.7-1.2-1.7-1.7-2.5-0.6-1.2-1-1.8-1.7-2q-0.2 0-0.4 0-0.3 0-0.6 0-0.4 0-0.8 0c-0.8 0-2-0.1-2.9-1.1-0.8-0.9-2-2.7-1.8-4.2 0.2-1.3-0.1-2.1-1-2.7-0.3-0.2-0.7-0.4-1.1-0.6-0.8-0.4-1.8-0.8-2.5-1.6-0.4-0.5-0.5-1-0.6-1.4q-0.1-0.1-0.1-0.2 0 0-0.1 0c-0.4-0.1-1.3-0.4-1.6-1.3q-0.2 0-0.4-0.2c-0.7-0.2-1.1-0.8-1.3-1.1q0-0.1 0-0.1-0.1 0-0.1 0c-0.3-0.1-0.6-0.2-0.9-0.5-0.8-0.6-0.7-1.5-0.6-1.9q0-0.1-0.1-0.1c-0.3-0.4-0.8-1.1-0.7-2l1.2-1.3q0.2 0 0.4 0c0.7 0 1.2 0.3 1.5 0.5q0.1 0.1 0.2 0.1l0.4 0.1c0 0 0.1 0 0.4 0h0.6c0.5 0 1.2 0.1 1.8 0.5 0.2 0.1 0.5 0.2 0.9 0.3 0.4 0.1 0.9 0.3 1.4 0.5q0.3 0.2 0.6 0.3c0.5 0.3 0.9 0.5 1.3 0.6 0.7 0.2 1.3 0.3 1.8 0.3 0.5 0 0.8-0.2 0.9-0.3q0.2-0.1 0.4-0.3c0.6-0.7 1.5-1.6 2.6-1.6 0.4-0.9 1.3-1.6 2-2.1l0.4-0.3 0.2-0.1-0.1-0.2c1.1-0.7 1.8-1.5 1.9-2.1 0 0 0-0.2-0.2-0.4q-0.1-0.1-0.2-0.2c-0.4-0.3-1-0.8-1-1.7-0.1-0.3 0-0.9 0.6-1.5q0.2-0.3 0.5-0.5c0.2-0.2 0.5-0.5 0.6-0.6 1.4-2.6 1.1-3.3 1.1-3.3-1.1-0.7-1.1-1.8-1.1-2.3q0-0.1 0-0.1 0 0 0 0-0.4 0-0.8-0.1c-2-0.3-2.9-2.6-3.7-4.5-0.3-0.6-0.5-1.2-0.7-1.5q-0.2 0-0.4 0h-0.2q-1.6-0.1-2-2.2 0-0.1 0-0.2c-0.1-0.1-0.2-0.2-0.3-0.3-0.3-0.4-0.6-0.8-0.8-1.5-0.1-0.3-0.2-0.7-0.3-0.9q0 0-0.1 0c-0.4 0-1.2-0.2-1.7-1.1-0.2-0.4-0.3-0.8-0.4-1.1-0.2-0.4-0.2-0.5-0.3-0.6q-0.4-0.4-0.8-0.7c-0.5-0.4-1.1-0.9-1.5-1.5-0.7-0.9-1.1-1.3-1.8-1.6-0.1-0.1-0.5-0.2-0.8-0.2-1-0.2-1.9-0.3-2.5-1q-0.6-0.8-1.3-1.6c-1.3-1.3-3.1-2.8-4.4-3.3-1-0.4-1.7-1.2-2.2-1.9-0.3-0.3-0.6-0.7-0.9-0.9-0.5-0.4-1.6-1.2-1.7-2.6-0.1-0.6 0.1-1.1 0.2-1.4q0-0.1 0-0.2c-0.2-0.3-0.4-0.4-0.6-0.6-0.7-0.6-1.8-1.5-1-3.7 0.5-1.4 0.4-3.8 0.1-5.3l-0.1-0.5c-0.1-0.3-0.2-0.8-0.3-1q0 0 0 0c-0.1 0-0.4 0-0.6 0-0.4 0-0.7 0-1.2-0.2l-0.9-1.4c-0.7-0.2-1.1-0.7-1.2-1.4-0.1-1.1 0.2-2.1 0.5-3 0.2-0.8 0.4-1.5 0.3-2.1-0.1-1.3-0.4-1.9-0.6-2.1-0.2-0.2-0.6-0.5-0.9-0.7-0.6-0.4-1.2-0.8-1.7-1.5-0.5-0.7-0.9-1.1-1.5-1.4-0.5-0.2-0.8-0.6-1-1-0.4-0.9 0.1-1.8 0.3-2.4q0.1-0.1 0.1-0.2c0.6-1.5-1.2-4.8-2.1-6.5q-0.4-0.7-0.7-1.3c0 0-0.1-0.1-0.4-0.2-0.5-0.3-1.3-0.7-1.7-1.7-0.1-0.1-0.2-0.2-0.3-0.3-0.3-0.4-1.3-1.5-0.3-3 0.4-0.6 0.5-0.8-0.6-1.9l0.4-2.3q0.4-0.2 0.9-0.2 0.4 0 0.7 0.1 0-0.1-0.1-0.2c-0.2-0.2-0.4-0.3-0.7-0.5-0.6-0.3-1.3-0.7-1.8-1.4-0.1-0.2-0.3-0.3-0.6-0.5-0.4-0.3-0.9-0.7-1.2-1.3-0.6-1.1-0.5-2.3-0.4-3.3 0-0.8 0.1-1.3-0.1-1.5-0.2-0.2-0.5-0.3-0.9-0.5-0.7-0.4-1.8-0.9-2.3-2.4q-0.1-0.1-0.2-0.4c-1.1-2.8-1.7-4.7-0.9-5.9 0.4-0.5 1-0.9 1.7-0.9-0.4 0 48.8 0.2 48.8 0.2l1.3 2c0 0 0 0.2 0 0.3-0.1 0.4-0.1 1-0.5 1.6l-0.3 0.3c-0.3 0.2-0.6 0.4-0.8 0.6q-0.2 0-0.4 0.2 0 0 0 0 0 0 0 0l71.8 32.2c0.4 0.2 0.9 0.4 1.4 0.7 0.8 0.4 1.8 1 2.4 1.1l47.5 4.5 0.3 0.5 7.4 0.7q0.5 0.1 0.9 0.1l0.2-1.9c1.3-8.3 1.3-8.3 2.6-8.3l0.6 0.1 34.3 3.2 0.4 0.2c0.5 0.2 0.9 0.3 1.3 0.4 1.4 0.5 2.8 0.9 3.6 3.6q0.2 0.5 0.4 1.1c0.3 1.4 0.7 2.7 1.6 3.5 0.7 0.7 1.6 1.3 2.6 1.9 1.1 0.6 2.2 1.3 3.2 2.2 0.8 0.8 1.4 1.8 1.8 2.6q0.3 0.4 0.5 0.8c0.2 0.3 0.7 0.7 1.2 1q0.3 0.2 0.6 0.4c1.1 0.7 1.8 1.8 2.4 2.8 0.4 0.6 0.8 1.1 1.2 1.6 1.1 1.1 2.1 1.9 3.5 2.6 1.9 1 3.7 2.4 5 4q0.4 0.4 0.6 0.8c0.2 0.3 0.4 0.5 0.5 0.6 1.3 0.9 1.7 1.9 2 3.1 0.6 2.6 1 4 2.5 5.8 1.4 1.6 0.9 3.5 0.5 4.9-0.1 0.4-0.3 0.8-0.3 1.2-0.1 0.6 0.1 1 0.6 1.9q0.1 0.3 0.3 0.6c0.4 0.8 0.7 1.7 1.1 2.5q0.2 0.6 0.4 1.2c0.9 2 1.8 3.1 3.9 4.2 1.7 1 2.5 2.2 3.3 3.4q0.3 0.5 0.7 0.9c0.9 1.3 2.4 1.6 4.2 2.1q0.5 0.1 1 0.2c1.2 0.4 1.5 1.3 1.7 1.9 0.1 0.1 0.2 0.3 0.2 0.4l0.2 0.1c0.2 0.2 0.6 0.3 1.2 0.3 0.6 0.1 1.3 0.1 2 0.4 0.9 0.5 1.5 1.3 1.9 2 0.2 0.3 0.4 0.6 0.6 0.8q0.7 0.7 1.8 1.2l1-0.1c0.4 0.2 0.8 0.3 1.2 0.3 0.5 0 0.7-0.2 0.8-0.3q0.1-0.2 0.2-0.4c0.3-0.5 0.7-1.2 1.8-1.6 0.4-0.2 0.6-0.4 0.7-0.6 0.7-1.2 1.2-1.4 2.2-1.7h0.1c-0.2-1.7 0.6-2.6 1.2-3.4q0.3-0.4 0.6-0.9c0.4-0.5 0.7-1.2 1.1-1.9 1.2-2.5 2.8-6 6.3-6 0.6 0 1.2 0.2 1.8 0.4 0.2 0.1 0.6 0.2 0.8 0.3q0.1-0.2 0.2-0.5c0.4-0.7 1-2.1 2.6-2.1q0.5 0 1.1 0.2c0.8 0.3 1.4 0.9 2 1.3q0.5 0.5 0.9 0.7c0.5 0.3 1.6 0.3 2.1 0.3h1.1c1.3 0.1 2.7 0.1 4.2 0.5 0.5 0.1 1.1 0.4 1.6 0.6 0.5 0.2 0.9 0.5 1.3 0.5 0 0 0.2-0.1 0.3-0.1 0.3-0.2 0.8-0.3 1.3-0.3q0.3 0 0.7 0.1 0.3 0.1 0.6 0.2c0.3 0.1 0.5 0.2 0.7 0.2 2 0.2 2.2 2.1 2.2 2.8 0.1 0.1 0.1 0.3 0.1 0.4q0.2 0.2 0.3 0.3c0.3 0.2 0.5 0.4 0.6 0.6q0.1 0 0.1 0l1.1 0.5c0.5 0.5 0.5 1.2 0.5 1.7q0 0 0 0c0 0 0.2 0.1 0.6 0.3q0.4 0.2 0.9 0.4 0.5 0.3 1.1 0.6c1 0.5 1.3 1.4 1.4 1.9q0.1 0.2 0.1 0.4c0.3 0.6 0.9 1 1.6 1.5 0.8 0.6 1.7 1.3 2.3 2.4 0.3 0.5 0.4 1.1 0.5 1.6 0.1 0.2 0.1 0.6 0.2 0.7q0.2 0.2 0.5 0.4c0.7 0.5 1.6 1.2 1.8 2.6 0.1 0.6 0.2 1.2 0.2 1.7 0 0.6 0 1.2 0.2 1.7q0.4 0.6 0.7 1.1c0.3 0.5 0.7 0.9 0.9 1.5 0.4 0.7 0.5 1.3 0.6 1.9 0.1 0.4 0.1 0.8 0.3 1.1 0.2 0.5 0.5 1 0.8 1.6q0.2 0.4 0.5 0.8c0.6 1.2 0.8 2.2 0.9 3.2q0 0.3 0.1 0.7c0 0.2 0.2 0.6 0.3 0.9q0.2 0.6 0.4 1.2c0.2 0.7 0.8 1.2 1.6 1.8 0.6 0.5 1.2 1 1.7 1.7 0.6 0.8 1.1 1.7 1.5 2.5q0.3 0.7 0.6 1.3 0.4 0.7 0.9 1.4c0.4 0.6 0.9 1.2 1.2 2q0.1 0.1 0.3 0.4c0.3 0.4 1 1.4 1 2.3 0.2 0.4 0.5 0.7 0.7 0.9 0 0-0.2-0.1-0.4-0.1 0.3 0.1 0.5 0.2 0.6 0.3q0.1 0.1 0.3 0.2c2.7 1.4 4 3.3 4.2 6.1 0.1 1.1-0.3 2-0.7 2.7q-0.2 0.2-0.3 0.5 0.1 0.1 0.2 0.3 0.3 0.2 0.5 0.5l0.2 0.2c0.6 1.3 0.3 2.5 0.1 3.4-0.3 1.1-0.3 1.3 0.1 1.6 1 0.8 1.2 1.7 1.5 2.6 0.2 0.8 0.6 1.6 1 2.4l0.3 0.6c0.5 1 1.1 2.2 1.2 3.5q0.1 0.6 0.1 1.1c0 0.5 0 1 0.1 1.3q0 0.1 0.1 0.2c0.4 0.3 1.3 1 1.2 2.2q-0.1 0.3-0.1 0.6 0 0.1-0.1 0.2c0.2 0.1 0.4 0.1 0.6 0.1 0.3 0 0.7 0 1.2 0.2q1.1 0.3 2.1 0.7c1.7 0.6 2.4 1.5 3.1 2.4q0.3 0.4 0.7 0.8c0.1 0.1 0.4 0.2 0.9 0.3q0.3 0.1 0.6 0.1c0.6 0.2 1 0.4 1.4 0.6 0.3 0.2 0.6 0.4 0.8 0.4 2 0.2 2.7 1.4 3.2 2.2 0.3 0.5 0.5 0.8 0.9 1.1 0.4 0.2 1 0.3 1.8 0.3q0.4 0 0.8 0.1c0.6 0 1.2 0.2 1.7 0.4 0.4 0.2 0.8 0.3 1.1 0.3h0.3q0.6 0 1.3 0.1c2.1 0.1 4.7 0.2 6.3 2.4l0.1 0.2c0.6 0.8 2.2 3 3.1 3.2 0.6-1.2 1.5-1.5 2.3-1.8 0.6-0.1 1.1-0.2 1.6-0.2 0.4 0 1.1-0.1 1.2-0.2l2.4 1.4-0.1 0.2c-1.3 4.3-2.5 8.4-5 12.3-0.5 0.8-1.1 1.5-1.6 2.3-0.8 1-1.5 2-2.1 3-0.4 0.9-0.8 1.9-1.2 2.9q-0.6 1.3-1.2 2.6l-1.4-0.6q-0.1 0.3-0.3 0.7-0.3 0.5-0.6 0.9l1.8 0.6c-0.7 2.7-1.4 4.9-2.3 7.2-0.3 0.8-0.4 1.7-0.6 2.6-0.1 0.8-0.3 1.6-0.5 2.5q-0.3 0.9-0.6 1.8c-0.3 1.1-0.7 2-0.9 3-0.7 2.8-1 5.7-1.4 8.5v0.2q-0.2 2.2-0.5 4.4-0.2 2.9-0.6 5.7c-0.1 1-0.1 2.1 0 3.2q0 0.9 0 1.7c0 2.3-0.8 4-1.6 5.5l-0.4 0.7c-0.6 1-1.1 2-1.4 3 0 0.1 0.2 0.4 0.3 0.6 0.2 0.4 0.5 1 0.6 1.7 0.1 1 0 2 0 2.9q0 0.5 0 0.9c0 0.5 0 0.9 0.1 1.4q0.1 0.5 0.1 1.1l0.9 0.9-0.1 0.4c-0.1 0.9-0.1 1.7 0.1 2.4q0.1 0.5 0.4 1c0.2 0.6 0.5 1.3 0.7 2.1 1 0.4 1.6 1.7 2.1 2.7q0.1 0.2 0.1 0.3l0.3 0.6c0.6 1 1.2 2.2 2 2.8 1 0.7 2.9 1.9 2.2 4.5-0.2 0.8-0.5 1.7-1.2 2.5-0.2 0.3-0.3 0.5-0.5 0.9-0.1 0.4-0.3 0.8-0.6 1.2l-0.1-0.1-0.1 0.1q0.1 0.6 0.2 1 0 0.3 0.1 0.6c0.3 1.6 0.9 3 1.5 4.5q0.5 1.1 0.9 2.2c0.4 0.9 0.5 1.8 0.6 2.6 0.2 1.2 0.3 2.2 1 2.9 0.5 0.6 0.8 1.2 1 1.7 0.1 0.3 0.2 0.6 0.4 0.8q0.3 0.4 0.8 0.7c0.5 0.5 1.2 1.1 1.7 2q0.4 0.9 0.9 1.9c0.6 1.2 1.2 2.5 2 3.5l0.5 0.7c1 1.4 2.1 2.8 3 4.4 0.2 0.3 0.3 0.6 0.4 0.9 0.1 0.4 0.2 0.4 0.4 0.6 0.7 0.6 1.4 1.4 1.8 2.3 0.6 1.4 0.8 3 0.6 5.1-0.1 0.8 0 1.5 0.1 2.1 0 0.1 0.1 0.3 0.3 0.6 0.3 0.3 0.6 0.8 0.8 1.4 0.3 0.8 0.3 1.5 0.4 2.1 0.1 1 0.1 1.3 0.8 1.8q0.4 0.2 0.7 0.4c0.8 0.4 2 1 2.1 3 0.1 1.4 0.1 1.4 1.1 1.6 1.3 0.2 1.3 1.5 1.3 2.5 0.1 0.3 0.1 0.5 0.1 0.6q0.1 0.3 0.3 0.6c0.3 0.5 0.8 1.3 0.8 2.2 0.4 0.2 1 0.5 1.3 1.1 0.5 0.6 0.7 0.8 1.1 1 1.3 0.5 2.6 0.6 4.1 0.7l1 0.1q0.6 0 1.2 0.1c2 0.1 4.4 0.2 5.9 1.7q0.8 0.8 1.6 1.6c0.4 0.5 0.6 1 0.7 1.4 0 0.1 0.1 0.2 0.1 0.3 0.2 0 0.7 0 1.2 0 0.7 0 1.7 0 2.6 0.5l0.2 0.2c1 0.7 1.1 1.4 1.2 2 0.1 0.2 0.1 0.3 0.2 0.5 0.2 0.8 0.6 1.4 1 2.1 0.6 0.9 1.1 1.8 1.5 3 0.2 0.7 0.7 1.4 2.5 1.4 1.6 0 3.4-0.5 4.9-1 0.3-0.3 0.9-0.5 1.7-0.6q0.1 0 0.2 0c0.7-0.2 1.3-0.4 2-0.5q0.5-0.1 0.8-0.1c0.9 0 1.3 0.5 1.6 0.9 0.1-0.1 0.4-0.5 0.5-0.6 0.3-0.4 1-0.9 2-0.9 0.4 0 0.8 0.1 1.1 0.2q0.3 0 0.4 0 0.1 0 0.1-0.1c0.2-0.5 0.6-1.7 2-1.7q0.5 0 1 0.2 0.2 0 0.4 0 0.3-0.1 0.6-0.1c0.9-0.1 1.9-0.2 2.9-0.2q1.7 0 3 0.3c0.5 0.1 1 0.3 1.4 0.7l0.3-0.2q0.7 0 1.5 0c1.4 0 2.5-0.1 3.4-0.5 0.7-0.3 1.4-0.8 2.1-1.3 1.3-0.9 2.7-1.9 4.7-2.1q0 0 0 0l0.1-0.6c1.1-0.4 2.3-0.5 3.2-0.5q0.7 0 1.3 0.1 0.7 0 1.3 0h0.4c0.2 0 0.6-0.1 1.1-0.2 1-0.1 2.4-0.3 3.4-0.3 0.6 0 2.3 0 2.8 1.4 0 0.1 0.3 0.5 0.5 0.7q0.1 0.1 0.2 0.3l0.4-0.3q0.9-0.4 1.7-0.7 0.8-0.4 1.6-0.7l0.2-0.1c0.9-0.5 1.7-0.9 2.5-0.9q0.2 0 0.4 0c0.5-0.6 1.2-1.1 1.9-1.5q0.3-0.2 0.6-0.4c0.6-0.5 1.3-1 2.2-1.2 0.5-0.2 0.9-0.2 1.3-0.3 0.5 0 0.9-0.1 1.2-0.2 0.4-0.2 0.8-0.5 1.3-0.9q0.2-0.2 0.5-0.5c0.8-0.6 1.7-1 2.5-1.4 0.9-0.5 1.7-0.9 2.3-1.6 0.6-0.6 1.3-1 1.9-1.4 0.8-0.5 1.2-0.8 1.4-1.2 0.1-0.4 0.1-0.8 0.1-1.2q0.1-0.6 0.2-1.1 0.1-0.7 0.3-1.3c0.1-0.7 0.3-1.4 0.3-2.1 0-2.3 1.2-5.1 3.6-5.4 0.6-0.2 1.8-0.6 1.9-1.8 0.1-0.6 0-1.1 0-1.8-0.2-0.9-0.3-2 0-3.2q0.2-0.8 0.4-1.5c0.3-1 0.6-1.8 0.6-2.6q0.1-0.9 0.1-1.7c0.1-1.3 0.1-2.7 0.7-4.3q0.1-0.3 0.1-0.6c0.1-0.6 0.2-1.4 0.8-2.1 0.4-0.5 0.7-0.9 0.9-1.4q0.1-0.7 0.3-1.4l0.1-0.4c0.2-0.9 0.5-1.9 1.2-2.8 1-1.2 2.1-1.4 3-1.6q0.3-0.1 0.6-0.1c1.3-0.4 2.5-0.9 3.9-1.4 1.8-0.8 3.6-1.6 5.6-1.9l7-0.9h0.5q0.7 0.1 1.7 0.1 0.9 0 1.8-0.1 0.7 0 1.4 0 1.1 0 2.2 0 1.2 0.1 2.4 0.1c2 0 4.4-0.2 6.1-1.4q2.8-2.1 5.7-2.1 0.6 0 1.2 0.1c0.6 0.1 1.1 0.4 1.5 0.6 0.1 0.1 0.4 0.2 0.5 0.2 0.2 0 0.4-0.1 0.7-0.3 0.4-0.2 0.9-0.4 1.6-0.5q0.5-0.1 1-0.1c1.2 0 2.5 0.2 3.6 0.7 0.7 0.2 1.2 0.6 1.7 0.9 0.5 0.4 0.9 0.6 1.3 0.7 0.9 0.3 1.8 0.4 2.8 0.5 0.9 0 1.8 0.1 2.7 0.3 0.5 0.1 0.9 0.3 1.2 0.5 0.7-0.6 2.2-0.9 4.9-1.4 0.5-0.1 0.9-0.1 1.1-0.2q0.5-0.1 1.1-0.1c1.5 0 4.1 0.8 4.8 2.6 0.1 0.2 0.2 0.6 0.3 1 0.1 0.2 0.2 0.6 0.2 0.8l0.1 0.1c0.2 0.1 0.3 0.2 0.5 0.2 1.5 0.6 1.5 1.7 1.3 2.8-0.1 1-0.3 2.5-0.2 3.5q0 0 0 0c0 0 0.3 0.1 0.5 0.2q0.3 0.1 0.5 0.2zm-602.8-320q0 0 0 0 0 0 0 0zm436.1 419.3q0 0 0 0 0 0 0 0zm-51.2-210q0 0.1 0 0.1c0.2 0.1 0.6 0.3 0.9 0.5q0.1-0.4 0.2-0.9 0.2-1.1 0.5-2.1c0.3-0.9 0.7-1.5 1.1-2.1l-0.5-0.1h-0.1c-0.2-0.1-0.3-0.1-0.5-0.1q-0.2 0-0.5-0.1 0 0.1 0 0.2c0.3 1.3-0.3 2.7-0.8 3.9q-0.2 0.4-0.3 0.7zm-254.3-3.7q0.1 0.2 0.1 0.4c0 0.3 0.1 0.7 0.2 0.8q0.2 0 0.4 0 0.2 0 0.4 0c-0.5-0.3-0.8-0.8-1.1-1.2zm-24.3-43.9q0 0.5 0.1 1 0.1-0.5 0.3-0.9 0-0.2 0-0.3 0-0.5 0-1 0 0.1-0.1 0.3c-0.1 0.3-0.3 0.7-0.3 0.9zm-18.9 27.1q-0.1 0.2-0.2 0.4c0.4 0.4 0.8 0.9 1 1.3l0.1 0.1c0.2 0.3 0.3 0.6 0.4 1 0.4-0.1 1-0.2 1.8-0.3 0-0.2-0.1-0.5-0.2-0.6q-0.6-1.5-1.4-3c-0.4 0.6-0.8 1.1-1.5 1.1zm404.4 177.6q0.1 0.2 0.2 0.6c0 0 0.1 0 0.1 0 1.1 0 2.2 0.6 2.6 0.9 0.6 0.4 1.5 0.6 2.3 0.8 0.2-0.7 0.6-1.1 1.4-1.5q0.2-0.1 0.5-0.2c0.5-0.5 1.1-0.8 1.7-1 0.3-0.1 0.6-0.2 0.7-0.3q0.1-0.2 0.2-0.4c0.1-0.3 0.2-0.8 0.3-1.1q-0.5-0.3-0.9-0.5c-0.4-0.3-0.5-0.3-0.7-0.3-0.4 0-0.6 0-0.8 0q-0.3 0-0.6-0.1l-0.6 0.8q-0.2 0.1-0.5 0.2c-0.3 0.1-0.6 0.2-0.7 0.3q-0.1 0.1-0.3 0.3c-0.5 0.5-1.2 1.3-2.2 1.3h-0.1q-0.5 0-0.7-0.1-0.2 0-0.3 0c0 0 0 0-0.2 0.1-0.4 0.1-0.8 0.2-1.2 0.2q-0.1 0-0.2 0zm1.6-0.3q0 0 0 0 0 0 0 0zm-113.5-79.2c0.2 0.5 0.6 0.9 1 1.4 0.3 0.4 0.7 0.9 1 1.5q0.1 0 0.2 0 0.3 0 0.4 0c-0.1-0.2-0.4-0.5-0.6-0.7q-0.3-0.3-0.5-0.5c-0.4-0.5-1-1.1-1.5-1.7z"/>
		<path id="&lt;Compound Path&gt;" fill-rule="evenodd" class="s2" d="m617.4 326.6q0.1 0 0.1-0.1c-0.1 0.1-0.2 0.4-0.3 0.6l-0.1 0.3c-0.2 0.5-0.6 0.9-0.8 1.3-0.3 0.3-0.5 0.6-0.6 0.8-0.6 2.1-1.2 3.4-3.4 4.9l-0.5 0.2c-0.2 0.2-0.9 1.2-1.2 1.7-0.3 0.4-0.6 0.8-0.8 1-0.8 0.9-1.6 1.5-2.5 2.1-0.7 0.5-1.3 1-1.9 1.5-3 3.2-5.2 6-4.9 10.1v0.4c0.1 1 0.3 2.9-1.3 3.8-0.6 0.3-1.1 0.4-1.6 0.5-0.4 0-0.4 0-0.5 0.1q-0.1 0.2-0.2 0.4c-0.2 0.6-0.6 1.4-1.5 1.8q-0.2 0.1-0.4 0.1 0 0.1 0.1 0.3 0.2 0 0.4-0.1 0.5 0 1-0.1c0.2 0 0.5-0.1 0.8-0.3 0.5-0.3 1.2-0.6 2.1-0.6q0.2 0 0.3 0l1.3 1.5c-0.1 1.3-0.4 2.9-1.5 4.2q-0.6 0.6-1.2 0.9 0.3 0.2 0.5 0.5c0.6 1.2-0.4 2.7-1.3 4.1q-0.3 0.3-0.4 0.5c-0.6 1.3-1.3 2.8-1.6 4.2q-0.1 0.6-0.3 1.1c-0.3 1.6-0.6 3.4-1.9 4.7-1 1.1-1.4 1.7-1.5 2.9q0 0.5 0 1-0.1 0.6-0.1 1.2l-0.5 0.9c-0.2 0.2-0.6 0.8-0.8 1.2l-0.2 0.4c-0.2 0.4-1.6 3.5-1.8 3.8l-0.7-0.3-0.9 1.2c-1.8-0.4-1.6-2.6-1.6-3.7q0.1-0.2 0.1-0.3c0-0.7-0.2-1.7-0.4-2q0 0 0 0c0 0-0.2-0.1-0.4-0.1q-0.4-0.2-0.7-0.5l-0.2-0.1c-1.1-0.7-1.8-1.2-1.9-2-0.2-1.2 0.6-2.3 1.5-3.3 0.2-0.3 0.6-0.7 0.7-0.9 0.1-0.3 0.1-0.6 0-1-0.3 0.3-0.6 0.5-1 0.6 0.1 1.2-0.8 2.2-1.4 2.9l-0.6 0.8c-0.4 0.4-0.8 0.8-1 1.2-0.4 0.7-1 1.1-1.8 1.1-0.3 0-0.6-0.1-0.8-0.2q-0.2 0-0.3 0-0.4 0-0.8-0.1c-1 0-1.1 0.3-1.1 0.4-0.2 1.2-0.8 1.8-1.4 2.4q-0.1 0.1-0.3 0.3c0 0.1-0.1 0.2-0.1 0.4-0.1 0.3-0.2 0.8-0.6 1.3-0.4 0.6-1 0.9-1.3 1q-0.2 0.1-0.3 0.1c0 0.1-0.1 0.4-0.2 0.7q-0.1 0.6-0.4 1.1c-0.5 1-1.4 1.7-2.1 2.3l-0.3 0.2c0 0.1-0.1 0.3-0.2 0.4-0.1 0.3-0.2 0.7-0.4 1-0.4 0.5-0.9 0.8-1.6 0.8-1 0-2-0.8-3.1-1.8q-0.2-0.2-0.4-0.3c-0.2-0.1-0.3-0.2-0.4-0.2q-0.1 0-0.4 0.1c-0.2 2.2-0.4 2.5-1.5 2.5h-0.1l-11-1c-0.7-0.1-2.5-0.2-4.8-0.4-3.9-0.4-9.5-0.9-14.1-1.3-3.1-0.3-5.2-0.5-6.6-0.7-0.2 2.7-0.4 5.5-0.7 8.1l-0.3 3.2c-0.1 1.5-1.8 1.5-2.6 1.5-1 0-2.5-0.1-3.9-0.3q0.2 0.4 0.3 0.8c0.1 0.9 0.2 1 0.8 1.6q0.2 0.2 0.5 0.5c0.7 0.8 1 1.6 1.3 2.3q0.2 0.5 0.4 0.9c0 0 0.1 0 0.2 0.1 0.2 0 0.6 0.1 0.9 0.3 1 0.4 1.3 1.3 1.4 1.8q0.1 0.1 0.1 0.2c0.3 0.2 0.8 0.2 1.3 0.3q0.4 0.1 0.8 0.2c3.4 0.7 3.4 3.5 3.4 5.2 0 1.6 0.1 2.2 0.7 2.5 0.2 0.1 0.6 0.2 0.9 0.3 1.3 0.3 3.8 0.9 3.6 3.4-0.1 1.1-0.6 2-0.9 2.8q-0.3 0.5-0.5 1c-0.1 0.4-0.1 0.7 0 1.4 0.1 0.5 0.1 1.1 0.1 1.7l-1.5 1.3-26.5-1.9c-0.6 0.8-1.8 2.7-2.3 3.5-0.3 0.5-0.5 0.9-0.6 1.1l-7.9 11.4q0.1 0.2 0.5 0.6 0.2 0.3 0.5 0.5c0.5 0.6 1.2 1.3 1.5 2.3 0.5 1.7-0.7 2.7-1.3 3.2q-0.2 0.1-0.4 0.3c0 0.1 0 0.3 0 0.5 0 0.4 0 1-0.3 1.6-0.4 1.1-0.4 1.4-0.3 2.5 0.3 2.4-1.3 4.2-2.5 5.5l-0.2 0.2h-2.1c-2.7-3.3-5.1-6.8-7.5-10.3q-1.3-2-2.7-4l-1-1.3c-0.3-0.6-0.9-1-1.5-1.5-0.7-0.5-1.4-1.1-2-1.9q-0.7-0.9-1.4-1.7c-1.5-2-3-4-4.7-5.8-1.4-1.5-3-3-4.6-4.4q-1-0.9-2-1.8-0.3-0.3-0.8-0.8c-0.6-0.7-2.5-2.7-3.2-2.9v-0.3q-0.2 0.1-0.5 0.1-0.6 0-1.1-0.3c-0.3-0.3-0.8-0.5-1.3-0.7-0.4-0.1-1-0.4-1.5-0.7-0.3-0.2-0.6-0.4-0.9-0.7-0.2-0.2-0.4-0.5-0.6-0.5q0.1 0 0.2 0l0.1-0.9-0.5 0.7c-1.3-0.2-2.5-0.6-3.6-1.1-1.1-0.5-2.2-0.9-3.3-0.9q-0.2 0-0.5 0.1c-0.4 0-0.8 0.1-1.1 0.1q-0.8 0-1.4-0.3-0.2-0.2-0.4-0.4-0.4 0-0.8-0.1h-0.2l-0.3-0.1q-0.4-0.1-0.8-0.1-0.7 0-1.4 0.2-0.5 0-1 0.1h-0.2c-0.5 0-0.9-0.1-1.3-0.2-0.3-0.1-0.6-0.1-0.8-0.1-0.1 0-0.1 0.2-0.2 0.2-0.2 0.4-0.5 0.8-1 1.1-0.6 0.5-1.3 0.7-1.9 1q-0.7 0.3-1.2 0.6c-1.2 0.7-2.4 1.2-3.9 1.5l-10.2 2.4c-0.4 0.1-1 0.5-1.5 0.9-0.7 0.4-1.4 1-2.3 1.2q-1.2 0.4-2.5 0.4-0.6 0-1.2-0.1-0.5-0.1-1.1-0.2c-0.2-0.1-0.5-0.2-0.6-0.2-0.4 0.5-1.2 1.1-2.6 1.1-2.2 0-4.8-1.5-7.1-2.9l-0.9-0.6c-1.1-0.6-2.2-1.3-3.2-2.2-1.3-1.5-2.5-1.8-4.7-2.4-1.2-0.3-2.5-0.5-3.8-0.6-1.2-0.2-2.5-0.4-3.7-0.6-2.4-0.6-3.5-1.9-4.5-3.1-0.5-0.6-1-1.2-1.6-1.7-2.4-1.8-4.3-3-6.2-3.7q-1.7-0.8-3.1-0.9c-1.6-0.1-2.9-1.7-3.7-2.7l0.1-0.4c-1.1-1-2.1-3.1-2.1-3.1q0-0.2-0.1-0.3-0.5 0.3-1.1 0.3c-1.2 0-2.6-0.8-4.3-1.9-0.4-0.3-0.7-0.5-1-0.6-1.3-0.7-3.1-1.1-4.8-1.5q-1.3-0.3-2.6-0.7l-3.6-1.1c-0.4-0.1-0.7-0.3-0.9-0.5-1.2-0.1-2.1-1-2.8-1.7-0.2-0.3-0.5-0.6-0.7-0.7l-0.5-0.8q-0.1 0-0.2 0-0.2 0-0.3 0l-0.6-0.2c-0.7-0.5-1.2-1-1.6-1.4-0.6-0.7-1-1-1.6-1.1-1.9-0.4-3.3-1.2-4.7-2l-2-1.1c-2.2-1.2-4.5-2.5-6.7-3.8l-0.4-0.3c-1.5-0.9-3-1.8-4.6-2.1-1.2-0.3-1.6-1.1-1.8-1.5 0-0.2-0.1-0.2-0.1-0.3q-0.6-0.6-1.1-1.2c-1.4-1.6-3-3.4-4.8-3.7l-0.2-0.1c-1.2-0.4-1.3-1.5-1.4-2q-0.2 0-0.3-0.1c-0.4-0.1-0.9-0.3-1.3-0.6-1.2-1-1.9-2.3-2.5-3.4l-0.3-0.5c-1.5-3-3.2-4.7-4.7-4.7q-0.6 0-1.2 0.3c-0.2 0.3-0.5 0.5-0.8 0.7l-0.1 0.1-0.8 0.3q-0.1 0-0.2 0c-1.3 0-2.5-0.7-3.5-1.3-2.1-1.3-3.9-2.2-6.2-2.4-2.6-0.3-4.6-1.7-6.3-3l-0.3-0.2c-1.4-1-3-1.8-4.9-2.5l-0.8-0.3c-1.5-0.5-3.1-1.1-4.5-2-1.4-0.9-1.8-2.2-2.2-3.2-0.3-0.7-0.5-1.3-0.9-1.7-0.4-0.4-0.9-0.8-1.5-1.1q-0.4-0.3-0.8-0.6v-2-0.2c0 0-0.1 0.1-0.1 0.2q0 0.1 0 0.1 0 0 0-0.1h-0.2c-2.4-3.4-5.2-5.7-9.6-8-0.2-0.1-0.3-0.2-0.5-0.2-0.6-0.3-1.6-0.9-1.5-2.3-1.6 0-2.9-0.7-4-1.3l-0.3-0.2-0.2-0.6q-0.5-0.3-1-0.7c-0.4-0.3-1-0.8-1.3-0.8l-0.1-1.4v1.4q0 0-0.1 0c-0.4 0-1.4 0-1.9-0.7-0.4-0.5-0.5-0.9-0.5-1.3-0.6-0.1-1.2-0.2-1.7-0.6-1.5-1.2-2.2-3-2.8-4.5v-0.2q-0.2-0.5-0.4-1c-0.2-0.6-0.4-1.2-0.6-1.6l-0.1-0.2c0-0.1-0.2-0.2-0.7-0.4-0.4-0.2-0.9-0.5-1.4-0.9-0.8-0.7-1.3-1.8-1.8-2.7q-0.2-0.5-0.5-0.9c-0.7-1.3-1.4-2.6-2.1-4.3-0.6-1.3-1-2.7-1.2-4.4q-0.1-0.4-0.1-0.8c0-0.4-0.1-0.8-0.2-1.1q-0.1-0.3-0.4-0.7c-0.2-0.4-0.5-0.8-0.7-1.3q0-0.2-0.2-0.4c-0.4-0.8-1.5-2.7 0.1-3.9 0.8-0.7 2.8-1.6 4.1-1.6h0.3q0.5 0.1 1.1 0.1c1.9 0 3-0.4 3.3-0.8 0 0 0.1-0.1 0.1-0.5v-0.2l-0.2-0.1c-0.1-0.5-0.7-1.5-1-1.6 0 0-0.1 0-0.3 0.1q-0.4 0-0.9 0-0.2 0-0.5 0c-0.7-0.1-1.2-0.5-1.6-0.8-0.1-0.1-0.3-0.3-0.3-0.3l-0.8-2.5q0.5-0.4 1.1-0.8 1-0.8 1.9-1.6c0.5-0.4 0.9-0.8 1.4-1.3 0.7-0.8 1.4-1.6 2.5-2.2 0.1-0.3 0-1 0-1.4q-0.1-0.4-0.1-0.8c0-1.7 0.4-3.4 1.2-4.7q0.2-0.4 0.2-0.5-0.1-0.1-0.2-0.1-0.4-0.2-0.9-0.4c-0.9-0.4-2-0.8-2.8-1.8-0.3-0.4-1-1.5-1-2.7-0.5-0.5-0.7-1.2-0.8-1.6q0-0.2-0.1-0.4c-0.1-0.5-0.6-1.2-1.1-1.8q-0.5-0.6-0.9-1.2c-1.1-1.8-0.9-3.1-0.5-4.8 0.3-1.1 0.3-2.2 0.4-3.3q0-0.9 0.1-1.9l0.3-0.2c-0.2-0.6 0-1.1 0.2-1.5-1.5-1.2-2.9-4.8-2.9-4.9-0.9-2.4-2.2-4.3-3.5-5l0.2-0.6-0.4 0.3c-1-0.6-1.4-1.9-1.7-2.7-0.2-0.8-0.7-1.4-1.6-2.2-0.8-0.8-1.4-1.4-2.1-2.4-0.1 0-0.4-0.2-0.6-0.3-0.7-0.3-2-0.9-2-2.3 0-1.6-1.3-3.3-2.6-4.9l-0.2-0.3c-0.4-0.9-1-1.9-1.8-2.7q-0.1-0.2-0.3-0.3c-0.6-0.5-1.3-1.2-1.6-2.2-0.8-2.2-1.5-4.2-3.1-6q-0.6-0.7-1.3-1.4-0.5-0.5-1.1-1.1-0.5-0.6-0.9-1.1c-0.5-0.7-1-1.2-1.5-1.6l-0.4-0.2c-0.8-0.5-2-1.3-2.4-2.7-0.2-0.1-0.6-0.4-0.8-0.6-0.6-0.4-1.1-0.8-1.5-1.3-0.3-0.4-0.6-0.6-1.1-1q-0.4-0.2-0.9-0.6c-0.6-0.5-1.4-1.1-1.7-1.8q-0.4-0.2-0.7-0.6 0 0 0-0.1c-1.3-0.4-2.2-1.5-3-2.4-0.4-0.3-0.7-0.6-0.9-0.8-1.1-0.9-1.3-1.9-1.2-2.9 0-0.1 0-0.1-0.2-0.4-0.2-0.2-0.4-0.6-0.5-1.1l0.1-0.8c-1.2-0.8-1.6-1.8-2-2.6q-0.2-0.4-0.4-0.9c-0.1-0.1-0.6-0.6-0.9-0.9-1.1-1.1-2.1-2.1-2-3.3l0.6-0.5q-0.1-0.2-0.2-0.4-0.1-0.2-0.1-0.4l-0.6 0.1c-1.3-1.6-1.9-2.3-3.5-3.1q-0.4-0.3-0.8-0.5c-0.2-0.2-0.5-0.4-0.7-0.4q-0.3-0.1-0.8-0.1c-0.4 0-0.9 0-1.3-0.1-0.8-0.1-1.4-0.6-1.9-1-0.2-0.1-0.5-0.3-0.6-0.4l-0.3-1.2q-0.4-0.1-0.6-0.2l-0.2-0.1c0 0-0.1 0-0.2 0.1l-0.3 0.1-0.7 0.2c-1.2 0-1.6-1.1-1.7-1.7-0.1-0.1-0.2-0.4-0.2-0.4 0 0 0.2 0.2 0.4 0.3l-0.7-1.1q-0.7-0.4-1.3-1.3 0-0.1 0-0.1c-0.4 0.1-0.8 0.2-1.5 0.2-1.8 0-3-0.9-3.1-2.3v-0.2c0-0.2 0-1.2 0-1.3h0.3q-0.6-0.4-0.9-1.1c-0.4-0.8-0.3-1.7 0.2-2.5 0.1-0.2 0.4-0.6 0.5-0.6q-0.1-0.1-0.1-0.3c-0.3-1-0.6-2.2 0.3-3.5q0.4-0.5 0.8-1 0.4-0.6 0.9-1.2c0-0.1 0.1-0.2 0.2-0.5 0.6-1 1-1.6 1.6-1.9l0.4-0.1v-0.1c-0.1-0.5 0.1-1.2 0.3-2.1 0.4-1.3-0.4-3.1-1.3-4.4-0.3-0.5-0.6-0.8-1.2-1.1q-0.1-0.1-0.3-0.2-0.2-0.1-0.5-0.2-0.4 0-1 0c-1.3 0-3.3-0.2-3.3-0.2l-0.5-0.1c-3.3-1.6-3.9-5-4.1-7.5-0.2-1.5-0.4-2.1-0.6-2.3q-0.3 0-0.7 0c-1.3 0-2.1-0.5-3-1.1q-0.1-0.1-0.3-0.2-0.3-0.1-0.7-0.1c-1.1-0.1-2.7-0.3-3.5-1.7-0.5-1-1.2-2-2-2.9l0.3-1.2q-0.1 0-0.2 0c-0.6 0-1.4-0.4-1.7-1.4-0.2-0.7-0.1-1.4-0.1-2 0-0.4 0-0.7 0-1-0.1-0.3-0.2-0.6-0.4-1q-0.1-0.3-0.3-0.7v-0.1c-0.3-0.6-0.8-1.8-0.1-2.8 0.3-0.3 0.6-0.6 1-0.7q-0.1-0.3-0.2-0.7-0.4-0.9-0.2-1.6c-0.5 0-1-0.1-1.4-0.3l-0.4-0.1q-0.3 0-0.7-0.1c-0.2 0.7-0.7 1.2-1.6 1.2q-0.5 0-0.9-0.2c-0.9-0.5-1.3-1.4-1.6-2.2-0.1-0.2-0.2-0.5-0.3-0.7-0.4 0.2-0.8 0.4-1.3 0.4-0.5 0-1.1-0.1-1.6-0.7q-0.4-0.5-0.7-1-0.2-0.2-0.3-0.4l-1.3-1.7q-0.3-0.4-0.6-0.7c-0.5-0.8-1.2-1.6-1.6-2.5q-0.2-0.5-0.4-0.9c-0.2-0.6-0.3-1-0.6-1.3l-0.1-0.1c-0.6-0.7-0.7-1.4-0.7-1.9q-1.5-0.6-2.8-1.5c-1.6-1.1-2.2-2.1-2.8-3.2q-0.3-0.5-0.6-1c-0.3-0.6-0.8-1.1-1.3-1.6-0.6-0.7-1.3-1.3-1.8-2.2q-0.5-0.8-0.3-1.5c-0.5-0.5-0.8-1.1-1-1.7-0.2-0.3-0.3-0.6-0.4-0.7-0.1-0.2-0.4-0.3-0.6-0.5q-0.3-0.2-0.7-0.4c0 0.1-0.2 0.7-0.2 0.7q0 0.1-0.1 0.5c-0.1 1-0.4 2.8-2 3.1q-0.2 0-0.5 0c-1 0-2.1-0.5-2.9-0.9l-0.5-0.2q-0.3-0.1-0.8-0.3c0.3 0.7 0.1 1.5-0.3 2.2-0.4 0.6-1.1 1-1.7 1-0.8 0-1.6-0.5-1.8-1.5-0.4-0.6-0.4-1.3-0.1-1.9 0.4-0.8 1.2-1.3 2-1.3q0-0.1 0-0.2-0.1-0.1-0.2-0.1c0.1 0 0.3 0.2 0.5 0.2v-0.1l-1.2-1c-0.3-1.2 1.1-1.9 1.2-2 0.5-0.2 0.6-0.5 0.6-2 0-1.3 0-2.9 1.2-4 0.2-0.3 0.7-0.6 1.4-0.6q0.2 0 0.6 0.1 0 0 0.1 0 0.3-0.2 0.5-0.3c-0.3-0.4-0.5-0.9-0.6-1.3-1.1-1.5-0.6-2.9 0-3.9-0.2-0.4-0.6-0.8-0.9-1.1l-0.6-0.8c-1.4-1.6-2.9-3.4-3.3-5.7 0-0.4 0-0.8 0-1.1q0 0 0-0.1-0.9-0.2-1.3-0.9c-0.5-0.8-0.2-1.7 0-2.2 0.1-0.3 0.1-0.5 0.2-0.6q0-0.6-0.1-1.3c0-0.5 0-1.2 0.1-1.9 0-0.6 0-0.7-0.4-1.1q-0.1-0.1-0.3-0.3c-0.6-0.5-1.6-1.4-1.5-2.8 0-0.6 0.2-1.1 0.3-1.4 0.2-0.5 0.2-0.5 0.1-0.7-0.3-0.8-0.9-1.6-1.6-2.5-0.8-0.9-1.6-1.9-2.1-3.2-0.7-1.7-1-3.1-0.7-4.5 0.1-0.6 0.3-1 0.5-1.4 0.1-0.4 0.2-0.7 0.2-0.9 0.1-0.3 0-0.6 0-0.9-0.2-0.6-0.3-1.3 0.2-2q0.4-0.4 1-0.5 0-0.2 0-0.4 0-0.4 0-0.7h-0.2c-0.7 0-2.3-0.9-2.8-1.8q-0.4 0-0.8-0.1-0.8-0.2-1.7-0.3-0.8-0.2-1.6-0.4c-1-0.2-1.6-0.7-2.1-1.1q-0.3-0.3-0.7-0.5c-1.4-0.3-1.7-1.2-1.7-2 0-0.5 0-0.9 0.1-1.4 0.1-0.8 0.1-0.9-1.4-1.7l-0.3-0.1q-0.4-0.2-1-0.6c-0.4-0.2-0.9-0.6-1.3-0.8-0.5 1-1.2 2.2-2.7 2.4q-0.1 0-0.3 0c-1.7 0-3.3-1-4.3-1.7-1.3-0.8-2.4-1.7-3.6-2.6l-0.5-0.5c-0.4-0.3-0.8-0.7-1.2-1.1-0.6-0.6-1.1-1.2-1.6-1.3q0 0.3-0.2 0.8c-0.2 0.3-0.7 0.8-1.7 0.8q-0.2 0-0.4 0-0.4 0-0.7-0.2c-0.2 0.7-0.8 1.1-1 1.3q-0.1 0-0.2 0.1c-0.2 0.8-0.3 1.8-0.4 2.8-0.1 1.1-0.2 2.2-0.6 3.3-0.4 1.6-0.3 3-0.2 4.7q0.1 0.7 0.1 1.4 0.2 0 0.3 0.1c0.7 0.2 2.4 0.7 2.5 3 0 1.1-0.1 2.1-0.3 3q-0.2 0.9-0.2 1.8c-0.1 0.7 0.1 1.4 0.3 2.2q0.2 0.8 0.3 1.6c0.2 1.5-0.1 2.9-0.4 4.1-0.3 1.2-0.5 2.3-0.3 3.4 0.5 2 2 4 3.9 5.5l0.5 0.6c0.3 0.6 0.1 1.3 0 1.8q0.3 0.1 0.5 0.3c0.3 0.2 0.4 0.3 0.6 0.3 1.8 0.3 2.3 1.3 2.6 1.9q0.1 0.3 0.3 0.6c0.5 0.8 1.3 1.4 1.9 2 0.9 0.9 1.8 1.7 2.6 2.6q0.8 0.9 1.7 1.9l0.4 0.3c0.8 0.8 1.7 1.6 2.3 2.6 0.4 0.7 0.6 1.3 0.8 1.9 0.1 0.5 0.3 0.9 0.5 1.2l0.3 0.4q1.7 2.8 2 3.1l-0.8 0.7v0.3l0.5 0.8q0.4-0.2 0.9-0.2 0.3 0 0.6 0.1c1.5 0.7 1.6 2.3 1.6 3.2q0 0.2 0.1 0.4 0.2 0 0.4 0 0.3-0.1 0.6-0.1c2.1 0 2.4 1.8 2.6 2.7l0.1 0.3c0.3 1.4 0.4 2.7 0.3 3.9v0.2c0 0.3 0 0.8 0.1 0.9 0.4 0.7 0.8 0.9 1 0.9q0.1 0 0.1 0c0.2 0 0.4 0 0.6 0q0.5-0.1 1-0.1 0.4 0 0.7 0c2 0.5 1.6 2.8 1.4 4.3 0 0.4-0.1 1-0.1 1.4q0.1 0.1 0.2 0.2c0.5 0.6 1.2 1.4 1.4 2.7q0 0.7 0 1.3c-0.1 0.5-0.1 0.8 0 1.2q0.3 0.2 0.5 0.5c0.7 1 0.2 2.5-0.2 3.7 0.3 0.3 0.6 0.6 0.8 1.2 0.1 0.5 0 0.9 0 1.2 0.9 0.6 1.3 1.2 1.7 2.1q0.1 0 0.1 0 0.4 0.1 0.8 0.2c1.7 0.8 4.1 2.1 4.4 4.7q0 0.6 0 1.2c0 0.7 0.1 1.3 0.3 1.8q0.1 0.3 0.3 0.5c0.4 0.6 0.9 1.5 0.8 2.6 0 0.6 0.6 0.9 2.9 1.5 0.8 0.2 1.5 0.4 2.1 0.7l0.9 1.4c-0.2 1.5-1.5 1.9-2 2.1 0 0.3 0.3 0.6 0.7 1.1q0.1 0.3 0.3 0.5c0.3-0.3 0.7-0.4 1.2-0.4 0.8 0 1.4 0.5 1.8 0.9 0.4 0.4 0.9 0.8 1.5 1.2 0.8 0.6 1.7 1.2 2.4 2.1 0.9 1.1 0.7 2.5 0.6 3.4 0 0.4 0 1 0 1.2 0.2 0.1 0.4 0.2 0.7 0.2 0.5 0.2 1.3 0.4 1.7 1.3 0.3 0.9-0.2 1.8-0.4 2.2q-0.2 0.3-0.2 0.4 0 0.1 0.3 0.3c1.1 0.9 1.2 1.6 1 2.8q0 0.3-0.1 0.7c-0.1 0.5-0.1 0.9 0 1.1q0.1 0.3 0.2 0.6c0.3 0.5 0.6 1.2 0.7 1.9q0.1 0.6 0 1c0.5-0.8 1.6-1 2.1-1.1q0.2 0 0.3 0 0.2-0.1 0.5-0.1c0.5 0 1 0.3 1.4 0.7 0.6 0.7 0.7 1.8 0.6 2.6l-0.5 0.9q-0.5 0.4-1.1 0.4-0.1 0-0.2 0-0.3 0.7-0.6 1.4l-0.1 0.1v0.1c-0.2 0.8-0.5 2-1.5 2.4 0.4 0.5 0.6 1.1 0.7 1.6q0.2 0.4 0.4 0.9c0.2 0.4 0.5 0.7 1.1 0.9 2 0.8 2 2 1.7 3 0 0.2-0.1 0.4 0 0.7 0 0.5 0.2 1 0.6 1.6q0.1 0.3 0.2 0.6c0.4 0.8 0.5 1.6 0.6 2.3q0 0.3 0.1 0.7c0.1 0.8 0.6 1.7 1.1 2.3q0.1 0.2 0.4 0.4 0.2 0.1 0.3 0.2 0.1 0 0.1-0.1l2.3-0.1c0.1 0.1 0.5 0.4 0.8 0.6 1 0.8 1.5 1.3 1.7 1.9q0 0.2 0.1 0.4c0.8 2.6 0.9 3.1 0.5 3.8l-1.1 0.6-0.2 0.1c-0.5 0-1.1-0.4-1.6-0.8 0 0.6-0.1 1.2-0.1 1.7l-0.1 0.1c-0.2 1-0.7 1.6-1.1 2.2q-0.3 0.4-0.5 0.8c-0.3 0.4-0.2 1 0.1 1.9 0.5 1.2 0.5 2.1 0.5 3.1q0.1 0.3 0.1 0.7c0 0.5 0.2 0.7 1.2 1.4l0.5 0.4c0.9 0.7 1.3 1 2.2 1.2 0.5 0 1 0.2 1.4 0.6q0.1 0 0.1 0 0-0.2-0.1-0.3c0-0.5-0.1-1.4 0.2-2.2-0.7-0.4-1.2-1.1-1.4-1.8-0.3-0.8-0.7-2.4-0.4-3.7l1.5-1c1.4 0.2 3 3.2 3 3.4v0.5q0 0.1 0 0.2c0 0.3 0 0.8-0.1 1.3q0.3 0.1 0.7 0.4c0.6 0.5 0.9 1.2 1 1.8q0.6 0.7 1.1 1.2c0.2 0.2 0.4 0.3 0.7 0.5 0.5 0.4 1.1 0.8 1.6 1.3-0.5-1.5-0.5-2.8 0-3.9l1.4-0.9c0.9 0.1 1.4 0.9 2.2 2.5 2 4.1 1.7 4.6 1.4 5.1l-1.3 0.6c0.7 0.8 0.6 2.1 0.5 2.8-0.1 0.3-0.1 0.7-0.1 1 1 1.1 1.6 2 1.5 4 0 0.8 0.1 1.2 0.3 1.4 0.1 0.2 0.5 0.3 1 0.4 0.8 0.2 2 0.4 2.7 1.6 0.7 1 1.2 2.6 1.3 2.9q0.3 1.4 0.1 3c-0.3 2.1-1.2 4.1-2.5 5.5-0.9 0.9-1.9 1.2-2.8 1.5-0.8 0.3-1.2 0.5-1.5 0.9-1.2 1.7-3.4 3.6-5.8 3.6q-0.8 0-1.6-0.4c-3-1.2-3.4-4.8-3.6-6.5l-0.1-0.8c-0.2-1.8-0.4-3.6-1.3-4.9-0.7-1-1-2-1.3-3-0.5-1.4-0.8-2.2-1.9-2.8q-0.7-0.3-1.3-0.6c-1.6-0.8-3.3-1.6-4.5-3.9-0.6-1.2-1.1-1.8-2-2.3-1-0.5-2.1-1.2-2.6-2.4-0.6-1.4-1.1-2.5-2.2-3.5-1.9-1.9-4.3-3.6-6.2-4.9-0.6-0.4-1.4-0.5-2.3-0.7-0.9-0.2-1.8-0.3-2.8-0.8q-0.4 0.3-1 0.3-0.3 0-0.5-0.1c-1.6-0.3-2.6-1.4-3.5-2.5-0.5-0.5-0.9-1.1-1.3-1.3-0.5-0.3-0.7-0.6-0.9-0.9q-0.2 0.1-0.5 0.1l-1.1-0.4c-0.6-0.6-0.9-1.3-1.1-1.9-0.1-0.3-0.2-0.6-0.3-0.7-1.2-1.1-0.7-2.1-0.4-2.7 0-0.2-0.2-0.5-0.2-0.7q0-0.1 0-0.1-0.1 0-0.1 0c-0.4-0.2-1.2-0.5-1.6-1.3-0.5-1.3 0.3-2.5 1-3.6 0.2-0.3 0.5-0.7 0.5-0.9 0 0 0-0.2 0.1-0.4 0.2-1.6 0.4-2.8 1.4-3 0-0.6 0.2-1 0.5-1.4l0.2-0.3c2.7-4.5 2.1-10.5 0.5-14.6q-0.1-0.3-0.2-0.7c-0.3-0.8-0.7-1.8-1.2-2.2q-0.1-0.1-0.3-0.3c-0.5-0.3-1.4-0.8-1.6-1.8-0.2-0.8-0.1-1.6 0-2.2 0-0.6 0-1.1 0-1.5q-0.1 0-0.1-0.1c0 0-0.4 0-0.4 0-0.5 0-1.6 0-2.5-0.8l-0.2-0.2c-0.4-0.4-0.5-0.5-0.7-0.5h-0.3c-0.9-0.1-2.3-0.2-3.2-1.6-0.2-0.3-0.5-0.6-0.8-1-0.5-0.6-1.2-1.3-1.5-2.2-0.1-0.1-0.2-0.2-0.4-0.2-0.4-0.1-0.9-0.2-1.5-0.6-0.4-0.4-0.8-0.8-1-1.2-0.3-0.3-0.4-0.6-0.6-0.7-0.4-0.2-0.7-0.5-0.9-1-0.4-0.2-0.8-0.5-1-0.8q-0.1 0-0.1-0.1 0 0 0 0c-0.5-0.1-1.3-0.4-1.7-1.2-0.6-0.3-1.1-0.7-1.7-1.1-0.4-0.3-1.2-0.9-1.5-0.9q0 0.2-0.1 0.4c-0.1 0.3-0.6 1.4-1.9 1.4q-0.4 0-0.9-0.2-1-0.4-2.1-1.1c-1.4-1-1.9-2-2.4-3.3-0.4-0.9-1-1.6-1.6-1.9-0.1 0-0.2 0.1-0.3 0.1-0.3 0.2-0.7 0.4-1.2 0.4-0.5 0-0.9-0.1-1.2-0.4-0.8-0.7-1.2-1.7-1.7-2.5-0.6-1.2-1-1.8-1.7-2q-0.2 0-0.4 0-0.3 0-0.6 0-0.4 0-0.8 0c-0.8 0-2-0.1-2.9-1.1-0.8-0.9-2-2.7-1.8-4.2 0.2-1.3-0.1-2.1-1-2.7-0.3-0.2-0.7-0.4-1.1-0.6-0.9-0.4-1.8-0.8-2.5-1.6-0.4-0.5-0.5-1-0.6-1.4q-0.1-0.1-0.1-0.2 0 0-0.1 0c-0.4-0.1-1.3-0.4-1.6-1.3q-0.2 0-0.4-0.2c-0.7-0.2-1.1-0.8-1.3-1.1q0-0.1 0-0.1-0.1 0-0.1 0c-0.3-0.1-0.6-0.2-0.9-0.5-0.8-0.6-0.7-1.5-0.6-1.9q0-0.1-0.1-0.1c-0.3-0.4-0.8-1.1-0.7-2l1.2-1.3q0.2 0 0.4 0c0.7 0 1.2 0.3 1.5 0.5q0.1 0.1 0.2 0.1l0.4 0.1c0 0 0.1 0 0.4 0h0.6c0.5 0 1.2 0.1 1.8 0.5 0.2 0.1 0.5 0.2 0.9 0.3 0.4 0.1 0.9 0.3 1.4 0.5q0.3 0.2 0.6 0.3c0.5 0.3 0.9 0.5 1.3 0.6 0.7 0.2 1.3 0.3 1.8 0.3 0.5 0 0.8-0.2 0.9-0.3q0.2-0.1 0.4-0.3c0.6-0.7 1.5-1.6 2.6-1.6 0.4-0.9 1.3-1.6 2-2.1l0.4-0.3 0.2-0.1-0.1-0.2c1.1-0.7 1.8-1.5 1.9-2.1 0 0 0-0.2-0.2-0.4q-0.1-0.1-0.2-0.2c-0.4-0.3-1-0.8-1-1.7-0.1-0.3 0-0.9 0.6-1.5q0.2-0.3 0.5-0.5c0.2-0.2 0.5-0.5 0.6-0.6 1.4-2.6 1.1-3.3 1.1-3.3-1.1-0.7-1.1-1.8-1.1-2.3q0-0.1 0-0.1 0 0 0 0-0.4 0-0.8-0.1c-2-0.3-2.9-2.6-3.7-4.5-0.3-0.6-0.5-1.2-0.7-1.5q-0.2 0-0.4 0h-0.2q-1.6-0.1-2-2.2 0-0.1 0-0.2c-0.1-0.1-0.2-0.2-0.3-0.3-0.3-0.4-0.6-0.8-0.8-1.5-0.1-0.3-0.2-0.7-0.3-0.9q0 0-0.1 0c-0.4 0-1.2-0.2-1.7-1.1-0.2-0.4-0.3-0.8-0.4-1.1-0.2-0.4-0.2-0.5-0.3-0.6q-0.4-0.4-0.8-0.7c-0.5-0.4-1.1-0.9-1.5-1.5-0.7-0.9-1.1-1.3-1.8-1.6-0.1-0.1-0.5-0.2-0.8-0.2-1-0.2-1.9-0.3-2.5-1q-0.6-0.8-1.3-1.6c-1.3-1.3-3.1-2.8-4.4-3.3-1-0.4-1.7-1.2-2.2-1.9-0.3-0.3-0.6-0.7-0.9-0.9-0.5-0.4-1.6-1.2-1.7-2.6-0.1-0.6 0.1-1.1 0.2-1.4q0-0.1 0-0.2c-0.2-0.3-0.4-0.4-0.6-0.6-0.7-0.6-1.8-1.5-1-3.7 0.5-1.4 0.4-3.8 0.1-5.3l-0.1-0.5c-0.1-0.3-0.2-0.8-0.3-1q0 0 0 0c-0.1 0-0.4 0-0.6 0-0.4 0-0.7 0-1.2-0.2l-0.9-1.4c-0.7-0.2-1.1-0.7-1.2-1.4-0.1-1.1 0.2-2.1 0.5-3 0.2-0.8 0.4-1.5 0.3-2.1-0.1-1.3-0.4-1.9-0.6-2.1-0.2-0.2-0.6-0.5-0.9-0.7-0.6-0.4-1.2-0.8-1.7-1.5-0.5-0.7-0.9-1.1-1.5-1.4-0.5-0.2-0.8-0.6-1-1-0.4-0.9 0.1-1.8 0.3-2.4q0.1-0.1 0.1-0.2c0.6-1.5-1.2-4.8-2.1-6.5q-0.4-0.7-0.7-1.3c0 0-0.1-0.1-0.4-0.2-0.5-0.3-1.3-0.7-1.7-1.7-0.1-0.1-0.2-0.2-0.3-0.3-0.3-0.4-1.3-1.5-0.3-3 0.4-0.6 0.5-0.8-0.6-1.9l0.4-2.3q0.4-0.2 0.9-0.2 0.4 0 0.7 0.1 0-0.1-0.1-0.2c-0.2-0.2-0.4-0.3-0.7-0.5-0.6-0.3-1.3-0.7-1.8-1.4-0.1-0.2-0.3-0.3-0.6-0.5-0.4-0.3-0.9-0.7-1.2-1.3-0.6-1.1-0.5-2.3-0.4-3.3 0-0.8 0.1-1.3-0.1-1.5-0.2-0.2-0.5-0.3-0.9-0.5-0.7-0.4-1.8-0.9-2.3-2.4q-0.1-0.1-0.2-0.4c-1.1-2.8-1.7-4.7-0.9-5.9 0.4-0.5 1-0.9 1.7-0.9-0.4 0 48.8 0.2 48.8 0.2l1.3 2c0 0 0 0.2 0 0.3-0.1 0.4-0.1 1-0.5 1.6l-0.3 0.3c-0.3 0.2-0.6 0.4-0.8 0.6q-0.2 0-0.4 0.2 0 0 0 0 0 0 0 0l71.8 32.2c0.4 0.2 0.9 0.4 1.4 0.7 0.8 0.4 1.8 1 2.4 1.1l47.5 4.5 0.3 0.5 7.4 0.7q0.5 0.1 0.9 0.1l0.2-1.9c1.3-8.3 1.3-8.3 2.6-8.3l0.6 0.1 34.3 3.2 0.4 0.2c0.5 0.2 0.9 0.3 1.3 0.4 1.4 0.5 2.8 0.9 3.6 3.6q0.2 0.5 0.4 1.1c0.3 1.4 0.7 2.7 1.6 3.5 0.7 0.7 1.6 1.3 2.6 1.9 1.1 0.6 2.2 1.3 3.2 2.2 0.8 0.8 1.4 1.8 1.8 2.6q0.3 0.4 0.5 0.8c0.2 0.3 0.7 0.7 1.2 1q0.3 0.2 0.6 0.4c1.1 0.7 1.8 1.8 2.4 2.8 0.4 0.6 0.8 1.1 1.2 1.6 1.1 1.1 2.1 1.9 3.5 2.6 1.9 1 3.7 2.4 5 4q0.4 0.4 0.6 0.8c0.2 0.3 0.4 0.5 0.5 0.6 1.3 0.9 1.7 1.9 2 3.1 0.6 2.6 1 4 2.5 5.8 1.4 1.6 0.9 3.5 0.5 4.9-0.1 0.4-0.3 0.8-0.3 1.2-0.1 0.6 0.1 1 0.6 1.9q0.1 0.3 0.3 0.6c0.4 0.8 0.7 1.7 1.1 2.5q0.2 0.6 0.4 1.2c0.9 2 1.8 3.1 3.9 4.2 1.7 1 2.5 2.2 3.3 3.4q0.3 0.5 0.7 0.9c0.9 1.3 2.4 1.6 4.2 2.1q0.5 0.1 1 0.2c1.2 0.4 1.5 1.3 1.7 1.9 0.1 0.1 0.2 0.3 0.2 0.4l0.2 0.1c0.2 0.2 0.6 0.3 1.2 0.3 0.6 0.1 1.3 0.1 2 0.4 0.9 0.5 1.5 1.3 1.9 2 0.2 0.3 0.4 0.6 0.6 0.8q0.7 0.7 1.8 1.2l1-0.1c0.4 0.2 0.8 0.3 1.2 0.3 0.5 0 0.7-0.2 0.8-0.3q0.1-0.2 0.2-0.4c0.3-0.5 0.7-1.2 1.8-1.6 0.4-0.2 0.6-0.4 0.7-0.6 0.7-1.2 1.2-1.4 2.2-1.7h0.1c-0.2-1.7 0.6-2.6 1.2-3.4q0.3-0.4 0.6-0.9c0.4-0.5 0.7-1.2 1.1-1.9 1.2-2.5 2.8-6 6.3-6 0.6 0 1.2 0.2 1.8 0.4 0.2 0.1 0.6 0.2 0.8 0.3q0.1-0.2 0.2-0.5c0.4-0.7 1-2.1 2.6-2.1q0.5 0 1.1 0.2c0.8 0.3 1.4 0.9 2 1.3q0.5 0.5 0.9 0.7c0.5 0.3 1.6 0.3 2.1 0.3h1.1c1.3 0.1 2.7 0.1 4.2 0.5 0.5 0.1 1.1 0.4 1.6 0.6 0.5 0.2 0.9 0.5 1.3 0.5 0 0 0.2-0.1 0.3-0.1 0.3-0.2 0.8-0.3 1.3-0.3q0.3 0 0.7 0.1 0.3 0.1 0.6 0.2c0.3 0.1 0.5 0.2 0.7 0.2 2 0.2 2.2 2.1 2.2 2.8 0.1 0.1 0.1 0.3 0.1 0.4q0.2 0.2 0.3 0.3c0.3 0.2 0.5 0.4 0.6 0.6q0.1 0 0.1 0l1.1 0.5c0.5 0.5 0.5 1.2 0.5 1.7q0 0 0 0c0 0 0.2 0.1 0.6 0.3q0.4 0.2 0.9 0.4 0.5 0.3 1.1 0.6c1 0.5 1.3 1.4 1.4 1.9q0.1 0.2 0.1 0.4c0.3 0.6 0.9 1 1.6 1.5 0.8 0.6 1.7 1.3 2.3 2.4 0.3 0.5 0.4 1.1 0.5 1.6 0.1 0.2 0.1 0.6 0.2 0.7q0.2 0.2 0.5 0.4c0.7 0.5 1.6 1.2 1.8 2.6 0.1 0.6 0.2 1.2 0.2 1.7 0 0.6 0 1.2 0.2 1.7q0.4 0.6 0.7 1.1c0.3 0.5 0.7 0.9 0.9 1.5 0.4 0.7 0.5 1.3 0.6 1.9 0.1 0.4 0.1 0.8 0.3 1.1 0.2 0.5 0.5 1 0.8 1.6q0.2 0.4 0.5 0.8c0.6 1.2 0.8 2.2 0.9 3.2q0 0.3 0.1 0.7c0 0.2 0.2 0.6 0.3 0.9q0.2 0.6 0.4 1.2c0.2 0.7 0.8 1.2 1.6 1.8 0.6 0.5 1.2 1 1.7 1.7 0.6 0.8 1.1 1.7 1.5 2.5q0.3 0.7 0.6 1.3 0.4 0.7 0.9 1.4c0.4 0.6 0.9 1.2 1.2 2q0.1 0.1 0.3 0.4c0.3 0.4 1 1.4 1 2.3 0.2 0.4 0.5 0.7 0.7 0.9 0 0-0.2-0.1-0.4-0.1 0.3 0.1 0.5 0.2 0.6 0.3q0.1 0.1 0.3 0.2c2.7 1.4 4 3.3 4.2 6.1 0.1 1.1-0.3 2-0.7 2.7q-0.2 0.2-0.3 0.5 0.1 0.1 0.2 0.3 0.3 0.2 0.5 0.5l0.2 0.2c0.6 1.3 0.3 2.5 0.1 3.4-0.3 1.1-0.3 1.3 0.1 1.6 1 0.8 1.2 1.7 1.5 2.6 0.2 0.8 0.6 1.6 1 2.4l0.3 0.6c0.5 1 1.1 2.2 1.2 3.5q0.1 0.6 0.1 1.1c0 0.5 0 1 0.1 1.3q0 0.1 0.1 0.2c0.4 0.3 1.3 1 1.2 2.2q-0.1 0.3-0.1 0.6 0 0.1-0.1 0.2c0.2 0.1 0.4 0.1 0.6 0.1 0.3 0 0.7 0 1.2 0.2q1.1 0.3 2.1 0.7c1.7 0.6 2.4 1.5 3.1 2.4q0.3 0.4 0.7 0.8c0.1 0.1 0.4 0.2 0.9 0.3q0.3 0.1 0.6 0.1c0.6 0.2 1 0.4 1.4 0.6 0.3 0.2 0.6 0.4 0.8 0.4 2 0.2 2.7 1.4 3.2 2.2 0.3 0.5 0.5 0.8 0.9 1.1 0.4 0.2 1 0.3 1.8 0.3q0.4 0 0.8 0.1c0.6 0 1.2 0.2 1.7 0.4 0.4 0.2 0.8 0.3 1.1 0.3h0.3q0.6 0 1.3 0.1c2.1 0.1 4.7 0.2 6.3 2.4l0.1 0.2c0.6 0.8 2.2 3 3.1 3.2 0.6-1.2 1.5-1.5 2.3-1.8 0.6-0.1 1.1-0.2 1.6-0.2 0.4 0 1.1-0.1 1.2-0.2l2.4 1.4-0.1 0.2c-1.3 4.3-2.5 8.4-5 12.3-0.5 0.8-1.1 1.5-1.6 2.3-0.8 1-1.5 2-2.1 3-0.4 0.9-0.8 1.9-1.2 2.9q-0.6 1.3-1.2 2.6l-1.4-0.6q-0.1 0.3-0.3 0.7-0.3 0.5-0.6 0.9l1.8 0.6c-0.7 2.7-1.4 4.9-2.3 7.2-0.3 0.8-0.4 1.7-0.6 2.6-0.1 0.8-0.3 1.6-0.5 2.5q-0.3 0.9-0.6 1.8c-0.3 1.1-0.7 2-0.9 3-0.7 2.8-1 5.7-1.4 8.5v0.2q-0.2 2.2-0.5 4.4-0.2 2.9-0.6 5.7c-0.1 1-0.1 2.1 0 3.2q0 0.9 0 1.7c0 2.3-0.8 4-1.6 5.5l-0.4 0.7c-0.6 1-1.1 2-1.4 3 0 0.1 0.2 0.4 0.3 0.6 0.2 0.4 0.5 1 0.6 1.7 0.1 1 0 2 0 2.9q0 0.5 0 0.9c0 0.5 0 0.9 0.1 1.4q0.1 0.5 0.1 1.1l0.9 0.9-0.1 0.4c-0.1 0.9-0.1 1.7 0.1 2.4q0.1 0.5 0.4 1c0.2 0.6 0.5 1.3 0.7 2.1 1 0.4 1.6 1.7 2.1 2.7q0.1 0.2 0.1 0.3l0.3 0.6c0.6 1 1.2 2.2 2 2.8 1 0.7 2.9 1.9 2.2 4.5-0.2 0.8-0.5 1.7-1.2 2.5-0.2 0.3-0.3 0.5-0.5 0.9-0.1 0.4-0.3 0.8-0.6 1.2h-0.1-0.1q0.1 0.6 0.2 1 0 0.3 0.1 0.6c0.3 1.6 0.9 3 1.5 4.5q0.5 1.1 0.9 2.2c0.4 0.9 0.5 1.8 0.6 2.6 0.2 1.2 0.3 2.2 1 2.9 0.5 0.6 0.8 1.2 1 1.7 0.1 0.3 0.2 0.6 0.4 0.8q0.3 0.4 0.8 0.7c0.5 0.5 1.2 1.1 1.7 2q0.4 0.9 0.9 1.9c0.6 1.2 1.2 2.5 2 3.5l0.5 0.7c1 1.4 2.1 2.8 3 4.4 0.2 0.3 0.3 0.6 0.4 0.9 0.1 0.4 0.2 0.4 0.4 0.6 0.7 0.6 1.4 1.4 1.8 2.3 0.6 1.4 0.8 3 0.6 5.1-0.1 0.8 0 1.5 0.1 2.1 0 0.1 0.1 0.3 0.3 0.6 0.3 0.3 0.6 0.8 0.8 1.4 0.3 0.8 0.3 1.5 0.4 2.1 0.1 1 0.1 1.3 0.8 1.8q0.4 0.2 0.7 0.4c0.8 0.4 2 1 2.1 3 0.1 1.4 0.1 1.4 1.1 1.6 1.3 0.2 1.3 1.5 1.3 2.5 0.1 0.3 0.1 0.5 0.1 0.6q0.1 0.3 0.3 0.6c0.3 0.5 0.8 1.3 0.8 2.2 0.4 0.2 1 0.5 1.3 1.1 0.5 0.6 0.7 0.8 1.1 1 1.3 0.5 2.6 0.6 4.1 0.7l1 0.1q0.6 0 1.2 0.1c2 0.1 4.4 0.2 5.9 1.7q0.8 0.8 1.6 1.6c0.4 0.5 0.6 1 0.7 1.4 0 0.1 0.1 0.2 0.1 0.3 0.2 0 0.7 0 1.2 0 0.7 0 1.7 0 2.6 0.5l0.2 0.2c1 0.7 1.1 1.4 1.2 2 0.1 0.2 0.1 0.3 0.2 0.5 0.2 0.8 0.6 1.4 1 2.1 0.6 0.9 1.1 1.8 1.5 3 0.2 0.7 0.7 1.4 2.5 1.4 1.6 0 3.4-0.5 4.9-1 0.3-0.3 0.9-0.5 1.7-0.6q0.1 0 0.2 0c0.7-0.2 1.3-0.4 2-0.5q0.5-0.1 0.8-0.1c0.9 0 1.3 0.5 1.6 0.9 0.1-0.1 0.4-0.5 0.5-0.6 0.3-0.4 1-0.9 2-0.9 0.4 0 0.8 0.1 1.1 0.2q0.3 0 0.4 0 0.1 0 0.1-0.1c0.2-0.5 0.6-1.7 2-1.7q0.5 0 1 0.2 0.2 0 0.4 0 0.3-0.1 0.6-0.1c0.9-0.1 1.9-0.2 2.9-0.2q1.7 0 3 0.3c0.5 0.1 1 0.3 1.4 0.7l0.3-0.2q0.7 0 1.5 0c1.4 0 2.5-0.1 3.4-0.5 0.7-0.3 1.4-0.8 2.1-1.3 1.3-0.9 2.7-1.9 4.7-2.1q0 0 0 0l0.1-0.6c1.1-0.4 2.3-0.5 3.2-0.5q0.7 0 1.3 0.1 0.7 0 1.3 0h0.4c0.2 0 0.6-0.1 1.1-0.2 1-0.1 2.4-0.3 3.4-0.3 0.6 0 2.3 0 2.8 1.4 0 0.1 0.3 0.5 0.5 0.7q0.1 0.1 0.2 0.3l0.4-0.3q0.9-0.4 1.7-0.7 0.8-0.4 1.6-0.7l0.2-0.1c0.9-0.5 1.7-0.9 2.5-0.9q0.2 0 0.4 0c0.5-0.6 1.2-1.1 1.9-1.5q0.3-0.2 0.6-0.4c0.6-0.5 1.3-1 2.2-1.2 0.5-0.2 0.9-0.2 1.3-0.3 0.5 0 0.9-0.1 1.2-0.2 0.4-0.2 0.8-0.5 1.3-0.9q0.2-0.2 0.5-0.5c0.8-0.6 1.7-1 2.5-1.4 0.9-0.5 1.7-0.9 2.3-1.6 0.6-0.6 1.3-1 1.9-1.4 0.8-0.5 1.2-0.8 1.4-1.2 0.1-0.4 0.1-0.8 0.1-1.2q0.1-0.6 0.2-1.1 0.1-0.7 0.3-1.3c0.1-0.7 0.3-1.4 0.3-2.1 0-2.3 1.2-5.1 3.6-5.4 0.6-0.2 1.8-0.6 1.9-1.8 0.1-0.6 0-1.1 0-1.8-0.2-0.9-0.3-2 0-3.2q0.2-0.8 0.4-1.5c0.3-1 0.6-1.8 0.6-2.6q0.1-0.9 0.1-1.7c0.1-1.3 0.1-2.7 0.7-4.3q0.1-0.3 0.1-0.6c0.1-0.6 0.2-1.4 0.8-2.1 0.4-0.5 0.7-0.9 0.9-1.4q0.1-0.7 0.3-1.4l0.1-0.4c0.2-0.9 0.5-1.9 1.2-2.8 1-1.2 2.1-1.4 3-1.6q0.3-0.1 0.6-0.1c1.3-0.4 2.5-0.9 3.9-1.4 1.8-0.8 3.6-1.6 5.6-1.9l7-0.9h0.5q0.7 0.1 1.7 0.1 0.9 0 1.8-0.1 0.7 0 1.4 0 1.1 0 2.2 0 1.2 0.1 2.4 0.1c2 0 4.4-0.2 6.1-1.4q2.8-2.1 5.7-2.1 0.6 0 1.2 0.1c0.6 0.1 1.1 0.4 1.5 0.6 0.1 0.1 0.4 0.2 0.5 0.2 0.2 0 0.4-0.1 0.7-0.3 0.4-0.2 0.9-0.4 1.6-0.5q0.5-0.1 1-0.1c1.2 0 2.5 0.2 3.6 0.7 0.7 0.2 1.2 0.6 1.7 0.9 0.5 0.4 0.9 0.6 1.3 0.7 0.9 0.3 1.8 0.4 2.8 0.5 0.9 0 1.8 0.1 2.7 0.3 0.5 0.1 0.9 0.3 1.2 0.5 0.7-0.6 2.2-0.9 4.9-1.4 0.5-0.1 0.9-0.1 1.1-0.2q0.5-0.1 1.1-0.1c1.5 0 4.1 0.8 4.8 2.6 0.1 0.2 0.2 0.6 0.3 1 0.1 0.2 0.2 0.6 0.2 0.8l0.1 0.1c0.2 0.1 0.3 0.2 0.5 0.2 1.5 0.6 1.5 1.7 1.3 2.8-0.1 1-0.3 2.5-0.2 3.5q0 0 0 0c0 0 0.3 0.1 0.5 0.2q0.3 0.1 0.5 0.2zm-602.8-320q0 0 0 0 0 0 0 0zm436.1 419.3q0 0 0 0 0 0 0 0zm-51.2-210q0 0.1 0 0.1c0.2 0.1 0.6 0.3 0.9 0.5q0.1-0.4 0.2-0.9 0.2-1.1 0.5-2.1c0.3-0.9 0.7-1.5 1.1-2.1l-0.5-0.1h-0.1c-0.2-0.1-0.3-0.1-0.5-0.1q-0.2 0-0.5-0.1 0 0.1 0 0.2c0.3 1.3-0.3 2.7-0.8 3.9q-0.2 0.4-0.3 0.7zm-254.3-3.7q0.1 0.2 0.1 0.4c0 0.3 0.1 0.7 0.2 0.8q0.2 0 0.4 0 0.2 0 0.4 0c-0.5-0.3-0.8-0.8-1.1-1.2zm-24.3-43.9q0 0.5 0.1 1 0.1-0.5 0.3-0.9 0-0.2 0-0.3 0-0.5 0-1 0 0.1-0.1 0.3c-0.1 0.3-0.3 0.7-0.3 0.9zm-18.9 27.1q-0.1 0.2-0.2 0.4c0.4 0.4 0.8 0.9 1 1.3l0.1 0.1c0.2 0.3 0.3 0.6 0.4 1 0.4-0.1 1-0.2 1.8-0.3 0-0.2-0.1-0.5-0.2-0.6q-0.6-1.5-1.4-3c-0.4 0.6-0.8 1.1-1.5 1.1zm404.4 177.6q0.1 0.2 0.2 0.6c0 0 0.1 0 0.1 0 1.1 0 2.2 0.6 2.6 0.9 0.6 0.4 1.5 0.6 2.3 0.8 0.2-0.7 0.6-1.1 1.4-1.5q0.2-0.1 0.5-0.2c0.5-0.5 1.1-0.8 1.7-1 0.3-0.1 0.6-0.2 0.7-0.3q0.1-0.2 0.2-0.4c0.1-0.3 0.2-0.8 0.3-1.1q-0.5-0.3-0.9-0.5c-0.4-0.3-0.5-0.3-0.7-0.3-0.4 0-0.6 0-0.8 0q-0.3 0-0.6-0.1l-0.6 0.8q-0.2 0.1-0.5 0.2c-0.3 0.1-0.6 0.2-0.7 0.3q-0.1 0.1-0.3 0.3c-0.5 0.5-1.2 1.3-2.2 1.3h-0.1q-0.5 0-0.7-0.1-0.2 0-0.3 0c0 0 0 0-0.2 0.1-0.4 0.1-0.8 0.2-1.2 0.2q-0.1 0-0.2 0zm-111.9-79.5c0.2 0.5 0.6 0.9 1 1.4 0.3 0.4 0.7 0.9 1 1.5q0.1 0 0.2 0 0.3 0 0.4 0c-0.1-0.2-0.4-0.5-0.6-0.7q-0.3-0.3-0.5-0.5c-0.4-0.5-1-1.1-1.5-1.7z"/>
		<path id="&lt;Compound Path&gt;" fill-rule="evenodd" class="s3" d="m359.7 149.2c0.3 0.1 0.5 0.2 0.6 0.3q0.1 0.1 0.3 0.2c2.7 1.4 4 3.3 4.2 6.1 0.1 1.1-0.3 2-0.7 2.7q-0.2 0.2-0.3 0.5 0.1 0.1 0.2 0.3 0.3 0.2 0.5 0.5l0.2 0.2c0.6 1.3 0.3 2.5 0.1 3.4-0.3 1.1-0.3 1.3 0.1 1.6 1 0.8 1.2 1.7 1.5 2.6 0.2 0.8 0.6 1.6 1 2.4l0.3 0.6c0.5 1 1.1 2.2 1.2 3.5q0.1 0.6 0.1 1.1c0 0.5 0 1 0.1 1.3q0 0.1 0.1 0.2c0.4 0.3 1.3 1 1.2 2.2q-0.1 0.3-0.1 0.6 0 0.1-0.1 0.2c0.2 0.1 0.4 0.1 0.6 0.1 0.3 0 0.7 0 1.2 0.2q1.1 0.3 2.1 0.7c1.7 0.6 2.4 1.5 3.1 2.4q0.3 0.4 0.7 0.8c0.1 0.1 0.4 0.2 0.9 0.3q0.3 0.1 0.6 0.1c0.6 0.2 1 0.4 1.4 0.6 0.3 0.2 0.6 0.4 0.8 0.4 2 0.2 2.7 1.4 3.2 2.2 0.3 0.5 0.5 0.8 0.9 1.1 0.4 0.2 1 0.3 1.8 0.3q0.4 0 0.8 0.1c0.6 0 1.2 0.2 1.7 0.4 0.4 0.2 0.8 0.3 1.1 0.3h0.3q0.6 0 1.3 0.1c2.1 0.1 4.7 0.2 6.3 2.4l0.1 0.2c0.6 0.8 2.2 3 3.1 3.2 0.6-1.2 1.5-1.5 2.3-1.8 0.6-0.1 1.1-0.2 1.6-0.2 0.4 0 1.1-0.1 1.2-0.2l2.4 1.4-0.1 0.2c-1.3 4.3-2.5 8.4-5 12.3-0.5 0.8-1.1 1.5-1.6 2.3-0.8 1-1.5 2-2.1 3-0.4 0.9-0.8 1.9-1.2 2.9q-0.6 1.3-1.2 2.6l-1.4-0.6q-0.1 0.3-0.3 0.7-0.3 0.5-0.6 0.9l1.8 0.6c-0.7 2.7-1.4 4.9-2.3 7.2-0.3 0.8-0.4 1.7-0.6 2.6-0.1 0.8-0.3 1.6-0.5 2.5q-0.3 0.9-0.6 1.8c-0.3 1.1-0.7 2-0.9 3-0.7 2.8-1 5.7-1.4 8.5v0.2q-0.2 2.2-0.5 4.4-0.2 2.9-0.6 5.7c-0.1 1-0.1 2.1 0 3.2q0 0.9 0 1.7c0 2.3-0.8 4-1.6 5.5l-0.4 0.7c-0.6 1-1.1 2-1.4 3 0 0.1 0.2 0.4 0.3 0.6 0.2 0.4 0.5 1 0.6 1.7 0.1 1 0 2 0 2.9q0 0.5 0 0.9c0 0.5 0 0.9 0.1 1.4q0.1 0.5 0.1 1.1l-0.5-0.6q-0.4 0-0.9 0c-0.5 0-0.9 0-1.4-0.1q0-0.1 0-0.1-0.1-0.4-0.3-0.8c-0.5-1.2-1.6-1.3-2.2-1.4q-0.1 0-0.2 0 0-0.1 0-0.1c-0.2-0.2-0.4-0.6-0.8-0.8-0.3-0.3-0.6-0.4-0.9-0.5-0.2-0.1-0.3-0.2-0.4-0.2q-0.1-0.1-0.1-0.2c-0.3-0.4-0.9-1.3-2.2-1.3q0 0 0 0c-0.9 0-1.5 0.5-2 0.8-0.2 0.1-0.5 0.3-0.5 0.3-0.2 0-0.2-0.1-0.5-0.2-0.3-0.2-0.8-0.5-1.6-0.5q-0.5 0-1.1 0.2-0.3 0.1-0.6 0.1-0.5 0-1-0.1-0.6-0.1-1.2-0.2 0 0 0 0 0 0 0 0-0.3-0.1-0.6-0.1c-0.7 0-1.3 0.2-1.9 0.4-0.5 0.1-1 0.3-1.3 0.3-0.7-0.1-1.3-0.4-2-0.7-0.9-0.5-2.1-1-3.5-1.1-0.4-0.1-1.6-0.1-1.8-0.3q0 0 0-0.2c0.2-1.1-0.3-1.9-0.6-2.5-0.1-0.2-0.2-0.4-0.3-0.6q0-0.1 0-0.2c0-2.2-1.3-2.6-2.1-2.6q-0.2 0-0.4 0.1-0.3 0-0.7 0-0.1 0-0.1 0c-0.1-0.5-0.4-1.9-1.8-1.9-0.3 0-0.6 0-1 0.3q-0.4 0.3-0.7 0.5 0 0 0 0-0.1 0-0.4-0.1-1-0.5-2-1.1-0.8-0.4-1.7-0.8c-1.1-0.5-3-1.3-3.8-2.5-0.4-0.5-0.6-1-0.7-1.3q0 0 0.1 0c0.5-0.3 1.5-0.8 1.6-2 0.1-1.2-0.8-2-1.4-2.5-0.1-0.1-0.3-0.3-0.4-0.4l-0.4-2.1q-0.3-0.2-0.7-0.3-0.1-0.1-0.2-0.1 0.1-0.6-0.3-1.2-0.1-0.2-0.3-0.3 0.1-0.2 0.3-0.4c0.8-0.9 2-1 2.7-1q0.2 0 0.5 0-0.2-0.3-0.3-0.6c-0.2-1 0-2.1 0.6-2.9q0.1 0 0.1-0.1c0 0-0.2-0.4-0.2-0.4-0.4-0.8-0.4-1.7 0.1-2.4 0.4-0.7 1.1-1.1 1.9-1.1q0.5 0 1 0.3 0.1 0 0.2 0.1 1-1.3 2.5-1.3c0.7 0 1.4 0.2 1.9 0.4 0.5 0.1 0.9 0.3 1.2 0.3q0.2 0 0.2-0.1 0 0 0 0c0 0 0.2-0.3 0.3-0.4 0.2-0.4 0.4-1 0.9-1.4-0.3-0.4-0.7-0.9-0.8-1.6-1.2-0.5-2.1-2-2.2-2.5l-0.1-0.1c-0.2-1.2 0.1-2 0.4-2.7 0.2-0.3 0.3-0.5 0.3-0.7l0.2-0.7q-0.1 0.2-0.1 0.3 0-0.1 0-0.3c0-0.3 0.1-1 0.5-1.5 0.2-0.3 0.4-0.5 0.6-0.7q0 0 0 0c0-0.2-0.1-0.6-0.4-1.4q0 0 0 0c0 0-0.2-0.1-0.4-0.1-0.5-0.3-1.2-0.8-1.5-1.8v-0.4c0.2-2.4 2.2-2.8 3.4-3.1h0.1q0.4-0.2 0.9-0.2c0.4 0 0.8 0.1 1.1 0.2q0 0 0 0.1 0.6-0.4 1.1-0.7c0.2-0.2 0.5-0.5 0.7-0.8 0.5-0.5 1.1-1.2 2-1.6q0.2-0.1 0.4-0.2c0.4-0.2 0.9-0.5 1.5-0.5q0.1 0 0.1 0 0.2-0.3 0.8-0.7 0 0 0.1 0 0-0.2-0.1-0.3c-0.1-0.7-0.3-1.7 0.3-2.6l0.3-0.4c0 0 0 0 0.1-0.2 0.1-0.4 0.5-1.4 2-1.4 0.1-0.2 0.3-0.5 0.4-0.7 0.2-0.4 0.6-1.1 1.5-1.1l0.3 0.1c0.9 0.2 1.3 1 1.6 1.5l4.5-3.4c0.2-0.1 0.4-0.3 0.7-0.6 1.3-1.1 2.1-1.8 2.8-2.2q-0.2-0.1-0.4-0.3c-0.4-0.4-0.6-0.9-0.5-1.5q0-1.2 0-2.5c0.1-1.7 0.1-3.5 0.3-5.3q0-0.6 0.1-1.2c0-0.8 0.1-1.7 0.3-2.6-0.6-0.1-1.5-0.3-2.2-0.3q-0.2 0-0.2 0.1c-0.1 0-0.5 0.4-0.7 0.6-0.6 0.6-1.2 1.2-2.2 1.2q-1.5 0-2.2-2.1c-0.1-0.3-0.4-0.7-0.7-0.8 0 0.1-0.2 0.1-0.3 0.2-0.4 0.1-0.8 0.2-1.2 0.2q-0.4 0-0.7-0.1c-1.5-0.5-1.4-2.6-1.4-4.1q0-0.3 0-0.4 0-0.2 0-0.4-0.2 0-0.5-0.1c-0.7-0.2-1.1-0.7-1.5-1-0.1-0.1-0.2-0.2-0.2-0.2h-0.1c-0.8 0-1.9-0.4-2.1-2-0.1-0.2-0.1-0.3-0.1-0.4l-0.1-0.1c-1-1.6 0.2-2.9 0.7-3.6q0.1 0 0.1-0.1c0-0.5 0-0.9-0.1-1.2-0.2-0.5-0.9-0.9-1.6-1.2q0 0 0 0c-0.1 0-0.2 0-0.3 0-1.1-0.2-2.5-0.5-2.7-1.8-0.1-1 0.5-1.6 0.8-1.9q0.1-0.2 0.1-0.4c0.1-0.4 0.2-0.8 0.5-1.3-0.1 0-0.3-0.1-0.4-0.1-0.8-0.2-2.3-0.6-2.2-2.1 0-0.6 0.1-1.2 0.2-1.7q0.1-0.4 0.2-0.7c0.1-0.8 0.4-1.4 0.7-2 0.5-1 0.5-1.1 0.2-1.6l-0.2-0.3c-0.3-0.8-0.9-2.5 0-3.5l-0.1-0.1q-0.2-0.5-0.1-1.1c-1.1-0.2-1.5-0.9-1.7-1.3-1-0.3-1.6-1.2-1.9-1.8q-0.2-0.3-0.3-0.5l1-2.2q0.3 0 0.6 0c0.2-0.1 0.6-0.1 0.7-0.1l2.6-1.9c0.4-0.4 0.9-0.6 1.5-0.6q0.3 0 0.5 0.1zm-7.6 81.1q0 0 0 0 0 0 0 0zm43.3-15.4q0 0 0.1 0c0.2 0.2 0.5 0.3 0.8 0.6q0.2-0.5 0.3-0.9 0.2-1.1 0.5-2.2c0.3-0.8 0.6-1.5 1-2l-0.5-0.2v0.1c-0.2-0.2-0.4-0.2-0.5-0.2q-0.3 0-0.6 0 0.1 0.1 0.1 0.2c0.3 1.3-0.3 2.6-0.9 3.9q-0.1 0.4-0.3 0.7z"/>
		<path id="&lt;Path&gt;" class="s4" d="m327.6 316.6c-0.3-0.4-0.5-1-0.6-1.4q-0.1-0.2-0.2-0.4c-0.8-1.7-0.6-2.6-0.1-3.8-0.9-0.5-1.2-1.5-1.4-2.1q0-0.2-0.1-0.3c-0.5-1.3 0.4-2.1 0.9-2.5-0.1-0.3-0.3-0.8-0.2-1.3 0.2-0.4 0.5-0.8 0.9-1.1 0.6-0.3 1.1-0.4 1.6-0.5q0.3 0 0.5-0.1 0.1-0.1 0.3-0.2c0.5-0.4 0.9-0.7 1.5-0.7h0.3c0.7 0.2 1.1 0.6 1.4 0.8q0 0.1 0.1 0.1 0.1-0.1 0.2-0.3c0.3-0.5 0.8-1.1 1.6-1.4q0.3-0.1 0.7-0.1c0.7 0 1.3 0.3 1.8 0.5 0.3-0.7 0.7-1.1 1-1.2q0.1-0.3 0.2-0.7l0.1-0.3q0-0.3 0-0.5 0.3-2.3 2.2-2.3 0.1 0 0.3 0c0.2-0.1 0.5-0.3 1-0.3h0.2c0.6 0.1 1.1 0.4 1.4 0.7q0.2 0.1 0.3 0.1 0 0 0 0 0.1-0.1 0.2-0.2-0.2-0.2-0.4-0.5c-0.6-1-0.1-2.2 0.1-2.6 0.1-0.3 0.3-1.6 0.4-2.7 0.1-0.5 0.2-0.9 0.4-1.2q-0.5-0.2-1-0.4-0.5-0.2-1.1-0.2-0.5 0.1-1 0.1-0.4 0.1-0.7 0.1-0.2 0-0.4-0.1c-0.1 0-0.4-0.5-0.5-0.8-0.3-0.4-0.6-0.8-1-1.3-1-1-2.3-1.7-3.7-2.2q-1-0.3-1.7-0.3c-2.3 0-2.8 2-3.2 3.6q-0.1 0-0.4 0c-0.7 0-1.4-0.2-1.6-0.3-0.5-0.4-1-0.9-1.5-1.5-0.8-0.8-1.7-1.8-2.9-2.4-0.2-0.1-0.5-0.3-0.8-0.6-0.5-0.4-1.1-1-2-1.2-0.5-0.2-1.1-0.2-1.8-0.2-0.3 0-0.9 0-1.2-0.1q0 0 0 0c-0.2-0.4-0.5-1.1-1.5-1.4-0.3-0.1-0.6-0.1-0.9-0.2q-0.1 0-0.2 0c-1.2-0.5-3.1-0.7-4.2-0.8l-0.9 0.2c-0.4 0.3-0.9 0.6-1.4 1.1-1 0.9-2 2.3-1.7 3.7q0 0.4 0.1 0.8 0 0.1 0 0.2 0 0 0 0c-0.5 0.4-1.2 0.9-1.2 1.9 0 0.6 0.3 1.2 0.6 1.6-0.6 0.3-1.1 0.6-1.3 1.3-0.2 0.4-0.2 0.8-0.1 1.2-0.1 0-0.4 0-0.4 0-1.6 0-2 1.6-2.2 2.4q0 0.2-0.1 0.3 0 0 0 0c-0.3 0.2-1 0.6-1.2 1.5q-1.1 0.4-1.3 1.5 0 0.3-0.1 0.6 0 0 0 0c-0.3 0.4-0.6 0.8-0.8 1.2q0 0.1-0.1 0.2c-1.1 0.1-1.7 0.9-2 1.4-0.7 0-1.4 0.4-1.7 1.1-0.6 1.2 0.2 2.7 0.6 3.3q0.4 0.5 0.9 0.9c0.3 0.2 0.6 0.5 0.7 0.8q0 0 0 0-0.1 0.2-0.2 0.4 0 0.2-0.1 0.4c-0.3 0.1-0.7 0.2-1 0.5-0.6 0.5-0.7 1.3-0.7 1.8-0.1 0.1-0.1 0.2-0.1 0.3q-0.1 0.3-0.4 0.6c1.8 0.4 4.1 1.8 4.5 3.8 0 0.2 0.1 0.5 0.1 0.6q0.1 0 0.2 0 0.3 0 0.6 0 0.3 0 0.7 0 0 0 0 0c0.8 0 1.2 0.2 1.4 0.3l0.2 0.1c0.1-0.1 0.8-0.3 0.9-0.4q0 0 0 0c0 0 0-0.2 0.1-0.3 0.1-0.4 0.3-1 0.8-1.5 0.5-0.4 1-0.6 1.5-0.6 0.9 0 1.6 0.5 2.1 0.9q0.2 0.1 0.3 0.2c2.2 1.1 1.7 2.9 1.3 3.9q0 0 0.1 0.1c0.2 0.4 0.5 1.1 0.3 1.9q0.1 0 0.2 0c0.4 0.1 0.8 0.1 1.3 0.3q0.3 0.1 0.5 0.2c0.5-1 1.1-1.2 1.6-1.2 0.4 0 0.6 0.1 0.8 0.2q0.1 0 0.2 0c0 0 0.6 0 0.7 0 0.4 0 1.5 0 2.3 1 0.2 0.4 0.3 0.8 0.4 1.2q0 0 0.1 0c0.9 0 1.4 0.5 1.7 1q0.4-0.1 0.8-0.2c0.5 0 0.9 0.2 1.3 0.6q0.1 0.1 0.2 0.2 0.7-0.3 1.7-0.3c0.6 0 1.3 0.1 1.8 0.3q0.1 0 0.1 0.1c0.2-0.6 0.7-1.2 1.7-1.6q0.3-0.1 0.6-0.1 0-0.2 0-0.4c-0.1-0.9 0.4-1.4 0.7-1.7q0 0 0-0.1c0-0.4 0.2-0.7 0.3-1q-0.4-0.5-0.5-1.3c-0.3-0.2-0.6-0.4-0.8-0.7z"/>
		<path id="&lt;Path&gt;" class="s5" d="m337 321.9q0.2 0 0.5 0.1c0-0.2-0.1-0.4-0.2-0.6-0.2-0.4-0.7-1.2-0.4-2.1 0.3-0.8 1-1 1.6-1.2q0 0 0-0.1c0.2-0.3 0.6-1 1.3-1.3 0.3-2.5 2.1-3.7 3.8-4.6 0.6-0.4 1.3-0.5 1.8-0.6 0.4 0 0.6 0 0.7-0.1 0.4-0.3 0.7-0.4 1.1-0.5-0.1-0.8-0.1-1.8 1-2.4 0.2-0.1 0.2-0.2 0.2-0.2 0 0 0-0.1 0.1-0.4 0.1-1 0.9-1.6 1.8-2.3 0.3-0.2 0.6-0.5 0.8-0.6 0.1-0.2 0.1-0.5 0.1-1 0.1-0.5 0.2-1.3 0.6-2 0.1-0.4 0.4-0.6 0.6-0.9l0.1-0.2c0.5-0.7 1.1-0.8 1.5-0.8 0.8 0 1.2 0.5 1.4 0.9q0.2-0.1 0.3-0.2c0.3-0.2 0.7-0.4 1.1-0.5 0.3 0 0.7 0 1 0q0.1 0 0.3 0c-0.1-0.7 0-1.2 0.2-2l1.5-1q0 0 0 0c0.3 0 0.5 0 0.7-0.1q0 0 0.1 0 0 0 0 0c-0.3-0.5-0.6-0.7-1-0.8q0.1-0.2 0.2-0.4c0.2-0.8 0.1-1.6-0.1-2.1 0-0.1-0.1-0.3-0.1-0.3q0 0 0 0 0.1-0.1 0.2-0.2c0.2-0.4 0.6-0.9 0.6-1.6 0.1-1-0.2-2.1-0.9-2.9-0.6-0.6-1.3-0.9-2.1-0.9q-0.5 0-1 0.2c-0.9 0.3-1.3 1.1-1.7 1.6 0 0.1-0.1 0.2-0.2 0.3q0 0 0 0-0.3 0-0.7-0.1c-0.4 0-1.6 0.2-2 1.8q0 0.2-0.1 0.5 0 0.1 0 0.2 0 0 0 0c-0.5 0-1.5-0.1-1.6-0.3q-0.2-0.4-0.3-0.7c-0.2-0.8-0.6-1.9-2.1-2.6q-0.7-0.3-1.4-0.3c-0.4 0-1.5 0.2-2.1 1.5-0.2 0.3-0.3 0.7-0.4 1.2-0.1 1.1-0.3 2.4-0.4 2.7-0.2 0.4-0.7 1.6-0.1 2.6q0.2 0.3 0.4 0.5-0.1 0.1-0.2 0.2 0 0 0 0-0.1 0-0.3-0.1c-0.3-0.3-0.8-0.6-1.4-0.7h-0.2c-0.5 0-0.8 0.2-1 0.3q-0.2 0-0.3 0-1.9 0-2.2 2.3 0 0.2 0 0.5l-0.1 0.3q-0.1 0.4-0.2 0.7c-0.3 0.1-0.7 0.5-1 1.2-0.5-0.2-1.1-0.5-1.8-0.5q-0.4 0-0.7 0.1c-0.8 0.3-1.3 0.9-1.6 1.4q-0.1 0.2-0.2 0.3-0.1 0-0.1-0.1c-0.3-0.2-0.7-0.6-1.4-0.8h-0.3c-0.6 0-1 0.3-1.5 0.7q-0.2 0.1-0.3 0.2-0.2 0.1-0.5 0.1c-0.5 0.1-1 0.2-1.6 0.5-0.4 0.3-0.7 0.7-0.9 1.1-0.1 0.5 0.1 1 0.2 1.3-0.5 0.4-1.4 1.2-0.9 2.5q0.1 0.1 0.1 0.3c0.2 0.6 0.5 1.6 1.4 2.1-0.5 1.2-0.7 2.1 0.1 3.8q0.1 0.2 0.2 0.4c0.1 0.4 0.3 1 0.6 1.4 0.2 0.3 0.5 0.5 0.8 0.7q0.1 0.8 0.5 1.3 0.2-0.4 0.4-0.6 0.1-0.2 0.2-0.3l1.8-1.1c1.1 0.4 3 1.2 3.5 2.6 0.3 0.6 0.3 1.2 0 1.8-0.3 0.5-0.4 0.9 0.3 1.8q0.1 0 0.1 0c0.3-0.3 0.8-0.9 1.8-0.9z"/>
		<path id="&lt;Path&gt;" class="s6" d="m287.7 366.7l-0.2-0.6q-0.1-0.7-0.3-1.3c-0.4-1.4-0.2-2 0.1-2.9 0.1-0.2 0.2-0.4 0.3-0.8 0.3-1.3 0.7-2 2.3-2q0.2 0 0.5 0c1.3-0.1 2.3-0.4 3.1-0.8 0.2 0 0.2-0.1 0.2-0.1 0-0.1 0-0.5 0-0.7-0.1-0.4-0.1-0.9-0.1-1.4 0.1-0.6 0.5-1.1 0.7-1.3q0-0.1 0-0.1c0.1-0.6 0.2-1.4 0.7-2.2 0.4-0.8 1.4-1.8 3.5-1.8q0.9 0 1.8 0.1c1.4 0.2 1.9 1.3 2.2 1.8q0 0.2 0.1 0.4c0.3 0.4 0.6 0.5 1 0.5 0.6 0 1.4-0.2 2.2-0.5q0.7-0.2 1.3-0.4h0.2q0.2 0 0.4 0c1.1 0 1.8 0.4 2.3 0.7 0.2 0.1 0.5 0.2 0.8 0.3 0.3 0.2 0.7 0.2 1.1 0.2 0.7 0.1 1.4 0.1 2.1 0.4 0.7 0.3 1 0.8 1.2 1.2q0.6-0.2 1.2-0.2 0.4 0 0.7 0c-0.3-1 0-1.8 0.2-2.5 0.2-0.5 0.3-0.8 0.3-1.2-0.3-2.4-0.2-3.4 0.4-4.1 0.3-0.4 0.8-0.6 1.2-0.6q0.7 0 1.3 0.5 0.2 0.2 0.5 0.4 0-0.1 0.1-0.2l-0.1-0.2c0.5-0.6 1.1-0.9 1.5-1.1 0-0.6 0.1-1.7 1.8-2.2 1.2-0.4 1.2-0.4 1.9-2l0.1-0.3c0.2-0.5 0.6-0.9 0.9-1.2 0.1-0.1 0.2-0.2 0.3-0.4q0 0 0 0c-0.1-0.4-0.4-1.5 0.6-2.4 0.3-0.2 0.8-0.4 1.3-0.7 0.2-0.1 0.6-0.3 1-0.5-0.2-0.6 0-1.2 0.1-1.6 0-0.1 0-0.2 0.1-0.3q-0.1-0.2-0.2-0.4c-0.3-0.5-0.6-1.2-0.6-2.1 0.1-1.5 1.6-1.9 2.2-2.1q0.1 0 0.1-0.1c-0.1-0.9 0-1.9 1.3-2.4-0.4-0.6-0.6-1.3-0.4-2.1l0.1-0.3c0.3-0.8 0.6-1.7 2-2.3-0.7-0.9-0.6-1.3-0.3-1.8 0.3-0.6 0.3-1.2 0-1.8-0.5-1.4-2.4-2.2-3.5-2.6l-1.8 1.1q-0.1 0.1-0.2 0.3-0.2 0.2-0.4 0.6c-0.1 0.3-0.3 0.6-0.3 1q0 0.1 0 0.1c-0.3 0.3-0.8 0.8-0.7 1.7q0 0.2 0 0.4-0.3 0-0.6 0.1c-1 0.4-1.5 1-1.7 1.6q0-0.1-0.1-0.1c-0.5-0.2-1.2-0.3-1.8-0.3q-1 0-1.7 0.3-0.1-0.1-0.2-0.2c-0.4-0.4-0.8-0.6-1.3-0.6q-0.4 0.1-0.8 0.2c-0.3-0.5-0.8-1-1.7-1q-0.1 0-0.1 0c-0.1-0.4-0.2-0.8-0.4-1.2-0.8-1-1.9-1-2.3-1-0.1 0-0.7 0-0.7 0q-0.1 0-0.2 0c-0.2-0.1-0.4-0.2-0.8-0.2-0.5 0-1.1 0.2-1.6 1.2q-0.2-0.1-0.5-0.2c-0.5-0.2-0.9-0.2-1.3-0.3q-0.1 0-0.2 0c0.2-0.8-0.1-1.5-0.3-1.9q-0.1-0.1-0.1-0.1c0.4-1 0.9-2.8-1.3-3.9q-0.1-0.1-0.3-0.2c-0.5-0.4-1.2-0.9-2.1-0.9-0.5 0-1 0.2-1.5 0.6-0.5 0.5-0.7 1.1-0.8 1.5-0.1 0.1-0.1 0.3-0.1 0.3q0 0 0 0c-0.1 0.1-0.8 0.3-0.9 0.4l-0.2-0.1c-0.2-0.1-0.6-0.3-1.4-0.3q0 0 0 0-0.4 0-0.7 0-0.3 0-0.6 0-0.1 0-0.2 0c0-0.1-0.1-0.4-0.1-0.6-0.4-2-2.7-3.4-4.5-3.8q-0.3-0.1-0.6-0.1-0.2 0-0.3 0c-0.9 0-1.6 0.3-2.1 0.6-0.3 0.2-0.5 0.3-0.7 0.4l-0.5 0.1c-0.1 0-0.5-0.1-0.8-0.2-0.5-0.2-1.1-0.3-1.7-0.3q-0.4 0-0.7 0.1c-0.8 0.2-1.5 0.5-2.1 0.8-0.4 0.2-0.8 0.5-1.4 0.6-0.5 0.2-1.3 0.4-1.8 1.4-0.3 0.6-1.7 1.5-2.6 1.5q-0.1 0-0.1 0c-0.1-0.1-0.2-0.2-0.3-0.3-0.3-0.4-0.9-1.1-2-1.1q-0.6 0-1.2 0.3-0.2 0-0.4 0.1c-0.7 0.3-2 0.8-2.1 2.6q0 0.2-0.1 0.3c-0.3 2.4 0.8 3.1 1.7 3.2q0.3 0.1 0.7 0.1 0.4 0 0.8-0.1 0.3 0 0.6 0 0.1 0 0.2 0c0.9 0.1 1.4 0.7 1.8 1.2-0.5 0.2-0.8 0.4-1.1 0.7-0.9 0.9-0.4 3.1-0.3 3.3 0.2 0.4 0.4 0.8 0.6 1 0.1 0.1 0.3 0.3 0.3 0.3q0 0.2-0.1 0.4c-0.1 0.7-0.3 1.9 0.6 2.7 0.8 0.8 1.7 0.8 2.4 0.8q0.2 0 0.5 0c-0.3 1-0.8 1.7-1.4 2.6q-0.4 0.5-0.8 1c-0.5-0.5-1.1-0.6-1.5-0.6-0.8 0-1.4 0.4-2 0.7l-0.2 0.1q-0.1 0.1-0.4 0.2c-3 1.4-3.6 1.8-3.8 2.7l0.1 0.6c-0.1 0.1-0.4 0.3-0.6 0.4-0.5 0.3-0.8 0.7-1.1 1-0.2-0.3-0.4-0.6-0.7-0.8q-0.7-0.5-1.4-0.5c-0.7 0-1.2 0.3-1.6 0.4-0.2 0.1-0.4 0.2-0.4 0.2-0.2 0-0.6-0.1-0.9-0.1q-0.5-0.1-0.9-0.2-0.3-0.1-0.7-0.1-0.5 0-0.9 0.2l-0.2 0.1c-0.7 0.3-1.5 0.7-2.2 1.7v0.2h-0.1c-0.8 0-1.3 0.4-1.5 0.7-0.4 0.6-0.2 1.4-0.1 1.7-0.1 0.2-0.3 0.3-0.5 0.4-0.3 0.2-0.6 0.4-0.9 0.7l-1 0.9c-1 1-0.6 2.2-0.4 2.7q0 0 0 0 0 0.1 0 0.1 0 0 0-0.1c0-0.1 0.1-0.2 0.1-0.2v0.2 2q0.4 0.3 0.8 0.6c0.6 0.3 1.1 0.7 1.5 1.1 0.4 0.4 0.6 1 0.9 1.7 0.4 1 0.8 2.3 2.2 3.2 1.4 0.9 3 1.5 4.5 2l0.8 0.3c1.9 0.7 3.5 1.5 4.9 2.5l0.3 0.2c1.7 1.3 3.7 2.7 6.3 3 2.3 0.2 4.1 1.1 6.2 2.4 1 0.6 2.2 1.3 3.5 1.3q0.1 0 0.2 0l0.8-0.3 0.1-0.1c0.3-0.2 0.6-0.4 0.8-0.7q0 0.1-0.1 0.1z"/>
		<path id="&lt;Path&gt;" class="s7" d="m345.4 350l0.9-1.2c0.2 0 0.4-0.1 0.8-0.2 0.2 0 0.5 0 0.8-0.1-0.2-1.3 0.4-2.8 1.4-3.8-0.1-0.3-0.2-0.5-0.3-0.7-0.5-0.7-1.8-2.4-0.5-3.5 0.4-0.3 0.8-0.5 1.3-0.7 0.3-0.2 0.8-0.4 0.9-0.6l0.3-0.4c0.3-0.3 0.4-0.7 0.7-1.1 0.2-0.5 0.4-1 0.9-1.5 0.5-0.8 1.1-1.5 2.1-1.5 0.5 0 0.9 0.2 1.2 0.6l0.3 1q0 0 0.2 0.2c1.2 1 1 2.1 1 2.7q-0.1 0.3 0 0.3c0 0.2 0.2 0.4 0.4 0.6q0.3 0.4 0.7 0.8c0.8 1.4 0.6 2.8 0.4 3.9q0 0.2-0.1 0.4 0 0.8-0.2 1.4c1 0.4 1.4 1.5 1.5 2 0.1 0.2 0.2 0.5 0.3 0.6 0 0 0 0 0.2 0 0.2 0 0.5-0.1 0.9-0.1q0.4-0.1 0.8-0.2c-0.1-0.4 0-0.9 0-1.7 0-0.3 0-0.5 0-0.6 0-0.6 0.2-1.2 0.3-1.8 0.1-0.2 0.2-0.6 0.2-0.7 0 0 0 0.1 0.1 0.2l-0.1-0.6c0-0.1-0.1-0.4-0.1-0.6-0.2-0.5-0.4-1.1-0.3-1.9l0.1-1.2h-0.1c-0.4-0.6-1.5-1.9-1.1-3.3 0.1-0.5 0.6-1.3 1.8-1.7l0.4 0.2q0.1-0.1 0.2-0.1c0.4-0.3 0.9-0.7 1.6-0.7h0.2c0.6 0 1.1 0.2 1.5 0.3 0.3-0.6 0.4-1.4 0.2-2.1-0.5-2-2.9-3.7-4-4.1-0.7-0.3-1.3-0.4-1.8-0.4l-0.7 0.1q-0.2 0-0.4-0.1c-0.1 0-0.3-0.4-0.5-0.6-0.1-0.2-0.2-0.4-0.3-0.5q0-0.1 0-0.2c0-0.3 0-0.6-0.1-1.1l-1.2-1.1h-0.3c-0.7 0-1.3 0.4-1.6 0.6q-0.7-0.4-1.4-0.4c-1.9 0-2.6 1.9-3 3.2q-0.2 0.5-0.4 0.8c-0.1 0.2-0.4 0.5-0.7 0.7-0.1-0.9-0.6-1.4-0.9-1.8q-0.1-0.1-0.2-0.2 0-0.1 0.1-0.3c0.2-0.4 0.4-1 0.3-1.8-0.6-3.8-3-4.6-5.5-4.9-1-0.1-1.1-0.3-1.6-1.4-0.2-0.6-0.6-1.3-1.2-2l-0.6-0.4q-0.3-0.2-0.7-0.2-0.4 0.1-0.7 0.2c-0.7 0.3-1.1 1-1.3 1.3q0 0.1 0 0.1c-0.6 0.2-1.3 0.4-1.6 1.2-0.3 0.9 0.2 1.7 0.4 2.1 0.1 0.2 0.2 0.4 0.2 0.6q-0.3-0.1-0.5-0.1c-1 0-1.5 0.6-1.8 0.9q0 0-0.1 0c-1.4 0.6-1.7 1.5-2 2.3l-0.1 0.3c-0.2 0.8 0 1.5 0.4 2.1-1.3 0.5-1.4 1.5-1.3 2.4q0 0.1-0.1 0.1c-0.6 0.2-2.1 0.6-2.2 2.1 0 0.9 0.3 1.6 0.6 2.1q0.1 0.2 0.2 0.4c-0.1 0.1-0.1 0.2-0.1 0.3-0.1 0.4-0.3 1-0.1 1.6-0.4 0.2-0.8 0.4-1 0.5-0.5 0.3-1 0.5-1.3 0.7-1 0.9-0.7 2-0.6 2.4q0 0 0 0c-0.1 0.2-0.2 0.3-0.3 0.4-0.3 0.3-0.7 0.7-0.9 1.2l-0.1 0.3c-0.7 1.6-0.7 1.6-1.9 2-1.7 0.5-1.8 1.6-1.8 2.2-0.4 0.2-1 0.5-1.5 1.1l0.1 0.2q0.1-0.1 0.2-0.3l2.1-0.7c0.4 0.3 0.6 0.6 0.7 0.9 0.5 0.1 1.3 0.3 1.8 1.1q0.1 0.3 0.2 0.7c0.5 0.2 0.9 0.6 1 1.4 0.2 1.2-0.4 2.1-0.9 2.7q0.5 0.3 0.7 0.9 0 0.3 0 0.5 0.2 0.1 0.4 0.3c0.5 0.5 0.5 1.2 0.5 1.7q0 0.3-0.1 0.6c0 0.2 0 0.3 0 0.5 0 0 0.3 0.2 0.4 0.3q0.3-0.3 0.6-0.6c0.4-0.4 0.9-0.8 1.5-1.1q0.2-0.1 0.5-0.3c0.3-0.1 0.5-0.3 0.7-0.4q0-0.1 0.1-0.2c0.2-0.3 0.5-0.8 1-1.1q0.5-0.3 1.1-0.3c0.6 0 1 0.2 1.3 0.5 0.3-0.3 0.8-0.7 1.6-0.7q0.4 0 1 0.1c0.1 0 0.3-0.2 0.4-0.4q0.3-0.3 0.7-0.6c0.4-0.4 0.9-0.5 1.4-0.6 0.3-0.8 0.8-1.8 1.9-1.8 0.3 0 1.2 0.1 1.6 1.3v0.2c0.1 0.4 0.3 0.7 0.7 0.8 0.1-0.4 0.4-0.8 0.6-1 0.4-0.7 0.5-1 0.6-1.9z"/>
		<path id="&lt;Path&gt;" class="s7" d="m358.9 344.8c0.2-1.1 0.4-2.5-0.4-3.9q-0.4-0.4-0.7-0.8c-0.2-0.2-0.4-0.4-0.4-0.6q-0.1 0 0-0.3c0-0.6 0.2-1.7-1-2.7q-0.2-0.2-0.2-0.2l-0.3-1c-0.3-0.4-0.7-0.6-1.2-0.6-1 0-1.6 0.7-2.1 1.5-0.5 0.5-0.7 1-0.9 1.5-0.3 0.4-0.4 0.8-0.7 1.1l-0.3 0.4c-0.1 0.2-0.6 0.4-0.9 0.6-0.5 0.2-0.9 0.4-1.3 0.7-1.3 1.1 0 2.8 0.5 3.5 0.1 0.2 0.2 0.4 0.3 0.7q0.2-0.1 0.3-0.3l1.5-0.2c0.5 0.3 0.9 0.7 1.1 0.9 0.1 0.1 0.2 0.2 0.3 0.3 0 0 0.2 0 0.2 0 0.5 0 1.1 0.1 1.8 0.6q0 0 0.1 0 0.1 0 0.2 0 0.3-0.1 0.7-0.2 0.3-0.1 0.6-0.1c0.8 0 1.3 0.4 1.5 0.7q0.1 0 0.1 0 0.6 0 0.9 0.2 0.2-0.6 0.2-1.4 0.1-0.2 0.1-0.4z"/>
		<path id="&lt;Path&gt;" class="s5" d="m355.6 360.1q0.3 0 0.5 0 0.1 0 0.1 0c0.2-0.3 0.4-0.6 0.8-0.8q0.6-0.4 1.3-0.4 0.5 0 1 0.2 0-0.1 0-0.2c0.1-0.4 0.1-0.9 0.1-1.4 0-1.3 0-3 1-4.3 0 0 0.1-0.2 0.1-0.3 0.1-0.5 0.3-1.2 0.9-1.7l0.4-1.2c0.1-0.4 0.3-0.7 0.5-0.9q0-0.1 0-0.2-0.4 0.1-0.8 0.2c-0.4 0-0.7 0.1-0.9 0.1-0.2 0-0.2 0-0.2 0-0.1-0.1-0.2-0.4-0.3-0.6-0.1-0.5-0.5-1.6-1.5-2q-0.3-0.2-0.9-0.2 0 0-0.1 0c-0.2-0.3-0.7-0.7-1.5-0.7q-0.3 0-0.6 0.1-0.4 0.1-0.7 0.2-0.1 0-0.2 0-0.1 0-0.1 0c-0.7-0.5-1.3-0.6-1.8-0.6 0 0-0.2 0-0.2 0-0.1-0.1-0.2-0.2-0.3-0.3-0.2-0.2-0.6-0.6-1.1-0.9l-1.5 0.2q-0.1 0.2-0.3 0.3c-1 1-1.6 2.5-1.4 3.8-0.3 0.1-0.6 0.1-0.8 0.1-0.4 0.1-0.6 0.2-0.8 0.2l-0.9 1.2c-0.1 0.9-0.2 1.2-0.6 1.9-0.2 0.2-0.5 0.6-0.6 1q0.3 0.2 0.9 0.3l1.3 1.4c0-0.2-0.1-0.4-0.2-0.4q0.1 0.1 0.3 0.2c0.3 0.2 0.8 0.6 1 1.2 0.4 0.8 0.7 1.6 0.7 2.4 0.3 0.3 1.6 0.5 2.1 0.5q0.6 0.1 1 0.1c1.4 0.3 2.4 1.1 2.9 2.2q0 0 0 0 0-0.1 0.1-0.1c0.4-0.4 0.8-0.6 1.3-0.6z"/>
		<path id="&lt;Path&gt;" class="s6" d="m371 333c-1.3 0.3-1.6 1.5-1.7 2q0 0 0 0.1c-0.2 0-0.5 0-0.6 0q-0.3 0-0.6 0c-0.2 0-0.5-0.1-0.8-0.3q-0.2 0-0.3-0.1c-0.4-0.1-0.9-0.3-1.5-0.3h-0.2c-0.7 0-1.2 0.4-1.6 0.7q-0.1 0-0.2 0.1l-0.4-0.2c-1.2 0.4-1.7 1.2-1.8 1.7-0.4 1.4 0.7 2.7 1.1 3.3h0.1l0.1-1.1 1.6-1.2c0.8 0.1 1.4 0.5 1.8 0.7 0.2 0.2 0.4 0.3 0.6 0.3 1.9 0.2 2.1 1.9 2.1 2.4 0.1 0.2 0.1 0.4 0.1 0.4 0.1 0.2 0.3 0.5 0.5 0.7 0.3 0.4 0.7 0.7 0.9 1.2l0.1 0.2c0.5 0.8 0.6 1 1.2 1.3 0.8 0.2 1.4 0.9 1.8 1.4q0.1 0.1 0.2 0.3 0-0.1 0-0.1 0.2-0.2 0.4-0.4c0.3-0.3 0.7-0.8 1.2-1.1q0.6-0.3 1.2-0.3c0.8 0 1.4 0.4 1.8 0.7 0.1-0.6 0.5-1.1 1-1.5q0.6-0.7 1.7-0.7 0.4 0 0.7 0.1-0.2-0.5-0.4-0.9 0 0-0.1 0-0.8 0-1.6-0.6c-1-0.8-0.8-2-0.7-2.5q-0.1 0-0.2-0.1c-0.7-0.1-2.3-0.4-2.6-2.1q0 0 0 0-0.3 0.1-0.7 0.2-0.6 0.1-1.1 0.1c-1 0-1.6-0.4-1.9-0.7-0.5-0.5-1.2-2.1-0.5-3.2q0.3-0.3 0.6-0.5 0 0 0 0c-0.2 0-0.3-0.1-0.4-0.1q-0.4 0-0.9 0.1z"/>
		<path id="&lt;Path&gt;" class="s8" d="m398.9 365.2q0-0.1 0-0.2c-0.6-0.1-1.6-0.1-2.3-0.9-0.4 0.5-1.1 1.1-2.1 1.1q-0.7 0-1.2-0.5c-0.9-0.6-1.2-1.5-1.4-2.1-0.1-0.3-0.1-0.5-0.2-0.7-0.1-0.2-0.7-0.4-1.1-0.6-1-0.5-3.3-1.5-2.3-4.3 0.5-1.5 1-2.2 2.1-3.2 0-0.1-0.1-0.4-0.2-0.6-0.2-0.8-0.4-1.8 0.1-2.9 0.5-1.1 1.3-1.5 1.8-1.7 0.1-0.1 0.2-0.1 0.3-0.1 0.2-0.9 0.8-1.4 1.8-1.4q0.2 0 0.5 0.1c0.5 0 1 0.2 1.4 0.3q0 0 0 0.1c0-0.2 0.1-0.7 0.1-0.8-0.2-0.1-0.5-0.2-0.9-0.3-0.8-0.2-1.8-0.4-2.6-1.3-0.1 0-0.6-0.1-0.9-0.2-1-0.2-2.1-0.5-2.7-1.6-0.1-0.3-0.2-0.8-0.1-1.4q-0.3-0.2-0.5-0.5c-1.1-1.2 0-3 0.3-3.7 0.6-0.9 1.3-1.3 1.7-1.6 0.2-0.1 0.4-0.2 0.4-0.3 0 0 0-0.1 0-0.3 0-1.1 0-2.2 1.2-3.3q0 0 0 0c0 0 0-0.1 0-0.3 0-0.5 0.1-1.3 0.7-2q1-1 1.9-2.1-0.1-0.1-0.1-0.1c-0.3-0.2-0.6-0.4-0.8-0.4q0 0-0.2 0.1c-0.2 0.1-0.5 0.2-1 0.2q-0.9 0-1.6-0.9-0.1-0.1-0.2-0.2 0 0-0.1 0.1-0.2 0.3-0.4 0.6c-0.3 0.5-0.6 0.9-0.9 1.3-0.4 0.4-0.8 0.6-1.3 0.6-1.2 0-1.8-1.2-2-1.6q-0.1-0.2-0.2-0.5-0.3 0.1-0.8 0.1c-0.7 0-1.4-0.3-1.7-0.9-0.4-0.7-0.4-1.3-0.4-1.8 0-0.1 0-0.4 0-0.5-0.4-0.8 0-1.4 0.5-1.7-0.3-0.4-0.6-0.8-0.6-1.3 0-0.6 0.3-1.1 0.7-1.5 0 0 0.1-0.1 0.2-0.2 0.4-0.5 0.8-0.9 1.2-1.1-0.3-0.3-0.6-0.9-0.6-1.8q0-0.1 0-0.3c-0.8-1.3-0.5-2.4-0.1-3.2q0.1-0.2 0.1-0.4-0.2 0-0.4 0-0.3 0-0.5 0-0.1 0.4-0.3 1.2c0 0.1 0.1 0.4 0.1 0.7 0.1 1 0.1 1.4-0.2 1.9-0.3 0.4-0.6 0.6-0.8 0.8q-0.1 0-0.1 0c-0.3 0.7-0.9 1.8-2.2 1.8q-0.8 0-1.6-0.7-0.4-0.2-0.5-0.6c-0.6 0.3-1.2 0.7-1.5 1.5-0.2 0.3-0.8 0.6-1.5 0.8-1.1 0.4-2.8 1.1-3 3.1l0.4 1.1 1.1 0.5q0.3 0 1-0.2c0.1 0.4 0.3 0.8 0.5 1-0.6 0.8-0.7 1.6-0.7 2.1q-0.1 0.2-0.1 0.3-0.1 0.1-0.3 0.2c-1.2 0.8-2.6 1.6-2.7 3 0 0.6 0.2 1.2 0.7 1.5 0.1 0.2 0.4 0.4 0.5 0.5q0 0 0 0-0.3 0.2-0.6 0.5c-0.7 1.1 0 2.7 0.5 3.2 0.3 0.3 0.9 0.7 1.9 0.7q0.5 0 1.1-0.1 0.4-0.1 0.7-0.2 0 0 0 0c0.3 1.7 1.9 2 2.6 2.1q0.1 0.1 0.2 0.1c-0.1 0.5-0.3 1.7 0.7 2.5q0.8 0.6 1.6 0.6 0.1 0 0.1 0 0.2 0.4 0.4 0.9-0.3-0.1-0.7-0.1-1.1 0-1.7 0.7c-0.5 0.4-0.9 0.9-1 1.5-0.4-0.3-1-0.7-1.8-0.7q-0.6 0-1.2 0.3c-0.5 0.3-0.9 0.8-1.2 1.1q-0.2 0.2-0.4 0.4 0 0 0 0.1-0.1-0.2-0.2-0.3c-0.4-0.5-1-1.2-1.8-1.4-0.6-0.3-0.7-0.5-1.2-1.3l-0.1-0.2c-0.2-0.5-0.6-0.8-0.9-1.2-0.2-0.2-0.4-0.5-0.5-0.7 0 0 0-0.2-0.1-0.4 0-0.5-0.2-2.2-2.1-2.4-0.2 0-0.4-0.1-0.6-0.3-0.4-0.2-1-0.6-1.8-0.7l-1.6 1.2-0.1 1.1-0.1 1.2c-0.1 0.8 0.1 1.4 0.3 1.9 0 0.2 0.1 0.5 0.1 0.6l0.1 0.6c-0.1-0.1-0.1-0.2-0.1-0.2 0 0.1-0.1 0.5-0.2 0.7-0.1 0.6-0.3 1.2-0.3 1.8 0 0.1 0 0.3 0 0.6 0 0.8-0.1 1.3 0 1.7q0 0.1 0 0.2c-0.2 0.2-0.4 0.5-0.5 0.9l-0.4 1.2c-0.6 0.5-0.8 1.2-0.9 1.7 0 0.1-0.1 0.3-0.1 0.3-1 1.3-1 3-1 4.3 0 0.5 0 1-0.1 1.4q0 0.1 0 0.2-0.5-0.2-1-0.2-0.7 0-1.3 0.4c-0.4 0.2-0.6 0.5-0.8 0.8q0 0-0.1 0-0.2 0-0.5 0c-0.5 0-0.9 0.2-1.3 0.6q-0.1 0-0.1 0.1 0.1 0.2 0.2 0.4 0.1 0.3 0.2 0.6c0.3 0.5 0.3 1 0.3 1.3 0.6 0.3 1.3 0.8 1.2 2 0 0 0 0.3 0 0.3q1.2 0.1 1.7 0.7c0.7 0.6 0.6 1.5 0.6 2q0 0 0 0c1.7 0.3 2 1.7 2.2 2.3 0.2 0.6 0.2 0.6 0.4 0.7q0 0 0.2 0c0.4 0 0.9-0.2 1.4-0.3 0.6-0.2 1.1-0.3 1.6-0.4q0.3 0 0.5 0c1 0 1.6 0.4 2 0.8 0.4 0.4 0.5 0.9 0.6 1.4q0.5-0.2 1-0.2 0.7 0 1.2 0.5 0.1 0 0.1 0 0.1-0.1 0.3-0.2c0.3-0.2 0.7-0.3 0.9-0.4q0 0 0 0c0.3-0.4 0.9-1.1 1.9-1.1 0.3 0 0.9 0.1 1.4 0.7 0.3 0.2 0.3 0.2 0.5 0.3 1.2 0.3 1.6 0.9 1.8 1.5q0.2-0.1 0.3-0.2 0.3-0.4 0.5-0.6c-0.2-0.3-0.5-0.7-0.6-1.1-0.3-1.3 0.1-4.8 2-5.6q0.6-0.3 1.4-0.3 0.6 0 1.1 0.1 0.4 0 0.7 0 0.2 0 0.3 0l2.2 1c0.1 1-0.2 1.8-0.4 2.2 0 0.2-0.1 0.3-0.1 0.4q0 0 0.2 0.2c0.5 0.6 0.7 1.2 0.8 1.8q0.1 0 0.1 0c0.4-0.5 1-1.2 2-1.3q0.3 0 0.7 0c0 0 0.2 0 0.2 0 0.4 0 0.5-0.1 0.6-0.1q0.3-0.2 0.6-0.3c0.4-0.3 0.9-0.6 1.5-0.8q0.4-0.2 0.8-0.2c0.9 0 1.6 0.5 2.2 0.8q0 0.1 0.1 0.1 0.1-0.3 0.3-0.7l1.3-0.5q0.4 0.1 0.8 0.1 0.7 0 1.5-0.1c0.1-0.1 0.6-0.7 0.9-1 0.3-0.4 0.6-0.8 1-1.2q-0.2-0.2-0.2-0.4-0.2-0.4-0.3-0.8z"/>
		<path id="&lt;Compound Path&gt;" fill-rule="evenodd" class="s4" d="m387.8 277.7l0.5 0.6 0.9 0.9-0.1 0.4c-0.1 0.9-0.1 1.7 0.1 2.4q0.1 0.5 0.4 1c0.2 0.6 0.5 1.3 0.7 2.1 1 0.4 1.6 1.7 2.1 2.7q0.1 0.2 0.1 0.3l0.3 0.6c0.6 1 1.2 2.2 2 2.8 1 0.7 2.9 1.9 2.2 4.5-0.2 0.8-0.5 1.7-1.2 2.5-0.2 0.3-0.3 0.5-0.5 0.9-0.1 0.4-0.3 0.8-0.6 1.2h-0.1-0.1q0.1 0.6 0.2 1 0 0.3 0.1 0.6c0.3 1.6 0.9 3 1.5 4.5q0.5 1.1 0.9 2.2c0.4 0.9 0.5 1.8 0.6 2.6 0.2 1.2 0.3 2.1 1 2.9 0.5 0.6 0.8 1.2 1 1.7 0.1 0.3 0.2 0.6 0.4 0.8q0.3 0.4 0.8 0.7c0.5 0.5 1.2 1.1 1.7 2q0.4 0.9 0.9 1.9c0.6 1.2 1.2 2.5 2 3.5l0.5 0.7c1 1.4 2.1 2.8 3 4.4 0.2 0.3 0.3 0.6 0.4 0.9 0.1 0.4 0.2 0.4 0.4 0.6 0.7 0.6 1.4 1.4 1.8 2.3 0.6 1.4 0.8 3 0.6 5.1-0.1 0.8 0 1.5 0.1 2.1 0 0.1 0.1 0.3 0.3 0.6 0.3 0.3 0.6 0.8 0.8 1.4 0.3 0.8 0.3 1.5 0.4 2.1 0.1 1 0.1 1.3 0.8 1.8q0.4 0.2 0.7 0.4c0.8 0.4 2 1 2.1 3 0.1 1.4 0.1 1.4 1.1 1.6 1.3 0.2 1.3 1.5 1.3 2.5 0.1 0.3 0.1 0.5 0.1 0.6q0.1 0.3 0.3 0.6c0.3 0.5 0.8 1.3 0.8 2.2 0.4 0.2 1 0.5 1.3 1.1 0.5 0.6 0.7 0.8 1.1 1 1.3 0.5 2.6 0.6 4.1 0.7l1 0.1q0.6 0 1.2 0.1c2 0.1 4.4 0.2 5.9 1.7q0.8 0.8 1.6 1.6c0.4 0.5 0.6 1 0.7 1.4 0 0.1 0.1 0.2 0.1 0.3 0.2 0 0.7 0 1.2 0 0.7 0 1.7 0 2.6 0.5l0.2 0.2c1 0.7 1.1 1.4 1.2 2 0.1 0.2 0.1 0.3 0.2 0.5 0.2 0.8 0.6 1.4 1 2.1 0.6 0.9 1.1 1.8 1.5 3 0.2 0.7 0.7 1.4 2.5 1.4 1.6 0 3.4-0.5 4.9-1-0.5 0.4-0.6 0.9-0.6 1.4q0 0.2 0 0.4c0 0.8-0.1 1.7 0.5 2.6 0 0.2 0.1 0.7 0.1 0.9-0.5 0.8-0.5 1.4-0.5 1.9 0.2 1.4 1.6 2.2 2.6 2.8 0.4 0.2 0.9 0.6 1 0.7 0.6 0.7 0.8 1.1 0.9 1.6 0.1 1.6 1.7 1.9 2.3 2q0 0 0.1 0c0.5 0.7 1.3 2.5 1.5 3.4-0.5 0.4-1 0.9-1.1 1.7 0 0.8 0.6 1.5 0.9 1.8q0 0 0 0.1 0 0 0 0l-0.2 0.2-0.1 0.1c0 0-0.1 0-0.3 0h-0.6c-0.3 0-0.9 0-1.4 0.2-0.9 0.4-1.3 1.2-1.5 1.7q-0.1 0-0.1 0.1-0.4-0.1-0.8-0.1l-10.4-1.6q-0.8-0.1-1.4 0c-0.8 0-1.2 0-1.8-0.4-0.9-0.5-1.8-0.8-2.9-0.8q-0.6 0-1.3 0.1c0.2-0.7 0.4-1.8-0.6-2.7-1-0.9-2.2-1.2-3.2-1.5h-0.1-0.1c-0.1-0.1-0.2-0.2-0.3-0.2-0.2-0.2-0.5-0.4-0.9-0.6q0.1 0 0.1-0.1c0.4-0.3 0.8-0.7 1-1.4 0.2-0.5 0.1-1-0.2-1.4-0.3-0.4-0.8-0.6-1.2-0.7q0.3-0.3 0.4-0.8c0.3-1.1 0-1.8-0.3-2.2-0.4-0.5-1.1-0.9-1.9-0.9-1.1 0-2.2 0.5-2.9 1.2-0.6 0.7-2.5 1.4-3.7 1.7q-0.5 0.2-1 0.4-0.4 0.1-0.8 0.1c-1.4 0-2.6-1.7-3.6-3.3q0.2-0.2 0.4-0.4c0.8-1 1.9-3.5 1.9-5-0.1-0.7-0.2-1.3-0.4-1.9q-0.1-0.4-0.2-0.9c-0.2-1.4-1.3-1.8-1.9-2.1q-0.2 0-0.4-0.2h-0.2c-0.4-0.3-1-0.6-1.7-0.6q-0.5 0-0.9 0.3-0.2 0-0.3 0.1c-0.2-0.1-0.5-0.2-0.8-0.2-0.2 0-0.5 0.1-0.8 0.2q0 0-0.1 0-0.4-0.5-0.8-0.9c-0.3-0.3-0.6-0.5-0.8-0.8 0 0 0-0.2 0-0.3 0-0.5-0.1-1.2-0.7-1.9q-0.2-0.3-0.4-0.5c-0.2-0.2-0.4-0.4-0.5-0.6-0.2-0.4-0.3-0.8-0.5-1.3-0.1-0.7-0.4-1.5-0.8-2.2-0.8-1.5-2.2-1.8-3.2-2q-0.3-0.1-0.6-0.1c0-0.1-0.2-0.2-0.2-0.4-0.3-0.3-0.7-0.8-1.3-1.2l-1.9 0.6q-0.2 0.3-0.3 0.6c-0.5 0.7-1.3 2-0.7 3.4 0 0.2 0 0.4 0 0.7l-0.7 0.3-0.7 0.5q0 0.1-0.1 0.2-0.2-0.2-0.2-0.4-0.2-0.4-0.3-0.8 0-0.1 0-0.2c-0.6-0.1-1.6-0.1-2.3-0.9-0.4 0.5-1.1 1.1-2.1 1.1q-0.7 0-1.2-0.5c-0.9-0.6-1.2-1.5-1.4-2.1-0.1-0.3-0.1-0.5-0.2-0.7-0.1-0.2-0.7-0.4-1.1-0.6-1-0.5-3.3-1.5-2.3-4.3 0.5-1.5 1-2.2 2.1-3.2 0-0.1-0.1-0.4-0.2-0.6-0.2-0.8-0.4-1.8 0.1-2.9 0.5-1.1 1.3-1.5 1.8-1.7 0.1-0.1 0.2-0.1 0.3-0.1 0.2-0.9 0.8-1.4 1.8-1.4q0.2 0 0.5 0.1c0.5 0 1 0.2 1.4 0.3q0 0 0 0.1c0-0.2 0.1-0.7 0.1-0.8-0.2-0.1-0.5-0.2-0.9-0.3-0.8-0.2-1.8-0.4-2.6-1.3-0.1 0-0.6-0.1-0.9-0.2-1-0.2-2.1-0.5-2.7-1.6-0.1-0.3-0.2-0.8-0.1-1.4q-0.3-0.2-0.5-0.5c-1.1-1.2 0-3 0.3-3.7 0.6-0.9 1.3-1.3 1.7-1.6 0.2-0.1 0.4-0.2 0.4-0.3 0 0 0-0.1 0-0.3 0-1.1 0-2.2 1.2-3.3q0 0 0 0c0 0 0-0.1 0-0.3 0-0.5 0.1-1.3 0.7-2q1-1 1.9-2.1-0.1-0.1-0.1-0.1c-0.3-0.2-0.6-0.4-0.8-0.4q0 0-0.2 0.1c-0.2 0.1-0.5 0.2-1 0.2q-0.9 0-1.6-0.9-0.1-0.1-0.2-0.2 0 0-0.1 0.1-0.2 0.3-0.4 0.6c-0.3 0.5-0.6 0.9-0.9 1.3-0.4 0.4-0.8 0.6-1.3 0.6-1.2 0-1.8-1.2-2-1.6q-0.1-0.2-0.2-0.5-0.3 0.1-0.8 0.1c-0.7 0-1.4-0.3-1.7-0.9-0.4-0.7-0.4-1.3-0.4-1.8 0-0.1 0-0.4 0-0.5-0.4-0.8 0-1.4 0.5-1.7-0.3-0.4-0.6-0.8-0.6-1.3 0-0.6 0.3-1.1 0.7-1.5 0 0 0.1-0.1 0.2-0.2 0.4-0.5 0.8-0.9 1.2-1.1-0.3-0.3-0.6-0.9-0.6-1.8q0-0.1 0-0.3c-0.8-1.3-0.5-2.4-0.1-3.2q0.1-0.2 0.1-0.4-0.2 0-0.4 0-0.3 0-0.5 0-0.1 0.4-0.3 1.2c0 0.1 0.1 0.4 0.1 0.7 0.1 1 0.1 1.4-0.2 1.9-0.3 0.4-0.6 0.6-0.8 0.8q-0.1 0-0.1 0c-0.3 0.7-0.9 1.8-2.2 1.8q-0.8 0-1.6-0.7-0.4-0.2-0.5-0.6-0.1-0.1-0.2-0.3c-1.2 1.1-2.4 1.7-3.8 2.3q-0.5 0.3-1 0.6l-0.6 0.3q-0.2 0.1-0.4 0.3c-0.8 0.6-1.6 1.1-2.5 1.1-0.7 0-1.3-0.4-1.6-1l-0.3-0.5c-0.3-0.5-0.5-1-0.9-1.4-0.6-0.8-0.7-1.7-0.4-2.6 0.3-1 1.1-1.9 2-2.5 0.1-0.2 0.1-0.6 0.3-0.9l-0.6-0.6c-0.1-0.9 0.5-1.5 1-2 0.1-0.1 0.3-0.4 0.3-0.5 0.1-1.2 1.2-1.9 1.8-2.2q0.1-0.1 0.2-0.2 0.1-0.1 0.1-0.2c0.3-0.6 0.6-1.4 1.4-1.7l0.6-0.1 1 0.5q0.3 0.2 0.4 0.6c0.2-0.6 0.6-1.1 1.1-1.6q-0.2-0.2-0.4-0.5 0-0.1-0.1-0.1-0.2 0-0.5 0c-0.2 0-0.7-0.1-1.1-0.6-0.4 0.3-0.9 0.6-1.5 0.6q0 0 0 0-0.8 0-1.3-0.5c-0.6-0.6-0.6-1.4-0.6-2.1q0 0 0 0c-0.5-0.3-1.2-0.7-1.5-1.6-0.3-0.6-0.2-1.1 0-1.5 0.3-0.6 0.9-0.9 1.3-1q0-0.1 0-0.1-0.2-0.1-0.4-0.3-0.2-0.2-0.4-0.6c-0.2-0.4-0.3-0.8-0.1-1.4-0.1-0.1-0.3-0.2-0.4-0.3q-0.2-0.2-0.3-0.3c-0.9-0.9-1.4-3.1-1-4.4 0.3-0.9 1-1.4 1.8-1.6h0.3c0.3 0 0.6 0.1 0.8 0.1q0.3-0.2 0.7-0.5c-0.4-0.2-0.8-0.5-1.1-1-0.4-0.8-0.2-1.5 0-1.9-0.2-0.5-0.5-1.3 0-2 0.3-0.5 0.7-0.7 1.3-0.7q0.3 0 0.6 0.1c0.1-0.4 0.3-0.8 0.5-1.1 0.2-0.3 0.4-0.6 0.4-0.9 0.1-1.1 0.8-1.7 1.3-2-0.5-0.4-1.1-0.8-1.4-1-1.4-0.2-1.8-0.7-2.4-1.6q0 0 0 0c-0.4-0.1-1.6-0.4-1.9-1.9l1.5-1.7q0 0 0 0 0 0 0 0 0.6 0.1 1.2 0.2 0.5 0.1 1 0.1 0.3 0 0.6-0.1 0.6-0.2 1.1-0.2c0.8 0 1.3 0.3 1.6 0.5 0.3 0.1 0.3 0.2 0.5 0.2 0 0 0.3-0.2 0.5-0.3 0.5-0.3 1.1-0.8 2-0.8q0 0 0 0c1.3 0 1.9 0.9 2.2 1.3q0 0.1 0.1 0.2c0.1 0 0.2 0.1 0.4 0.2 0.3 0.1 0.6 0.2 0.9 0.5 0.4 0.2 0.6 0.6 0.8 0.8q0 0 0 0.1 0.1 0 0.2 0c0.6 0.1 1.7 0.2 2.2 1.4q0.2 0.4 0.3 0.8 0 0 0 0.1c0.5 0.1 0.9 0.1 1.4 0.1q0.5 0 0.9 0zm4.3 54.6q0 0 0 0 0 0 0 0zm-1.6-39.9c0.2 0.5 0.5 1 0.9 1.5 0.4 0.4 0.8 0.9 1.1 1.4q0.1 0 0.2 0 0.3 0 0.4 0c-0.2-0.2-0.4-0.5-0.6-0.6q-0.3-0.3-0.5-0.6c-0.5-0.4-1-1-1.5-1.7z"/>
		<path id="&lt;Path&gt;" class="s9" d="m358.2 407.8c1.2-0.4 2.6-0.8 3.4-1.4 0.1-0.2 0.1-0.5 0.1-1.2 0-0.7 0-1.7 0.5-2.5l1.3-0.7c0.3 0 0.6 0 1.3 0.2 0.1 0 0.4 0.1 0.6 0.1q0-0.2 0-0.5c0.1-1.5 2.5-2.7 3.1-2.9 0-0.2 0-0.5 0.1-0.7 0-0.6 0-1.3 0.3-2 0.1-0.2 0.1-0.4 0.2-0.6 0.1-0.6 0.3-1.1 0.8-1.6-0.4-0.3-0.9-0.5-1.2-0.7-0.9-0.4-1.4-0.7-1.5-1.4-0.1-0.5-0.1-1 0-1.4-0.8-0.1-1.7-0.5-2.2-1.4-0.1-0.3-0.3-1.1 0.2-2.1 0.4-0.7 0.4-0.7 0.1-1.8l-0.1-0.3c-0.3-0.8-0.1-1.6 0-2.1q0.1-0.1 0.1-0.2c-1-0.5-1.5-1.6-2-2.5q-0.2-0.3-0.4-0.6c-0.8-1.3 0.1-2.6 0.7-3.6 0.2-0.3 0.6-0.9 0.6-1.1l1.6-1.2q-0.1 0-0.1 0-0.2 0-0.2 0c0.2-0.1 0.5-0.3 0.7-0.4q0.5-0.3 1.1-0.6c-0.1-0.5-0.2-1-0.6-1.4-0.4-0.4-1-0.8-2-0.8q-0.2 0-0.5 0c-0.5 0.1-1 0.2-1.6 0.4-0.5 0.1-1 0.3-1.4 0.3q-0.2 0-0.2 0c-0.2-0.1-0.2-0.1-0.4-0.7-0.2-0.6-0.5-2-2.2-2.3q0 0 0 0c0-0.5 0.1-1.4-0.6-2q-0.5-0.6-1.7-0.7c0 0 0-0.3 0-0.3 0.1-1.2-0.6-1.7-1.2-2 0-0.3 0-0.8-0.3-1.3q-0.1-0.3-0.2-0.6-0.1-0.2-0.2-0.4 0 0 0 0c-0.5-1.1-1.5-1.9-2.9-2.2q-0.4 0-1-0.1c-0.5 0-1.8-0.2-2.1-0.5 0-0.8-0.3-1.6-0.7-2.4-0.2-0.6-0.7-1-1-1.2q-0.2-0.1-0.3-0.2c0.1 0 0.2 0.2 0.2 0.4l-1.3-1.4q-0.6-0.1-0.9-0.3c-0.4-0.1-0.6-0.4-0.7-0.8v-0.2c-0.4-1.2-1.3-1.3-1.6-1.3-1.1 0-1.6 1-1.9 1.8-0.5 0.1-1 0.2-1.4 0.6q-0.4 0.3-0.7 0.6c-0.1 0.2-0.3 0.4-0.4 0.4q-0.6-0.1-1-0.1c-0.8 0-1.3 0.4-1.6 0.7-0.3-0.3-0.7-0.5-1.3-0.5q-0.6 0-1.1 0.3c-0.5 0.3-0.8 0.8-1 1.1q-0.1 0.1-0.1 0.2c-0.2 0.1-0.4 0.3-0.7 0.4q-0.3 0.2-0.5 0.3c-0.6 0.3-1.1 0.7-1.5 1.1q-0.3 0.3-0.6 0.6c-0.1-0.1-0.4-0.3-0.4-0.3 0-0.2 0-0.3 0-0.5q0.1-0.3 0.1-0.6c0-0.5 0-1.2-0.5-1.7q-0.2-0.2-0.4-0.3 0-0.2 0-0.5-0.2-0.6-0.7-0.9c0.5-0.6 1.1-1.5 0.9-2.7-0.1-0.8-0.5-1.2-1-1.4q-0.1-0.4-0.2-0.7c-0.5-0.8-1.3-1-1.8-1.1-0.1-0.3-0.3-0.6-0.7-0.9l-2.1 0.7q-0.1 0.2-0.2 0.3-0.1 0.1-0.1 0.2-0.3-0.2-0.5-0.4-0.6-0.5-1.3-0.5c-0.4 0-0.9 0.2-1.2 0.6-0.6 0.7-0.7 1.7-0.4 4.1 0 0.4-0.1 0.7-0.3 1.2-0.2 0.7-0.5 1.5-0.2 2.5q-0.3 0-0.7 0-0.6 0-1.2 0.2c-0.2-0.4-0.5-0.9-1.2-1.2-0.7-0.3-1.4-0.3-2.1-0.4-0.4 0-0.8 0-1.1-0.2-0.3-0.1-0.6-0.2-0.8-0.3-0.5-0.3-1.2-0.7-2.3-0.7q-0.2 0-0.4 0h-0.2q-0.6 0.2-1.3 0.4c-0.8 0.3-1.6 0.5-2.2 0.5-0.4 0-0.7-0.1-1-0.5q-0.1-0.2-0.1-0.4c-0.3-0.5-0.8-1.6-2.2-1.8q-0.9-0.1-1.8-0.1c-2.1 0-3.1 1-3.5 1.8-0.5 0.8-0.6 1.6-0.7 2.2q0 0 0 0.1c-0.2 0.2-0.6 0.7-0.7 1.3 0 0.5 0 1 0.1 1.4 0 0.2 0 0.6 0 0.7 0 0 0 0.1-0.2 0.1-0.8 0.4-1.8 0.7-3.1 0.8q-0.3 0-0.5 0c-1.6 0-2 0.7-2.3 2-0.1 0.4-0.2 0.6-0.3 0.8-0.3 0.9-0.5 1.5-0.1 2.9q0.2 0.6 0.3 1.3l0.2 0.6 2 1q0.1 0 0.1-0.1 0.6-0.3 1.2-0.3c1.5 0 3.2 1.7 4.7 4.7l0.3 0.5c0.6 1.1 1.3 2.4 2.5 3.4 0.4 0.3 0.9 0.5 1.3 0.6q0.1 0.1 0.3 0.1c0.1 0.5 0.2 1.6 1.4 2l0.2 0.1c1.8 0.3 3.4 2.1 4.8 3.7q0.5 0.6 1.1 1.2c0 0.1 0.1 0.1 0.1 0.3 0.2 0.4 0.6 1.2 1.8 1.5 1.6 0.3 3.1 1.2 4.6 2.1l0.4 0.3c2.2 1.3 4.5 2.6 6.7 3.8l2 1.1c1.4 0.8 2.8 1.6 4.7 2 0.6 0.1 1 0.4 1.6 1.1 0.4 0.4 0.9 0.9 1.6 1.4l0.6 0.2q0.1 0 0.3 0 0.1 0 0.2 0l0.5 0.8c0.2 0.1 0.5 0.4 0.7 0.7 0.7 0.7 1.6 1.6 2.8 1.7 0.2 0.2 0.5 0.4 0.9 0.5l3.6 1.1q1.3 0.4 2.6 0.7c1.7 0.4 3.5 0.8 4.8 1.5 0.3 0.1 0.6 0.3 1 0.6 1.7 1.1 3.1 1.9 4.3 1.9q0.6 0 1.1-0.3 0.1 0.1 0.1 0.3c0 0 1 2.1 2.1 3.1l0.5-1.8q0.5-0.2 1-0.4z"/>
		<path id="&lt;Path&gt;" class="s7" d="m451.3 425.2q-0.5-0.3-0.9-0.5c-2-1.3-1.7-2.8-1.4-4.1 0.3-1.1 1.1-1.8 1.7-2.2 0.1-0.1 0.3-0.2 0.4-0.3q-0.1-0.6-0.2-1.3c0-0.7 0-1.9-0.4-2.1-1.2-0.7-2.4-1.4-2.4-3.7q-0.1-0.5 0-0.9-0.1-0.2-0.2-0.4c-0.2-0.8 0.1-1.5 0.3-1.9 0.3-0.5 0.9-0.9 1.5-0.9 0.7 0 1.2 0.4 1.7 0.7 0.1 0.1 0.3 0.2 0.5 0.3q0.1 0 0.2 0-0.2-0.6 0-1.2c0.2-0.6 0.7-0.9 1.2-1.1-0.2 0-0.5-0.1-0.8-0.2-0.4-0.1-0.9-0.5-1.2-1.2-0.4-1.1-0.1-2.6 0.1-3.2l1.5-0.9c0.5 0.1 0.8 0.3 1 0.6 0.3-0.1 0.6-0.3 1.1-0.3 0.4 0 0.7 0.1 1 0.2q0-0.2 0-0.3c0.1-0.4 0.1-0.8 0.3-1.2l0.4-0.6c0 0 0.1-0.2 0.2-0.3q-0.4-0.1-0.8-0.1l-10.4-1.6q-0.8-0.1-1.4 0c-0.8 0-1.2 0-1.8-0.4-0.9-0.5-1.8-0.8-2.9-0.8q-0.6 0-1.3 0.1c0.2-0.7 0.4-1.8-0.6-2.7-1-0.9-2.2-1.2-3.2-1.5h-0.1-0.1c-0.1-0.1-0.2-0.2-0.3-0.2-0.2-0.2-0.5-0.4-0.9-0.6q0.1 0 0.1-0.1c0.4-0.3 0.8-0.7 1-1.4 0.2-0.5 0.1-1-0.2-1.4-0.3-0.4-0.8-0.6-1.2-0.7q0.3-0.3 0.4-0.8c0.3-1.1 0-1.8-0.3-2.2-0.4-0.5-1.1-0.9-1.9-0.9-1.1 0-2.2 0.5-2.9 1.2-0.6 0.7-2.5 1.4-3.7 1.7q-0.5 0.2-1 0.4-0.4 0.1-0.8 0.1c-1.4 0-2.6-1.7-3.6-3.3q0.2-0.2 0.4-0.4c0.8-1 1.9-3.5 1.9-5-0.1-0.7-0.2-1.3-0.4-1.9q-0.1-0.4-0.2-0.9c-0.2-1.4-1.3-1.8-1.9-2.1q-0.2 0-0.4-0.2h-0.2c-0.4-0.3-1-0.6-1.7-0.6q-0.5 0-0.9 0.3-0.2 0-0.3 0.1c-0.2-0.1-0.5-0.2-0.8-0.2-0.2 0-0.5 0.1-0.8 0.2q0 0-0.1 0-0.4-0.5-0.8-0.9c-0.3-0.3-0.6-0.5-0.8-0.8 0 0 0-0.2 0-0.3 0-0.5-0.1-1.2-0.7-1.9q-0.2-0.3-0.4-0.5c-0.2-0.2-0.4-0.4-0.5-0.6-0.2-0.4-0.3-0.8-0.5-1.3-0.1-0.7-0.4-1.5-0.8-2.2-0.8-1.5-2.2-1.8-3.2-2q-0.3-0.1-0.6-0.1c0-0.1-0.2-0.2-0.2-0.4-0.3-0.3-0.7-0.8-1.3-1.2l-1.9 0.6q-0.2 0.3-0.3 0.6c-0.5 0.7-1.3 2-0.7 3.4 0 0.2 0 0.4 0 0.7l-0.7 0.3-0.7 0.5q0 0.1-0.1 0.2c-0.4 0.4-0.7 0.8-1 1.2-0.3 0.3-0.8 0.9-0.9 1q-0.8 0.1-1.5 0.1-0.4 0-0.8-0.1l-1.3 0.5q-0.2 0.4-0.3 0.7-0.1 0-0.1-0.1c-0.6-0.3-1.3-0.8-2.2-0.8q-0.4 0-0.8 0.2c-0.6 0.2-1.1 0.5-1.5 0.8q-0.3 0.1-0.6 0.3c-0.1 0-0.2 0.1-0.6 0.1 0 0-0.2 0-0.2 0q-0.4 0-0.7 0c-1 0.1-1.6 0.8-2 1.3q0 0-0.1 0c-0.1-0.6-0.3-1.2-0.8-1.8q-0.2-0.2-0.2-0.2c0-0.1 0.1-0.2 0.1-0.4 0.2-0.4 0.5-1.2 0.4-2.2l-2.2-1q-0.1 0-0.3 0-0.3 0-0.7 0-0.5-0.1-1.1-0.1-0.8 0-1.4 0.3c-1.9 0.8-2.3 4.3-2 5.6 0.1 0.4 0.4 0.8 0.6 1.1q-0.2 0.2-0.5 0.6-0.1 0.1-0.3 0.2c-0.2-0.6-0.6-1.2-1.8-1.5-0.2-0.1-0.2-0.1-0.5-0.3-0.5-0.6-1.1-0.7-1.4-0.7-1 0-1.6 0.7-1.9 1.1q0 0 0 0c-0.2 0.1-0.6 0.2-0.9 0.4q-0.2 0.1-0.3 0.2 0 0-0.1 0-0.5-0.5-1.2-0.5-0.5 0-1 0.2-0.6 0.3-1.1 0.6c-0.2 0.1-0.5 0.3-0.7 0.4q0 0 0.2 0 0 0 0.1 0l-1.6 1.2c0 0.2-0.4 0.8-0.6 1.1-0.6 1-1.5 2.3-0.7 3.6q0.2 0.3 0.4 0.6c0.5 0.9 1 2 2 2.5q0 0.1-0.1 0.2c-0.1 0.5-0.3 1.3 0 2.1l0.1 0.3c0.3 1.1 0.3 1.1-0.1 1.8-0.5 1-0.3 1.8-0.2 2.1 0.5 0.9 1.4 1.3 2.2 1.4-0.1 0.4-0.1 0.9 0 1.4 0.1 0.7 0.6 1 1.5 1.4 0.3 0.2 0.8 0.4 1.2 0.7-0.5 0.5-0.7 1-0.8 1.6-0.1 0.2-0.1 0.4-0.2 0.6-0.3 0.7-0.3 1.4-0.3 2-0.1 0.2-0.1 0.5-0.1 0.7-0.6 0.2-3 1.4-3.1 2.9q0 0.3 0 0.5c-0.2 0-0.5-0.1-0.6-0.1-0.7-0.2-1-0.2-1.3-0.2l-1.3 0.7c-0.5 0.8-0.5 1.8-0.5 2.5 0 0.7 0 1-0.1 1.2-0.8 0.6-2.2 1-3.4 1.4q-0.5 0.2-1 0.4l-0.5 1.8-0.1 0.4c0.8 1 2.1 2.6 3.7 2.7q1.4 0.1 3.1 0.9c1.9 0.7 3.8 1.9 6.2 3.7 0.6 0.5 1.1 1.1 1.6 1.7 1 1.2 2.1 2.5 4.5 3.1 1.2 0.2 2.5 0.4 3.7 0.6 1.3 0.1 2.6 0.3 3.8 0.6 2.2 0.6 3.4 0.9 4.7 2.4 1 0.9 2.1 1.6 3.2 2.2l0.9 0.6c2.3 1.4 4.9 2.9 7.1 2.9 1.4 0 2.2-0.6 2.6-1.1 0.1 0 0.4 0.1 0.6 0.2q0.6 0.1 1.1 0.2 0.6 0.1 1.2 0.1 1.3 0 2.5-0.4c0.9-0.2 1.6-0.8 2.3-1.2 0.5-0.4 1.1-0.8 1.5-0.9l10.2-2.4c1.5-0.3 2.7-0.8 3.9-1.5q0.5-0.3 1.2-0.6c0.6-0.3 1.3-0.5 1.9-1 0.5-0.3 0.8-0.7 1-1.1 0.1 0 0.1-0.2 0.2-0.2 0.2 0 0.5 0 0.8 0.1 0.4 0.1 0.8 0.2 1.3 0.2h0.2q0.5-0.1 1-0.1 0.7-0.2 1.4-0.2 0.4 0 0.8 0.1l0.3 0.1h0.2q0.4 0.1 0.8 0.1 0.2 0.2 0.4 0.4 0.6 0.3 1.4 0.3c0.3 0 0.7-0.1 1.1-0.1q0.3-0.1 0.5-0.1c1.1 0 2.2 0.4 3.3 0.9 1.1 0.5 2.3 0.9 3.6 1.1l0.5-0.7-0.1 0.9q-0.2 0-0.2 0c0.2 0 0.4 0.3 0.6 0.5 0.3 0.3 0.6 0.5 0.9 0.7 0.5 0.3 1.1 0.6 1.5 0.7 0.5 0.2 1 0.4 1.3 0.7q0.5 0.3 1.1 0.3 0.3 0 0.5-0.1l0.2-1.6q-0.7-0.5-1.4-0.9z"/>
		<path id="&lt;Path&gt;" class="s8" d="m507.6 404.1l-1.3-1.3-0.1-1.5q0-0.1-0.1-0.2c0-0.3-0.1-0.8 0.1-1.3h-0.4c-0.3 0-0.6 0-0.9-0.1-0.5-0.2-2.3-0.8-2.7-2.2-0.2-0.7 0-1.4 0.5-2-0.1-0.4-0.2-0.9-0.1-1.6q0.1-0.3 0.2-0.5c-0.8-0.4-1.9-0.8-2.5-1.9-0.5-1.1-0.4-2.1-0.4-2.7q0-0.1 0-0.1-0.1-0.1-0.3-0.1l-0.4-0.1q-0.2-0.1-0.5-0.2c-0.4-0.1-0.9-0.3-1.1-0.3-0.8 0.3-1.4 0.8-2.1 1.3l-0.2 0.2c-0.4 0.3-0.7 0.5-1 0.8-0.6 0.4-1.2 0.9-2 1.3-0.4 0.2-0.7 0.3-1 0.4-0.5 0.1-0.5 0.2-0.7 0.4-1 1.5-2.5 1.5-3.4 1.6-0.6 0-1 0-1.3 0.2-0.4 0.3-0.8 0.9-1.3 1.4-0.8 1.1-1.8 2.2-3.3 2.6q-0.2 0-0.4 0c-0.3 0-1.4 0-1.7-1.4-0.6-0.1-1.5-0.5-1.8-1.5q0-0.4 0-0.7c-0.5-0.1-1-0.3-1.6-0.8-2.1-2-1.9-4.1-1.3-5.8 0.3-1 0-1.7-1.3-3.1-0.1 0-0.3-0.1-0.4-0.1-0.4-0.1-0.9-0.3-1.4-0.7-0.1 0.1-0.4 0.2-0.4 0.3 0.1 0.4 0.1 0.9-0.1 1.4l-0.1 0.2c-0.2 0.3-0.5 0.6-0.8 0.8q0 0 0 0c0.3 0.6 0.9 1.8 0.1 2.9-0.4 0.7-0.9 1.1-1.4 1.4q-0.3 0.3-0.6 0.5c-0.2 0.3-0.4 0.7-0.6 1-0.4 0.7-0.8 1.5-1.5 2.1-0.2 0.2-0.4 0.5-0.7 0.8-0.4 0.6-1 1.5-2.2 2l-1.9-1.2q-0.1-0.2-0.1-0.4l-0.2 0.2-0.1 0.1c0 0-0.1 0-0.3 0h-0.6c-0.3 0-0.9 0-1.4 0.2-0.9 0.4-1.3 1.2-1.5 1.7q-0.1 0-0.1 0.1c-0.1 0.1-0.2 0.3-0.2 0.3l-0.4 0.6c-0.2 0.4-0.2 0.8-0.3 1.2q0 0.1 0 0.3c-0.3-0.1-0.6-0.2-1-0.2-0.5 0-0.8 0.2-1.1 0.3-0.2-0.3-0.5-0.5-1-0.6l-1.5 0.9c-0.2 0.6-0.5 2.1-0.1 3.2 0.3 0.7 0.8 1.1 1.2 1.2 0.3 0.1 0.6 0.2 0.8 0.2-0.5 0.2-1 0.5-1.2 1.1q-0.2 0.6 0 1.2-0.1 0-0.2 0c-0.2-0.1-0.4-0.2-0.5-0.3-0.5-0.3-1-0.7-1.7-0.7-0.6 0-1.2 0.4-1.5 0.9-0.2 0.4-0.5 1.1-0.3 1.9q0.1 0.2 0.2 0.4-0.1 0.4 0 0.9c0 2.3 1.2 3 2.4 3.7 0.4 0.2 0.4 1.4 0.4 2.1q0.1 0.7 0.2 1.3c-0.1 0.1-0.3 0.2-0.4 0.3-0.6 0.4-1.4 1.1-1.7 2.2-0.3 1.3-0.6 2.8 1.4 4.1q0.4 0.2 0.9 0.5 0.7 0.4 1.4 0.9l-0.2 1.6v0.3c0.7 0.2 2.6 2.2 3.2 2.9q0.5 0.5 0.8 0.8 1 0.9 2 1.8c1.6 1.4 3.2 2.9 4.6 4.4 1.7 1.8 3.2 3.8 4.7 5.8q0.7 0.8 1.4 1.7c0.6 0.8 1.3 1.4 2 1.9 0.6 0.5 1.2 0.9 1.5 1.5l1 1.3q1.4 2 2.7 4c2.4 3.5 4.8 7 7.5 10.3h2.1l0.2-0.2c1.2-1.3 2.8-3.1 2.5-5.5-0.1-1.1-0.1-1.4 0.3-2.5 0.3-0.6 0.3-1.2 0.3-1.6 0-0.2 0-0.4 0-0.5q0.2-0.2 0.4-0.3c0.6-0.5 1.8-1.5 1.3-3.2-0.3-1-1-1.7-1.5-2.3q-0.3-0.2-0.5-0.5-0.4-0.4-0.5-0.6l7.9-11.4c0.1-0.2 0.3-0.6 0.6-1.1 0.5-0.8 1.7-2.7 2.3-3.5l26.5 1.9 1.5-1.3c0-0.6 0-1.2-0.1-1.7-0.1-0.7-0.1-1 0-1.4q0.2-0.5 0.5-1c0.3-0.8 0.8-1.7 0.9-2.8 0.2-2.5-2.3-3.1-3.6-3.4-0.3-0.1-0.7-0.2-0.9-0.3-0.6-0.3-0.7-0.9-0.7-2.5 0-1.7 0-4.5-3.4-5.2q-0.4-0.1-0.8-0.2c-0.5-0.1-1-0.1-1.3-0.3q0-0.1-0.1-0.2c-0.1-0.5-0.4-1.4-1.4-1.8-0.3-0.2-0.7-0.3-0.9-0.3-0.1-0.1-0.2-0.1-0.2-0.1q-0.2-0.4-0.4-0.9c-0.3-0.7-0.6-1.5-1.3-2.3q-0.3-0.3-0.5-0.5c-0.6-0.6-0.7-0.7-0.8-1.6q-0.1-0.4-0.3-0.8c-1 0-2.1-0.1-2.9-0.2-0.7-0.1-1.2-0.1-1.5-0.2z"/>
		<path id="&lt;Path&gt;" class="s5" d="m516.7 390.3c0 0 0.1-2.7 0.1-2.8q-0.2 0-0.4 0c-0.7 0-1.3 0-2.1-0.1-1.6-0.2-2.4-1-3.4-1.8-0.3-0.3-0.5-0.6-0.7-0.8-0.1-0.1-0.2-0.2-0.2-0.3q0 0-0.2 0l-0.5-0.1q-0.2-0.1-0.4-0.2c-0.5-0.1-1.4-0.3-1.9-1.1-0.2 0.4-0.3 0.7-0.3 0.9l-0.1 0.1c0 0.2 0 0.5 0.1 0.9 0.1 1.3 0.1 2.2-0.4 2.8l-1.2 0.5q-0.2 0-0.5-0.1c-0.5-0.1-0.9-0.5-1.3-0.8l-0.2-0.1-2.5-1.6c-0.4-0.3-0.9-0.4-1.5-0.6-0.6-0.3-1.4-0.5-2.1-1l-0.2-0.2c-1.5-0.9-4.3-2.7-3.8-5.3 0.2-1 0.3-2.1 0.2-3.3 0-0.5 0-0.7 0-0.9q-0.2 0-0.6 0-0.2 0-0.5 0.1c-0.3 0-0.6 0.1-0.9 0.1-0.7 0-1.7-0.2-2.2-1.5q-0.2-0.5-0.4-1c-0.1-0.4-0.2-0.7-0.3-0.9q-0.2-0.2-0.2-0.5l-1.3-0.8 0.3-1.9q0 0 0 0c-2 0.2-3.4 1.2-4.7 2.1-0.7 0.5-1.4 1-2.1 1.3-0.9 0.4-2 0.5-3.4 0.5q-0.8 0-1.5 0l-0.3 0.2c-0.4-0.4-0.9-0.6-1.4-0.7q-1.3-0.3-3-0.3c-1 0-2 0.1-2.9 0.2q-0.3 0-0.6 0.1-0.2 0-0.4 0-0.5-0.2-1-0.2c-1.4 0-1.8 1.2-2 1.7q0 0.1-0.1 0.1-0.1 0-0.4 0c-0.3-0.1-0.7-0.2-1.1-0.2-1 0-1.7 0.5-2 0.9-0.1 0.1-0.4 0.5-0.5 0.6-0.3-0.4-0.7-0.9-1.6-0.9q-0.3 0-0.8 0.1c-0.7 0.1-1.3 0.3-2 0.5q-0.1 0-0.2 0c-0.8 0.1-1.4 0.3-1.7 0.6-0.5 0.4-0.6 0.9-0.6 1.4q0 0.2 0 0.4c0 0.8-0.1 1.7 0.5 2.6 0 0.2 0.1 0.7 0.1 0.9-0.5 0.8-0.5 1.4-0.5 1.9 0.2 1.4 1.6 2.2 2.6 2.8 0.4 0.2 0.9 0.6 1 0.7 0.6 0.7 0.8 1.1 0.9 1.6 0.1 1.6 1.7 1.9 2.3 2q0 0 0.1 0c0.5 0.7 1.3 2.5 1.5 3.4-0.5 0.4-1 0.9-1.1 1.7 0 0.8 0.6 1.5 0.9 1.8q0 0 0 0.1 0 0 0 0 0 0.2 0.1 0.4l1.9 1.2c1.2-0.5 1.8-1.4 2.2-2 0.3-0.3 0.5-0.6 0.7-0.8 0.7-0.6 1.1-1.4 1.5-2.1 0.2-0.3 0.4-0.7 0.6-1q0.3-0.2 0.6-0.5c0.5-0.3 1-0.7 1.4-1.4 0.8-1.1 0.2-2.3-0.1-2.9q0 0 0 0c0.3-0.2 0.6-0.5 0.8-0.8l0.1-0.2c0.2-0.5 0.2-1 0.1-1.4 0-0.1 0.3-0.2 0.4-0.3 0.5 0.4 1 0.6 1.4 0.7 0.1 0 0.3 0.1 0.4 0.1 1.3 1.4 1.6 2.1 1.3 3.1-0.6 1.7-0.8 3.8 1.3 5.8 0.6 0.5 1.1 0.7 1.6 0.8q0 0.3 0 0.7c0.3 1 1.2 1.4 1.8 1.5 0.3 1.4 1.4 1.4 1.7 1.4q0.2 0 0.4 0c1.5-0.4 2.5-1.5 3.3-2.6 0.5-0.5 0.9-1.1 1.3-1.4 0.3-0.2 0.7-0.2 1.3-0.2 0.9-0.1 2.4-0.1 3.4-1.6 0.2-0.2 0.2-0.3 0.7-0.4 0.3-0.1 0.6-0.2 1-0.4 0.8-0.4 1.4-0.9 2-1.3 0.3-0.3 0.6-0.5 1-0.8l0.2-0.2c0.7-0.5 1.3-1 2.1-1.3 0.2 0 0.7 0.2 1.1 0.3q0.3 0.1 0.5 0.2l0.4 0.1q0.2 0 0.3 0.1 0 0 0 0.1c0 0.6-0.1 1.6 0.4 2.7 0.6 1.1 1.7 1.5 2.5 1.9q-0.1 0.2-0.2 0.5c-0.1 0.7 0 1.2 0.1 1.6-0.5 0.6-0.7 1.3-0.5 2 0.4 1.4 2.2 2 2.7 2.2 0.3 0.1 0.6 0.1 0.9 0.1h0.4c-0.2 0.5-0.1 1-0.1 1.3q0.1 0.1 0.1 0.2l0.1 1.5 1.3 1.3c0.3 0.1 0.8 0.1 1.5 0.2 0.8 0.1 1.9 0.2 2.9 0.2 1.4 0.2 2.9 0.3 3.9 0.3 0.8 0 2.5 0 2.6-1.5l0.3-3.2c0.3-2.6 0.5-5.4 0.7-8.1-2.9-0.3-2.9-0.7-2.8-1.7z"/>
		<path id="&lt;Path&gt;" class="s6" d="m396.8 213.5q-0.1 0.5-0.2 1.1-0.1 0.4-0.3 0.9c-0.3-0.3-0.6-0.4-0.8-0.6q-0.1 0-0.1 0 0.2-0.3 0.3-0.7 0.2-0.4 0.3-0.8c-4.4-0.3-8.8-0.2-13.3 0.4-6.9 0.8-13.4 1.8-19.8 1.9q0.1 0.3 0.1 0.6 0.1 0.1 0.1 0.3-0.1 0-0.1 0-0.6 0.4-0.8 0.7 0 0-0.1 0c-0.6 0-1.1 0.3-1.5 0.5q-0.2 0.1-0.4 0.2c-0.9 0.4-1.5 1.1-2 1.6-0.2 0.3-0.5 0.6-0.7 0.8q-0.5 0.3-1.1 0.7 0-0.1 0-0.1c-0.3-0.1-0.7-0.2-1.1-0.2q-0.5 0-0.9 0.2h-0.1c-1.2 0.3-3.2 0.7-3.4 3.1v0.4c0.3 1 1 1.5 1.5 1.8 0.2 0 0.4 0.1 0.4 0.1q0 0 0 0c0.3 0.8 0.4 1.2 0.4 1.4q0 0 0 0c-0.2 0.2-0.4 0.4-0.6 0.7-0.4 0.5-0.5 1.2-0.5 1.5q0 0.2 0 0.3c0 0 0-0.1 0.1-0.3l-0.2 0.7c0 0.2-0.1 0.4-0.3 0.7-0.3 0.7-0.6 1.5-0.4 2.7l0.1 0.1c0.1 0.5 1 2 2.2 2.5 0.1 0.7 0.5 1.2 0.8 1.6-0.5 0.4-0.7 1-0.9 1.4-0.1 0.1-0.3 0.4-0.3 0.4q0 0 0 0 0 0.1-0.2 0.1c-0.3 0-0.7-0.2-1.2-0.3-0.5-0.2-1.2-0.4-1.9-0.4q-1.5 0-2.5 1.3-0.1-0.1-0.2-0.1-0.5-0.3-1-0.3c-0.8 0-1.5 0.4-1.9 1.1-0.5 0.7-0.5 1.6-0.1 2.4 0 0 0.2 0.4 0.2 0.4q0 0.1-0.1 0.1c-0.6 0.8-0.8 1.9-0.6 2.9q0.1 0.3 0.3 0.6-0.3 0-0.5 0c-0.7 0-1.9 0.1-2.7 1q-0.2 0.2-0.3 0.4 0.2 0.1 0.3 0.3 0.4 0.6 0.3 1.2 0.1 0 0.2 0.1 0.4 0.1 0.7 0.3l0.4 2.1c0.1 0.1 0.3 0.3 0.4 0.4 0.6 0.5 1.5 1.3 1.4 2.5-0.1 1.2-1.1 1.7-1.6 2q-0.1 0-0.1 0c0.1 0.3 0.3 0.8 0.7 1.3 0.8 1.2 2.7 2 3.8 2.5q0.9 0.4 1.7 0.8 1 0.6 2 1.1 0.3 0.1 0.4 0.1 0 0 0 0 0.3-0.2 0.7-0.5c0.4-0.3 0.7-0.3 1-0.3 1.4 0 1.7 1.4 1.8 1.9q0 0 0.1 0 0.4 0 0.7 0 0.2-0.1 0.4-0.1c0.8 0 2.1 0.4 2.1 2.6q0 0.1 0 0.2c0.1 0.2 0.2 0.4 0.3 0.6 0.3 0.6 0.8 1.4 0.6 2.5q0 0.2 0 0.2c0.2 0.2 1.4 0.2 1.8 0.3 1.4 0.1 2.6 0.6 3.5 1.1 0.7 0.3 1.3 0.6 2 0.7 0.3 0 0.8-0.2 1.3-0.3 0.6-0.2 1.2-0.4 1.9-0.4q0.3 0 0.6 0.1 0 0 0 0 0 0 0 0 0.6 0.1 1.2 0.2 0.5 0.1 1 0.1 0.3 0 0.6-0.1 0.6-0.2 1.1-0.2c0.8 0 1.3 0.3 1.6 0.5 0.3 0.1 0.3 0.2 0.5 0.2 0 0 0.3-0.2 0.5-0.3 0.5-0.3 1.1-0.8 2-0.8 1.3 0 1.9 0.9 2.2 1.3q0 0.1 0.1 0.2c0.1 0 0.2 0.1 0.4 0.2 0.3 0.1 0.6 0.2 0.9 0.5 0.4 0.2 0.6 0.6 0.8 0.8q0 0 0 0.1 0.1 0 0.2 0c0.6 0.1 1.7 0.2 2.2 1.4q0.2 0.4 0.3 0.8 0 0 0 0.1c0.5 0.1 0.9 0.1 1.4 0.1q0.5 0 0.9 0l0.5 0.6q0-0.6-0.1-1.1c-0.1-0.5-0.1-0.9-0.1-1.4q0-0.4 0-0.9c0-0.9 0.1-1.9 0-2.9-0.1-0.7-0.4-1.3-0.6-1.7-0.1-0.2-0.3-0.5-0.3-0.6 0.3-1 0.8-2 1.4-3l0.4-0.7c0.8-1.5 1.6-3.2 1.6-5.5q0-0.8 0-1.7c-0.1-1.1-0.1-2.2 0-3.2q0.4-2.8 0.6-5.7 0.3-2.2 0.5-4.4v-0.2c0.4-2.8 0.7-5.7 1.4-8.5 0.2-1 0.6-1.9 0.9-3q0.3-0.9 0.6-1.8c0.2-0.9 0.4-1.7 0.5-2.5 0.2-0.9 0.3-1.8 0.6-2.6 0.9-2.3 1.6-4.5 2.3-7.2l-1.8-0.6q0.3-0.4 0.6-0.9 0.2-0.4 0.3-0.7l1.4 0.6q0.6-1.3 1.2-2.6 0.3-0.8 0.6-1.6-1.7-0.2-3.5-0.4z"/>
	</g>
</svg>