<svg version="1.2" xmlns="http://www.w3.org/2000/svg" viewBox="0 0 40 39" width="40" height="39">
	<title>&lt;Group&gt;</title>
	<style>
		.s0 { fill: #e6e7e8 } 
	</style>
	<g id="&lt;Group&gt;">
		<g id="&lt;Group&gt;">
			<path id="&lt;Compound Path&gt;" class="s0" d="m16.3 0.7v7.3q-2.9 1.6-4.4 4-1.5 2.4-2.3 5.1-0.8 2.7-0.8 6h7.5v15.8h-15.8v-9.9q0-8.8 1.7-13.5 1.6-4.6 5.1-8.5 3.5-3.9 9-6.3zm23.2 0v7.3q-2.9 1.6-4.4 4-1.5 2.4-2.3 5.1-0.8 2.7-0.8 6h7.5v15.8h-15.8v-9.9q0-8.8 1.7-13.5 1.7-4.6 5.1-8.5 3.5-3.9 9-6.3z"/>
		</g>
	</g>
</svg>