<svg version="1.2" xmlns="http://www.w3.org/2000/svg" viewBox="0 0 346 128" width="346" height="128">
	<title>Capa 2 00000041980192298530486940000015590244637089506210 </title>
	<defs>
		<linearGradient id="g1" x2="1" gradientUnits="userSpaceOnUse" gradientTransform="matrix(200.6,200.6,-208.097,208.097,56.551,-54.959)">
			<stop offset="0" stop-color="#75d0f2"/>
			<stop offset=".2" stop-color="#7ac797"/>
			<stop offset=".4" stop-color="#faad2c"/>
			<stop offset=".6" stop-color="#f5852a"/>
			<stop offset=".8" stop-color="#f1662a"/>
			<stop offset="1" stop-color="#ed2726"/>
		</linearGradient>
	</defs>
	<style>
		.s0 { fill: url(#g1) } 
		.s1 { fill: #000001 } 
	</style>
	<g id="Capa 2 00000041980192298530486940000015590244637089506210 ">
		<g id="Capa 1-2 00000029017137972209007140000013217990389754738605 ">
			<path id="&lt;Compound Path&gt;" fill-rule="evenodd" class="s0" d="m268.7 12.9h8.5v29.5c0.1 2.8-0.7 5.5-2.3 7.8-1.6 2.3-3.9 4.1-6.5 5.1-3.1 1.3-6.4 1.9-9.8 1.8q-3.8 0-7.5-0.8-3.4-0.8-6.6-2.2l2.9-7.3c3.5 1.6 7.3 2.5 11.1 2.6q4.6 0 7.2-1.9c1.8-1.2 2.8-3.2 2.7-5.3v-1.8q-3.8 3.6-9.9 3.6c-3 0.1-6-0.6-8.7-2-2.5-1.4-4.5-3.3-5.9-5.7-1.4-2.5-2.2-5.3-2.1-8.1-0.1-2.9 0.7-5.7 2.1-8.1 1.4-2.5 3.4-4.5 5.9-5.9 2.7-1.4 5.6-2.2 8.7-2.1q6.4 0 10.2 4zm-0.2 15.4c0.1-2.3-0.8-4.5-2.5-6-3.7-3-9-3-12.7 0-1.7 1.5-2.6 3.7-2.5 6-0.1 2.2 0.8 4.4 2.5 5.9 3.7 3 9 3 12.7 0 1.7-1.5 2.6-3.7 2.5-5.9zm-200.4-12.5q3.7 3.4 3.7 9.1v20.9h-5.8v-19.8c0.1-2.2-0.7-4.4-2.3-6q-2.2-2.2-6.4-2.2c-1.9 0-3.7 0.3-5.3 1.1-1.5 0.7-2.8 1.8-3.7 3.1-0.8 1.3-1.3 2.8-1.2 4.4v19.4h-5.8v-32.6h5.5v4.5c1.2-1.8 3-3.1 5-4 2.1-0.8 4.3-1.2 6.6-1.2q6.1 0 9.7 3.3zm-35.5 5.2c1.4 2.7 2.1 5.6 2.1 8.6q0 1.1-0.3 2.1h-27.7c0.4 2.8 1.8 5.4 4 7.1 2.4 1.9 5.3 2.8 8.3 2.7q6.3 0 10.2-3.9l3.4 3.9c-1.6 1.7-3.4 2.9-5.5 3.7-2.6 1-5.4 1.5-8.2 1.4-3.3 0.1-6.6-0.7-9.5-2.2-2.7-1.4-4.9-3.5-6.4-6.1-1.5-2.7-2.2-5.7-2.2-8.8 0-3 0.7-6 2.2-8.6 1.4-2.6 3.5-4.7 6-6.2 2.7-1.5 5.7-2.3 8.8-2.2 3.1-0.1 6.2 0.7 8.9 2.3 2.5 1.5 4.6 3.6 5.9 6.2zm-3.7 6c-0.7-5.5-5.5-9.6-11.1-9.4-2.6-0.1-5.2 0.8-7.3 2.5-2 1.8-3.4 4.2-3.8 6.9zm109.5-13.8h5.7v32.6h-5.4v-4.4c-1.3 1.8-3 3.2-5.1 4-2.1 0.8-4.2 1.2-6.4 1.2-2.4 0.1-4.8-0.5-6.9-1.5-2-1-3.6-2.5-4.7-4.3-1.1-2-1.7-4.3-1.7-6.6v-21h5.8v19.9c-0.1 2.2 0.7 4.4 2.2 6q2.3 2.2 6.4 2.2c1.8 0 3.6-0.4 5.3-1.1 1.4-0.7 2.6-1.8 3.5-3.1 0.9-1.3 1.3-2.9 1.3-4.4zm-35.2 27.9c1.8 0 3.6-0.4 5.3-1.1v5.1c-1.8 0.9-3.9 1.3-5.9 1.2q-5.6 0-8.6-2.8-3-2.9-3-7.9v-17.6h-5.6v-4.8h5.6v-7.7l5.7-2.7v10.4h11.5v4.8h-11.5v16.8c-0.1 1.8 0.5 3.5 1.8 4.7 1.3 1.1 3 1.7 4.7 1.6zm214.4-2.4q0.7 0 1.3-0.2v6.9c-1 0.5-2 0.7-3.1 0.6-1.8 0.1-3.6-0.3-5.2-1.1-1.4-0.7-2.6-1.8-3.2-3.3-1.3 1.7-3 3-5 3.7-2.1 0.8-4.3 1.2-6.6 1.2-2.2 0-4.5-0.4-6.7-1.2-1.9-0.7-3.6-1.9-4.8-3.5-1.3-1.6-1.9-3.6-1.9-5.7 0-3.2 1.6-6.2 4.4-7.9q4.3-2.8 13.1-2.8h6.5c-0.1-1.6-0.9-3.1-2.2-4-1.5-1.1-3.3-1.6-5.2-1.5q-2.5 0-4.9 0.7c-1.7 0.6-3.4 1.4-5 2.5l-4.3-6.7c2-1.5 4.4-2.6 6.9-3.2 2.5-0.7 5.1-1.1 7.7-1.1q7.5 0 11.6 3.6 4.1 3.5 4.1 9.9v10.7c0 0.7 0.2 1.3 0.7 1.8 0.5 0.4 1.1 0.6 1.8 0.6zm-14.4-1.1c1.9-1.4 3.1-3.5 3.2-5.8h-6.3q-5 0-6.9 1.1c-1 0.5-1.7 1.5-1.8 2.7 0 1.1 0.5 2.2 1.4 2.8 1.2 0.8 2.6 1.1 4 1 2.3 0.1 4.5-0.6 6.4-1.8zm-67.7-17c1.5 2.7 2.3 5.7 2.3 8.7 0 3.1-0.8 6.1-2.3 8.8-1.5 2.6-3.8 4.8-6.4 6.2-6 3-13.1 3-19.1 0-2.7-1.4-4.9-3.6-6.5-6.2-1.5-2.7-2.3-5.7-2.2-8.8-0.1-3 0.7-6 2.2-8.7 1.6-2.6 3.8-4.8 6.5-6.2 6-3 13.1-3 19.1 0 2.6 1.4 4.9 3.6 6.4 6.2zm-6.8 8.7c0.1-1.6-0.4-3.2-1.2-4.7-0.8-1.3-2-2.4-3.3-3.2-3-1.5-6.4-1.5-9.3 0-1.4 0.8-2.6 1.9-3.4 3.2-0.8 1.5-1.2 3.1-1.2 4.7 0 1.7 0.4 3.3 1.2 4.7 0.8 1.4 2 2.5 3.4 3.2 2.9 1.5 6.3 1.5 9.3 0 1.3-0.7 2.5-1.8 3.3-3.2 0.8-1.4 1.3-3 1.2-4.7zm113.9-16.9q1.6 0 3.1 0.4v8.3q-1.7-0.3-3.4-0.3c-2.4-0.1-4.9 0.5-6.9 1.9q-2.6 2-2.6 6.5v16.6h-9v-32.9h8.5v4.1c1.1-1.6 2.7-2.8 4.5-3.5 1.8-0.7 3.8-1.1 5.8-1.1zm-148.7 5.8c1.1 2 1.7 4.4 1.7 6.7v20.9h-9v-18.9c0.1-1.7-0.5-3.4-1.7-4.7-1.4-1.2-3.2-1.8-5-1.7-2-0.1-3.9 0.5-5.5 1.8-1.4 1.2-2.2 2.9-2.1 4.8v18.7h-9v-45h9v15q3.5-3.7 9.7-3.7c2.4 0 4.9 0.5 7 1.6 2 1 3.7 2.6 4.9 4.5z"/>
			<path id="&lt;Compound Path&gt;" fill-rule="evenodd" class="s1" d="m170.8 102.5h4.9c0 0-9.2 15.6-9.9 16.8-0.7 1.1-1.4 3.1 0.8 1.8 2.6-1.5 6.4-7.3 6.4-7.3h1.8q-2.4 3.6-5.3 6.9c-2.7 3-6 5.7-8.3 5.4-2.7-0.3-1.8-3.9-1.8-3.9 0 0-3.9 4.2-6.6 3.9-3.6-0.4-2.5-4.9-2.5-4.9 0 0-4.1 5-6.9 4.9-4.4-0.3-3.3-5.6-2.1-9.4 0.7-2 1.3-3.5 1.3-3.5 0 0-0.5 0.1-1.4 0.2-0.5 0.1-1.4 0.1-1.4 0.1q-1.5 2.7-3.2 5.2c-1.5 1.9-7.7 8.6-11.3 7.3-3.4-1.3-2.3-6.4-0.3-10.5 2.8-6 10.9-14.6 15.5-13.5 4.8 1.2 0.1 10 0.1 10q0 0 0.1 0 0.5 0.1 0.9 0 0.9-0.2 1.8-0.6c0 0 4.8-10.1 10.2-16.7 5.3-6.7 16-18.1 20.2-15.3 1 0.6 0.5 3-0.8 5.8q-1 0.3-1.9 0.5 1.1-1.9 1.7-4.1c0.6-3.4-7.4 3.8-13.1 11.6q-5.2 7.1-9.2 14.8 1.6-0.9 3-2.1 3.8-3.1 7.3-6.7 3.3-3.4 6.1-7.2 1 0 1.9-0.2-3.2 4.3-6.9 8.1c-2.2 2.3-4.7 4.8-6.9 6.6q-2.8 2.4-6 4.5c0 0-5 10.1-2.3 10.7 1.6 0.4 4.8-4.5 4.8-4.5q3-4.7 6.6-9.1c3.4-3.8 6.3-6.1 9.2-6.1 1.7 0 2.7 1.8 2.7 1.8zm-48.2-0.6c2.2-0.2 5 1.7 2.6 8.6-2.4 7-9.6 15.4-17.2 15.5-6.9 0.1-11.5-8.8-1.8-24.4 10.7-17.1 23.3-22.4 27.4-23 4.1-0.6 5.4 1.2 5.4 1.2 2.5-1 5.2-1.5 7.8-1.3 5 0.4 8.9 3.9 14 6.4-1.3 1.3-2.6 2.6-3.7 3.8-3.8-1.9-6.6-4.3-9.5-5.7-2.7-1.4-4.5-2-6.7-1.7q-0.5 0-0.9 0.2c0 0 1.1 3.9-3.4 10.4-4.6 6.7-8.8 6.6-10 4.8-1.2-1.9 0.4-5.8 3.1-9.3 2.8-3.7 7.7-6.7 7.7-6.7 0 0-1.6-1-5.4 1.2-3.8 2.1-10.3 7.2-16.3 15.8-6 8.5-7.2 13.2-8 16.9-0.9 3.7-0.1 7.7 4 7.7 4.1 0 8.9-6.3 10.2-8.4 2.5-4.1 4.2-10.3 0.8-9.5-1.7 0.5-3.1 2.3-3.9 4.1q-0.9 1.7-1.3 3.6-1.8 0.8-3.3 1.9-1.7 1.3-3.2 2.8c0 0 0.1-2.9 2.4-7.7 2.4-4.8 6.7-7 9.2-7.2zm16.7 9.5q0.8-1.3 1.3-2.7c0.5-1.1 1-3.5-0.2-4.4-1.3-1-4.5 1.3-4.6 3.7 0 2.4 2.4 3.4 2.9 3.6 0.3 0.1 0.5 0.1 0.6-0.2zm29.7-6.3c0-0.4-0.3-0.7-0.7-0.7-0.8 0-1.8 0.1-4.5 3.1-2.3 2.5-4.2 5.3-5.8 8.3-1.6 2.8-2.2 4.9-1.3 5.5 0.3 0.1 0.6 0.1 0.9 0.1 0.7-0.2 1.3-0.8 2.4-2 0.5-0.5 1-1.3 1.7-2.2 1.8-2.5 6.3-10.2 7.2-11.8q0.1-0.1 0.1-0.3zm-104.9-5.9c0 0 0.9 0.1 3.2-1.5 3.3-2.2 7.7-8.3 12.4-7.6 2.2 0.4 4.2 2.6 1.4 6.9-0.9 1.4-2.4 2.7-3.6 1.4-0.7-0.7 0-2.1 0.7-3.1 0.6-0.7 1.6-1.2 2.6-1.1 0 0 0.7-1.8-1.2-1.8-1.6 0.1-5.7 3.8-8 7.6-2.1 3.4-5.3 9.4-2.1 10.6 3 1.2 8.5-5.4 11.1-8.9 2.6-3.4 8.5-11.3 13.4-11.6 1.1 0 2.1 0.5 2.7 1.4l0.6-0.9h4.9c0 0-9.3 15.5-10 16.7-0.6 0.9-1.3 3 0.8 1.8 2.1-1.1 6.4-6.8 6.4-6.8h1.7c0 0-8.5 12.5-13.4 11.9-2.7-0.3-1.9-3.7-1.9-3.7 0 0-3.8 4.5-7.3 3.6-3.2-0.8-1.1-6.1-1.1-6.1-0.4 0.2-7.2 7.9-12.1 6-5-1.9-2.4-8.4-1.4-10.3 0.8-1.7 1.7-3.3 1.7-3.3 0 0-0.8 0.3-1.3 0.4-0.5 0.1-1.2 0.2-1.2 0.2 0 0-2.4 3.9-3.8 5.8-1.5 2-7.7 8.6-11.3 7.3-3.7-1.3-2.8-6.4-0.7-10.5 3.3-6.6 11.2-14.7 15.9-13.5 4.8 1.3 0.9 9.1 0.9 9.1zm32.7 28c-3.7-2.5-8-3.8-12.4-3.6-2.5 0-4.7 1.3-6.1 3.3-1.9-3.3-5.6-5.3-11.4-5.3-9.2 0.1-18.5 4.4-25.8 4.4-7 0-12.1-4.4-11.9-12.2 0.3-13.7 11.9-26.1 20.5-31.6 5-3.2 9.2-4.2 11.9-3.9 2 0.3 4.4 2.5 2.9 5.9-2.3 5-5.3 4.6-5.2 2.2 0.1-1.2 0.8-2.4 1.8-3q0.9-0.5 1.9-0.5c0.4-0.3 0.7-3.1-2.8-2.2-3.6 0.9-7.9 4.4-12 8.9-4.1 4.6-10.4 13.1-12 22.1-0.8 4.2-0.3 11.7 9.6 11.7 8.4-0.1 20.7-5.6 32-5.5 4 0 7.9 1 11.3 3 2.9 1.9 6.4 4.5 7.7 6.3zm-35.5-26.2c0-0.2 0-0.2-0.1-0.2q-1.3-0.5-2.5-1.2c-0.8-0.5-1.4-1.2-1.9-2 0-0.1 0 0-0.1 0 0 0.1-0.3 0.4-2.1 3-1.7 2.6-4.3 7.9-1.9 8.8 1.6 0.6 4.2-2.2 5.6-4q1.6-2.1 3-4.4zm2-4c0.5-1.2 1-3.6-0.2-4.5-1.2-1-4.5 1.3-4.6 3.7 0 2.4 3 3 3.4 3.1 0.2 0 0.4-0.1 0.5-0.2q0.5-1.1 0.9-2.1zm44.5-2.1h-4.7l2.6-4.3h4.7zm71.7-11.9q3.1-2 5.7-4.7-1.4 2.7-3.5 5c-3.7 4.2-10.7 9.2-18.7 7.6 1.3-1.5 2.5-2.9 3.7-4.1 4.6 0.4 9.4-1.6 12.8-3.8zm-41.2 30.3c0-0.1 0-0.2-0.1-0.2q-1.3-0.6-2.3-1.4-1-0.9-1.7-2.1c0-0.1-0.1 0-0.1 0.1-0.1 0-0.3 0.2-2 2.8-1.8 2.6-4.5 7.9-2 8.8 1.5 0.6 4.1-2.2 5.5-4q1.5-1.9 2.7-4zm0.2-31.3c0 0-2.9 1.2-6.3 4.9-3.5 3.8-5.4 8-4 9.1 0.6 0.4 1.9 0.5 4.3-1.6 2.1-1.9 3.8-4.3 4.9-6.9 1.6-3.7 1.1-5.4 1.1-5.5zm35.4 39q0.6 0.4 1 1c0.4 0.8 0.4 1.9 0 2.7q-0.4 0.6-1 0.9c-0.9 0.5-2 0.5-2.8 0q-0.7-0.3-1-0.9c-0.5-0.8-0.5-1.9 0-2.7q0.3-0.6 1-1c0.8-0.4 1.9-0.4 2.8 0zm0.5 3.4c0.3-0.6 0.3-1.5 0-2.2q-0.3-0.4-0.8-0.7c-0.7-0.4-1.5-0.4-2.2 0q-0.5 0.3-0.8 0.7c-0.4 0.7-0.4 1.6 0 2.2q0.3 0.5 0.7 0.8c0.8 0.4 1.6 0.4 2.3 0q0.5-0.3 0.8-0.8zm-1.2-0.8l0.6 0.9h-0.7l-0.6-0.9h-0.4v0.9h-0.6v-2.4h1.4q0.3 0 0.5 0.2 0.2 0.3 0.2 0.6 0 0.2-0.1 0.4-0.1 0.2-0.3 0.3zm-0.3-0.6c0.1-0.1 0.1-0.2 0-0.3q-0.1-0.1-0.2-0.1h-0.6v0.5h0.6q0.1 0 0.2-0.1zm-88.3-18.9c-1.5 2.9-2.2 4.9-1.3 5.4 0.3 0.2 0.6 0.2 0.9 0.1 0.6-0.1 1.4-0.7 2.4-1.9q0.7-0.9 1.7-2.2c2-2.8 7.5-12.3 7.5-12.3-0.1-0.4-0.4-0.7-0.7-0.7-0.8-0.1-2.1 0.2-4.6 3.3q-3.3 3.9-5.9 8.3zm-68.7-23.2c0.9 1.8 0.9 4 0 5.8-0.5 0.8-1.1 1.5-2 2-0.9 0.5-1.9 0.8-2.9 0.8-1.5 0-2.9-0.6-3.8-1.7v1.4h-2.4v-15h2.5v5.4c0.9-1 2.3-1.6 3.7-1.5 1-0.1 2 0.2 2.9 0.7 0.9 0.5 1.5 1.2 2 2.1zm-2.3 1.1c-0.3-0.5-0.7-0.9-1.2-1.2q-0.8-0.4-1.7-0.4-1 0-1.8 0.4c-0.5 0.3-0.9 0.7-1.2 1.2-0.6 1.1-0.6 2.4 0 3.5 0.3 0.6 0.7 1 1.2 1.2q0.8 0.5 1.8 0.5c0.6 0 1.2-0.2 1.7-0.5 0.5-0.2 0.9-0.7 1.2-1.2 0.6-1.1 0.6-2.4 0-3.5zm12.9-3.7h2.7l-5.3 12.1c-0.3 0.8-0.9 1.5-1.6 1.9-0.7 0.5-1.5 0.7-2.3 0.7q-0.7 0-1.3-0.1-0.7-0.2-1.3-0.5l0.6-2.1q1 0.4 2 0.5 0.5 0 1-0.3 0.5-0.4 0.7-1l0.2-0.4-4.9-10.8h2.8l3.4 8.1z"/>
		</g>
	</g>
</svg>