<svg version="1.2" xmlns="http://www.w3.org/2000/svg" viewBox="0 0 673 1416" width="673" height="1416">
	<title>&lt;Clip Group&gt;</title>
	<style>
		.s0 { fill: #000000 } 
		.s1 { fill: #00070f } 
	</style>
	<g id="&lt;Clip Group&gt;">
		<g id="&lt;Group&gt;">
			<path id="&lt;Compound Path&gt;" fill-rule="evenodd" class="s0" d="m117.2 2529c-0.1-144 114-264.7 257.6-271.6 17.7-0.8 20.6-4.7 17.3-22.3-10.4-54.7-18.4-109.9-27.1-164.9-4.3-27.8-23.3-43-46.7-53.5-50.7-22.7-102-44.4-153-66.6-12-5.3-24.1-10.8-32-21.9-6.6-9.3-9.9-19.6-4.9-31 5.1-11.9 15.9-13.3 26-11.9 16.1 2.2 29.8 1.2 38.1-15.1 0.3-0.6 0.8-1.3 1.4-1.4 35.3-11 29.5-40.3 30.1-66.9 2.2-98.5 4.5-197 6.8-295.4 0.4-17.8 33.2-51.5 56.4-56.3 38.6-7.9 77.8-10.2 117-7.8 19.9 1.2 39.5 6 59.4 6.8 35.4 1.5 56.4 24 77 48.5 4.3 5.1 2.6 10.3 2.4 15.6-2.3 96.3-4.8 192.7-7.3 289.1-0.2 8.9 0 17.8 0 26.9 43.9-14.9 58.6-3.3 62.1 43.2 4.9 64.6 23.3 126.9 37.5 189.8 13.1 58.1 27.4 116 40.9 174.1 2.4 10 4.8 16.5 18.2 16.3 62-0.7 124.1-0.5 186.2 0.6 14.2 0.2 17.4-4.8 17.3-17.7-0.6-41.4 0.1-82.8-0.5-124.1-0.2-13 3.2-23.8 10-34.8m1 178.1c0.3-46.8 0.7-93.7 1.1-140.6 0.1-10.6 1.6-20.1 7.3-29.3zm-255.2-63.2c-25.8-111-57.7-220.7-67.5-334.9-1-11.6-5.6-19.9-17.6-22.2-12.8-2.5-23.7 1.2-30.4 12.5-9.3 16-17.7 32.6-26.4 49-12.6 23.7-25 47.4-37.6 71.1-1.9 3.6-4.3 7.6-9.2 4.5-3.7-2.4-2.1-6-0.5-9.1 4.6-9.1 9.1-18.2 13.7-27.3-44.1-5.6-86.9-11.2-129.8-16.4-62.9-7.5-125.8-15-188.8-22.1-7.4-0.8-17.9-4.7-20.9 6.8-2.8 10.3 1.7 19.1 10.6 24.9 6.3 4 13.1 7.5 20 10.5 51 22.4 102.1 44.4 153 66.9 30.9 13.7 50.8 35 55.5 70.8 7.4 56.6 18.3 112.8 26.8 169.2zm-254.2 89.1c-1.5-10.5-5-13.8-15.5-13.5-131.4 2.8-243.6 108.3-254.4 239.3zm131.8-708.4q0.4 0 0.8 0c0-19.3 0.3-38.6-0.1-57.9-0.3-14.3-13.2-27.7-23.2-23.5-25.9 10.9-53.3 13-80.7 13.9-51.6 1.6-103.3 1.4-152.6-17-18.6-6.9-32.9 1.8-33.4 22.2-3 121.9-5.7 243.8-9.1 365.7-0.4 13.9 3.3 19.4 17.7 20.7 30.8 2.8 61.4 8.2 92.3 11.2 39 3.8 77.6 13.2 117.2 9.3 10.8-1 25.6 0.6 30.8-8.2 13.8-23.3 33-45.3 33.9-74.1 2.8-87.4 4.4-174.9 6.4-262.3zm191.6 865.9c-12.3-52.2-24.2-104.5-37-156.6-3.5-13.8-1.8-19.3 14.4-18.9 60.6 1.2 121.3 1.6 181.9 1.3 13.2-0.1 15.8 4 15.8 16.3-0.6 77.2-0.3 154.4-0.3 231.6zm-447.9-966.8c76.1 26.1 152.6 28.9 229.5 5.3-76-26.9-152.4-29.9-229.5-5.3zm-54.5 396.6c-8.8 4.8-15.7 10.4-19.8 19.5 21.8 6.6 21.8 6.6 19.8-19.5z"/>
			<path id="&lt;Compound Path&gt;" fill-rule="evenodd" class="s0" d="m472 446c0 122.7-38.7 221.7-101.1 312.9-15.5 22.7-29.8 46.3-45 69.2-56.7 85.2-64.3 175.7-32.8 272.1 29.3 89.7 72.9 171.8 125.5 249.6q3.5 5.1 7 10.2c2 2.9 3.9 6.4 1.1 9.3-3.9 4.2-7.7 0.9-10.5-1.8-11.5-10.9-23.3-21.5-33.8-33.3-102-114.5-155.6-248.4-159.6-401.6-1.3-50.8 16.5-97.2 41.1-141 12.4-22.2 25.5-44 39.1-65.5 39.5-62.3 51.8-130.6 47.8-203.4-3.2-58.6-9.8-116.4-25.6-173.1-6-21.5-6-43.4-1.9-65.6 4.1-21.7 12.8-40 35.5-46.1 23.9-6.5 42.8 3.2 58.2 21.9 26.6 32.4 38.5 70.9 47 110.8 6 28.4 7 57.3 8 75.4zm-113.3 841.3q2.6 4 5.3 8.1c2.8-4.5 2.7-8.6-1.8-12-1.3-4.4-2.9-12-7.9-8.6-6.3 4.4 1.6 8.6 4.4 12.5zm-1.6-13.6c-4.5-8.9-7.8-15.5-11.2-21.9-28.7-54.2-52.1-110.3-69.1-169.4-25-86.9-15.9-168.7 31.4-245.8 19.1-31.1 38.9-61.6 59-92.1 26.9-40.9 50.7-83.5 66.4-130 35.1-103.6 40.6-207.3-2.2-310.4-7.4-17.9-17.5-34.5-32.8-47-24.4-19.8-52.4-11.6-61.8 18.2-7.1 22.9-7.3 46.3-1.3 69.4 12.9 49.4 21.5 99.4 24.7 150.4 4.3 71.4 3.7 142.1-31.7 207.2-16.8 30.8-35.6 60.4-52.9 90.9-24.7 43.5-43.5 89.4-42.1 140.5 3.1 119.1 38.2 228.3 105.4 327 3.5 5.2 5.1 13.2 18.2 13z"/>
			<path id="&lt;Compound Path&gt;" fill-rule="evenodd" class="s1" d="m376.9 1011.4c0.8-72.1 36.3-128.2 82.9-179.1 16.8-18.3 35.7-34.4 55.7-49.2 25-18.4 50.4-17.1 65.7 3.1 15.6 20.6 10.2 45-14.5 63.9-30.4 23.1-57.1 49.8-78.5 81.5-25.7 38.1-33.3 78.6-21.4 123.8 13.7 52.3 35.8 100.9 58.6 149.5 4.4 9.3 9.2 18.5 12.6 28.2 3.2 9.4 10.8 20.7 1 28.8-10.3 8.6-19.3-2-27-7.8-48.4-36.2-84.6-82.4-110-137.1-15.6-33.4-25.9-68.1-25.1-105.6zm154.5 240.5c-2.5-16-8.9-27.4-14.4-39-22.7-47.9-44.2-96.1-59.1-147.2-17.5-59.5-3.6-111.1 33.9-158.4 20.8-26.1 44.8-48.5 71.4-68.4 16.4-12.2 19.8-30.4 9.5-45-10.5-15-28.3-18-45.2-5.6-53.6 39.3-98.6 86.3-124.4 148.6-42 101.7 20.8 257.1 128.3 315z"/>
			<path id="&lt;Compound Path&gt;" fill-rule="evenodd" class="s0" d="m627.1 120.6c3 78.4-31.1 142.3-64.5 206.3-4.1 7.9-6.2 22.4-16.6 20.9-9.5-1.4-8.7-15.6-11.1-24.6-23.7-88.2-26-176.2 4.2-263.6 5.8-17 12.9-33.5 25-47 16.7-18.6 34.5-16.3 44.7 6.2 15.2 33.2 19.7 68.5 18.3 101.8zm-79 209.4c22.9-41.4 41.5-79.5 55.1-120 18.1-53.8 18.5-108.1 4.4-162.6-3.6-13.5-5.5-33.8-20.3-35.3-15.9-1.7-23.7 17.4-29.5 30.9-39.7 92.7-37.4 187-9.7 287z"/>
			<path id="&lt;Compound Path&gt;" fill-rule="evenodd" class="s0" d="m43 754.3c31.3 0.6 63 27.5 74.8 64.8 16.7 53.6 21.4 109.3 28.4 164.6 1.7 13.7 2.9 27.4 4.2 41.1 0.3 3.3 0.5 7.4-4 8.2-3.9 0.7-6.4-2.2-7.7-5.5-28-71.7-77.2-129.7-122.7-190.1-7.8-10.4-12.8-22.7-14.6-35.9-4.2-30.3 11.3-47.7 41.6-47.2zm89.6 227.4c-3.6-53.8-9.6-107.1-24.8-158.6-7.2-24.5-23.4-43.8-47.5-54.1-13.6-5.9-28.5-7.5-40.8 3.4-12.4 10.9-8.8 25.1-4.6 38.3 2.5 7.7 6.4 15.3 11.4 21.8 37 48.3 74.8 96.1 106.3 149.2z"/>
			<path id="&lt;Compound Path&gt;" fill-rule="evenodd" class="s0" d="m632.8 481.9c21.7 0.3 30.6 11.3 25.7 31.5-7 28.5-20.8 54.1-39.4 76.4-30.5 36.5-65.8 68.5-99.4 102.1-3.5 3.4-7.1 10.1-13.5 6.4-6.7-3.9-1.8-9.9-0.7-14.9 10.9-48.3 22.7-96.4 46.5-140.3 17.9-32.7 43.5-56.5 80.8-61.2zm-110.4 187.2c33.4-26.7 63.2-56.5 90.2-89 15.8-19 27.3-41.1 34.1-65 5.3-18.4-0.7-24.7-19.6-21-19.5 3.9-35.6 14.6-48 29.7-34.7 42-45.4 93.6-56.7 145.3zm-1.6 5.7c0.4-0.4 1.2-0.9 1.2-1.4 0-0.4-0.7-0.9-1.1-1.4-0.5 0.4-1.3 0.9-1.3 1.4 0 0.5 0.8 1 1.2 1.4z"/>
			<path id="&lt;Compound Path&gt;" fill-rule="evenodd" class="s0" d="m137.2 222.6c-0.8-13.2 0.6-25.3 7.5-36.3 10.4-16.6 23.9-17.8 36.1-2.4 15 19.2 25.8 41 30.4 64.7 6.9 35 11.7 70.5 17 105.8 0.8 4.7 4.1 11.6-3 14.3-5.5 2.1-8.3-3.7-11.3-7.2-24.6-28.7-48.4-58-65.6-92-7.6-14.9-12.3-30.5-11.1-46.9zm74 121.5q0-0.1 0.1-0.1 0 0.1-0.1 0.2 0.3-0.3 0.6-0.5 1.3-0.9 2.6-1.9-0.3-0.2-0.7-0.5c4.6-7.2-0.8-15.1-1.8-21.9-6.1-42.1-9.2-85.2-34.8-121.7-3.9-5.4-6.9-14.1-14.5-12.9-8 1.3-10.4 10-12.7 17.3-8.3 27.4 0.7 51.9 14.7 74.5 14.4 23.2 31 45.1 46.6 67.5zm2.5-2.8q-0.8 1.2-1.9 2.4-0.3 0.1-0.5 0.3 0.8-1.7 1.5-3.4 0.5 0.3 0.9 0.7z"/>
			<path id="&lt;Compound Path&gt;" fill-rule="evenodd" class="s0" d="m206 1355.3c-26.8 0.4-47.7-20-47.5-46.3 0.2-25.7 20.1-45.9 45.8-46.3 26.5-0.4 47.7 20.3 47.6 46.6-0.1 25.5-20.2 45.7-45.9 46zm-0.5-10.1c18.5-0.1 35.5-17.1 35.7-35.7 0.2-19-18.3-37.2-37.2-36.4-18.6 0.7-34.8 18.1-34.4 36.9 0.4 19 17 35.3 35.9 35.2z"/>
			<path id="&lt;Compound Path&gt;" fill-rule="evenodd" class="s0" d="m233.2 552.6c0.2 26.3-20.4 46.9-46.7 46.9-24.9 0-45.8-20.4-46.5-45.5-0.7-25.6 20.3-47.5 46.1-47.9 26.2-0.4 47 20.1 47.1 46.5zm-11 0c-0.1-19.6-15.6-35.2-35.2-35.3-19-0.1-35.8 16-36.2 34.8-0.5 19.1 17.6 37.1 36.8 36.6 19.2-0.4 34.6-16.5 34.6-36.1z"/>
			<path id="&lt;Path&gt;" class="s0" d=""/>
			<path id="&lt;Path&gt;" class="s0" d=""/>
			<path id="&lt;Path&gt;" class="s0" d="m364 1295.4q-2.7-4.1-5.3-8.1"/>
			<path id="&lt;Path&gt;" class="s0" d="m520.8 674.8c-0.4-0.4-1.2-0.9-1.2-1.4 0-0.5 0.8-1 1.3-1.4 0.4 0.5 1.1 1 1.1 1.4 0 0.5-0.8 1-1.2 1.4z"/>
			<path id="&lt;Path&gt;" class="s0" d="m211.2 344.2q0.8-1.8 1.6-3.6 0.8 0.6 1.6 1.2-1.6 1.2-3.2 2.3c0 0 0 0.1 0 0.1z"/>
			<path id="&lt;Path&gt;" class="s0" d="m517.2 1519c-9.4 11.2-23.6 10-35.7 11.7-69.5 9.4-138.8 6.9-207.5-7.3-2-0.4-4.1-1-5.9-1.9-4.3-2.1-13-0.8-10.2-9.2 2.2-6.5 8-2.2 12.4-1.4 18.3 3.3 36.5 7.3 54.9 9.4 59.2 6.8 118.2 7.3 176.9-4.6 5-1 10.9-4.2 15.1 3.3z"/>
		</g>
	</g>
</svg>