<?xml version="1.0" standalone="no"?>
<!DOCTYPE svg PUBLIC "-//W3C//DTD SVG 1.1//EN" "http://www.w3.org/Graphics/SVG/1.1/DTD/svg11.dtd" >
<svg xmlns="http://www.w3.org/2000/svg" xmlns:xlink="http://www.w3.org/1999/xlink" version="1.1">
<metadata>
Created by FontForge 20190801 at Sat Dec 30 02:52:32 2017
 By Unknown
Copyright (c) 2017 The Coca-Cola Company. All Rights Reserved.
</metadata>
<defs>
<font id="TCCC-UnityHeadline-Medium" horiz-adv-x="708" >
  <font-face 
    font-family="TCCC-UnityHeadline"
    font-weight="600"
    font-stretch="normal"
    units-per-em="1000"
    panose-1="2 11 6 5 3 3 3 2 2 4"
    ascent="800"
    descent="-200"
    x-height="548"
    cap-height="720"
    bbox="-580 -281 1438 1246"
    underline-thickness="50"
    underline-position="-100"
    unicode-range="U+0020-FB02"
  />
<missing-glyph horiz-adv-x="821" 
d="M88 720h645v-720h-645v720zM643 90v539h-465v-539h465z" />
    <glyph glyph-name="fi" unicode="fi" horiz-adv-x="676" 
d="M137.5 680q24.5 40 67.5 62.5t94 22.5t85 -11v-106q-33 8 -63 8q-35 0 -58.5 -20.5t-23.5 -51.5v-36h145v-108h-144v-440h-127v440h-93v108h93v43q0 49 24.5 89zM479 635q-22 21 -22 54q0 32 22 53t56 21t56 -21t22 -53q0 -33 -22 -54t-56 -21t-56 21zM471 548h128v-548
h-128v548z" />
    <glyph glyph-name="fl" unicode="fl" horiz-adv-x="712" 
d="M137.5 680q24.5 40 67.5 62.5t94 22.5t85 -11v-106q-33 8 -63 8q-35 0 -58.5 -20.5t-23.5 -51.5v-36h145v-108h-144v-440h-127v440h-93v108h93v43q0 49 24.5 89zM693 117v-112q-32 -13 -74 -13q-67 0 -107.5 36.5t-40.5 99.5v624h128v-597q0 -47 49 -47q23 0 45 9z" />
    <glyph glyph-name="f_f" unicode="ff" horiz-adv-x="754" 
d="M599.5 634.5q-25.5 -20.5 -25.5 -56.5v-30h154v-108h-153v-440h-127v440h-208v-440h-127v440h-93v108h93v42q0 48 23.5 87t65 61.5t93.5 22.5q47 0 81 -11v-106q-33 8 -60 8q-36 0 -56.5 -19t-20.5 -49v-36h209v40q0 50 25.5 90.5t72.5 63.5t109 23q24 0 51 -3.5t43 -9.5
v-107q-37 10 -76 10q-48 0 -73.5 -20.5z" />
    <glyph glyph-name="f_f_i" unicode="ffi" horiz-adv-x="1010" 
d="M472.5 680q24.5 40 67.5 62.5t94 22.5t85 -11v-106q-33 8 -63 8q-35 0 -58.5 -20.5t-23.5 -51.5v-36h145v-108h-144v-440h-127v440h-208v-440h-127v440h-93v108h93v42q0 48 23.5 87t65 61.5t93.5 22.5q47 0 81 -11v-106q-33 8 -60 8q-36 0 -56.5 -19t-20.5 -49v-36h209
v43q0 49 24.5 89zM814 635q-22 21 -22 54q0 32 22 53t56 21t56 -21t22 -53q0 -33 -22 -54t-56 -21t-56 21zM806 548h128v-548h-128v548z" />
    <glyph glyph-name="f_f_l" unicode="ffl" horiz-adv-x="1047" 
d="M472.5 680q24.5 40 67.5 62.5t94 22.5t85 -11v-106q-33 8 -63 8q-35 0 -58.5 -20.5t-23.5 -51.5v-36h145v-108h-144v-440h-127v440h-208v-440h-127v440h-93v108h93v42q0 48 23.5 87t65 61.5t93.5 22.5q47 0 81 -11v-106q-33 8 -60 8q-36 0 -56.5 -19t-20.5 -49v-36h209
v43q0 49 24.5 89zM1028 117v-112q-32 -13 -74 -13q-67 0 -107.5 36.5t-40.5 99.5v624h128v-597q0 -47 49 -47q23 0 45 9z" />
    <glyph glyph-name=".notdef" horiz-adv-x="821" 
d="M88 720h645v-720h-645v720zM643 90v539h-465v-539h465z" />
    <glyph glyph-name=".null" horiz-adv-x="0" 
 />
    <glyph glyph-name="nonmarkingreturn" horiz-adv-x="333" 
 />
    <glyph glyph-name="space" unicode=" " horiz-adv-x="304" 
 />
    <glyph glyph-name="exclam" unicode="!" horiz-adv-x="334" 
d="M94 720h146l-32 -482h-82zM108.5 14.5q-22.5 22.5 -22.5 58.5t22.5 58.5t58.5 22.5t58.5 -22.5t22.5 -58.5t-22.5 -58.5t-58.5 -22.5t-58.5 22.5z" />
    <glyph glyph-name="quotedbl" unicode="&#x22;" horiz-adv-x="456" 
d="M74 720h134l-64 -296h-83zM271 720h134l-64 -296h-83z" />
    <glyph glyph-name="numbersign" unicode="#" horiz-adv-x="742" 
d="M574 444l-28 -168h129v-98h-145l-30 -178h-108l30 178h-162l-30 -178h-108l30 178h-129v98h145l28 168h-116v98h132l30 178h108l-30 -178h162l30 178h108l-30 -178h130v-98h-146zM466 444h-162l-28 -168h162z" />
    <glyph glyph-name="dollar" unicode="$" horiz-adv-x="680" 
d="M570.5 66.5q-66.5 -59.5 -180.5 -69.5v-114h-84v114q-83 6 -155.5 33.5t-121.5 69.5l72 97q45 -37 97.5 -59t107.5 -28v206l-63 12q-93 17 -142 64t-49 120q0 89 70.5 146t183.5 66v85h84v-86q66 -6 126 -29t106 -66l-73 -93q-71 60 -159 73v-183l43 -8
q103 -19 153.5 -69.5t50.5 -129.5q0 -92 -66.5 -151.5zM306 441v169q-55 -6 -89 -29.5t-34 -59.5q0 -28 25 -47t86 -31zM474 145q31 26 31 63q0 34 -27 56.5t-87 34.5h-1v-188q53 8 84 34z" />
    <glyph glyph-name="percent" unicode="%" horiz-adv-x="907" 
d="M116 378.5q-42 23.5 -66 66.5t-24 99t24 99t66 66.5t95 23.5t95 -23.5t66 -66.5t24 -99t-24 -99t-66 -66.5t-95 -23.5t-95 23.5zM644 720h98l-479 -720h-97zM269.5 473q22.5 27 22.5 71q0 43 -22.5 70t-58.5 27t-58.5 -27t-22.5 -70q0 -44 22.5 -71t58.5 -27t58.5 27z
M602 10.5q-42 23.5 -66 66.5t-24 99t24 99t66 66.5t95 23.5t95 -23.5t65.5 -66.5t23.5 -99t-23.5 -99t-65.5 -66.5t-95 -23.5t-95 23.5zM754.5 105.5q22.5 27.5 22.5 70.5t-22.5 70t-57.5 27q-36 0 -58.5 -27t-22.5 -70q0 -44 22.5 -71t58.5 -27q35 0 57.5 27.5z" />
    <glyph glyph-name="ampersand" unicode="&#x26;" horiz-adv-x="746" 
d="M765 9v-9h-158l-63 58q-96 -71 -225 -71q-82 0 -146 27t-99.5 75t-35.5 108q0 63 39 108t111 78q-42 42 -62.5 81.5t-20.5 82.5q0 54 29 96t81 66t117 24t116 -23.5t80 -64.5t29 -92q0 -120 -168 -198l148 -136q43 70 48 156h120q-3 -60 -23.5 -121.5t-57.5 -114.5z
M259 605q-29 -23 -29 -58q0 -25 18 -51.5t62 -67.5q65 27 95.5 55t30.5 63q0 36 -28.5 59t-73.5 23q-46 0 -75 -23zM458 136l-193 176q-50 -23 -73.5 -50t-23.5 -60q0 -48 44.5 -76.5t111.5 -28.5q76 0 134 39z" />
    <glyph glyph-name="quotesingle" unicode="'" horiz-adv-x="259" 
d="M74 720h134l-64 -296h-83z" />
    <glyph glyph-name="parenleft" unicode="(" horiz-adv-x="391" 
d="M120.5 78.5q-36.5 118.5 -36.5 244.5t36.5 244.5t106.5 217.5h109q-131 -217 -131 -462t131 -462h-109q-70 99 -106.5 217.5z" />
    <glyph glyph-name="parenright" unicode=")" horiz-adv-x="391" 
d="M270.5 78.5q36.5 118.5 36.5 244.5t-36.5 244.5t-106.5 217.5h-109q131 -217 131 -462t-131 -462h109q70 99 106.5 217.5z" />
    <glyph glyph-name="asterisk" unicode="*" horiz-adv-x="461" 
d="M292 523l98 -107l-84 -59l-76 123l-76 -123l-83 59l98 107l-145 32l31 95l136 -56l-13 141h105l-14 -141l137 56l31 -95z" />
    <glyph glyph-name="plus" unicode="+" horiz-adv-x="631" 
d="M572 305h-200v-201h-113v201h-200v109h200v201h113v-201h200v-109z" />
    <glyph glyph-name="comma" unicode="," horiz-adv-x="276" 
d="M92 156h137l-104 -299h-94z" />
    <glyph glyph-name="hyphen" unicode="-" horiz-adv-x="368" 
d="M331 380l-19 -119h-275l19 119h275z" />
    <glyph glyph-name="period" unicode="." horiz-adv-x="275" 
d="M79.5 14.5q-22.5 22.5 -22.5 58.5t22.5 58.5t58.5 22.5t58.5 -22.5t22.5 -58.5t-22.5 -58.5t-58.5 -22.5t-58.5 22.5z" />
    <glyph glyph-name="slash" unicode="/" horiz-adv-x="451" 
d="M460 785l-361 -924h-117l362 924h116z" />
    <glyph glyph-name="zero" unicode="0" horiz-adv-x="753" 
d="M204.5 33q-73.5 46 -113 130.5t-39.5 196.5t39.5 196.5t113 130.5t172.5 46t172 -46t112.5 -130.5t39.5 -196.5t-39.5 -196.5t-112.5 -130.5t-172 -46t-172.5 46zM515.5 174.5q51.5 68.5 51.5 185.5t-51.5 185.5t-138.5 68.5q-88 0 -139.5 -68.5t-51.5 -185.5
t51.5 -185.5t139.5 -68.5q87 0 138.5 68.5z" />
    <glyph glyph-name="one" unicode="1" horiz-adv-x="451" 
d="M351 720v-720h-131v534q-66 -70 -184 -101v117q153 40 202 170h113z" />
    <glyph glyph-name="two" unicode="2" horiz-adv-x="664" 
d="M122 533q41 36 97 58.5t111 22.5q63 0 102.5 -28.5t39.5 -74.5q0 -35 -23.5 -64t-58 -51t-96.5 -56q-83 -45 -135 -80.5t-89 -91t-37 -131.5v-37h585v116h-434q22 37 62.5 64.5t118.5 70.5q78 41 126 74t81.5 81.5t33.5 113.5q0 62 -33 110.5t-94 75.5t-143 27
q-85 0 -159.5 -27t-132.5 -79z" />
    <glyph glyph-name="three" unicode="3" horiz-adv-x="671" 
d="M521.5 399q50.5 -32 75.5 -79.5t25 -100.5q0 -64 -35 -117t-103 -84t-164 -31q-91 0 -174.5 28.5t-130.5 73.5l74 98q43 -36 105.5 -58.5t125.5 -22.5q76 0 122 32t46 82q0 51 -44 82.5t-107 31.5q-51 0 -97 -19l-55 62l238 227h-365v116h527v-107l-186 -176
q72 -6 122.5 -38z" />
    <glyph glyph-name="four" unicode="4" horiz-adv-x="701" 
d="M672 164h-104v-164h-128v164h-410v104l378 452h160v-443h104v-113zM440 277v314l-261 -314h261z" />
    <glyph glyph-name="five" unicode="5" horiz-adv-x="681" 
d="M508.5 439.5q61.5 -30.5 95 -84.5t33.5 -123q0 -71 -36.5 -127t-104.5 -87t-158 -31q-87 0 -171 28t-133 74l74 98q43 -36 105.5 -58.5t123.5 -22.5q75 0 120.5 34.5t45.5 91.5q0 56 -43.5 92t-116.5 36q-53 0 -96.5 -20t-70.5 -50h-104l48 430h471v-116h-365l-22 -184
q62 50 162 50q81 0 142.5 -30.5z" />
    <glyph glyph-name="six" unicode="6" horiz-adv-x="709" 
d="M539 441.5q63 -30.5 98 -84.5t35 -123q0 -71 -37 -127t-103 -88t-150 -32q-96 0 -170.5 42.5t-116 124.5t-41.5 196q0 120 45.5 206.5t126 131.5t183.5 45q61 0 122 -17t110 -54l-62 -102q-40 29 -85.5 43.5t-87.5 14.5q-62 0 -111.5 -29.5t-78 -82t-28.5 -119.5
q34 43 87 64t119 21q82 0 145 -30.5zM493 141.5q45 36.5 45 92.5t-45 92t-117 36q-71 0 -117 -35.5t-46 -91.5q0 -57 47 -93.5t118 -36.5q70 0 115 36.5z" />
    <glyph glyph-name="seven" unicode="7" horiz-adv-x="617" 
d="M581 720v-104q-108 -124 -180 -284t-97 -332h-145q33 173 104.5 330t176.5 276h-411v114h552z" />
    <glyph glyph-name="eight" unicode="8" horiz-adv-x="727" 
d="M645 304.5q37 -48.5 37 -103.5q0 -58 -37.5 -107t-109.5 -78t-171 -29t-171.5 29t-110 78t-37.5 107q0 55 37 103.5t111 71.5q-53 26 -79.5 67.5t-26.5 87.5q0 54 33.5 100t96.5 74t147 28t146.5 -28t96 -74t33.5 -100q0 -46 -26.5 -87.5t-79.5 -67.5q74 -23 111 -71.5z
M258.5 591.5q-40.5 -27.5 -40.5 -69.5t40.5 -70.5t105.5 -28.5q64 0 104.5 28.5t40.5 70.5t-40.5 69.5t-104.5 27.5q-65 0 -105.5 -27.5zM496 132q52 30 52 77t-52 75t-132 28q-81 0 -133 -28t-52 -75q0 -48 52.5 -77.5t132.5 -29.5t132 30z" />
    <glyph glyph-name="nine" unicode="9" horiz-adv-x="709" 
d="M498 690.5q74 -42.5 115.5 -125.5t41.5 -199q0 -120 -44 -205.5t-123 -129.5t-182 -44q-62 0 -125.5 17t-111.5 54l62 100q38 -28 84.5 -42t91.5 -14q63 0 111 27.5t75 79t27 120.5q-34 -43 -87.5 -64t-118.5 -21q-82 0 -145 30.5t-97.5 85.5t-34.5 124q0 72 37 128.5
t103 88.5t151 32q96 0 170 -42.5zM450.5 390q45.5 36 45.5 94t-46.5 94.5t-116.5 36.5t-116 -37t-46 -94t45.5 -93.5t117.5 -36.5q71 0 116.5 36z" />
    <glyph glyph-name="colon" unicode=":" horiz-adv-x="285" 
d="M84.5 14.5q-22.5 22.5 -22.5 58.5t22.5 58.5t58.5 22.5t58.5 -22.5t22.5 -58.5t-22.5 -58.5t-58.5 -22.5t-58.5 22.5zM84.5 363.5q-22.5 22.5 -22.5 58.5t22.5 58.5t58.5 22.5t58.5 -22.5t22.5 -58.5t-22.5 -58.5t-58.5 -22.5t-58.5 22.5z" />
    <glyph glyph-name="semicolon" unicode=";" horiz-adv-x="295" 
d="M93 156h137l-104 -299h-94zM93.5 363.5q-22.5 22.5 -22.5 58.5t22.5 58.5t58.5 22.5t58.5 -22.5t22.5 -58.5t-22.5 -58.5t-58.5 -22.5t-58.5 22.5z" />
    <glyph glyph-name="less" unicode="&#x3c;" horiz-adv-x="592" 
d="M539 494l-335 -135l335 -135v-119l-499 212v84l499 212v-119z" />
    <glyph glyph-name="equal" unicode="=" horiz-adv-x="656" 
d="M79 528h498v-109h-498v109zM79 299h498v-109h-498v109z" />
    <glyph glyph-name="greater" unicode="&#x3e;" horiz-adv-x="592" 
d="M53 494l335 -135l-335 -135v-119l499 212v84l-499 212v-119z" />
    <glyph glyph-name="question" unicode="?" horiz-adv-x="552" 
d="M153 518q3 44 35 72t86 28q46 0 77.5 -21t31.5 -58q0 -22 -16.5 -42.5t-61.5 -58.5q-56 -47 -80.5 -83t-24.5 -88v-29h127v18q0 29 19 53.5t74 69.5q54 46 78.5 84t24.5 84q0 52 -29.5 94.5t-84.5 67t-129 24.5q-78 0 -136 -28t-89 -76.5t-33 -110.5h131zM205.5 14.5
q-22.5 22.5 -22.5 58.5t22.5 58.5t58.5 22.5t58.5 -22.5t22.5 -58.5t-22.5 -58.5t-58.5 -22.5t-58.5 22.5z" />
    <glyph glyph-name="at" unicode="@" horiz-adv-x="973" 
d="M704 480v-273q0 -50 53 -50q44 0 71.5 38t27.5 108q0 91 -48 165t-130 116.5t-181 42.5q-101 0 -184.5 -44.5t-132 -122.5t-48.5 -173q0 -97 51 -175.5t138.5 -123.5t194.5 -45q116 0 207 54l39 -65q-41 -29 -105.5 -46.5t-138.5 -17.5q-130 0 -237.5 55t-169.5 151
t-62 213q0 115 60 210t162.5 150t224.5 55q119 0 220 -53t160 -143.5t59 -198.5q0 -70 -25 -121t-68 -78t-97 -27q-45 0 -77 17.5t-45 48.5q-50 -69 -145 -69q-59 0 -107.5 27t-76 74.5t-27.5 104.5t27.5 104.5t76 74.5t107.5 27q80 0 131 -54v44h95zM576 198.5
q34 33.5 34 85.5t-34 85.5t-86 33.5t-86.5 -34.5t-34.5 -84.5t35 -84.5t87 -34.5q51 0 85 33.5z" />
    <glyph glyph-name="A" unicode="A" horiz-adv-x="785" 
d="M559 173h-335l-67 -173h-139l293 720h163l293 -720h-141zM515 288l-123 317l-123 -317h246z" />
    <glyph glyph-name="B" unicode="B" horiz-adv-x="769" 
d="M694.5 316.5q32.5 -49.5 32.5 -111.5q0 -60 -29.5 -106t-85.5 -72.5t-135 -26.5h-389v720h359q71 0 121 -25t76 -68t26 -97q0 -43 -17.5 -80.5t-59.5 -62.5q69 -21 101.5 -70.5zM219 607v-185h218q49 0 75 26t26 67q0 42 -27.5 67t-79.5 25h-212zM559.5 139.5
q32.5 26.5 32.5 73.5q0 45 -30 71.5t-83 26.5h-260v-198h248q60 0 92.5 26.5z" />
    <glyph glyph-name="C" unicode="C" horiz-adv-x="762" 
d="M243 35.5q-92 48.5 -144 134t-52 190.5t52 190.5t143 134t204 48.5q86 0 160.5 -28t120.5 -81l-83 -93q-81 81 -195 81q-74 0 -134 -33t-95 -90.5t-35 -128.5t35 -128.5t96 -90.5t136 -33q119 0 197 79l84 -91q-48 -55 -123 -82t-160 -27q-115 0 -207 48.5z" />
    <glyph glyph-name="D" unicode="D" horiz-adv-x="816" 
d="M593.5 673q85.5 -47 130.5 -129t45 -184t-45 -184t-130.5 -129t-202.5 -47h-303v720h303q117 0 202.5 -47zM520 148.5q54 31.5 82.5 86.5t28.5 125t-28.5 125t-82.5 86.5t-130 31.5h-169v-486h169q76 0 130 31.5z" />
    <glyph glyph-name="E" unicode="E" 
d="M678 0h-590v720h580l-19 -116h-428v-171h295v-118h-295v-199h438z" />
    <glyph glyph-name="F" unicode="F" horiz-adv-x="680" 
d="M221 602v-177h294v-118h-294v-307h-133v720h560v-118h-427z" />
    <glyph glyph-name="G" unicode="G" horiz-adv-x="824" 
d="M758 73q-113 -86 -298 -86q-119 0 -213.5 47.5t-147 132t-52.5 191.5q0 108 52 193.5t143.5 133.5t205.5 48q91 0 166 -26.5t124 -72.5l-77 -97q-40 35 -93.5 55t-119.5 20q-73 0 -133 -32t-95 -89.5t-35 -130.5t35.5 -130.5t99 -89.5t144.5 -32q50 0 88 8t75 26v157
h-207v116h338v-342z" />
    <glyph glyph-name="H" unicode="H" horiz-adv-x="844" 
d="M756 720v-720h-133v328h-402v-328h-133v720h133v-273h402v273h133z" />
    <glyph glyph-name="I" unicode="I" horiz-adv-x="321" 
d="M227 720v-720h-133v720h133z" />
    <glyph glyph-name="J" unicode="J" horiz-adv-x="602" 
d="M528 720v-489q0 -76 -33 -131t-91 -84t-132 -29t-131.5 29.5t-90.5 86t-33 136.5h129q2 -72 38.5 -101.5t88.5 -29.5q57 0 89.5 33t32.5 92v487h133z" />
    <glyph glyph-name="K" unicode="K" horiz-adv-x="784" 
d="M377 347l-156 -152v-195h-133v720h133v-365l375 365h163l-289 -282l307 -438h-160z" />
    <glyph glyph-name="L" unicode="L" horiz-adv-x="671" 
d="M639 119v-119h-551v720h133v-601h418z" />
    <glyph glyph-name="M" unicode="M" horiz-adv-x="1007" 
d="M919 0h-129v560l-243 -548h-90l-240 534v-546h-129v720h179l238 -531l235 531h179v-720z" />
    <glyph glyph-name="N" unicode="N" horiz-adv-x="825" 
d="M737 720v-720h-136l-384 532v-532h-129v720h139l380 -525v525h130z" />
    <glyph glyph-name="O" unicode="O" horiz-adv-x="859" 
d="M232 34.5q-87 47.5 -136 132.5t-49 193t49 193t136 132.5t197 47.5t197 -47.5t136 -132.5t49 -193t-49 -193t-136 -132.5t-197 -47.5t-197 47.5zM555.5 140q55.5 32 86.5 89.5t31 130.5t-31 130.5t-86.5 89.5t-126.5 32q-70 0 -125.5 -32t-87 -89.5t-31.5 -130.5
t31.5 -130.5t87 -89.5t125.5 -32q71 0 126.5 32z" />
    <glyph glyph-name="P" unicode="P" horiz-adv-x="732" 
d="M585.5 691.5q55.5 -28.5 84 -79t28.5 -114.5t-28.5 -114.5t-84 -79.5t-135.5 -29h-229v-275h-133v720h362q80 0 135.5 -28.5zM533.5 420.5q30.5 27.5 30.5 77.5q0 49 -30.5 76.5t-87.5 27.5h-225v-209h225q57 0 87.5 27.5z" />
    <glyph glyph-name="Q" unicode="Q" horiz-adv-x="868" 
d="M784 198.5q-34 -73.5 -95 -124.5l91 -115l-89 -70l-100 127q-73 -29 -159 -29q-110 0 -197.5 48t-137.5 133t-50 192t50 192t137.5 133t197.5 48t198 -48t138 -133t50 -192q0 -88 -34 -161.5zM510 119l-80 101l89 70l89 -113q34 34 53 81t19 102q0 73 -32 130.5
t-88.5 89.5t-127.5 32q-70 0 -126.5 -32t-88.5 -89.5t-32 -130.5t32 -130.5t88.5 -89.5t126.5 -32q39 0 78 11z" />
    <glyph glyph-name="R" unicode="R" horiz-adv-x="773" 
d="M407 288h-188v-288h-131v720h391q69 0 120 -28.5t78 -78t27 -109.5q0 -74 -41 -130.5t-113 -76.5l203 -297h-155zM219 405h238q53 0 83 27t30 72t-30 71.5t-83 26.5h-238v-197z" />
    <glyph glyph-name="S" unicode="S" 
d="M177.5 19q-88.5 29 -144.5 80l82 101q53 -46 116.5 -69t131.5 -23q72 0 117 28t45 72q0 32 -27.5 54t-90.5 34l-152 29q-98 19 -147.5 68t-49.5 122q0 66 39 115t107.5 75.5t155.5 26.5q80 0 155.5 -23.5t131.5 -74.5l-77 -97q-48 39 -103 58.5t-112 19.5
q-69 0 -115 -25.5t-46 -64.5q0 -27 25.5 -46t88.5 -31l144 -27q104 -20 157 -74.5t53 -130.5q0 -67 -36.5 -118.5t-103.5 -79.5t-156 -28q-100 0 -188.5 29z" />
    <glyph glyph-name="T" unicode="T" horiz-adv-x="686" 
d="M656 600h-246v-600h-133v600h-246v120h625v-120z" />
    <glyph glyph-name="U" unicode="U" horiz-adv-x="781" 
d="M223.5 21q-71.5 34 -110.5 97.5t-39 149.5v452h133v-437q0 -83 48.5 -129t135.5 -46q86 0 134.5 46t48.5 129v437h133v-452q0 -86 -38.5 -149.5t-110 -97.5t-167.5 -34t-167.5 34z" />
    <glyph glyph-name="V" unicode="V" horiz-adv-x="756" 
d="M740 720l-280 -720h-163l-280 720h144l219 -589l220 589h140z" />
    <glyph glyph-name="W" unicode="W" horiz-adv-x="1147" 
d="M1123 720l-240 -720h-161l-149 527l-148 -527h-161l-240 720h141l182 -578l160 575h137l161 -573l181 576h137z" />
    <glyph glyph-name="X" unicode="X" horiz-adv-x="733" 
d="M561 0l-194 275l-197 -275h-154l271 371l-258 349h158l183 -250l177 250h154l-253 -345l271 -375h-158z" />
    <glyph glyph-name="Y" unicode="Y" horiz-adv-x="724" 
d="M430 244v-244h-133v241l-292 479h151l209 -357l206 357h147z" />
    <glyph glyph-name="Z" unicode="Z" 
d="M658 114v-114h-609v104l425 502h-405v114h573v-105l-424 -501h440z" />
    <glyph glyph-name="bracketleft" unicode="[" horiz-adv-x="391" 
d="M204 679v-712h131v-106h-247v924h247v-106h-131z" />
    <glyph glyph-name="backslash" unicode="\" horiz-adv-x="451" 
d="M-9 785l361 -924h117l-362 924h-116z" />
    <glyph glyph-name="bracketright" unicode="]" horiz-adv-x="391" 
d="M187 679v-712h-131v-106h247v924h-247v-106h131z" />
    <glyph glyph-name="asciicircum" unicode="^" horiz-adv-x="584" 
d="M417 351l-125 271l-124 -271h-128l177 369h150l177 -369h-127z" />
    <glyph glyph-name="underscore" unicode="_" horiz-adv-x="514" 
d="M515 -43v-103h-516v103h516z" />
    <glyph glyph-name="grave" unicode="`" horiz-adv-x="586" 
d="M289 772l103 -164h-118l-132 154v10h147z" />
    <glyph glyph-name="a" unicode="a" horiz-adv-x="647" 
d="M632 106v-101q-19 -9 -50 -9q-47 0 -83 20.5t-48 60.5q-32 -46 -85 -67.5t-116 -21.5q-60 0 -110 19.5t-80 58t-30 93.5q0 84 72 131t215 47h125q-1 53 -38.5 82.5t-100.5 29.5q-41 0 -85.5 -13.5t-82.5 -41.5l-64 94q47 37 110 54.5t128 17.5q120 0 188 -58t68 -162
v-197q0 -21 11.5 -31t30.5 -10q11 0 25 4zM382.5 128q52.5 37 58.5 114h-121q-162 0 -162 -77q0 -34 27.5 -54t77.5 -20q67 0 119.5 37z" />
    <glyph glyph-name="b" unicode="b" horiz-adv-x="712" 
d="M537.5 523q63.5 -38 99 -103.5t35.5 -145.5t-35.5 -145.5t-99 -103.5t-145.5 -38q-121 0 -193 87v-74h-121v752h128v-270q69 79 186 79q82 0 145.5 -38zM461.5 125q38.5 22 60 61t21.5 88t-21.5 88t-60 61t-87.5 22t-88 -21.5t-61.5 -60.5t-22.5 -89t22.5 -89t61.5 -60.5
t88 -21.5t87.5 22z" />
    <glyph glyph-name="c" unicode="c" horiz-adv-x="592" 
d="M187.5 24.5q-70.5 37.5 -109 103t-38.5 145.5q0 81 39.5 146.5t110 103.5t160.5 38q134 0 217 -83l-75 -93q-29 29 -65.5 45t-77.5 16q-48 0 -89 -21t-65.5 -60.5t-24.5 -90.5t24.5 -90t66 -60t90.5 -21q42 0 80 15.5t65 42.5l74 -92q-36 -38 -91.5 -60t-127.5 -22
q-93 0 -163.5 37.5z" />
    <glyph glyph-name="d" unicode="d" horiz-adv-x="712" 
d="M634 752v-752h-121v74q-72 -87 -193 -87q-82 0 -145.5 38t-99 103.5t-35.5 145.5t35.5 145.5t99 103.5t145.5 38q117 0 186 -79v270h128zM426 124.5q39 21.5 61.5 60.5t22.5 89t-22.5 89t-61.5 60.5t-88 21.5t-87.5 -22t-60 -61t-21.5 -88t21.5 -88t60 -61t87.5 -22
t88 21.5z" />
    <glyph glyph-name="e" unicode="e" horiz-adv-x="656" 
d="M619 227h-447q14 -61 62.5 -95t122.5 -34q50 0 87.5 15t71.5 45l71 -87q-35 -37 -94 -60.5t-137 -23.5q-96 0 -167.5 37.5t-109 103t-37.5 146.5q0 79 36 144.5t102 104t154 38.5t153.5 -39t100.5 -105t35 -146q0 -25 -4 -44zM229 415.5q-43 -33.5 -57 -92.5h323
q-11 57 -54 91.5t-107 34.5q-62 0 -105 -33.5z" />
    <glyph glyph-name="f" unicode="f" horiz-adv-x="420" 
d="M264.5 634.5q-25.5 -20.5 -25.5 -56.5v-30h154v-108h-153v-440h-127v440h-93v108h93v40q0 50 25.5 90.5t72.5 63.5t109 23q24 0 51 -3.5t43 -9.5v-107q-38 10 -76 10q-48 0 -73.5 -20.5z" />
    <glyph glyph-name="g" unicode="g" horiz-adv-x="688" 
d="M620 548v-494q0 -74 -37.5 -129t-106 -85t-158.5 -30q-66 0 -126.5 14t-108.5 37l44 105q96 -46 190 -46q81 0 129 36.5t48 100.5v43q-68 -73 -180 -73q-81 0 -144 34.5t-98 95t-35 135.5t35 136.5t98 97t144 35.5q116 0 185 -82v69h121zM448 180q47 42 47 112t-47 113
t-119 43q-71 0 -117.5 -43.5t-46.5 -112.5t46.5 -111.5t117.5 -42.5q72 0 119 42z" />
    <glyph glyph-name="h" unicode="h" horiz-adv-x="674" 
d="M497 535q51 -26 79.5 -74t28.5 -112v-349h-127v322q0 56 -32.5 88t-93.5 32q-65 0 -105.5 -34.5t-40.5 -89.5v-318h-128v752h128v-262q33 37 78.5 54t95.5 17q66 0 117 -26z" />
    <glyph glyph-name="i" unicode="i" horiz-adv-x="286" 
d="M81 548h128v-548h-128v548zM89 635q-22 21 -22 54q0 32 22 53t56 21t56 -21t22 -53q0 -33 -22 -54t-56 -21t-56 21z" />
    <glyph glyph-name="j" unicode="j" horiz-adv-x="291" 
d="M-32 -176v107q26 -7 45 -7q35 0 53.5 16.5t18.5 46.5v561h128v-573q0 -76 -46.5 -119t-126.5 -43q-37 0 -72 11zM93 635q-22 21 -22 54q0 32 22 53t56 21t56 -21t22 -53q0 -33 -22 -54t-56 -21t-56 21z" />
    <glyph glyph-name="k" unicode="k" horiz-adv-x="651" 
d="M321 250l-115 -109v-141h-128v752h128v-466l275 262h156l-228 -216l246 -332h-150z" />
    <glyph glyph-name="l" unicode="l" horiz-adv-x="322" 
d="M209 752v-597q0 -47 49 -47q23 0 45 9v-112q-32 -13 -74 -13q-67 0 -107.5 36.5t-40.5 99.5v624h128z" />
    <glyph glyph-name="m" unicode="m" horiz-adv-x="1029" 
d="M855 535q50 -26 78 -74.5t28 -111.5v-349h-127v323q0 56 -31 88t-85 32q-57 0 -96 -34.5t-39 -89.5v-319h-127v323q0 56 -31 88t-84 32q-57 0 -96 -34.5t-39 -89.5v-319h-128v548h121v-62q33 40 78.5 57.5t92.5 17.5q56 0 102.5 -23.5t74.5 -65.5q36 46 88.5 67.5
t107.5 21.5q62 0 112 -26z" />
    <glyph glyph-name="n" unicode="n" horiz-adv-x="674" 
d="M497 535q51 -26 79.5 -74t28.5 -112v-349h-127v323q0 57 -32.5 88t-93.5 31q-65 0 -105.5 -34t-40.5 -89v-319h-128v548h121v-62q32 39 80.5 57t100.5 18q66 0 117 -26z" />
    <glyph glyph-name="o" unicode="o" horiz-adv-x="679" 
d="M183.5 25q-68.5 38 -106 103.5t-37.5 145.5t37.5 145.5t106 103.5t156.5 38t156.5 -38t106 -103.5t37.5 -145.5t-37.5 -145.5t-106 -103.5t-156.5 -38t-156.5 38zM426 125q39 22 62 61t23 88t-23 88t-62 61t-86 22q-48 0 -87 -22t-62 -61t-23 -88t23 -88t62 -61t87 -22
q47 0 86 22z" />
    <glyph glyph-name="p" unicode="p" 
d="M533.5 523q63.5 -38 99 -103.5t35.5 -145.5t-35.5 -145.5t-99 -103.5t-145.5 -38q-117 0 -186 79v-246h-128v728h121v-74q72 87 193 87q82 0 145.5 -38zM457.5 125q38.5 22 60 61t21.5 88t-21.5 88t-60 61t-87.5 22t-88 -21.5t-61.5 -60.5t-22.5 -89t22.5 -89t61.5 -60.5
t88 -21.5t87.5 22z" />
    <glyph glyph-name="q" unicode="q" 
d="M174.5 523q-63.5 -38 -99 -103.5t-35.5 -145.5t35.5 -145.5t99 -103.5t145.5 -38q117 0 186 79v-246h128v728h-121v-74q-72 87 -193 87q-82 0 -145.5 -38zM250.5 125q-38.5 22 -60 61t-21.5 88t21.5 88t60 61t87.5 22t88 -21.5t61.5 -60.5t22.5 -89t-22.5 -89
t-61.5 -60.5t-88 -21.5t-87.5 22z" />
    <glyph glyph-name="r" unicode="r" horiz-adv-x="452" 
d="M431 550v-118q-29 5 -57 5q-75 0 -121.5 -37t-46.5 -112v-288h-128v548h121v-77q29 44 77.5 64.5t100.5 20.5q28 0 54 -6z" />
    <glyph glyph-name="s" unicode="s" horiz-adv-x="582" 
d="M188 114.5q56 -19.5 113 -19.5q56 0 86.5 18t30.5 46q0 37 -61 47l-139 24q-87 14 -128.5 54.5t-41.5 100.5q0 52 29.5 91.5t85 61.5t130.5 22q64 0 128 -17t117 -56l-64 -91q-35 25 -84.5 41.5t-98.5 16.5q-50 0 -82 -16.5t-32 -43.5q0 -18 18.5 -29t58.5 -18l126 -21
q85 -15 126.5 -55t41.5 -101q0 -54 -30.5 -95.5t-86.5 -64t-130 -22.5t-149.5 22t-122.5 60l63 95q40 -31 96 -50.5z" />
    <glyph glyph-name="t" unicode="t" horiz-adv-x="451" 
d="M419 125v-113q-38 -20 -103 -20q-104 0 -156 50t-52 137v261h-93v108h94v120l126 59v-179h179v-108h-179v-244q0 -45 26.5 -66.5t70.5 -21.5t87 17z" />
    <glyph glyph-name="u" unicode="u" horiz-adv-x="671" 
d="M592 548v-548h-121v61q-33 -39 -80.5 -56.5t-98.5 -17.5q-65 0 -116 26t-79.5 74t-28.5 111v350h128v-323q0 -57 32.5 -88t92.5 -31q63 0 103.5 34t40.5 89v319h127z" />
    <glyph glyph-name="v" unicode="v" horiz-adv-x="623" 
d="M618 548l-231 -548h-152l-230 548h140l168 -427l169 427h136z" />
    <glyph glyph-name="w" unicode="w" horiz-adv-x="983" 
d="M972 548l-202 -548h-148l-128 385l-130 -385h-149l-203 548h136l144 -425l141 421h124l140 -419l144 423h131z" />
    <glyph glyph-name="x" unicode="x" horiz-adv-x="610" 
d="M452 0l-148 194l-152 -194h-147l225 279l-213 269h153l137 -178l139 178h147l-213 -263l225 -285h-153z" />
    <glyph glyph-name="y" unicode="y" horiz-adv-x="622" 
d="M618 548l-268 -606q-28 -64 -77.5 -98t-114.5 -34q-32 0 -69 8t-66 23l35 104q54 -23 95 -23q29 0 53 16t37 46l9 21l-247 543h140l171 -407l167 407h135z" />
    <glyph glyph-name="z" unicode="z" horiz-adv-x="569" 
d="M534 107v-107h-490v93l313 349h-298v106h464v-93l-312 -348h323z" />
    <glyph glyph-name="braceleft" unicode="{" horiz-adv-x="440" 
d="M282.5 655q-22.5 -23 -22.5 -58q0 -24 4 -72t4 -73q0 -96 -100 -129q100 -33 100 -129q0 -24 -4 -72t-4 -73q0 -35 22.5 -58t67.5 -23h41v-107h-51q-96 0 -147 50.5t-51 134.5q0 19 4 63q4 50 4 76q0 39 -23 58t-75 28v104q53 8 75.5 27.5t22.5 58.5q0 26 -4 76
q-4 44 -4 63q0 84 51 134.5t147 50.5h51v-107h-41q-45 0 -67.5 -23z" />
    <glyph glyph-name="bar" unicode="|" horiz-adv-x="318" 
d="M210 785v-924h-102v924h102z" />
    <glyph glyph-name="braceright" unicode="}" horiz-adv-x="440" 
d="M157.5 655q22.5 -23 22.5 -58q0 -24 -4 -72t-4 -73q0 -96 100 -129q-100 -33 -100 -129q0 -24 4 -72t4 -73q0 -35 -22.5 -58t-67.5 -23h-41v-107h51q96 0 147 50.5t51 134.5q0 19 -4 63q-4 50 -4 76q0 39 23 58t75 28v104q-53 8 -75.5 27.5t-22.5 58.5q0 26 4 76
q4 44 4 63q0 84 -51 134.5t-147 50.5h-51v-107h41q45 0 67.5 -23z" />
    <glyph glyph-name="asciitilde" unicode="~" horiz-adv-x="647" 
d="M353 274q-30 15 -64 42q-24 18 -37.5 26t-28.5 8q-24 0 -38.5 -21.5t-15.5 -65.5h-110q2 90 43 142t118 52q43 0 73 -15t66 -42q22 -17 35.5 -25t27.5 -8q52 0 56 86h110q-2 -90 -43.5 -142t-119.5 -52q-42 0 -72 15z" />
    <glyph glyph-name="uni00A0" unicode="&#xa0;" horiz-adv-x="304" 
 />
    <glyph glyph-name="exclamdown" unicode="&#xa1;" horiz-adv-x="334" 
d="M94 0h146l-32 482h-82zM108.5 705.5q-22.5 -22.5 -22.5 -58.5t22.5 -58.5t58.5 -22.5t58.5 22.5t22.5 58.5t-22.5 58.5t-58.5 22.5t-58.5 -22.5z" />
    <glyph glyph-name="cent" unicode="&#xa2;" horiz-adv-x="596" 
d="M490.5 14.5q-47.5 -21.5 -108.5 -26.5v-105h-83v107q-79 10 -137.5 49.5t-90 100t-31.5 133.5t32.5 134t91 101t135.5 50v101h83v-99q112 -9 185 -82l-75 -93q-48 48 -110 58v-338q69 11 114 56l74 -92q-32 -33 -79.5 -54.5zM205.5 167.5q35.5 -43.5 93.5 -58.5v331
q-57 -15 -93 -59t-36 -107t35.5 -106.5z" />
    <glyph glyph-name="sterling" unicode="&#xa3;" horiz-adv-x="693" 
d="M661 114v-114h-596v104q55 23 95.5 59t40.5 84q0 26 -15 53h-149v101h81q-24 46 -24 101q0 67 34 119.5t97.5 82t149.5 29.5q119 0 196 -57t81 -166h-129q-5 53 -45.5 81t-101.5 28q-70 0 -109 -34t-39 -82q0 -25 10.5 -49.5t30.5 -52.5h270v-101h-210q8 -24 8 -47
q0 -39 -22.5 -75.5t-75.5 -63.5h422z" />
    <glyph glyph-name="currency" unicode="&#xa4;" horiz-adv-x="630" 
d="M516 230l67 -67l-71 -70l-66 66q-60 -38 -131 -38t-130 38l-67 -66l-71 70l67 67q-38 59 -38 130t38 130l-67 67l71 70l67 -66q59 38 130 38t130 -38l67 66l71 -70l-67 -67q38 -59 38 -130t-38 -130zM409 266.5q38 38.5 38 93.5q0 56 -38 94t-94 38q-36 0 -66.5 -17.5
t-48 -48t-17.5 -66.5t17.5 -66.5t48 -48t66.5 -17.5q56 0 94 38.5z" />
    <glyph glyph-name="yen" unicode="&#xa5;" horiz-adv-x="710" 
d="M505 403h130v-85h-181l-32 -54v-26h213v-85h-213v-153h-131v153h-213v85h213v23l-34 57h-179v85h127l-190 317h143l198 -335l199 335h140z" />
    <glyph glyph-name="brokenbar" unicode="&#xa6;" horiz-adv-x="317" 
d="M209 785v-405h-101v405h101zM209 266v-405h-101v405h101z" />
    <glyph glyph-name="section" unicode="&#xa7;" horiz-adv-x="637" 
d="M580 1q0 -57 -31.5 -100t-89.5 -66.5t-137 -23.5t-155.5 23t-118.5 57l63 96q48 -35 106.5 -51t107.5 -16q58 0 92.5 20.5t34.5 54.5q0 19 -16 34.5t-57 28.5l-150 44q-168 50 -168 176q0 43 20 79t60 62q-66 51 -66 128q0 54 32 96t91.5 66t139.5 24q136 0 245 -74
l-62 -93q-37 26 -86.5 42.5t-99.5 16.5q-60 0 -96 -23t-36 -55q0 -42 66 -65l192 -66q64 -22 98 -65t34 -100q0 -40 -17 -75t-52 -61q56 -43 56 -114zM201 249q21 -20 68 -35l152 -49l10 -3q42 33 42 73q0 54 -75 80l-166 58q-52 -31 -52 -76q0 -28 21 -48z" />
    <glyph glyph-name="dieresis" unicode="&#xa8;" horiz-adv-x="596" 
d="M116 637q-22 20 -22 52q0 31 22 51.5t55 20.5q32 0 54 -20.5t22 -51.5q0 -32 -21.5 -52t-54.5 -20t-55 20zM350 637q-22 20 -22 52q0 31 22 51.5t55 20.5q32 0 54 -20.5t22 -51.5q0 -32 -21.5 -52t-54.5 -20t-55 20z" />
    <glyph glyph-name="copyright" unicode="&#xa9;" horiz-adv-x="925" 
d="M251 17q-95 53 -149.5 144.5t-54.5 199.5t54.5 199t149.5 144t212 53t212 -53t149 -144t54 -199t-54 -199t-149 -144.5t-212 -53.5t-212 53zM636 79q77 42 120.5 116t43.5 166t-43.5 165.5t-120.5 115.5t-173 42q-97 0 -173.5 -42t-120 -115.5t-43.5 -165.5t43.5 -166
t120 -116t173.5 -42q96 0 173 42zM377 202.5q-46 24.5 -72 67t-26 94.5q0 51 26 93t71.5 66t102.5 24q45 0 83 -14.5t62 -42.5l-50 -56q-22 22 -44.5 31.5t-48.5 9.5q-50 0 -84 -32.5t-34 -78.5q0 -49 33.5 -81t85.5 -32q56 0 93 40l51 -56q-25 -28 -63 -42.5t-82 -14.5
q-58 0 -104 24.5z" />
    <glyph glyph-name="ordfeminine" unicode="&#xaa;" horiz-adv-x="531" 
d="M522 363v-89q-16 -8 -41 -8q-40 0 -70.5 15.5t-42.5 47.5q-28 -36 -72.5 -53t-93.5 -17q-75 0 -127 36t-52 102q0 71 66 111t189 40h80q-2 41 -31.5 63.5t-77.5 22.5q-33 0 -69.5 -10.5t-68.5 -34.5l-56 84q40 30 93 45t105 15q99 0 157 -48.5t58 -135.5v-155
q0 -17 10 -25.5t25 -8.5q7 0 19 3zM307.5 380q42.5 28 49.5 86h-76q-77 0 -111.5 -17.5t-34.5 -45.5q0 -23 20 -37t58 -14q52 0 94.5 28z" />
    <glyph glyph-name="guillemotleft" unicode="&#xab;" horiz-adv-x="569" 
d="M162 280l153 -223h-123l-155 223l155 223h123zM376 280l153 -223h-123l-155 223l155 223h123z" />
    <glyph glyph-name="logicalnot" unicode="&#xac;" horiz-adv-x="634" 
d="M562 528v-338h-113v227h-400v111h513z" />
    <glyph glyph-name="uni00AD" unicode="&#xad;" horiz-adv-x="368" 
d="M331 380l-19 -119h-275l19 119h275z" />
    <glyph glyph-name="registered" unicode="&#xae;" horiz-adv-x="609" 
d="M446.5 697q63.5 -36 99.5 -98t36 -136t-36 -136t-99.5 -98t-142.5 -36q-78 0 -141.5 36t-99.5 98t-36 136t36 136t99.5 98t141.5 36q79 0 142.5 -36zM420 270.5q51 28.5 79.5 79t28.5 113.5q0 62 -28.5 112.5t-79.5 79.5t-116 29q-64 0 -115 -29t-79.5 -79.5
t-28.5 -112.5q0 -63 28.5 -113.5t79.5 -79t115 -28.5q65 0 116 28.5zM408 468.5q-13 -19.5 -35 -28.5l65 -97h-64l-59 92h-55v-92h-57v246h140q35 0 56.5 -22t21.5 -54q0 -25 -13 -44.5zM260 485h72q14 0 22 7.5t8 20.5q0 12 -8 19.5t-22 7.5h-72v-55z" />
    <glyph glyph-name="macron" unicode="&#xaf;" horiz-adv-x="586" 
d="M165 729h332v-98h-332v98z" />
    <glyph glyph-name="degree" unicode="&#xb0;" horiz-adv-x="458" 
d="M136.5 404.5q-41.5 22.5 -65.5 62.5t-24 90q0 51 24 91t65.5 62.5t92.5 22.5t92.5 -22.5t65.5 -62.5t24 -91q0 -50 -24 -90t-65.5 -62.5t-92.5 -22.5t-92.5 22.5zM294 492.5q26 25.5 26 64.5q0 40 -26 65.5t-65 25.5t-65 -25.5t-26 -65.5q0 -39 26 -64.5t65 -25.5
t65 25.5z" />
    <glyph glyph-name="plusminus" unicode="&#xb1;" horiz-adv-x="663" 
d="M584 476v-109h-196v-162h-113v162h-196v109h196v162h113v-162h196zM79 128h505v-112h-505v112z" />
    <glyph glyph-name="uni00B2" unicode="&#xb2;" horiz-adv-x="437" 
d="M93 618q26 24 59 35.5t63 11.5q32 0 52 -13t20 -35q0 -23 -22 -40.5t-72 -43.5q-52 -27 -85.5 -50t-57.5 -59.5t-24 -87.5v-19h376v93h-241q23 20 85 51q48 25 77.5 45t50.5 49.5t21 69.5q0 61 -47 98t-129 37q-110 0 -185 -66z" />
    <glyph glyph-name="uni00B3" unicode="&#xb3;" horiz-adv-x="434" 
d="M375.5 535q30.5 -37 30.5 -82q0 -39 -22 -71.5t-66 -52.5t-107 -20q-60 0 -113 18t-84 47l56 79q63 -50 140 -50q43 0 65.5 14.5t22.5 38.5q0 23 -21 37.5t-57 14.5q-18 0 -33 -4t-24 -9l-43 44l134 120h-214v93h343v-85l-100 -86q62 -9 92.5 -46z" />
    <glyph glyph-name="acute" unicode="&#xb4;" horiz-adv-x="586" 
d="M350 606h-119l113 168h147v-10z" />
    <glyph glyph-name="uni00B5" unicode="&#xb5;" horiz-adv-x="680" 
d="M601 548v-548h-121v62q-32 -38 -79.5 -55t-100.5 -17q-54 0 -98 22v-192h-128v728h128v-322q0 -56 32.5 -87t93.5 -31q65 0 105.5 33.5t40.5 88.5v318h127z" />
    <glyph glyph-name="paragraph" unicode="&#xb6;" horiz-adv-x="713" 
d="M625 -119h-94v751h-108v-751h-94v445h-65q-106 0 -162.5 55t-56.5 142t56.5 142t162.5 55h361v-839z" />
    <glyph glyph-name="periodcentered" unicode="&#xb7;" horiz-adv-x="275" 
d="M79.5 345.5q-22.5 22.5 -22.5 58.5t22.5 58.5t58.5 22.5t58.5 -22.5t22.5 -58.5t-22.5 -58.5t-58.5 -22.5t-58.5 22.5z" />
    <glyph glyph-name="cedilla" unicode="&#xb8;" horiz-adv-x="595" 
d="M453.5 -59q31.5 -26 31.5 -63q0 -43 -41 -69t-110 -26q-88 0 -148 35l33 55q34 -17 57.5 -23t52.5 -6q28 0 42.5 9t14.5 25q0 15 -15 24.5t-43 9.5q-26 0 -54 -7l-21 14l73 101h80l-49 -54q4 1 13 1q52 0 83.5 -26z" />
    <glyph glyph-name="uni00B9" unicode="&#xb9;" horiz-adv-x="314" 
d="M241 752v-435h-105v290q-24 -18 -51.5 -29.5t-63.5 -20.5v92q100 27 129 103h91z" />
    <glyph glyph-name="ordmasculine" unicode="&#xba;" horiz-adv-x="559" 
d="M150.5 290.5q-56.5 31.5 -87 85t-30.5 119.5t30.5 120.5t87 86t129.5 31.5t129 -31.5t87 -86t31 -120.5q0 -65 -31 -119t-87 -85.5t-129 -31.5t-129.5 31.5zM375 399.5q38 37.5 38 95.5q0 59 -38 97t-95 38t-95 -38t-38 -97q0 -58 38 -95.5t95 -37.5t95 37.5z" />
    <glyph glyph-name="guillemotright" unicode="&#xbb;" horiz-adv-x="569" 
d="M407 280l-153 -223h123l155 223l-155 223h-123zM193 280l-153 -223h123l155 223l-155 223h-123z" />
    <glyph glyph-name="onequarter" unicode="&#xbc;" horiz-adv-x="942" 
d="M254 720v-435h-105v290q-24 -18 -51.5 -29.5t-63.5 -20.5v92q100 27 129 103h91zM737 720l-486 -720h-95l486 720h95zM921 94h-61v-94h-103v94h-248v84l222 257h129v-250h61v-91zM757 185v148l-126 -148h126z" />
    <glyph glyph-name="onehalf" unicode="&#xbd;" horiz-adv-x="999" 
d="M254 720v-435h-105v290q-24 -18 -51.5 -29.5t-63.5 -20.5v92q100 27 129 103h91zM737 720l-486 -720h-95l486 720h95zM655 301q26 24 59 35.5t63 11.5q32 0 52 -13t20 -35q0 -23 -22 -40.5t-72 -43.5q-52 -27 -85.5 -50t-57.5 -59.5t-24 -87.5v-19h376v93h-241
q23 20 85 51q48 25 77.5 45t50.5 49.5t21 69.5q0 61 -47 98t-129 37q-110 0 -185 -66z" />
    <glyph glyph-name="threequarters" unicode="&#xbe;" horiz-adv-x="1028" 
d="M370.5 503q30.5 -37 30.5 -82q0 -39 -22 -71.5t-66 -52.5t-107 -20q-60 0 -113 18t-84 47l56 79q63 -50 140 -50q43 0 65.5 14.5t22.5 38.5q0 23 -21 37.5t-57 14.5q-18 0 -33 -4t-24 -9l-43 44l134 120h-214v93h343v-85l-100 -86q62 -9 92.5 -46zM825 720l-486 -720h-95
l486 720h95zM1007 94h-61v-94h-103v94h-248v84l222 257h129v-250h61v-91zM843 185v148l-126 -148h126z" />
    <glyph glyph-name="questiondown" unicode="&#xbf;" horiz-adv-x="552" 
d="M399 202q-3 -44 -35 -72t-86 -28q-46 0 -77.5 21t-31.5 58q0 22 16.5 42.5t61.5 58.5q56 47 80.5 83t24.5 88v29h-127v-18q0 -29 -19 -53.5t-74 -69.5q-54 -46 -78.5 -84t-24.5 -84q0 -52 29.5 -94.5t84.5 -67t129 -24.5q78 0 136 28t89 76.5t33 110.5h-131zM346.5 705.5
q22.5 -22.5 22.5 -58.5t-22.5 -58.5t-58.5 -22.5t-58.5 22.5t-22.5 58.5t22.5 58.5t58.5 22.5t58.5 -22.5z" />
    <glyph glyph-name="Agrave" unicode="&#xc0;" horiz-adv-x="785" 
d="M559 173h-335l-67 -173h-139l293 720h163l293 -720h-141zM515 288l-123 317l-123 -317h246zM356 944l103 -164h-118l-132 154v10h147z" />
    <glyph glyph-name="Aacute" unicode="&#xc1;" horiz-adv-x="785" 
d="M559 173h-335l-67 -173h-139l293 720h163l293 -720h-141zM515 288l-123 317l-123 -317h246zM433 778h-119l113 168h147v-10z" />
    <glyph glyph-name="Acircumflex" unicode="&#xc2;" horiz-adv-x="785" 
d="M559 173h-335l-67 -173h-139l293 720h163l293 -720h-141zM515 288l-123 317l-123 -317h246zM467 784l-75 84l-76 -84h-111l119 162h135l119 -162h-111z" />
    <glyph glyph-name="Atilde" unicode="&#xc3;" horiz-adv-x="785" 
d="M559 173h-335l-67 -173h-139l293 720h163l293 -720h-141zM515 288l-123 317l-123 -317h246zM411.5 792q-23.5 12 -50.5 34q-17 13 -27 19t-20 6q-17 0 -26 -15.5t-11 -48.5h-96q2 72 35.5 114.5t95.5 42.5q34 0 58.5 -12.5t50.5 -34.5q16 -13 25.5 -19t19.5 -6
q36 0 39 65h96q-2 -73 -35.5 -115t-96.5 -42q-34 0 -57.5 12z" />
    <glyph glyph-name="Adieresis" unicode="&#xc4;" horiz-adv-x="785" 
d="M559 173h-335l-67 -173h-139l293 720h163l293 -720h-141zM515 288l-123 317l-123 -317h246zM220 809q-22 20 -22 52q0 31 22 51.5t55 20.5q32 0 54 -20.5t22 -51.5q0 -32 -21.5 -52t-54.5 -20t-55 20zM454 809q-22 20 -22 52q0 31 22 51.5t55 20.5q32 0 54 -20.5
t22 -51.5q0 -32 -21.5 -52t-54.5 -20t-55 20z" />
    <glyph glyph-name="Aring" unicode="&#xc5;" horiz-adv-x="785" 
d="M559 173h-335l-67 -173h-139l293 720h163l293 -720h-141zM515 288l-123 317l-123 -317h246zM287.5 815.5q-40.5 37.5 -40.5 95.5t40.5 95.5t102.5 37.5q63 0 103.5 -37.5t40.5 -95.5t-40.5 -95.5t-103.5 -37.5q-62 0 -102.5 37.5zM435 866.5q18 17.5 18 44.5t-18 44.5
t-45 17.5t-44.5 -17.5t-17.5 -44.5t18 -44.5t44 -17.5q27 0 45 17.5z" />
    <glyph glyph-name="AE" unicode="&#xc6;" horiz-adv-x="1106" 
d="M1076 0h-566v172h-281l-110 -172h-144l464 720h627l-19 -116h-407v-171h275v-117h-275v-200h417zM510 286v326l-208 -326h208z" />
    <glyph glyph-name="Ccedilla" unicode="&#xc7;" horiz-adv-x="762" 
d="M243 35.5q-92 48.5 -144 134t-52 190.5t52 190.5t143 134t204 48.5q86 0 160.5 -28t120.5 -81l-83 -93q-81 81 -195 81q-74 0 -134 -33t-95 -90.5t-35 -128.5t35 -128.5t96 -90.5t136 -33q119 0 197 79l84 -91q-48 -55 -123 -82t-160 -27q-115 0 -207 48.5zM539.5 -59
q31.5 -26 31.5 -63q0 -43 -41 -69t-110 -26q-88 0 -148 35l33 55q34 -17 57.5 -23t52.5 -6q28 0 42.5 9t14.5 25q0 15 -15 24.5t-43 9.5q-26 0 -54 -7l-21 14l73 101h80l-49 -54q4 1 13 1q52 0 83.5 -26z" />
    <glyph glyph-name="Egrave" unicode="&#xc8;" 
d="M678 0h-590v720h580l-19 -116h-428v-171h295v-118h-295v-199h438zM335 944l103 -164h-118l-132 154v10h147z" />
    <glyph glyph-name="Eacute" unicode="&#xc9;" 
d="M678 0h-590v720h580l-19 -116h-428v-171h295v-118h-295v-199h438zM412 778h-119l113 168h147v-10z" />
    <glyph glyph-name="Ecircumflex" unicode="&#xca;" 
d="M678 0h-590v720h580l-19 -116h-428v-171h295v-118h-295v-199h438zM446 784l-75 84l-76 -84h-111l119 162h135l119 -162h-111z" />
    <glyph glyph-name="Edieresis" unicode="&#xcb;" 
d="M678 0h-590v720h580l-19 -116h-428v-171h295v-118h-295v-199h438zM199 809q-22 20 -22 52q0 31 22 51.5t55 20.5q32 0 54 -20.5t22 -51.5q0 -32 -21.5 -52t-54.5 -20t-55 20zM433 809q-22 20 -22 52q0 31 22 51.5t55 20.5q32 0 54 -20.5t22 -51.5q0 -32 -21.5 -52
t-54.5 -20t-55 20z" />
    <glyph glyph-name="Igrave" unicode="&#xcc;" horiz-adv-x="321" 
d="M227 720v-720h-133v720h133zM125 944l103 -164h-118l-132 154v10h147z" />
    <glyph glyph-name="Iacute" unicode="&#xcd;" horiz-adv-x="321" 
d="M227 720v-720h-133v720h133zM202 778h-119l113 168h147v-10z" />
    <glyph glyph-name="Icircumflex" unicode="&#xce;" horiz-adv-x="321" 
d="M227 720v-720h-133v720h133zM236 784l-75 84l-76 -84h-111l119 162h135l119 -162h-111z" />
    <glyph glyph-name="Idieresis" unicode="&#xcf;" horiz-adv-x="321" 
d="M0.5 809q-21.5 20 -21.5 52q0 31 21.5 51.5t54.5 20.5q32 0 54 -20.5t22 -51.5q0 -32 -21.5 -52t-54.5 -20t-54.5 20zM212 809q-22 20 -22 52q0 31 22 51.5t55 20.5q32 0 54 -20.5t22 -51.5q0 -32 -21.5 -52t-54.5 -20t-55 20zM227 720v-720h-133v720h133z" />
    <glyph glyph-name="Eth" unicode="&#xd0;" horiz-adv-x="830" 
d="M607.5 673q85.5 -47 130.5 -129t45 -184t-45 -184t-130.5 -129t-202.5 -47h-303v324h-77v112h77v284h303q117 0 202.5 -47zM534 148.5q54 31.5 82.5 86.5t28.5 125t-28.5 125t-82.5 86.5t-130 31.5h-169v-167h243v-112h-243v-207h169q76 0 130 31.5z" />
    <glyph glyph-name="Ntilde" unicode="&#xd1;" horiz-adv-x="825" 
d="M737 720v-720h-136l-384 532v-532h-129v720h139l380 -525v525h130zM432.5 792q-23.5 12 -50.5 34q-17 13 -27 19t-20 6q-17 0 -26 -15.5t-11 -48.5h-96q2 72 35.5 114.5t95.5 42.5q34 0 58.5 -12.5t50.5 -34.5q16 -13 25.5 -19t19.5 -6q36 0 39 65h96q-2 -73 -35.5 -115
t-96.5 -42q-34 0 -57.5 12z" />
    <glyph glyph-name="Ograve" unicode="&#xd2;" horiz-adv-x="859" 
d="M232 34.5q-87 47.5 -136 132.5t-49 193t49 193t136 132.5t197 47.5t197 -47.5t136 -132.5t49 -193t-49 -193t-136 -132.5t-197 -47.5t-197 47.5zM555.5 140q55.5 32 86.5 89.5t31 130.5t-31 130.5t-86.5 89.5t-126.5 32q-70 0 -125.5 -32t-87 -89.5t-31.5 -130.5
t31.5 -130.5t87 -89.5t125.5 -32q71 0 126.5 32zM393 944l103 -164h-118l-132 154v10h147z" />
    <glyph glyph-name="Oacute" unicode="&#xd3;" horiz-adv-x="859" 
d="M232 34.5q-87 47.5 -136 132.5t-49 193t49 193t136 132.5t197 47.5t197 -47.5t136 -132.5t49 -193t-49 -193t-136 -132.5t-197 -47.5t-197 47.5zM555.5 140q55.5 32 86.5 89.5t31 130.5t-31 130.5t-86.5 89.5t-126.5 32q-70 0 -125.5 -32t-87 -89.5t-31.5 -130.5
t31.5 -130.5t87 -89.5t125.5 -32q71 0 126.5 32zM470 778h-119l113 168h147v-10z" />
    <glyph glyph-name="Ocircumflex" unicode="&#xd4;" horiz-adv-x="859" 
d="M232 34.5q-87 47.5 -136 132.5t-49 193t49 193t136 132.5t197 47.5t197 -47.5t136 -132.5t49 -193t-49 -193t-136 -132.5t-197 -47.5t-197 47.5zM555.5 140q55.5 32 86.5 89.5t31 130.5t-31 130.5t-86.5 89.5t-126.5 32q-70 0 -125.5 -32t-87 -89.5t-31.5 -130.5
t31.5 -130.5t87 -89.5t125.5 -32q71 0 126.5 32zM504 784l-75 84l-76 -84h-111l119 162h135l119 -162h-111z" />
    <glyph glyph-name="Otilde" unicode="&#xd5;" horiz-adv-x="859" 
d="M232 34.5q-87 47.5 -136 132.5t-49 193t49 193t136 132.5t197 47.5t197 -47.5t136 -132.5t49 -193t-49 -193t-136 -132.5t-197 -47.5t-197 47.5zM555.5 140q55.5 32 86.5 89.5t31 130.5t-31 130.5t-86.5 89.5t-126.5 32q-70 0 -125.5 -32t-87 -89.5t-31.5 -130.5
t31.5 -130.5t87 -89.5t125.5 -32q71 0 126.5 32zM448.5 792q-23.5 12 -50.5 34q-17 13 -27 19t-20 6q-17 0 -26 -15.5t-11 -48.5h-96q2 72 35.5 114.5t95.5 42.5q34 0 58.5 -12.5t50.5 -34.5q16 -13 25.5 -19t19.5 -6q36 0 39 65h96q-2 -73 -35.5 -115t-96.5 -42
q-34 0 -57.5 12z" />
    <glyph glyph-name="Odieresis" unicode="&#xd6;" horiz-adv-x="859" 
d="M232 34.5q-87 47.5 -136 132.5t-49 193t49 193t136 132.5t197 47.5t197 -47.5t136 -132.5t49 -193t-49 -193t-136 -132.5t-197 -47.5t-197 47.5zM555.5 140q55.5 32 86.5 89.5t31 130.5t-31 130.5t-86.5 89.5t-126.5 32q-70 0 -125.5 -32t-87 -89.5t-31.5 -130.5
t31.5 -130.5t87 -89.5t125.5 -32q71 0 126.5 32zM257 809q-22 20 -22 52q0 31 22 51.5t55 20.5q32 0 54 -20.5t22 -51.5q0 -32 -21.5 -52t-54.5 -20t-55 20zM491 809q-22 20 -22 52q0 31 22 51.5t55 20.5q32 0 54 -20.5t22 -51.5q0 -32 -21.5 -52t-54.5 -20t-55 20z" />
    <glyph glyph-name="multiply" unicode="&#xd7;" horiz-adv-x="618" 
d="M66 195l166 165l-166 164l78 79l165 -166l164 166l79 -79l-166 -164l166 -165l-79 -79l-164 167l-165 -167z" />
    <glyph glyph-name="Oslash" unicode="&#xd8;" horiz-adv-x="857" 
d="M777.5 518q31.5 -72 31.5 -158q0 -108 -48.5 -193t-135.5 -132.5t-197 -47.5q-95 0 -175 37l-60 -86h-123l98 141q-58 50 -89.5 122.5t-31.5 158.5q0 108 49 193t135.5 132.5t196.5 47.5q97 0 176 -37l61 85h122l-98 -140q57 -51 88.5 -123zM300.5 582.5
q-55.5 -32.5 -86.5 -90.5t-31 -132q0 -106 61 -176l291 409q-50 22 -107 22q-72 0 -127.5 -32.5zM556 137.5q56 32.5 87 90.5t31 132q0 52 -16 97t-45 78l-291 -409q52 -21 106 -21q72 0 128 32.5z" />
    <glyph glyph-name="Ugrave" unicode="&#xd9;" horiz-adv-x="781" 
d="M223.5 21q-71.5 34 -110.5 97.5t-39 149.5v452h133v-437q0 -83 48.5 -129t135.5 -46q86 0 134.5 46t48.5 129v437h133v-452q0 -86 -38.5 -149.5t-110 -97.5t-167.5 -34t-167.5 34zM355 944l103 -164h-118l-132 154v10h147z" />
    <glyph glyph-name="Uacute" unicode="&#xda;" horiz-adv-x="781" 
d="M223.5 21q-71.5 34 -110.5 97.5t-39 149.5v452h133v-437q0 -83 48.5 -129t135.5 -46q86 0 134.5 46t48.5 129v437h133v-452q0 -86 -38.5 -149.5t-110 -97.5t-167.5 -34t-167.5 34zM432 778h-119l113 168h147v-10z" />
    <glyph glyph-name="Ucircumflex" unicode="&#xdb;" horiz-adv-x="781" 
d="M223.5 21q-71.5 34 -110.5 97.5t-39 149.5v452h133v-437q0 -83 48.5 -129t135.5 -46q86 0 134.5 46t48.5 129v437h133v-452q0 -86 -38.5 -149.5t-110 -97.5t-167.5 -34t-167.5 34zM466 784l-75 84l-76 -84h-111l119 162h135l119 -162h-111z" />
    <glyph glyph-name="Udieresis" unicode="&#xdc;" horiz-adv-x="781" 
d="M223.5 21q-71.5 34 -110.5 97.5t-39 149.5v452h133v-437q0 -83 48.5 -129t135.5 -46q86 0 134.5 46t48.5 129v437h133v-452q0 -86 -38.5 -149.5t-110 -97.5t-167.5 -34t-167.5 34zM219 809q-22 20 -22 52q0 31 22 51.5t55 20.5q32 0 54 -20.5t22 -51.5q0 -32 -21.5 -52
t-54.5 -20t-55 20zM453 809q-22 20 -22 52q0 31 22 51.5t55 20.5q32 0 54 -20.5t22 -51.5q0 -32 -21.5 -52t-54.5 -20t-55 20z" />
    <glyph glyph-name="Yacute" unicode="&#xdd;" horiz-adv-x="724" 
d="M430 244v-244h-133v241l-292 479h151l209 -357l206 357h147zM401 778h-119l113 168h147v-10z" />
    <glyph glyph-name="Thorn" unicode="&#xde;" horiz-adv-x="729" 
d="M582 561q56 -29 84.5 -79t28.5 -114q0 -65 -28.5 -115.5t-84.5 -79.5t-136 -29h-225v-144h-133v720h133v-130h225q80 0 136 -29zM529.5 290q30.5 28 30.5 78q0 49 -30.5 76t-87.5 27h-221v-209h221q57 0 87.5 28z" />
    <glyph glyph-name="germandbls" unicode="&#xdf;" horiz-adv-x="698" 
d="M245.5 610.5q39.5 40.5 105.5 40.5q45 0 75.5 -21.5t30.5 -54.5q0 -17 -11.5 -33.5t-42.5 -46.5q-37 -37 -50.5 -61.5t-13.5 -49.5q0 -29 11.5 -51.5t41.5 -43.5l89 -63q33 -23 45.5 -37.5t12.5 -31.5q0 -22 -19 -38t-61 -16q-40 0 -86.5 10.5t-90.5 28.5v-117
q84 -35 182 -35q61 0 108.5 21.5t74 59t26.5 84.5q0 50 -22.5 83t-71.5 69l-80 58q-16 11 -21.5 17.5t-5.5 13.5t7 16t35 37q40 40 56 70t16 68q0 48 -30 89t-83 65t-119 24q-81 0 -143.5 -31t-97.5 -88t-35 -133v-513h128v505q0 65 39.5 105.5z" />
    <glyph glyph-name="agrave" unicode="&#xe0;" horiz-adv-x="647" 
d="M632 106v-101q-19 -9 -50 -9q-47 0 -83 20.5t-48 60.5q-32 -46 -85 -67.5t-116 -21.5q-60 0 -110 19.5t-80 58t-30 93.5q0 84 72 131t215 47h125q-1 53 -38.5 82.5t-100.5 29.5q-41 0 -85.5 -13.5t-82.5 -41.5l-64 94q47 37 110 54.5t128 17.5q120 0 188 -58t68 -162
v-197q0 -21 11.5 -31t30.5 -10q11 0 25 4zM382.5 128q52.5 37 58.5 114h-121q-162 0 -162 -77q0 -34 27.5 -54t77.5 -20q67 0 119.5 37zM279 772l103 -164h-118l-132 154v10h147z" />
    <glyph glyph-name="aacute" unicode="&#xe1;" horiz-adv-x="647" 
d="M632 106v-101q-19 -9 -50 -9q-47 0 -83 20.5t-48 60.5q-32 -46 -85 -67.5t-116 -21.5q-60 0 -110 19.5t-80 58t-30 93.5q0 84 72 131t215 47h125q-1 53 -38.5 82.5t-100.5 29.5q-41 0 -85.5 -13.5t-82.5 -41.5l-64 94q47 37 110 54.5t128 17.5q120 0 188 -58t68 -162
v-197q0 -21 11.5 -31t30.5 -10q11 0 25 4zM382.5 128q52.5 37 58.5 114h-121q-162 0 -162 -77q0 -34 27.5 -54t77.5 -20q67 0 119.5 37zM356 606h-119l113 168h147v-10z" />
    <glyph glyph-name="acircumflex" unicode="&#xe2;" horiz-adv-x="647" 
d="M632 106v-101q-19 -9 -50 -9q-47 0 -83 20.5t-48 60.5q-32 -46 -85 -67.5t-116 -21.5q-60 0 -110 19.5t-80 58t-30 93.5q0 84 72 131t215 47h125q-1 53 -38.5 82.5t-100.5 29.5q-41 0 -85.5 -13.5t-82.5 -41.5l-64 94q47 37 110 54.5t128 17.5q120 0 188 -58t68 -162
v-197q0 -21 11.5 -31t30.5 -10q11 0 25 4zM382.5 128q52.5 37 58.5 114h-121q-162 0 -162 -77q0 -34 27.5 -54t77.5 -20q67 0 119.5 37zM390 612l-75 84l-76 -84h-111l119 162h135l119 -162h-111z" />
    <glyph glyph-name="atilde" unicode="&#xe3;" horiz-adv-x="647" 
d="M632 106v-101q-19 -9 -50 -9q-47 0 -83 20.5t-48 60.5q-32 -46 -85 -67.5t-116 -21.5q-60 0 -110 19.5t-80 58t-30 93.5q0 84 72 131t215 47h125q-1 53 -38.5 82.5t-100.5 29.5q-41 0 -85.5 -13.5t-82.5 -41.5l-64 94q47 37 110 54.5t128 17.5q120 0 188 -58t68 -162
v-197q0 -21 11.5 -31t30.5 -10q11 0 25 4zM382.5 128q52.5 37 58.5 114h-121q-162 0 -162 -77q0 -34 27.5 -54t77.5 -20q67 0 119.5 37zM334.5 620q-23.5 12 -50.5 34q-17 13 -27 19t-20 6q-17 0 -26 -15.5t-11 -48.5h-96q2 72 35.5 114.5t95.5 42.5q34 0 58.5 -12.5
t50.5 -34.5q16 -13 25.5 -19t19.5 -6q36 0 39 65h96q-2 -73 -35.5 -115t-96.5 -42q-34 0 -57.5 12z" />
    <glyph glyph-name="adieresis" unicode="&#xe4;" horiz-adv-x="647" 
d="M632 106v-101q-19 -9 -50 -9q-47 0 -83 20.5t-48 60.5q-32 -46 -85 -67.5t-116 -21.5q-60 0 -110 19.5t-80 58t-30 93.5q0 84 72 131t215 47h125q-1 53 -38.5 82.5t-100.5 29.5q-41 0 -85.5 -13.5t-82.5 -41.5l-64 94q47 37 110 54.5t128 17.5q120 0 188 -58t68 -162
v-197q0 -21 11.5 -31t30.5 -10q11 0 25 4zM382.5 128q52.5 37 58.5 114h-121q-162 0 -162 -77q0 -34 27.5 -54t77.5 -20q67 0 119.5 37zM143 637q-22 20 -22 52q0 31 22 51.5t55 20.5q32 0 54 -20.5t22 -51.5q0 -32 -21.5 -52t-54.5 -20t-55 20zM377 637q-22 20 -22 52
q0 31 22 51.5t55 20.5q32 0 54 -20.5t22 -51.5q0 -32 -21.5 -52t-54.5 -20t-55 20z" />
    <glyph glyph-name="aring" unicode="&#xe5;" horiz-adv-x="647" 
d="M632 106v-101q-19 -9 -50 -9q-47 0 -83 20.5t-48 60.5q-32 -46 -85 -67.5t-116 -21.5q-60 0 -110 19.5t-80 58t-30 93.5q0 84 72 131t215 47h125q-1 53 -38.5 82.5t-100.5 29.5q-41 0 -85.5 -13.5t-82.5 -41.5l-64 94q47 37 110 54.5t128 17.5q120 0 188 -58t68 -162
v-197q0 -21 11.5 -31t30.5 -10q11 0 25 4zM382.5 128q52.5 37 58.5 114h-121q-162 0 -162 -77q0 -34 27.5 -54t77.5 -20q67 0 119.5 37zM210.5 643.5q-40.5 37.5 -40.5 95.5t40.5 95.5t102.5 37.5q63 0 103.5 -37.5t40.5 -95.5t-40.5 -95.5t-103.5 -37.5q-62 0 -102.5 37.5z
M358 694.5q18 17.5 18 44.5t-18 44.5t-45 17.5t-44.5 -17.5t-17.5 -44.5t18 -44.5t44 -17.5q27 0 45 17.5z" />
    <glyph glyph-name="ae" unicode="&#xe6;" horiz-adv-x="1052" 
d="M1015 230h-444q14 -62 63 -97.5t124 -35.5q46 0 83 15t73 45l71 -87q-36 -38 -93.5 -61t-133.5 -23q-92 0 -157 35t-100 97q-31 -66 -100.5 -98t-148.5 -32q-61 0 -111.5 19t-80.5 57t-30 92q0 85 72.5 130.5t210.5 45.5l132 1q0 56 -37.5 86.5t-104.5 30.5
q-42 0 -86.5 -13.5t-82.5 -42.5l-63 94q47 37 110 54.5t129 17.5q155 0 212 -97q34 46 87 71.5t123 25.5q87 0 152.5 -39t100 -104.5t34.5 -144.5q0 -18 -4 -42zM628.5 415.5q-42.5 -33.5 -56.5 -90.5h319q-12 56 -54.5 90t-104.5 34q-61 0 -103.5 -33.5zM379 128.5
q52 34.5 63 108.5l-133 1q-78 0 -115.5 -22t-37.5 -57q0 -29 27.5 -47t77.5 -18q66 0 118 34.5z" />
    <glyph glyph-name="ccedilla" unicode="&#xe7;" horiz-adv-x="592" 
d="M187.5 24.5q-70.5 37.5 -109 103t-38.5 145.5q0 81 39.5 146.5t110 103.5t160.5 38q134 0 217 -83l-75 -93q-29 29 -65.5 45t-77.5 16q-48 0 -89 -21t-65.5 -60.5t-24.5 -90.5t24.5 -90t66 -60t90.5 -21q42 0 80 15.5t65 42.5l74 -92q-36 -38 -91.5 -60t-127.5 -22
q-93 0 -163.5 37.5zM445.5 -59q31.5 -26 31.5 -63q0 -43 -41 -69t-110 -26q-88 0 -148 35l33 55q34 -17 57.5 -23t52.5 -6q28 0 42.5 9t14.5 25q0 15 -15 24.5t-43 9.5q-26 0 -54 -7l-21 14l73 101h80l-49 -54q4 1 13 1q52 0 83.5 -26z" />
    <glyph glyph-name="egrave" unicode="&#xe8;" horiz-adv-x="656" 
d="M619 227h-447q14 -61 62.5 -95t122.5 -34q50 0 87.5 15t71.5 45l71 -87q-35 -37 -94 -60.5t-137 -23.5q-96 0 -167.5 37.5t-109 103t-37.5 146.5q0 79 36 144.5t102 104t154 38.5t153.5 -39t100.5 -105t35 -146q0 -25 -4 -44zM229 415.5q-43 -33.5 -57 -92.5h323
q-11 57 -54 91.5t-107 34.5q-62 0 -105 -33.5zM298 772l103 -164h-118l-132 154v10h147z" />
    <glyph glyph-name="eacute" unicode="&#xe9;" horiz-adv-x="656" 
d="M619 227h-447q14 -61 62.5 -95t122.5 -34q50 0 87.5 15t71.5 45l71 -87q-35 -37 -94 -60.5t-137 -23.5q-96 0 -167.5 37.5t-109 103t-37.5 146.5q0 79 36 144.5t102 104t154 38.5t153.5 -39t100.5 -105t35 -146q0 -25 -4 -44zM229 415.5q-43 -33.5 -57 -92.5h323
q-11 57 -54 91.5t-107 34.5q-62 0 -105 -33.5zM375 606h-119l113 168h147v-10z" />
    <glyph glyph-name="ecircumflex" unicode="&#xea;" horiz-adv-x="656" 
d="M619 227h-447q14 -61 62.5 -95t122.5 -34q50 0 87.5 15t71.5 45l71 -87q-35 -37 -94 -60.5t-137 -23.5q-96 0 -167.5 37.5t-109 103t-37.5 146.5q0 79 36 144.5t102 104t154 38.5t153.5 -39t100.5 -105t35 -146q0 -25 -4 -44zM229 415.5q-43 -33.5 -57 -92.5h323
q-11 57 -54 91.5t-107 34.5q-62 0 -105 -33.5zM409 612l-75 84l-76 -84h-111l119 162h135l119 -162h-111z" />
    <glyph glyph-name="edieresis" unicode="&#xeb;" horiz-adv-x="656" 
d="M619 227h-447q14 -61 62.5 -95t122.5 -34q50 0 87.5 15t71.5 45l71 -87q-35 -37 -94 -60.5t-137 -23.5q-96 0 -167.5 37.5t-109 103t-37.5 146.5q0 79 36 144.5t102 104t154 38.5t153.5 -39t100.5 -105t35 -146q0 -25 -4 -44zM229 415.5q-43 -33.5 -57 -92.5h323
q-11 57 -54 91.5t-107 34.5q-62 0 -105 -33.5zM162 637q-22 20 -22 52q0 31 22 51.5t55 20.5q32 0 54 -20.5t22 -51.5q0 -32 -21.5 -52t-54.5 -20t-55 20zM396 637q-22 20 -22 52q0 31 22 51.5t55 20.5q32 0 54 -20.5t22 -51.5q0 -32 -21.5 -52t-54.5 -20t-55 20z" />
    <glyph glyph-name="igrave" unicode="&#xec;" horiz-adv-x="296" 
d="M-8 758v10h147l83 -156h-118zM85 548h128v-548h-128v548z" />
    <glyph glyph-name="iacute" unicode="&#xed;" horiz-adv-x="286" 
d="M81 548h128v-548h-128v548zM186 606h-119l113 168h147v-10z" />
    <glyph glyph-name="icircumflex" unicode="&#xee;" horiz-adv-x="286" 
d="M81 548h128v-548h-128v548zM220 612l-75 84l-76 -84h-111l119 162h135l119 -162h-111z" />
    <glyph glyph-name="idieresis" unicode="&#xef;" horiz-adv-x="286" 
d="M-15.5 637q-21.5 20 -21.5 52q0 31 21.5 51.5t54.5 20.5q32 0 54 -20.5t22 -51.5q0 -32 -21.5 -52t-54.5 -20t-54.5 20zM196 637q-22 20 -22 52q0 31 22 51.5t55 20.5q32 0 54 -20.5t22 -51.5q0 -32 -21.5 -52t-54.5 -20t-55 20zM81 548h128v-548h-128v548z" />
    <glyph glyph-name="eth" unicode="&#xf0;" horiz-adv-x="671" 
d="M590 470q46 -97 46 -188q0 -84 -36.5 -151t-104.5 -105.5t-157 -38.5t-156.5 37.5t-104.5 100t-37 136.5t37 136.5t101.5 99.5t141.5 37q47 0 79.5 -15t57.5 -44q-42 70 -121 134l-158 -59l-23 63l116 43q-44 29 -88 50l50 82q82 -36 155 -88l149 56l23 -63l-111 -42
q95 -84 141 -181zM425 124.5q39 21.5 60.5 58t21.5 79.5t-21.5 79t-60.5 57t-87 21q-49 0 -88 -21t-60.5 -57.5t-21.5 -79.5t21.5 -79t60.5 -57.5t88 -21.5q48 0 87 21.5z" />
    <glyph glyph-name="ntilde" unicode="&#xf1;" horiz-adv-x="674" 
d="M497 535q51 -26 79.5 -74t28.5 -112v-349h-127v323q0 57 -32.5 88t-93.5 31q-65 0 -105.5 -34t-40.5 -89v-319h-128v548h121v-62q32 39 80.5 57t100.5 18q66 0 117 -26zM362.5 620q-23.5 12 -50.5 34q-17 13 -27 19t-20 6q-17 0 -26 -15.5t-11 -48.5h-96q2 72 35.5 114.5
t95.5 42.5q34 0 58.5 -12.5t50.5 -34.5q16 -13 25.5 -19t19.5 -6q36 0 39 65h96q-2 -73 -35.5 -115t-96.5 -42q-34 0 -57.5 12z" />
    <glyph glyph-name="ograve" unicode="&#xf2;" horiz-adv-x="679" 
d="M183.5 25q-68.5 38 -106 103.5t-37.5 145.5t37.5 145.5t106 103.5t156.5 38t156.5 -38t106 -103.5t37.5 -145.5t-37.5 -145.5t-106 -103.5t-156.5 -38t-156.5 38zM426 125q39 22 62 61t23 88t-23 88t-62 61t-86 22q-48 0 -87 -22t-62 -61t-23 -88t23 -88t62 -61t87 -22
q47 0 86 22zM304 772l103 -164h-118l-132 154v10h147z" />
    <glyph glyph-name="oacute" unicode="&#xf3;" horiz-adv-x="679" 
d="M183.5 25q-68.5 38 -106 103.5t-37.5 145.5t37.5 145.5t106 103.5t156.5 38t156.5 -38t106 -103.5t37.5 -145.5t-37.5 -145.5t-106 -103.5t-156.5 -38t-156.5 38zM426 125q39 22 62 61t23 88t-23 88t-62 61t-86 22q-48 0 -87 -22t-62 -61t-23 -88t23 -88t62 -61t87 -22
q47 0 86 22zM381 606h-119l113 168h147v-10z" />
    <glyph glyph-name="ocircumflex" unicode="&#xf4;" horiz-adv-x="679" 
d="M183.5 25q-68.5 38 -106 103.5t-37.5 145.5t37.5 145.5t106 103.5t156.5 38t156.5 -38t106 -103.5t37.5 -145.5t-37.5 -145.5t-106 -103.5t-156.5 -38t-156.5 38zM426 125q39 22 62 61t23 88t-23 88t-62 61t-86 22q-48 0 -87 -22t-62 -61t-23 -88t23 -88t62 -61t87 -22
q47 0 86 22zM415 612l-75 84l-76 -84h-111l119 162h135l119 -162h-111z" />
    <glyph glyph-name="otilde" unicode="&#xf5;" horiz-adv-x="679" 
d="M183.5 25q-68.5 38 -106 103.5t-37.5 145.5t37.5 145.5t106 103.5t156.5 38t156.5 -38t106 -103.5t37.5 -145.5t-37.5 -145.5t-106 -103.5t-156.5 -38t-156.5 38zM426 125q39 22 62 61t23 88t-23 88t-62 61t-86 22q-48 0 -87 -22t-62 -61t-23 -88t23 -88t62 -61t87 -22
q47 0 86 22zM359.5 620q-23.5 12 -50.5 34q-17 13 -27 19t-20 6q-17 0 -26 -15.5t-11 -48.5h-96q2 72 35.5 114.5t95.5 42.5q34 0 58.5 -12.5t50.5 -34.5q16 -13 25.5 -19t19.5 -6q36 0 39 65h96q-2 -73 -35.5 -115t-96.5 -42q-34 0 -57.5 12z" />
    <glyph glyph-name="odieresis" unicode="&#xf6;" horiz-adv-x="679" 
d="M183.5 25q-68.5 38 -106 103.5t-37.5 145.5t37.5 145.5t106 103.5t156.5 38t156.5 -38t106 -103.5t37.5 -145.5t-37.5 -145.5t-106 -103.5t-156.5 -38t-156.5 38zM426 125q39 22 62 61t23 88t-23 88t-62 61t-86 22q-48 0 -87 -22t-62 -61t-23 -88t23 -88t62 -61t87 -22
q47 0 86 22zM168 637q-22 20 -22 52q0 31 22 51.5t55 20.5q32 0 54 -20.5t22 -51.5q0 -32 -21.5 -52t-54.5 -20t-55 20zM402 637q-22 20 -22 52q0 31 22 51.5t55 20.5q32 0 54 -20.5t22 -51.5q0 -32 -21.5 -52t-54.5 -20t-55 20z" />
    <glyph glyph-name="divide" unicode="&#xf7;" horiz-adv-x="625" 
d="M254.5 503q-23.5 23 -23.5 56t23.5 56t57.5 23q35 0 58.5 -23t23.5 -56t-23.5 -56t-58.5 -23q-34 0 -57.5 23zM59 414h507v-109h-507v109zM254.5 104q-23.5 23 -23.5 56t23.5 56t57.5 23q35 0 58.5 -23t23.5 -56t-23.5 -56t-58.5 -23q-34 0 -57.5 23z" />
    <glyph glyph-name="oslash" unicode="&#xf8;" horiz-adv-x="679" 
d="M616.5 392q23.5 -55 23.5 -118q0 -80 -37.5 -145.5t-106 -103.5t-156.5 -38q-71 0 -130 25l-49 -68h-115l85 119q-44 39 -67.5 93.5t-23.5 117.5q0 80 37.5 145.5t106 103.5t156.5 38q71 0 131 -26l48 69h114l-84 -118q44 -39 67.5 -94zM253 425.5q-39 -22.5 -62 -62
t-23 -89.5q0 -63 38 -111l197 274q-30 11 -63 11q-48 0 -87 -22.5zM426.5 122.5q39.5 22.5 62.5 62.5t23 89q0 63 -37 111l-198 -274q31 -11 63 -11q47 0 86.5 22.5z" />
    <glyph glyph-name="ugrave" unicode="&#xf9;" horiz-adv-x="671" 
d="M592 548v-548h-121v61q-33 -39 -80.5 -56.5t-98.5 -17.5q-65 0 -116 26t-79.5 74t-28.5 111v350h128v-323q0 -57 32.5 -88t92.5 -31q63 0 103.5 34t40.5 89v319h127zM295 772l103 -164h-118l-132 154v10h147z" />
    <glyph glyph-name="uacute" unicode="&#xfa;" horiz-adv-x="671" 
d="M592 548v-548h-121v61q-33 -39 -80.5 -56.5t-98.5 -17.5q-65 0 -116 26t-79.5 74t-28.5 111v350h128v-323q0 -57 32.5 -88t92.5 -31q63 0 103.5 34t40.5 89v319h127zM372 606h-119l113 168h147v-10z" />
    <glyph glyph-name="ucircumflex" unicode="&#xfb;" horiz-adv-x="671" 
d="M592 548v-548h-121v61q-33 -39 -80.5 -56.5t-98.5 -17.5q-65 0 -116 26t-79.5 74t-28.5 111v350h128v-323q0 -57 32.5 -88t92.5 -31q63 0 103.5 34t40.5 89v319h127zM406 612l-75 84l-76 -84h-111l119 162h135l119 -162h-111z" />
    <glyph glyph-name="udieresis" unicode="&#xfc;" horiz-adv-x="671" 
d="M592 548v-548h-121v61q-33 -39 -80.5 -56.5t-98.5 -17.5q-65 0 -116 26t-79.5 74t-28.5 111v350h128v-323q0 -57 32.5 -88t92.5 -31q63 0 103.5 34t40.5 89v319h127zM159 637q-22 20 -22 52q0 31 22 51.5t55 20.5q32 0 54 -20.5t22 -51.5q0 -32 -21.5 -52t-54.5 -20
t-55 20zM393 637q-22 20 -22 52q0 31 22 51.5t55 20.5q32 0 54 -20.5t22 -51.5q0 -32 -21.5 -52t-54.5 -20t-55 20z" />
    <glyph glyph-name="yacute" unicode="&#xfd;" horiz-adv-x="622" 
d="M618 548l-268 -606q-28 -64 -77.5 -98t-114.5 -34q-32 0 -69 8t-66 23l35 104q54 -23 95 -23q29 0 53 16t37 46l9 21l-247 543h140l171 -407l167 407h135zM353 606h-119l113 168h147v-10z" />
    <glyph glyph-name="thorn" unicode="&#xfe;" horiz-adv-x="712" 
d="M537.5 523q63.5 -38 99 -103.5t35.5 -145.5t-35.5 -145.5t-99 -103.5t-145.5 -38q-117 0 -186 79v-246h-128v932h128v-270q69 79 186 79q82 0 145.5 -38zM461.5 125q38.5 22 60 61t21.5 88t-21.5 88t-60 61t-87.5 22t-88 -21.5t-61.5 -60.5t-22.5 -89t22.5 -89
t61.5 -60.5t88 -21.5t87.5 22z" />
    <glyph glyph-name="ydieresis" unicode="&#xff;" horiz-adv-x="622" 
d="M618 548l-268 -606q-28 -64 -77.5 -98t-114.5 -34q-32 0 -69 8t-66 23l35 104q54 -23 95 -23q29 0 53 16t37 46l9 21l-247 543h140l171 -407l167 407h135zM140 637q-22 20 -22 52q0 31 22 51.5t55 20.5q32 0 54 -20.5t22 -51.5q0 -32 -21.5 -52t-54.5 -20t-55 20z
M374 637q-22 20 -22 52q0 31 22 51.5t55 20.5q32 0 54 -20.5t22 -51.5q0 -32 -21.5 -52t-54.5 -20t-55 20z" />
    <glyph glyph-name="Amacron" unicode="&#x100;" horiz-adv-x="785" 
d="M559 173h-335l-67 -173h-139l293 720h163l293 -720h-141zM515 288l-123 317l-123 -317h246zM226 901h332v-98h-332v98z" />
    <glyph glyph-name="amacron" unicode="&#x101;" horiz-adv-x="647" 
d="M632 106v-101q-19 -9 -50 -9q-47 0 -83 20.5t-48 60.5q-32 -46 -85 -67.5t-116 -21.5q-60 0 -110 19.5t-80 58t-30 93.5q0 84 72 131t215 47h125q-1 53 -38.5 82.5t-100.5 29.5q-41 0 -85.5 -13.5t-82.5 -41.5l-64 94q47 37 110 54.5t128 17.5q120 0 188 -58t68 -162
v-197q0 -21 11.5 -31t30.5 -10q11 0 25 4zM382.5 128q52.5 37 58.5 114h-121q-162 0 -162 -77q0 -34 27.5 -54t77.5 -20q67 0 119.5 37zM149 729h332v-98h-332v98z" />
    <glyph glyph-name="Abreve" unicode="&#x102;" horiz-adv-x="785" 
d="M559 173h-335l-67 -173h-139l293 720h163l293 -720h-141zM515 288l-123 317l-123 -317h246zM267.5 821q-48.5 46 -48.5 125h91q1 -36 24.5 -57t57.5 -21t57.5 21t24.5 57h92q0 -79 -49 -125t-125 -46t-124.5 46z" />
    <glyph glyph-name="abreve" unicode="&#x103;" horiz-adv-x="647" 
d="M632 106v-101q-19 -9 -50 -9q-47 0 -83 20.5t-48 60.5q-32 -46 -85 -67.5t-116 -21.5q-60 0 -110 19.5t-80 58t-30 93.5q0 84 72 131t215 47h125q-1 53 -38.5 82.5t-100.5 29.5q-41 0 -85.5 -13.5t-82.5 -41.5l-64 94q47 37 110 54.5t128 17.5q120 0 188 -58t68 -162
v-197q0 -21 11.5 -31t30.5 -10q11 0 25 4zM382.5 128q52.5 37 58.5 114h-121q-162 0 -162 -77q0 -34 27.5 -54t77.5 -20q67 0 119.5 37zM190.5 649q-48.5 46 -48.5 125h91q1 -36 24.5 -57t57.5 -21t57.5 21t24.5 57h92q0 -79 -49 -125t-125 -46t-124.5 46z" />
    <glyph glyph-name="Aogonek" unicode="&#x104;" horiz-adv-x="775" 
d="M693 -90l34 -74q-42 -34 -113 -34q-61 0 -98 29t-37 79q0 40 31 79t98 60l-48 124h-336l-68 -173h-138l293 720h163l289 -711q-96 -13 -135.5 -36t-39.5 -48q0 -15 12.5 -24.5t31.5 -9.5q29 0 61 19zM515 288l-123 318l-124 -318h247z" />
    <glyph glyph-name="aogonek" unicode="&#x105;" horiz-adv-x="646" 
d="M635 -166q-41 -32 -112 -32q-57 0 -95.5 26.5t-38.5 77.5q0 32 25.5 62.5t78.5 51.5q-30 21 -42 56q-33 -45 -87.5 -66.5t-115.5 -21.5q-59 0 -108.5 19t-79.5 57t-30 91q0 85 79.5 133.5t227.5 48.5h104q-1 54 -39 83t-101 29q-40 0 -84 -13.5t-82 -41.5l-64 94
q47 37 110 54.5t128 17.5q118 0 187 -58t69 -162v-197q0 -21 11.5 -31t29.5 -10q15 0 26 5v-103q-77 -25 -105.5 -44t-28.5 -37q0 -15 13 -23.5t34 -8.5q25 0 56 18zM379 130q53 36 61 112h-100q-98 0 -141 -23t-43 -60q0 -29 28 -47t76 -18q66 0 119 36z" />
    <glyph glyph-name="Cacute" unicode="&#x106;" horiz-adv-x="762" 
d="M243 35.5q-92 48.5 -144 134t-52 190.5t52 190.5t143 134t204 48.5q86 0 160.5 -28t120.5 -81l-83 -93q-81 81 -195 81q-74 0 -134 -33t-95 -90.5t-35 -128.5t35 -128.5t96 -90.5t136 -33q119 0 197 79l84 -91q-48 -55 -123 -82t-160 -27q-115 0 -207 48.5zM465 778h-119
l113 168h147v-10z" />
    <glyph glyph-name="cacute" unicode="&#x107;" horiz-adv-x="592" 
d="M187.5 24.5q-70.5 37.5 -109 103t-38.5 145.5q0 81 39.5 146.5t110 103.5t160.5 38q134 0 217 -83l-75 -93q-29 29 -65.5 45t-77.5 16q-48 0 -89 -21t-65.5 -60.5t-24.5 -90.5t24.5 -90t66 -60t90.5 -21q42 0 80 15.5t65 42.5l74 -92q-36 -38 -91.5 -60t-127.5 -22
q-93 0 -163.5 37.5zM369 606h-119l113 168h147v-10z" />
    <glyph glyph-name="Ccircumflex" unicode="&#x108;" horiz-adv-x="762" 
d="M243 35.5q-92 48.5 -144 134t-52 190.5t52 190.5t143 134t204 48.5q86 0 160.5 -28t120.5 -81l-83 -93q-81 81 -195 81q-74 0 -134 -33t-95 -90.5t-35 -128.5t35 -128.5t96 -90.5t136 -33q119 0 197 79l84 -91q-48 -55 -123 -82t-160 -27q-115 0 -207 48.5zM499 784
l-75 84l-76 -84h-111l119 162h135l119 -162h-111z" />
    <glyph glyph-name="ccircumflex" unicode="&#x109;" horiz-adv-x="592" 
d="M187.5 24.5q-70.5 37.5 -109 103t-38.5 145.5q0 81 39.5 146.5t110 103.5t160.5 38q134 0 217 -83l-75 -93q-29 29 -65.5 45t-77.5 16q-48 0 -89 -21t-65.5 -60.5t-24.5 -90.5t24.5 -90t66 -60t90.5 -21q42 0 80 15.5t65 42.5l74 -92q-36 -38 -91.5 -60t-127.5 -22
q-93 0 -163.5 37.5zM403 612l-75 84l-76 -84h-111l119 162h135l119 -162h-111z" />
    <glyph glyph-name="Cdotaccent" unicode="&#x10a;" horiz-adv-x="762" 
d="M243 35.5q-92 48.5 -144 134t-52 190.5t52 190.5t143 134t204 48.5q86 0 160.5 -28t120.5 -81l-83 -93q-81 81 -195 81q-74 0 -134 -33t-95 -90.5t-35 -128.5t35 -128.5t96 -90.5t136 -33q119 0 197 79l84 -91q-48 -55 -123 -82t-160 -27q-115 0 -207 48.5zM368 807
q-22 21 -22 54q0 32 22 53t56 21t56 -21t22 -53q0 -33 -22 -54t-56 -21t-56 21z" />
    <glyph glyph-name="cdotaccent" unicode="&#x10b;" horiz-adv-x="592" 
d="M187.5 24.5q-70.5 37.5 -109 103t-38.5 145.5q0 81 39.5 146.5t110 103.5t160.5 38q134 0 217 -83l-75 -93q-29 29 -65.5 45t-77.5 16q-48 0 -89 -21t-65.5 -60.5t-24.5 -90.5t24.5 -90t66 -60t90.5 -21q42 0 80 15.5t65 42.5l74 -92q-36 -38 -91.5 -60t-127.5 -22
q-93 0 -163.5 37.5zM272 635q-22 21 -22 54q0 32 22 53t56 21t56 -21t22 -53q0 -33 -22 -54t-56 -21t-56 21z" />
    <glyph glyph-name="Ccaron" unicode="&#x10c;" horiz-adv-x="762" 
d="M243 35.5q-92 48.5 -144 134t-52 190.5t52 190.5t143 134t204 48.5q86 0 160.5 -28t120.5 -81l-83 -93q-81 81 -195 81q-74 0 -134 -33t-95 -90.5t-35 -128.5t35 -128.5t96 -90.5t136 -33q119 0 197 79l84 -91q-48 -55 -123 -82t-160 -27q-115 0 -207 48.5zM610 946
l-119 -162h-135l-119 162h111l76 -84l75 84h111z" />
    <glyph glyph-name="ccaron" unicode="&#x10d;" horiz-adv-x="592" 
d="M187.5 24.5q-70.5 37.5 -109 103t-38.5 145.5q0 81 39.5 146.5t110 103.5t160.5 38q134 0 217 -83l-75 -93q-29 29 -65.5 45t-77.5 16q-48 0 -89 -21t-65.5 -60.5t-24.5 -90.5t24.5 -90t66 -60t90.5 -21q42 0 80 15.5t65 42.5l74 -92q-36 -38 -91.5 -60t-127.5 -22
q-93 0 -163.5 37.5zM514 774l-119 -162h-135l-119 162h111l76 -84l75 84h111z" />
    <glyph glyph-name="Dcaron" unicode="&#x10e;" horiz-adv-x="816" 
d="M593.5 673q85.5 -47 130.5 -129t45 -184t-45 -184t-130.5 -129t-202.5 -47h-303v720h303q117 0 202.5 -47zM520 148.5q54 31.5 82.5 86.5t28.5 125t-28.5 125t-82.5 86.5t-130 31.5h-169v-486h169q76 0 130 31.5zM593 946l-119 -162h-135l-119 162h111l76 -84l75 84h111z
" />
    <glyph glyph-name="dcaron" unicode="&#x10f;" horiz-adv-x="712" 
d="M634 752v-752h-121v74q-72 -87 -193 -87q-82 0 -145.5 38t-99 103.5t-35.5 145.5t35.5 145.5t99 103.5t145.5 38q117 0 186 -79v270h128zM426 124.5q39 21.5 61.5 60.5t22.5 89t-22.5 89t-61.5 60.5t-88 21.5t-87.5 -22t-60 -61t-21.5 -88t21.5 -88t60 -61t87.5 -22
t88 21.5zM810 752l-52 -220h-84l22 220h114z" />
    <glyph glyph-name="Dcroat" unicode="&#x110;" horiz-adv-x="830" 
d="M607.5 673q85.5 -47 130.5 -129t45 -184t-45 -184t-130.5 -129t-202.5 -47h-303v324h-77v112h77v284h303q117 0 202.5 -47zM534 148.5q54 31.5 82.5 86.5t28.5 125t-28.5 125t-82.5 86.5t-130 31.5h-169v-167h243v-112h-243v-207h169q76 0 130 31.5z" />
    <glyph glyph-name="dcroat" unicode="&#x111;" horiz-adv-x="713" 
d="M709 599h-77v-599h-121v75q-70 -88 -192 -88q-82 0 -145.5 38t-98.5 102.5t-35 143.5t35 143.5t98.5 102.5t145.5 38q115 0 186 -81v125h-187v85h187v68h127v-68h77v-85zM423 126q39 21 61.5 59t22.5 86t-22.5 86t-61.5 59t-86 21q-48 0 -86.5 -21.5t-60.5 -59.5t-22 -85
q0 -48 22 -85.5t60.5 -59t86.5 -21.5q47 0 86 21z" />
    <glyph glyph-name="Emacron" unicode="&#x112;" 
d="M678 0h-590v720h580l-19 -116h-428v-171h295v-118h-295v-199h438zM205 901h332v-98h-332v98z" />
    <glyph glyph-name="emacron" unicode="&#x113;" horiz-adv-x="656" 
d="M619 227h-447q14 -61 62.5 -95t122.5 -34q50 0 87.5 15t71.5 45l71 -87q-35 -37 -94 -60.5t-137 -23.5q-96 0 -167.5 37.5t-109 103t-37.5 146.5q0 79 36 144.5t102 104t154 38.5t153.5 -39t100.5 -105t35 -146q0 -25 -4 -44zM229 415.5q-43 -33.5 -57 -92.5h323
q-11 57 -54 91.5t-107 34.5q-62 0 -105 -33.5zM168 729h332v-98h-332v98z" />
    <glyph glyph-name="Ebreve" unicode="&#x114;" 
d="M678 0h-590v720h580l-19 -116h-428v-171h295v-118h-295v-199h438zM246.5 821q-48.5 46 -48.5 125h91q1 -36 24.5 -57t57.5 -21t57.5 21t24.5 57h92q0 -79 -49 -125t-125 -46t-124.5 46z" />
    <glyph glyph-name="ebreve" unicode="&#x115;" horiz-adv-x="656" 
d="M619 227h-447q14 -61 62.5 -95t122.5 -34q50 0 87.5 15t71.5 45l71 -87q-35 -37 -94 -60.5t-137 -23.5q-96 0 -167.5 37.5t-109 103t-37.5 146.5q0 79 36 144.5t102 104t154 38.5t153.5 -39t100.5 -105t35 -146q0 -25 -4 -44zM229 415.5q-43 -33.5 -57 -92.5h323
q-11 57 -54 91.5t-107 34.5q-62 0 -105 -33.5zM209.5 649q-48.5 46 -48.5 125h91q1 -36 24.5 -57t57.5 -21t57.5 21t24.5 57h92q0 -79 -49 -125t-125 -46t-124.5 46z" />
    <glyph glyph-name="Edotaccent" unicode="&#x116;" 
d="M678 0h-590v720h580l-19 -116h-428v-171h295v-118h-295v-199h438zM315 807q-22 21 -22 54q0 32 22 53t56 21t56 -21t22 -53q0 -33 -22 -54t-56 -21t-56 21z" />
    <glyph glyph-name="edotaccent" unicode="&#x117;" horiz-adv-x="656" 
d="M619 227h-447q14 -61 62.5 -95t122.5 -34q50 0 87.5 15t71.5 45l71 -87q-35 -37 -94 -60.5t-137 -23.5q-96 0 -167.5 37.5t-109 103t-37.5 146.5q0 79 36 144.5t102 104t154 38.5t153.5 -39t100.5 -105t35 -146q0 -25 -4 -44zM229 415.5q-43 -33.5 -57 -92.5h323
q-11 57 -54 91.5t-107 34.5q-62 0 -105 -33.5zM278 635q-22 21 -22 54q0 32 22 53t56 21t56 -21t22 -53q0 -33 -22 -54t-56 -21t-56 21z" />
    <glyph glyph-name="Eogonek" unicode="&#x118;" horiz-adv-x="706" 
d="M622 -90l35 -74q-43 -34 -114 -34q-60 0 -97 28t-37 76q0 25 12.5 49.5t39.5 44.5h-373v720h580l-19 -116h-428v-171h296v-118h-296v-199h438l17 -110h-3q-80 -8 -117.5 -31.5t-37.5 -50.5q0 -15 12 -24t31 -9q29 0 61 19z" />
    <glyph glyph-name="eogonek" unicode="&#x119;" horiz-adv-x="656" 
d="M619 227h-446q13 -61 63 -95t124 -34q47 0 84 14.5t74 44.5l69 -86q-17 -19 -40 -34t-57 -32q-44 -23 -65.5 -40t-21.5 -41q0 -16 13.5 -24.5t34.5 -8.5q28 0 60 19l34 -74q-42 -34 -115 -34q-57 0 -96.5 26.5t-39.5 77.5q0 44 43 81q-91 3 -157.5 41.5t-102 102.5
t-35.5 143t36 144.5t102 104t154 38.5t153.5 -39t100.5 -105.5t35 -147.5q0 -23 -4 -42zM229.5 415.5q-42.5 -33.5 -56.5 -92.5h322q-11 57 -54 91.5t-107 34.5q-62 0 -104.5 -33.5z" />
    <glyph glyph-name="Ecaron" unicode="&#x11a;" 
d="M678 0h-590v720h580l-19 -116h-428v-171h295v-118h-295v-199h438zM557 946l-119 -162h-135l-119 162h111l76 -84l75 84h111z" />
    <glyph glyph-name="ecaron" unicode="&#x11b;" horiz-adv-x="656" 
d="M619 227h-447q14 -61 62.5 -95t122.5 -34q50 0 87.5 15t71.5 45l71 -87q-35 -37 -94 -60.5t-137 -23.5q-96 0 -167.5 37.5t-109 103t-37.5 146.5q0 79 36 144.5t102 104t154 38.5t153.5 -39t100.5 -105t35 -146q0 -25 -4 -44zM229 415.5q-43 -33.5 -57 -92.5h323
q-11 57 -54 91.5t-107 34.5q-62 0 -105 -33.5zM520 774l-119 -162h-135l-119 162h111l76 -84l75 84h111z" />
    <glyph glyph-name="Gcircumflex" unicode="&#x11c;" horiz-adv-x="824" 
d="M758 73q-113 -86 -298 -86q-119 0 -213.5 47.5t-147 132t-52.5 191.5q0 108 52 193.5t143.5 133.5t205.5 48q91 0 166 -26.5t124 -72.5l-77 -97q-40 35 -93.5 55t-119.5 20q-73 0 -133 -32t-95 -89.5t-35 -130.5t35.5 -130.5t99 -89.5t144.5 -32q50 0 88 8t75 26v157
h-207v116h338v-342zM509 784l-75 84l-76 -84h-111l119 162h135l119 -162h-111z" />
    <glyph glyph-name="gcircumflex" unicode="&#x11d;" horiz-adv-x="688" 
d="M620 548v-494q0 -74 -37.5 -129t-106 -85t-158.5 -30q-66 0 -126.5 14t-108.5 37l44 105q96 -46 190 -46q81 0 129 36.5t48 100.5v43q-68 -73 -180 -73q-81 0 -144 34.5t-98 95t-35 135.5t35 136.5t98 97t144 35.5q116 0 185 -82v69h121zM448 180q47 42 47 112t-47 113
t-119 43q-71 0 -117.5 -43.5t-46.5 -112.5t46.5 -111.5t117.5 -42.5q72 0 119 42zM418 612l-75 84l-76 -84h-111l119 162h135l119 -162h-111z" />
    <glyph glyph-name="Gbreve" unicode="&#x11e;" horiz-adv-x="824" 
d="M758 73q-113 -86 -298 -86q-119 0 -213.5 47.5t-147 132t-52.5 191.5q0 108 52 193.5t143.5 133.5t205.5 48q91 0 166 -26.5t124 -72.5l-77 -97q-40 35 -93.5 55t-119.5 20q-73 0 -133 -32t-95 -89.5t-35 -130.5t35.5 -130.5t99 -89.5t144.5 -32q50 0 88 8t75 26v157
h-207v116h338v-342zM309.5 821q-48.5 46 -48.5 125h91q1 -36 24.5 -57t57.5 -21t57.5 21t24.5 57h92q0 -79 -49 -125t-125 -46t-124.5 46z" />
    <glyph glyph-name="gbreve" unicode="&#x11f;" horiz-adv-x="688" 
d="M620 548v-494q0 -74 -37.5 -129t-106 -85t-158.5 -30q-66 0 -126.5 14t-108.5 37l44 105q96 -46 190 -46q81 0 129 36.5t48 100.5v43q-68 -73 -180 -73q-81 0 -144 34.5t-98 95t-35 135.5t35 136.5t98 97t144 35.5q116 0 185 -82v69h121zM448 180q47 42 47 112t-47 113
t-119 43q-71 0 -117.5 -43.5t-46.5 -112.5t46.5 -111.5t117.5 -42.5q72 0 119 42zM218.5 649q-48.5 46 -48.5 125h91q1 -36 24.5 -57t57.5 -21t57.5 21t24.5 57h92q0 -79 -49 -125t-125 -46t-124.5 46z" />
    <glyph glyph-name="Gdotaccent" unicode="&#x120;" horiz-adv-x="824" 
d="M758 73q-113 -86 -298 -86q-119 0 -213.5 47.5t-147 132t-52.5 191.5q0 108 52 193.5t143.5 133.5t205.5 48q91 0 166 -26.5t124 -72.5l-77 -97q-40 35 -93.5 55t-119.5 20q-73 0 -133 -32t-95 -89.5t-35 -130.5t35.5 -130.5t99 -89.5t144.5 -32q50 0 88 8t75 26v157
h-207v116h338v-342zM378 807q-22 21 -22 54q0 32 22 53t56 21t56 -21t22 -53q0 -33 -22 -54t-56 -21t-56 21z" />
    <glyph glyph-name="gdotaccent" unicode="&#x121;" horiz-adv-x="688" 
d="M620 548v-494q0 -74 -37.5 -129t-106 -85t-158.5 -30q-66 0 -126.5 14t-108.5 37l44 105q96 -46 190 -46q81 0 129 36.5t48 100.5v43q-68 -73 -180 -73q-81 0 -144 34.5t-98 95t-35 135.5t35 136.5t98 97t144 35.5q116 0 185 -82v69h121zM448 180q47 42 47 112t-47 113
t-119 43q-71 0 -117.5 -43.5t-46.5 -112.5t46.5 -111.5t117.5 -42.5q72 0 119 42zM287 635q-22 21 -22 54q0 32 22 53t56 21t56 -21t22 -53q0 -33 -22 -54t-56 -21t-56 21z" />
    <glyph glyph-name="Gcommaaccent" unicode="&#x122;" horiz-adv-x="824" 
d="M758 73q-113 -86 -298 -86q-119 0 -213.5 47.5t-147 132t-52.5 191.5q0 108 52 193.5t143.5 133.5t205.5 48q91 0 166 -26.5t124 -72.5l-77 -97q-40 35 -93.5 55t-119.5 20q-73 0 -133 -32t-95 -89.5t-35 -130.5t35.5 -130.5t99 -89.5t144.5 -32q50 0 88 8t75 26v157
h-207v116h338v-342zM386 -54h137l-86 -161h-90z" />
    <glyph glyph-name="gcommaaccent" unicode="&#x123;" horiz-adv-x="688" 
d="M620 548v-494q0 -74 -37.5 -129t-106 -85t-158.5 -30q-66 0 -126.5 14t-108.5 37l44 105q96 -46 190 -46q81 0 129 36.5t48 100.5v43q-68 -73 -180 -73q-81 0 -144 34.5t-98 95t-35 135.5t35 136.5t98 97t144 35.5q116 0 185 -82v69h121zM448 180q47 42 47 112t-47 113
t-119 43q-71 0 -117.5 -43.5t-46.5 -112.5t46.5 -111.5t117.5 -42.5q72 0 119 42zM398 606h-137l85 168h91z" />
    <glyph glyph-name="Hcircumflex" unicode="&#x124;" horiz-adv-x="844" 
d="M756 720v-720h-133v328h-402v-328h-133v720h133v-273h402v273h133zM497 784l-75 84l-76 -84h-111l119 162h135l119 -162h-111z" />
    <glyph glyph-name="hcircumflex" unicode="&#x125;" horiz-adv-x="674" 
d="M497 535q51 -26 79.5 -74t28.5 -112v-349h-127v322q0 56 -32.5 88t-93.5 32q-65 0 -105.5 -34.5t-40.5 -89.5v-318h-128v752h128v-262q33 37 78.5 54t95.5 17q66 0 117 -26zM218 776l-75 84l-76 -84h-111l119 162h135l119 -162h-111z" />
    <glyph glyph-name="Hbar" unicode="&#x126;" horiz-adv-x="879" 
d="M854 520h-80v-520h-133v310h-403v-310h-133v520h-80v101h80v99h133v-99h403v99h133v-99h80v-101zM641 520h-403v-92h403v92z" />
    <glyph glyph-name="hbar" unicode="&#x127;" horiz-adv-x="679" 
d="M502 526q51 -26 79.5 -73.5t28.5 -110.5v-342h-127v315q0 57 -32.5 88t-93.5 31q-65 0 -105.5 -34t-40.5 -89v-311h-128v599h-77v85h77v68h128v-68h186v-85h-186v-117q32 37 77.5 53.5t96.5 16.5q66 0 117 -26z" />
    <glyph glyph-name="Itilde" unicode="&#x128;" horiz-adv-x="321" 
d="M168 792q-19 12 -37 34q-12 14 -19 19.5t-17 5.5q-33 0 -37 -64h-87q2 73 33.5 115t92.5 42q34 0 53 -12.5t38 -34.5q12 -14 19 -19.5t16 -5.5q35 0 38 65h88q-2 -73 -33.5 -115t-94.5 -42q-34 0 -53 12zM227 720v-720h-133v720h133z" />
    <glyph glyph-name="itilde" unicode="&#x129;" horiz-adv-x="286" 
d="M152 620q-19 12 -37 34q-12 14 -19 19.5t-17 5.5q-33 0 -37 -64h-87q2 73 33.5 115t92.5 42q34 0 53 -12.5t38 -34.5q12 -14 19 -19.5t16 -5.5q35 0 38 65h88q-2 -73 -33.5 -115t-94.5 -42q-34 0 -53 12zM81 548h128v-548h-128v548z" />
    <glyph glyph-name="Imacron" unicode="&#x12a;" horiz-adv-x="321" 
d="M227 720v-720h-133v720h133zM-5 901h332v-98h-332v98z" />
    <glyph glyph-name="imacron" unicode="&#x12b;" horiz-adv-x="295" 
d="M14 729h266v-97h-266v97zM84 548h127v-548h-127v548z" />
    <glyph glyph-name="Ibreve" unicode="&#x12c;" horiz-adv-x="321" 
d="M227 720v-720h-133v720h133zM36.5 821q-48.5 46 -48.5 125h91q1 -36 24.5 -57t57.5 -21t57.5 21t24.5 57h92q0 -79 -49 -125t-125 -46t-124.5 46z" />
    <glyph glyph-name="ibreve" unicode="&#x12d;" horiz-adv-x="286" 
d="M81 548h128v-548h-128v548zM20.5 649q-48.5 46 -48.5 125h91q1 -36 24.5 -57t57.5 -21t57.5 21t24.5 57h92q0 -79 -49 -125t-125 -46t-124.5 46z" />
    <glyph glyph-name="Iogonek" unicode="&#x12e;" horiz-adv-x="320" 
d="M275 -165q-42 -33 -117 -33q-56 0 -94 26.5t-38 77.5q0 30 17.5 57.5t50.5 48.5v708h133v-720q-54 -23 -73 -40.5t-19 -35.5q0 -16 12.5 -24.5t32.5 -8.5q32 0 60 18z" />
    <glyph glyph-name="iogonek" unicode="&#x12f;" horiz-adv-x="296" 
d="M89 635q-22 21 -22 54q0 32 22 53t56 21t56 -21t22 -53q0 -33 -22 -54t-56 -21t-56 21zM260 -165q-41 -33 -116 -33q-56 0 -94.5 26.5t-38.5 77.5q0 30 18 57.5t52 49.5v535h128v-547l4 -1q-55 -23 -74 -40.5t-19 -35.5q0 -16 13 -24.5t33 -8.5q30 0 60 18z" />
    <glyph glyph-name="Idotaccent" unicode="&#x130;" horiz-adv-x="321" 
d="M227 720v-720h-133v720h133zM105 807q-22 21 -22 54q0 32 22 53t56 21t56 -21t22 -53q0 -33 -22 -54t-56 -21t-56 21z" />
    <glyph glyph-name="dotlessi" unicode="&#x131;" horiz-adv-x="286" 
d="M81 548h128v-548h-128v548z" />
    <glyph glyph-name="Jcircumflex" unicode="&#x134;" horiz-adv-x="602" 
d="M528 720v-489q0 -76 -33 -131t-91 -84t-132 -29t-131.5 29.5t-90.5 86t-33 136.5h129q2 -72 38.5 -101.5t88.5 -29.5q57 0 89.5 33t32.5 92v487h133zM538 784l-75 84l-76 -84h-111l119 162h135l119 -162h-111z" />
    <glyph glyph-name="jcircumflex" unicode="&#x135;" horiz-adv-x="291" 
d="M-32 -176v107q26 -7 45 -7q35 0 53.5 16.5t18.5 46.5v561h128v-573q0 -76 -46.5 -119t-126.5 -43q-37 0 -72 11zM224 612l-75 84l-76 -84h-111l119 162h135l119 -162h-111z" />
    <glyph glyph-name="Kcommaaccent" unicode="&#x136;" horiz-adv-x="784" 
d="M377 347l-156 -152v-195h-133v720h133v-365l375 365h163l-289 -282l307 -438h-160zM335 -54h137l-86 -161h-90z" />
    <glyph glyph-name="kcommaaccent" unicode="&#x137;" horiz-adv-x="651" 
d="M321 250l-115 -109v-141h-128v752h128v-466l275 262h156l-228 -216l246 -332h-150zM277 -54h137l-86 -161h-90z" />
    <glyph glyph-name="kgreenlandic" unicode="&#x138;" horiz-adv-x="651" 
d="M321 250l-115 -109v-141h-128v548h128v-262l275 262h156l-228 -216l246 -332h-150z" />
    <glyph glyph-name="Lacute" unicode="&#x139;" horiz-adv-x="671" 
d="M639 119v-119h-551v720h133v-601h418zM191 778h-119l113 168h147v-10z" />
    <glyph glyph-name="lacute" unicode="&#x13a;" horiz-adv-x="322" 
d="M209 752v-597q0 -47 49 -47q23 0 45 9v-112q-32 -13 -74 -13q-67 0 -107.5 36.5t-40.5 99.5v624h128zM186 810h-119l113 168h147v-10z" />
    <glyph glyph-name="Lcommaaccent" unicode="&#x13b;" horiz-adv-x="671" 
d="M639 119v-119h-551v720h133v-601h418zM316 -54h137l-86 -161h-90z" />
    <glyph glyph-name="lcommaaccent" unicode="&#x13c;" horiz-adv-x="322" 
d="M209 752v-597q0 -47 49 -47q23 0 45 9v-112q-32 -13 -74 -13q-67 0 -107.5 36.5t-40.5 99.5v624h128zM143 -54h137l-86 -161h-90z" />
    <glyph glyph-name="Lcaron" unicode="&#x13d;" horiz-adv-x="671" 
d="M639 119v-119h-551v720h133v-601h418zM471 752l-52 -220h-84l22 220h114z" />
    <glyph glyph-name="lcaron" unicode="&#x13e;" horiz-adv-x="322" 
d="M209 752v-597q0 -47 49 -47q23 0 45 9v-112q-32 -13 -74 -13q-67 0 -107.5 36.5t-40.5 99.5v624h128zM393 752l-52 -220h-84l22 220h114z" />
    <glyph glyph-name="Ldot" unicode="&#x13f;" horiz-adv-x="671" 
d="M639 119v-119h-551v720h133v-601h418zM432.5 359.5q-22.5 22.5 -22.5 58.5t22.5 58.5t58.5 22.5t58.5 -22.5t22.5 -58.5t-22.5 -58.5t-58.5 -22.5t-58.5 22.5z" />
    <glyph glyph-name="ldot" unicode="&#x140;" horiz-adv-x="402" 
d="M209 752v-597q0 -47 49 -47q23 0 45 9v-112q-32 -13 -74 -13q-67 0 -107.5 36.5t-40.5 99.5v624h128zM279 335q-22 22 -22 56q0 35 22 57t57 22t57 -22t22 -57q0 -34 -22 -56t-57 -22t-57 22z" />
    <glyph glyph-name="Lslash" unicode="&#x141;" horiz-adv-x="689" 
d="M657 119v-119h-551v237l-87 -40v115l87 40v368h133v-306l255 119v-115l-255 -119v-180h418z" />
    <glyph glyph-name="lslash" unicode="&#x142;" horiz-adv-x="365" 
d="M232 363v-208q0 -47 49 -47q23 0 45 9v-112q-32 -13 -74 -13q-67 0 -107.5 36.5t-40.5 99.5v163l-85 -48h-7v109l92 52v348h128v-276l106 60h7v-109z" />
    <glyph glyph-name="Nacute" unicode="&#x143;" horiz-adv-x="825" 
d="M737 720v-720h-136l-384 532v-532h-129v720h139l380 -525v525h130zM454 778h-119l113 168h147v-10z" />
    <glyph glyph-name="nacute" unicode="&#x144;" horiz-adv-x="674" 
d="M497 535q51 -26 79.5 -74t28.5 -112v-349h-127v323q0 57 -32.5 88t-93.5 31q-65 0 -105.5 -34t-40.5 -89v-319h-128v548h121v-62q32 39 80.5 57t100.5 18q66 0 117 -26zM384 606h-119l113 168h147v-10z" />
    <glyph glyph-name="Ncommaaccent" unicode="&#x145;" horiz-adv-x="825" 
d="M737 720v-720h-136l-384 532v-532h-129v720h139l380 -525v525h130zM365 -54h137l-86 -161h-90z" />
    <glyph glyph-name="ncommaaccent" unicode="&#x146;" horiz-adv-x="674" 
d="M497 535q51 -26 79.5 -74t28.5 -112v-349h-127v323q0 57 -32.5 88t-93.5 31q-65 0 -105.5 -34t-40.5 -89v-319h-128v548h121v-62q32 39 80.5 57t100.5 18q66 0 117 -26zM296 -54h137l-86 -161h-90z" />
    <glyph glyph-name="Ncaron" unicode="&#x147;" horiz-adv-x="825" 
d="M737 720v-720h-136l-384 532v-532h-129v720h139l380 -525v525h130zM599 946l-119 -162h-135l-119 162h111l76 -84l75 84h111z" />
    <glyph glyph-name="ncaron" unicode="&#x148;" horiz-adv-x="674" 
d="M497 535q51 -26 79.5 -74t28.5 -112v-349h-127v323q0 57 -32.5 88t-93.5 31q-65 0 -105.5 -34t-40.5 -89v-319h-128v548h121v-62q32 39 80.5 57t100.5 18q66 0 117 -26zM529 774l-119 -162h-135l-119 162h111l76 -84l75 84h111z" />
    <glyph glyph-name="Eng" unicode="&#x14a;" horiz-adv-x="825" 
d="M737 720v-722q0 -87 -54 -136.5t-148 -49.5q-41 0 -84 13v117q32 -12 71 -12t61 20t23 53l-389 529v-532h-129v720h139l380 -518v518h130z" />
    <glyph glyph-name="eng" unicode="&#x14b;" horiz-adv-x="674" 
d="M497 535q51 -26 79.5 -74t28.5 -112v-375q0 -76 -46 -119t-127 -43q-35 0 -72 11v108q26 -7 46 -7q34 0 53 17t19 46v336q0 57 -32.5 88t-93.5 31q-65 0 -105.5 -34t-40.5 -89v-319h-128v548h121v-62q32 39 80.5 57t100.5 18q66 0 117 -26z" />
    <glyph glyph-name="Omacron" unicode="&#x14c;" horiz-adv-x="859" 
d="M232 34.5q-87 47.5 -136 132.5t-49 193t49 193t136 132.5t197 47.5t197 -47.5t136 -132.5t49 -193t-49 -193t-136 -132.5t-197 -47.5t-197 47.5zM555.5 140q55.5 32 86.5 89.5t31 130.5t-31 130.5t-86.5 89.5t-126.5 32q-70 0 -125.5 -32t-87 -89.5t-31.5 -130.5
t31.5 -130.5t87 -89.5t125.5 -32q71 0 126.5 32zM263 901h332v-98h-332v98z" />
    <glyph glyph-name="omacron" unicode="&#x14d;" horiz-adv-x="679" 
d="M183.5 25q-68.5 38 -106 103.5t-37.5 145.5t37.5 145.5t106 103.5t156.5 38t156.5 -38t106 -103.5t37.5 -145.5t-37.5 -145.5t-106 -103.5t-156.5 -38t-156.5 38zM426 125q39 22 62 61t23 88t-23 88t-62 61t-86 22q-48 0 -87 -22t-62 -61t-23 -88t23 -88t62 -61t87 -22
q47 0 86 22zM174 729h332v-98h-332v98z" />
    <glyph glyph-name="Obreve" unicode="&#x14e;" horiz-adv-x="859" 
d="M232 34.5q-87 47.5 -136 132.5t-49 193t49 193t136 132.5t197 47.5t197 -47.5t136 -132.5t49 -193t-49 -193t-136 -132.5t-197 -47.5t-197 47.5zM555.5 140q55.5 32 86.5 89.5t31 130.5t-31 130.5t-86.5 89.5t-126.5 32q-70 0 -125.5 -32t-87 -89.5t-31.5 -130.5
t31.5 -130.5t87 -89.5t125.5 -32q71 0 126.5 32zM304.5 821q-48.5 46 -48.5 125h91q1 -36 24.5 -57t57.5 -21t57.5 21t24.5 57h92q0 -79 -49 -125t-125 -46t-124.5 46z" />
    <glyph glyph-name="obreve" unicode="&#x14f;" horiz-adv-x="679" 
d="M183.5 25q-68.5 38 -106 103.5t-37.5 145.5t37.5 145.5t106 103.5t156.5 38t156.5 -38t106 -103.5t37.5 -145.5t-37.5 -145.5t-106 -103.5t-156.5 -38t-156.5 38zM426 125q39 22 62 61t23 88t-23 88t-62 61t-86 22q-48 0 -87 -22t-62 -61t-23 -88t23 -88t62 -61t87 -22
q47 0 86 22zM215.5 649q-48.5 46 -48.5 125h91q1 -36 24.5 -57t57.5 -21t57.5 21t24.5 57h92q0 -79 -49 -125t-125 -46t-124.5 46z" />
    <glyph glyph-name="Ohungarumlaut" unicode="&#x150;" horiz-adv-x="859" 
d="M232 34.5q-87 47.5 -136 132.5t-49 193t49 193t136 132.5t197 47.5t197 -47.5t136 -132.5t49 -193t-49 -193t-136 -132.5t-197 -47.5t-197 47.5zM555.5 140q55.5 32 86.5 89.5t31 130.5t-31 130.5t-86.5 89.5t-126.5 32q-70 0 -125.5 -32t-87 -89.5t-31.5 -130.5
t31.5 -130.5t87 -89.5t125.5 -32q71 0 126.5 32zM377 778h-98l67 168h125v-10zM549 778h-98l83 168h126v-10z" />
    <glyph glyph-name="ohungarumlaut" unicode="&#x151;" horiz-adv-x="679" 
d="M183.5 25q-68.5 38 -106 103.5t-37.5 145.5t37.5 145.5t106 103.5t156.5 38t156.5 -38t106 -103.5t37.5 -145.5t-37.5 -145.5t-106 -103.5t-156.5 -38t-156.5 38zM426 125q39 22 62 61t23 88t-23 88t-62 61t-86 22q-48 0 -87 -22t-62 -61t-23 -88t23 -88t62 -61t87 -22
q47 0 86 22zM288 606h-98l67 168h125v-10zM460 606h-98l83 168h126v-10z" />
    <glyph glyph-name="OE" unicode="&#x152;" horiz-adv-x="1254" 
d="M1224 0h-564v100q-41 -54 -103.5 -83.5t-145.5 -29.5q-106 0 -188.5 47.5t-129 132.5t-46.5 193t46.5 193t129 132.5t188.5 47.5q83 0 145.5 -29.5t103.5 -83.5v100h554l-19 -116h-407v-171h276v-118h-276v-199h417zM546.5 140q54.5 32 85.5 89.5t31 130.5t-31 130.5
t-85.5 89.5t-123.5 32q-68 0 -122.5 -32t-85.5 -89.5t-31 -130.5t31 -130.5t85.5 -89.5t122.5 -32q69 0 123.5 32z" />
    <glyph glyph-name="oe" unicode="&#x153;" horiz-adv-x="1103" 
d="M1066 226h-439q14 -61 62 -95t121 -34q48 0 84.5 15t70.5 45l71 -87q-35 -37 -92.5 -60.5t-133.5 -23.5q-89 0 -151.5 32.5t-97.5 91.5q-32 -59 -89.5 -91t-137.5 -32q-88 0 -154.5 38t-103 103.5t-36.5 145.5t36 145.5t103 103.5t154 38q80 0 137.5 -32t90.5 -91
q32 57 88.5 89.5t135.5 32.5q86 0 151 -38.5t99.5 -104.5t34.5 -145q0 -27 -4 -46zM682 414.5q-42 -33.5 -55 -92.5h314q-11 57 -53 91.5t-103 34.5t-103 -33.5zM421 125q38 22 60 61t22 88t-22 88t-60 61t-85 22t-85 -22t-60.5 -61t-22.5 -88t22.5 -88t60.5 -61t85 -22
t85 22z" />
    <glyph glyph-name="Racute" unicode="&#x154;" horiz-adv-x="773" 
d="M407 288h-188v-288h-131v720h391q69 0 120 -28.5t78 -78t27 -109.5q0 -74 -41 -130.5t-113 -76.5l203 -297h-155zM219 405h238q53 0 83 27t30 72t-30 71.5t-83 26.5h-238v-197zM416 778h-119l113 168h147v-10z" />
    <glyph glyph-name="racute" unicode="&#x155;" horiz-adv-x="452" 
d="M431 550v-118q-29 5 -57 5q-75 0 -121.5 -37t-46.5 -112v-288h-128v548h121v-77q29 44 77.5 64.5t100.5 20.5q28 0 54 -6zM290 606h-119l113 168h147v-10z" />
    <glyph glyph-name="Rcommaaccent" unicode="&#x156;" horiz-adv-x="773" 
d="M407 288h-188v-288h-131v720h391q69 0 120 -28.5t78 -78t27 -109.5q0 -74 -41 -130.5t-113 -76.5l203 -297h-155zM219 405h238q53 0 83 27t30 72t-30 71.5t-83 26.5h-238v-197zM327 -54h137l-86 -161h-90z" />
    <glyph glyph-name="rcommaaccent" unicode="&#x157;" horiz-adv-x="452" 
d="M431 550v-118q-29 5 -57 5q-75 0 -121.5 -37t-46.5 -112v-288h-128v548h121v-77q29 44 77.5 64.5t100.5 20.5q28 0 54 -6zM89 -54h137l-86 -161h-90z" />
    <glyph glyph-name="Rcaron" unicode="&#x158;" horiz-adv-x="773" 
d="M407 288h-188v-288h-131v720h391q69 0 120 -28.5t78 -78t27 -109.5q0 -74 -41 -130.5t-113 -76.5l203 -297h-155zM219 405h238q53 0 83 27t30 72t-30 71.5t-83 26.5h-238v-197zM561 946l-119 -162h-135l-119 162h111l76 -84l75 84h111z" />
    <glyph glyph-name="rcaron" unicode="&#x159;" horiz-adv-x="452" 
d="M431 550v-118q-29 5 -57 5q-75 0 -121.5 -37t-46.5 -112v-288h-128v548h121v-77q29 44 77.5 64.5t100.5 20.5q28 0 54 -6zM435 774l-119 -162h-135l-119 162h111l76 -84l75 84h111z" />
    <glyph glyph-name="Sacute" unicode="&#x15a;" 
d="M177.5 19q-88.5 29 -144.5 80l82 101q53 -46 116.5 -69t131.5 -23q72 0 117 28t45 72q0 32 -27.5 54t-90.5 34l-152 29q-98 19 -147.5 68t-49.5 122q0 66 39 115t107.5 75.5t155.5 26.5q80 0 155.5 -23.5t131.5 -74.5l-77 -97q-48 39 -103 58.5t-112 19.5
q-69 0 -115 -25.5t-46 -64.5q0 -27 25.5 -46t88.5 -31l144 -27q104 -20 157 -74.5t53 -130.5q0 -67 -36.5 -118.5t-103.5 -79.5t-156 -28q-100 0 -188.5 29zM394 779h-119l113 168h147v-10z" />
    <glyph glyph-name="sacute" unicode="&#x15b;" horiz-adv-x="582" 
d="M188 114.5q56 -19.5 113 -19.5q56 0 86.5 18t30.5 46q0 37 -61 47l-139 24q-87 14 -128.5 54.5t-41.5 100.5q0 52 29.5 91.5t85 61.5t130.5 22q64 0 128 -17t117 -56l-64 -91q-35 25 -84.5 41.5t-98.5 16.5q-50 0 -82 -16.5t-32 -43.5q0 -18 18.5 -29t58.5 -18l126 -21
q85 -15 126.5 -55t41.5 -101q0 -54 -30.5 -95.5t-86.5 -64t-130 -22.5t-149.5 22t-122.5 60l63 95q40 -31 96 -50.5zM339 606h-119l113 168h147v-10z" />
    <glyph glyph-name="Scircumflex" unicode="&#x15c;" 
d="M177.5 19q-88.5 29 -144.5 80l82 101q53 -46 116.5 -69t131.5 -23q72 0 117 28t45 72q0 32 -27.5 54t-90.5 34l-152 29q-98 19 -147.5 68t-49.5 122q0 66 39 115t107.5 75.5t155.5 26.5q80 0 155.5 -23.5t131.5 -74.5l-77 -97q-48 39 -103 58.5t-112 19.5
q-69 0 -115 -25.5t-46 -64.5q0 -27 25.5 -46t88.5 -31l144 -27q104 -20 157 -74.5t53 -130.5q0 -67 -36.5 -118.5t-103.5 -79.5t-156 -28q-100 0 -188.5 29zM428 785l-75 84l-76 -84h-111l119 162h135l119 -162h-111z" />
    <glyph glyph-name="scircumflex" unicode="&#x15d;" horiz-adv-x="582" 
d="M188 114.5q56 -19.5 113 -19.5q56 0 86.5 18t30.5 46q0 37 -61 47l-139 24q-87 14 -128.5 54.5t-41.5 100.5q0 52 29.5 91.5t85 61.5t130.5 22q64 0 128 -17t117 -56l-64 -91q-35 25 -84.5 41.5t-98.5 16.5q-50 0 -82 -16.5t-32 -43.5q0 -18 18.5 -29t58.5 -18l126 -21
q85 -15 126.5 -55t41.5 -101q0 -54 -30.5 -95.5t-86.5 -64t-130 -22.5t-149.5 22t-122.5 60l63 95q40 -31 96 -50.5zM373 612l-75 84l-76 -84h-111l119 162h135l119 -162h-111z" />
    <glyph glyph-name="Scedilla" unicode="&#x15e;" 
d="M177.5 19q-88.5 29 -144.5 80l82 101q53 -46 116.5 -69t131.5 -23q72 0 117 28t45 72q0 32 -27.5 54t-90.5 34l-152 29q-98 19 -147.5 68t-49.5 122q0 66 39 115t107.5 75.5t155.5 26.5q80 0 155.5 -23.5t131.5 -74.5l-77 -97q-48 39 -103 58.5t-112 19.5
q-69 0 -115 -25.5t-46 -64.5q0 -27 25.5 -46t88.5 -31l144 -27q104 -20 157 -74.5t53 -130.5q0 -67 -36.5 -118.5t-103.5 -79.5t-156 -28q-100 0 -188.5 29zM468.5 -58q31.5 -26 31.5 -63q0 -43 -41 -69t-110 -26q-88 0 -148 35l33 55q34 -17 57.5 -23t52.5 -6q28 0 42.5 9
t14.5 25q0 15 -15 24.5t-43 9.5q-26 0 -54 -7l-21 14l73 101h80l-49 -54q4 1 13 1q52 0 83.5 -26z" />
    <glyph glyph-name="scedilla" unicode="&#x15f;" horiz-adv-x="582" 
d="M188 114.5q56 -19.5 113 -19.5q56 0 86.5 18t30.5 46q0 37 -61 47l-139 24q-87 14 -128.5 54.5t-41.5 100.5q0 52 29.5 91.5t85 61.5t130.5 22q64 0 128 -17t117 -56l-64 -91q-35 25 -84.5 41.5t-98.5 16.5q-50 0 -82 -16.5t-32 -43.5q0 -18 18.5 -29t58.5 -18l126 -21
q85 -15 126.5 -55t41.5 -101q0 -54 -30.5 -95.5t-86.5 -64t-130 -22.5t-149.5 22t-122.5 60l63 95q40 -31 96 -50.5zM413.5 -59q31.5 -26 31.5 -63q0 -43 -41 -69t-110 -26q-88 0 -148 35l33 55q34 -17 57.5 -23t52.5 -6q28 0 42.5 9t14.5 25q0 15 -15 24.5t-43 9.5
q-26 0 -54 -7l-21 14l73 101h80l-49 -54q4 1 13 1q52 0 83.5 -26z" />
    <glyph glyph-name="Scaron" unicode="&#x160;" 
d="M177.5 19q-88.5 29 -144.5 80l82 101q53 -46 116.5 -69t131.5 -23q72 0 117 28t45 72q0 32 -27.5 54t-90.5 34l-152 29q-98 19 -147.5 68t-49.5 122q0 66 39 115t107.5 75.5t155.5 26.5q80 0 155.5 -23.5t131.5 -74.5l-77 -97q-48 39 -103 58.5t-112 19.5
q-69 0 -115 -25.5t-46 -64.5q0 -27 25.5 -46t88.5 -31l144 -27q104 -20 157 -74.5t53 -130.5q0 -67 -36.5 -118.5t-103.5 -79.5t-156 -28q-100 0 -188.5 29zM539 947l-119 -162h-135l-119 162h111l76 -84l75 84h111z" />
    <glyph glyph-name="scaron" unicode="&#x161;" horiz-adv-x="582" 
d="M188 114.5q56 -19.5 113 -19.5q56 0 86.5 18t30.5 46q0 37 -61 47l-139 24q-87 14 -128.5 54.5t-41.5 100.5q0 52 29.5 91.5t85 61.5t130.5 22q64 0 128 -17t117 -56l-64 -91q-35 25 -84.5 41.5t-98.5 16.5q-50 0 -82 -16.5t-32 -43.5q0 -18 18.5 -29t58.5 -18l126 -21
q85 -15 126.5 -55t41.5 -101q0 -54 -30.5 -95.5t-86.5 -64t-130 -22.5t-149.5 22t-122.5 60l63 95q40 -31 96 -50.5zM484 774l-119 -162h-135l-119 162h111l76 -84l75 84h111z" />
    <glyph glyph-name="uni0162" unicode="&#x162;" horiz-adv-x="662" 
d="M383 0l-30 -34q5 1 15 1q53 0 84 -25.5t31 -63.5q0 -43 -40.5 -69t-109.5 -26q-87 0 -149 35l34 55q33 -17 57 -23t53 -6q28 0 42.5 9t14.5 25q0 15 -15 24.5t-43 9.5q-27 0 -54 -7l-22 14l56 81h-30v600h-246v120h625v-120h-246v-600h-27z" />
    <glyph glyph-name="uni0163" unicode="&#x163;" horiz-adv-x="451" 
d="M419 125v-113q-38 -20 -103 -20q-104 0 -156 50t-52 137v261h-93v108h94v120l126 59v-179h179v-108h-179v-244q0 -45 26.5 -66.5t70.5 -21.5t87 17zM356.5 -59q31.5 -26 31.5 -63q0 -43 -41 -69t-110 -26q-88 0 -148 35l33 55q34 -17 57.5 -23t52.5 -6q28 0 42.5 9
t14.5 25q0 15 -15 24.5t-43 9.5q-26 0 -54 -7l-21 14l73 101h80l-49 -54q4 1 13 1q52 0 83.5 -26z" />
    <glyph glyph-name="Tcaron" unicode="&#x164;" horiz-adv-x="686" 
d="M656 600h-246v-600h-133v600h-246v120h625v-120zM528 946l-119 -162h-135l-119 162h111l76 -84l75 84h111z" />
    <glyph glyph-name="tcaron" unicode="&#x165;" horiz-adv-x="442" 
d="M388 608h-84l21 218h117zM261.5 129.5q26.5 -21.5 70.5 -21.5t87 17v-113q-38 -20 -103 -20q-104 0 -156 50t-52 137v261h-93v108h94v120l126 59v-179h179v-108h-179v-244q0 -45 26.5 -66.5z" />
    <glyph glyph-name="Tbar" unicode="&#x166;" horiz-adv-x="706" 
d="M420 600v-169h173v-109h-173v-322h-133v322h-174v109h174v169h-246v120h625v-120h-246z" />
    <glyph glyph-name="tbar" unicode="&#x167;" horiz-adv-x="451" 
d="M419 125v-113q-38 -20 -103 -20q-104 0 -156 50t-52 137v94h-93v85h93v85h-93v105h94v120l126 59v-179h179v-105h-179v-85h179v-85h-179v-77q0 -45 26.5 -66.5t70.5 -21.5t87 17z" />
    <glyph glyph-name="Utilde" unicode="&#x168;" horiz-adv-x="781" 
d="M223.5 21q-71.5 34 -110.5 97.5t-39 149.5v452h133v-437q0 -83 48.5 -129t135.5 -46q86 0 134.5 46t48.5 129v437h133v-452q0 -86 -38.5 -149.5t-110 -97.5t-167.5 -34t-167.5 34zM410.5 792q-23.5 12 -50.5 34q-17 13 -27 19t-20 6q-17 0 -26 -15.5t-11 -48.5h-96
q2 72 35.5 114.5t95.5 42.5q34 0 58.5 -12.5t50.5 -34.5q16 -13 25.5 -19t19.5 -6q36 0 39 65h96q-2 -73 -35.5 -115t-96.5 -42q-34 0 -57.5 12z" />
    <glyph glyph-name="utilde" unicode="&#x169;" horiz-adv-x="671" 
d="M592 548v-548h-121v61q-33 -39 -80.5 -56.5t-98.5 -17.5q-65 0 -116 26t-79.5 74t-28.5 111v350h128v-323q0 -57 32.5 -88t92.5 -31q63 0 103.5 34t40.5 89v319h127zM350.5 620q-23.5 12 -50.5 34q-17 13 -27 19t-20 6q-17 0 -26 -15.5t-11 -48.5h-96q2 72 35.5 114.5
t95.5 42.5q34 0 58.5 -12.5t50.5 -34.5q16 -13 25.5 -19t19.5 -6q36 0 39 65h96q-2 -73 -35.5 -115t-96.5 -42q-34 0 -57.5 12z" />
    <glyph glyph-name="Umacron" unicode="&#x16a;" horiz-adv-x="781" 
d="M223.5 21q-71.5 34 -110.5 97.5t-39 149.5v452h133v-437q0 -83 48.5 -129t135.5 -46q86 0 134.5 46t48.5 129v437h133v-452q0 -86 -38.5 -149.5t-110 -97.5t-167.5 -34t-167.5 34zM225 901h332v-98h-332v98z" />
    <glyph glyph-name="umacron" unicode="&#x16b;" horiz-adv-x="671" 
d="M592 548v-548h-121v61q-33 -39 -80.5 -56.5t-98.5 -17.5q-65 0 -116 26t-79.5 74t-28.5 111v350h128v-323q0 -57 32.5 -88t92.5 -31q63 0 103.5 34t40.5 89v319h127zM165 729h332v-98h-332v98z" />
    <glyph glyph-name="Ubreve" unicode="&#x16c;" horiz-adv-x="781" 
d="M223.5 21q-71.5 34 -110.5 97.5t-39 149.5v452h133v-437q0 -83 48.5 -129t135.5 -46q86 0 134.5 46t48.5 129v437h133v-452q0 -86 -38.5 -149.5t-110 -97.5t-167.5 -34t-167.5 34zM266.5 821q-48.5 46 -48.5 125h91q1 -36 24.5 -57t57.5 -21t57.5 21t24.5 57h92
q0 -79 -49 -125t-125 -46t-124.5 46z" />
    <glyph glyph-name="ubreve" unicode="&#x16d;" horiz-adv-x="671" 
d="M592 548v-548h-121v61q-33 -39 -80.5 -56.5t-98.5 -17.5q-65 0 -116 26t-79.5 74t-28.5 111v350h128v-323q0 -57 32.5 -88t92.5 -31q63 0 103.5 34t40.5 89v319h127zM206.5 649q-48.5 46 -48.5 125h91q1 -36 24.5 -57t57.5 -21t57.5 21t24.5 57h92q0 -79 -49 -125
t-125 -46t-124.5 46z" />
    <glyph glyph-name="Uring" unicode="&#x16e;" horiz-adv-x="781" 
d="M223.5 21q-71.5 34 -110.5 97.5t-39 149.5v452h133v-437q0 -83 48.5 -129t135.5 -46q86 0 134.5 46t48.5 129v437h133v-452q0 -86 -38.5 -149.5t-110 -97.5t-167.5 -34t-167.5 34zM286.5 815.5q-40.5 37.5 -40.5 95.5t40.5 95.5t102.5 37.5q63 0 103.5 -37.5t40.5 -95.5
t-40.5 -95.5t-103.5 -37.5q-62 0 -102.5 37.5zM434 866.5q18 17.5 18 44.5t-18 44.5t-45 17.5t-44.5 -17.5t-17.5 -44.5t18 -44.5t44 -17.5q27 0 45 17.5z" />
    <glyph glyph-name="uring" unicode="&#x16f;" horiz-adv-x="671" 
d="M592 548v-548h-121v61q-33 -39 -80.5 -56.5t-98.5 -17.5q-65 0 -116 26t-79.5 74t-28.5 111v350h128v-323q0 -57 32.5 -88t92.5 -31q63 0 103.5 34t40.5 89v319h127zM226.5 643.5q-40.5 37.5 -40.5 95.5t40.5 95.5t102.5 37.5q63 0 103.5 -37.5t40.5 -95.5t-40.5 -95.5
t-103.5 -37.5q-62 0 -102.5 37.5zM374 694.5q18 17.5 18 44.5t-18 44.5t-45 17.5t-44.5 -17.5t-17.5 -44.5t18 -44.5t44 -17.5q27 0 45 17.5z" />
    <glyph glyph-name="Uhungarumlaut" unicode="&#x170;" horiz-adv-x="781" 
d="M223.5 21q-71.5 34 -110.5 97.5t-39 149.5v452h133v-437q0 -83 48.5 -129t135.5 -46q86 0 134.5 46t48.5 129v437h133v-452q0 -86 -38.5 -149.5t-110 -97.5t-167.5 -34t-167.5 34zM339 778h-98l67 168h125v-10zM511 778h-98l83 168h126v-10z" />
    <glyph glyph-name="uhungarumlaut" unicode="&#x171;" horiz-adv-x="671" 
d="M592 548v-548h-121v61q-33 -39 -80.5 -56.5t-98.5 -17.5q-65 0 -116 26t-79.5 74t-28.5 111v350h128v-323q0 -57 32.5 -88t92.5 -31q63 0 103.5 34t40.5 89v319h127zM279 606h-98l67 168h125v-10zM451 606h-98l83 168h126v-10z" />
    <glyph glyph-name="Uogonek" unicode="&#x172;" horiz-adv-x="781" 
d="M684 153q-23 -49 -54 -81t-76 -67q-37 -31 -52 -47t-15 -35q0 -15 13 -23.5t36 -8.5q32 0 62 19l35 -74q-42 -34 -121 -34q-57 0 -96 25.5t-39 74.5q0 45 47 86q-10 -1 -32 -1q-96 0 -168 34t-111 97.5t-39 149.5v452h133v-437q0 -83 49 -129t136 -46t134.5 45.5
t47.5 129.5v437h133v-452v-1q0 -65 -23 -114z" />
    <glyph glyph-name="uogonek" unicode="&#x173;" horiz-adv-x="673" 
d="M613 -164q-43 -34 -116 -34q-56 0 -94 24t-38 69q0 37 28 68t81 54v56q-31 -45 -78.5 -65.5t-101.5 -20.5q-66 0 -117.5 26.5t-80 74t-28.5 110.5v350h128v-323q0 -57 32.5 -88t93.5 -31q65 0 105.5 34t40.5 89v319h127v-545q-122 -44 -122 -82q0 -15 11.5 -22.5
t29.5 -7.5q32 0 64 19z" />
    <glyph glyph-name="Wcircumflex" unicode="&#x174;" horiz-adv-x="1147" 
d="M1123 720l-240 -720h-161l-149 527l-148 -527h-161l-240 720h141l182 -578l160 575h137l161 -573l181 576h137zM648 784l-75 84l-76 -84h-111l119 162h135l119 -162h-111z" />
    <glyph glyph-name="wcircumflex" unicode="&#x175;" horiz-adv-x="983" 
d="M972 548l-202 -548h-148l-128 385l-130 -385h-149l-203 548h136l144 -425l141 421h124l140 -419l144 423h131zM568 612l-75 84l-76 -84h-111l119 162h135l119 -162h-111z" />
    <glyph glyph-name="Ycircumflex" unicode="&#x176;" horiz-adv-x="724" 
d="M430 244v-244h-133v241l-292 479h151l209 -357l206 357h147zM435 784l-75 84l-76 -84h-111l119 162h135l119 -162h-111z" />
    <glyph glyph-name="ycircumflex" unicode="&#x177;" horiz-adv-x="622" 
d="M618 548l-268 -606q-28 -64 -77.5 -98t-114.5 -34q-32 0 -69 8t-66 23l35 104q54 -23 95 -23q29 0 53 16t37 46l9 21l-247 543h140l171 -407l167 407h135zM387 612l-75 84l-76 -84h-111l119 162h135l119 -162h-111z" />
    <glyph glyph-name="Ydieresis" unicode="&#x178;" horiz-adv-x="724" 
d="M430 244v-244h-133v241l-292 479h151l209 -357l206 357h147zM188 809q-22 20 -22 52q0 31 22 51.5t55 20.5q32 0 54 -20.5t22 -51.5q0 -32 -21.5 -52t-54.5 -20t-55 20zM422 809q-22 20 -22 52q0 31 22 51.5t55 20.5q32 0 54 -20.5t22 -51.5q0 -32 -21.5 -52t-54.5 -20
t-55 20z" />
    <glyph glyph-name="Zacute" unicode="&#x179;" 
d="M658 114v-114h-609v104l425 502h-405v114h573v-105l-424 -501h440zM405 778h-119l113 168h147v-10z" />
    <glyph glyph-name="zacute" unicode="&#x17a;" horiz-adv-x="569" 
d="M534 107v-107h-490v93l313 349h-298v106h464v-93l-312 -348h323zM334 606h-119l113 168h147v-10z" />
    <glyph glyph-name="Zdotaccent" unicode="&#x17b;" 
d="M658 114v-114h-609v104l425 502h-405v114h573v-105l-424 -501h440zM308 807q-22 21 -22 54q0 32 22 53t56 21t56 -21t22 -53q0 -33 -22 -54t-56 -21t-56 21z" />
    <glyph glyph-name="zdotaccent" unicode="&#x17c;" horiz-adv-x="569" 
d="M534 107v-107h-490v93l313 349h-298v106h464v-93l-312 -348h323zM237 635q-22 21 -22 54q0 32 22 53t56 21t56 -21t22 -53q0 -33 -22 -54t-56 -21t-56 21z" />
    <glyph glyph-name="Zcaron" unicode="&#x17d;" 
d="M658 114v-114h-609v104l425 502h-405v114h573v-105l-424 -501h440zM550 946l-119 -162h-135l-119 162h111l76 -84l75 84h111z" />
    <glyph glyph-name="zcaron" unicode="&#x17e;" horiz-adv-x="569" 
d="M534 107v-107h-490v93l313 349h-298v106h464v-93l-312 -348h323zM479 774l-119 -162h-135l-119 162h111l76 -84l75 84h111z" />
    <glyph glyph-name="uni018F" unicode="&#x18f;" horiz-adv-x="840" 
d="M612.5 684.5q87.5 -48.5 134 -133t46.5 -191.5q0 -103 -47 -188.5t-132 -135t-195 -49.5q-112 0 -196.5 50.5t-130 136.5t-45.5 191q0 19 5 46h600q-14 93 -80 148t-168 55q-68 0 -128.5 -22.5t-104.5 -62.5l-77 93q51 51 131 81t180 30q120 0 207.5 -48.5zM572.5 160
q62.5 53 78.5 144h-464q14 -88 76 -142.5t156 -54.5q91 0 153.5 53z" />
    <glyph glyph-name="florin" unicode="&#x192;" horiz-adv-x="465" 
d="M309 626q-24 -22 -24 -65v-81h150v-116h-150v-370q0 -87 -53.5 -137t-144.5 -50q-54 0 -89 13v114q44 -10 72 -10q85 0 85 83v357h-113v116h113v88q0 57 26 102t73 70t108 25q23 0 48.5 -3.5t41.5 -9.5v-114q-44 10 -75 10q-44 0 -68 -22z" />
    <glyph glyph-name="Ohorn" unicode="&#x1a0;" horiz-adv-x="861" 
d="M812 672q-46 -39 -127 -39h-1q63 -47 96 -117t33 -156q0 -108 -49.5 -192.5t-136.5 -132.5t-197 -48t-197.5 47.5t-136.5 132.5t-49 193t49 193t136.5 132.5t197.5 47.5q67 0 149 -8q52 -5 82 -5q43 0 61 16.5t18 49.5q0 34 -18 76h119q17 -33 17 -78q0 -73 -46 -112z
M556.5 140q55.5 32 86.5 89.5t31 130.5t-31 130.5t-86.5 89.5t-126.5 32t-126.5 -32t-86.5 -89.5t-31 -130.5t31 -130.5t86.5 -89.5t126.5 -32t126.5 32z" />
    <glyph glyph-name="ohorn" unicode="&#x1a1;" horiz-adv-x="680" 
d="M652 511q-37 -36 -105 -43q45 -37 67 -86.5t22 -107.5q0 -80 -37 -145.5t-104.5 -103.5t-156.5 -38t-156.5 38t-104.5 103.5t-37 145.5t37 145.5t104.5 103.5t156.5 38q31 0 79 -6q44 -7 84 -7q77 0 77 66q0 36 -18 76h112q17 -31 17 -78q0 -65 -37 -101zM423.5 125
q38.5 22 61 61t22.5 88t-22.5 88t-61 61t-85.5 22q-48 0 -86.5 -22t-61 -61t-22.5 -88t22.5 -88t61 -61t86.5 -22q47 0 85.5 22z" />
    <glyph glyph-name="Uhorn" unicode="&#x1af;" horiz-adv-x="804" 
d="M823 675q-42 -39 -116 -42v-365q0 -86 -38.5 -149.5t-110 -97.5t-167.5 -34t-167.5 34t-110.5 97.5t-39 149.5v452h133v-437q0 -83 48.5 -129t135.5 -46q86 0 134.5 46t48.5 129v437h97q77 0 77 66q0 34 -18 76h119q16 -31 16 -78q0 -70 -42 -109z" />
    <glyph glyph-name="uhorn" unicode="&#x1b0;" horiz-adv-x="714" 
d="M592 548v-548h-121v61q-33 -39 -80.5 -56.5t-98.5 -17.5q-65 0 -116 26t-79.5 74t-28.5 111v350h128v-323q0 -57 32.5 -88t92.5 -31q63 0 103.5 34t40.5 89v319h127zM531 467v81h43q77 0 77 66q0 36 -18 76h112q16 -29 16 -78q0 -72 -44.5 -108.5t-125.5 -36.5h-60z" />
    <glyph glyph-name="uni01C4" unicode="&#x1c4;" horiz-adv-x="1488" 
d="M593.5 673q85.5 -47 130.5 -129t45 -184t-45 -184t-130.5 -129t-202.5 -47h-303v720h303q117 0 202.5 -47zM520 148.5q54 31.5 82.5 86.5t28.5 125t-28.5 125t-82.5 86.5t-130 31.5h-169v-486h169q76 0 130 31.5zM1438 114v-114h-609v104l425 502h-405v114h573v-105
l-424 -501h440zM1330 946l-119 -162h-135l-119 162h111l76 -84l75 84h111z" />
    <glyph glyph-name="uni01C5" unicode="&#x1c5;" horiz-adv-x="1366" 
d="M593.5 673q85.5 -47 130.5 -129t45 -184t-45 -184t-130.5 -129t-202.5 -47h-303v720h303q117 0 202.5 -47zM520 148.5q54 31.5 82.5 86.5t28.5 125t-28.5 125t-82.5 86.5t-130 31.5h-169v-486h169q76 0 130 31.5zM1331 107v-107h-490v93l313 349h-298v106h464v-93
l-312 -348h323zM1276 774l-119 -162h-135l-119 162h111l76 -84l75 84h111z" />
    <glyph glyph-name="uni01C6" unicode="&#x1c6;" horiz-adv-x="1281" 
d="M634 752v-752h-121v74q-72 -87 -193 -87q-82 0 -145.5 38t-99 103.5t-35.5 145.5t35.5 145.5t99 103.5t145.5 38q117 0 186 -79v270h128zM426 124.5q39 21.5 61.5 60.5t22.5 89t-22.5 89t-61.5 60.5t-88 21.5t-87.5 -22t-60 -61t-21.5 -88t21.5 -88t60 -61t87.5 -22
t88 21.5zM1246 107v-107h-490v93l313 349h-298v106h464v-93l-312 -348h323zM1191 774l-119 -162h-135l-119 162h111l76 -84l75 84h111z" />
    <glyph glyph-name="uni01C7" unicode="&#x1c7;" horiz-adv-x="1241" 
d="M221 119h388v-119h-521v720h133v-601zM1167 720v-489q0 -76 -33 -131t-91 -84t-132 -29t-131.5 29.5t-90.5 86t-33 136.5h129q2 -72 38.5 -101.5t88.5 -29.5q57 0 89.5 33t32.5 92v487h133z" />
    <glyph glyph-name="uni01C8" unicode="&#x1c8;" horiz-adv-x="962" 
d="M639 119v-119h-551v720h133v-601h418zM639 -176v107q26 -7 45 -7q35 0 53.5 16.5t18.5 46.5v561h128v-573q0 -76 -46.5 -119t-126.5 -43q-37 0 -72 11zM764 635q-22 21 -22 54q0 32 22 53t56 21t56 -21t22 -53q0 -33 -22 -54t-56 -21t-56 21z" />
    <glyph glyph-name="uni01C9" unicode="&#x1c9;" horiz-adv-x="563" 
d="M365 635q-22 21 -22 54q0 32 22 53t56 21t56 -21t22 -53q0 -33 -22 -54t-56 -21t-56 21zM206 752v-752h-128v752h128zM240 -176v107q26 -7 45 -7q35 0 53.5 16.5t18.5 46.5v561h128v-573q0 -76 -46.5 -119t-126.5 -43q-37 0 -72 11z" />
    <glyph glyph-name="uni01CA" unicode="&#x1ca;" horiz-adv-x="1423" 
d="M737 720v-720h-136l-384 532v-532h-129v720h139l380 -525v525h130zM1349 720v-489q0 -76 -33 -131t-91 -84t-132 -29t-131.5 29.5t-90.5 86t-33 136.5h129q2 -72 38.5 -101.5t88.5 -29.5q57 0 89.5 33t32.5 92v487h133z" />
    <glyph glyph-name="uni01CB" unicode="&#x1cb;" horiz-adv-x="1116" 
d="M737 720v-720h-136l-384 532v-532h-129v720h139l380 -525v525h130zM793 -176v107q26 -7 45 -7q35 0 53.5 16.5t18.5 46.5v561h128v-573q0 -76 -46.5 -119t-126.5 -43q-37 0 -72 11zM918 635q-22 21 -22 54q0 32 22 53t56 21t56 -21t22 -53q0 -33 -22 -54t-56 -21t-56 21z
" />
    <glyph glyph-name="uni01CC" unicode="&#x1cc;" horiz-adv-x="965" 
d="M497 535q51 -26 79.5 -74t28.5 -112v-349h-127v323q0 57 -32.5 88t-93.5 31q-65 0 -105.5 -34t-40.5 -89v-319h-128v548h121v-62q32 39 80.5 57t100.5 18q66 0 117 -26zM642 -176v107q26 -7 45 -7q35 0 53.5 16.5t18.5 46.5v561h128v-573q0 -76 -46.5 -119t-126.5 -43
q-37 0 -72 11zM767 635q-22 21 -22 54q0 32 22 53t56 21t56 -21t22 -53q0 -33 -22 -54t-56 -21t-56 21z" />
    <glyph glyph-name="Gcaron" unicode="&#x1e6;" horiz-adv-x="824" 
d="M758 73q-113 -86 -298 -86q-119 0 -213.5 47.5t-147 132t-52.5 191.5q0 108 52 193.5t143.5 133.5t205.5 48q91 0 166 -26.5t124 -72.5l-77 -97q-40 35 -93.5 55t-119.5 20q-73 0 -133 -32t-95 -89.5t-35 -130.5t35.5 -130.5t99 -89.5t144.5 -32q50 0 88 8t75 26v157
h-207v116h338v-342zM620 946l-119 -162h-135l-119 162h111l76 -84l75 84h111z" />
    <glyph glyph-name="gcaron" unicode="&#x1e7;" horiz-adv-x="688" 
d="M620 548v-494q0 -74 -37.5 -129t-106 -85t-158.5 -30q-66 0 -126.5 14t-108.5 37l44 105q96 -46 190 -46q81 0 129 36.5t48 100.5v43q-68 -73 -180 -73q-81 0 -144 34.5t-98 95t-35 135.5t35 136.5t98 97t144 35.5q116 0 185 -82v69h121zM448 180q47 42 47 112t-47 113
t-119 43q-71 0 -117.5 -43.5t-46.5 -112.5t46.5 -111.5t117.5 -42.5q72 0 119 42zM529 774l-119 -162h-135l-119 162h111l76 -84l75 84h111z" />
    <glyph glyph-name="uni01EA" unicode="&#x1ea;" horiz-adv-x="858" 
d="M626 685.5q87 -47.5 136 -132.5t49 -193q0 -77 -26 -142.5t-69 -107.5q-36 -39 -78.5 -63t-101.5 -48q-52 -21 -75 -36.5t-23 -39.5q0 -16 13.5 -24t37.5 -8q31 0 63 19l34 -74q-42 -34 -123 -34q-57 0 -95.5 25.5t-38.5 74.5q0 50 52 88q-98 10 -173.5 60t-118 130.5
t-42.5 179.5q0 108 49 193t136 132.5t197 47.5t197 -47.5zM555.5 140q55.5 32 86.5 89.5t31 130.5t-31 130.5t-86.5 89.5t-126.5 32t-126.5 -32t-86.5 -89.5t-31 -130.5t31 -130.5t86.5 -89.5t126.5 -32t126.5 32z" />
    <glyph glyph-name="uni01EB" unicode="&#x1eb;" horiz-adv-x="675" 
d="M494.5 523q67.5 -38 104.5 -103.5t37 -145.5q0 -71 -30.5 -132.5t-85.5 -96.5q-30 -20 -86 -44q-47 -20 -70 -36t-23 -42q0 -15 13 -23.5t33 -8.5q27 0 59 19l35 -74q-43 -34 -116 -34q-56 0 -94.5 26t-38.5 78q0 48 50 85q-73 11 -128 51t-84.5 100.5t-29.5 131.5
q0 80 37 145.5t104.5 103.5t156.5 38t156.5 -38zM423.5 125q38.5 22 61 61t22.5 88t-22.5 88t-61 61t-85.5 22q-48 0 -86.5 -22t-61 -61t-22.5 -88t22.5 -88t61 -61t86.5 -22q47 0 85.5 22z" />
    <glyph glyph-name="Aringacute" unicode="&#x1fa;" horiz-adv-x="785" 
d="M559 173h-335l-67 -173h-139l293 720h163l293 -720h-141zM515 288l-123 317l-123 -317h246zM287.5 815.5q-40.5 37.5 -40.5 95.5t40.5 95.5t102.5 37.5q63 0 103.5 -37.5t40.5 -95.5t-40.5 -95.5t-103.5 -37.5q-62 0 -102.5 37.5zM435 866.5q18 17.5 18 44.5t-18 44.5
t-45 17.5t-44.5 -17.5t-17.5 -44.5t18 -44.5t44 -17.5q27 0 45 17.5zM432 1078h-119l113 168h147v-10z" />
    <glyph glyph-name="aringacute" unicode="&#x1fb;" horiz-adv-x="647" 
d="M360 906h-102l90 150h127v-9zM210.5 643.5q-40.5 37.5 -40.5 95.5t40.5 95.5t102.5 37.5q63 0 103.5 -37.5t40.5 -95.5t-40.5 -95.5t-103.5 -37.5q-62 0 -102.5 37.5zM268.5 783.5q-17.5 -17.5 -17.5 -44.5t18 -44.5t44 -17.5q27 0 45 17.5t18 44.5t-18 44.5t-45 17.5
t-44.5 -17.5zM632 106v-101q-19 -9 -50 -9q-47 0 -83 20.5t-48 60.5q-32 -46 -85 -67.5t-116 -21.5q-60 0 -110 19.5t-80 58t-30 93.5q0 84 72 131t215 47h125q-1 53 -38.5 82.5t-100.5 29.5q-41 0 -85.5 -13.5t-82.5 -41.5l-64 94q47 37 110 54.5t128 17.5q120 0 188 -58
t68 -162v-197q0 -21 11.5 -31t30.5 -10q11 0 25 4zM382.5 128q52.5 37 58.5 114h-121q-162 0 -162 -77q0 -34 27.5 -54t77.5 -20q67 0 119.5 37z" />
    <glyph glyph-name="AEacute" unicode="&#x1fc;" horiz-adv-x="1106" 
d="M1076 0h-566v172h-281l-110 -172h-144l464 720h627l-19 -116h-407v-171h275v-117h-275v-200h417zM510 286v326l-208 -326h208zM614 778h-119l113 168h147v-10z" />
    <glyph glyph-name="aeacute" unicode="&#x1fd;" horiz-adv-x="1052" 
d="M1015 230h-444q14 -62 63 -97.5t124 -35.5q46 0 83 15t73 45l71 -87q-36 -38 -93.5 -61t-133.5 -23q-92 0 -157 35t-100 97q-31 -66 -100.5 -98t-148.5 -32q-61 0 -111.5 19t-80.5 57t-30 92q0 85 72.5 130.5t210.5 45.5l132 1q0 56 -37.5 86.5t-104.5 30.5
q-42 0 -86.5 -13.5t-82.5 -42.5l-63 94q47 37 110 54.5t129 17.5q155 0 212 -97q34 46 87 71.5t123 25.5q87 0 152.5 -39t100 -104.5t34.5 -144.5q0 -18 -4 -42zM628.5 415.5q-42.5 -33.5 -56.5 -90.5h319q-12 56 -54.5 90t-104.5 34q-61 0 -103.5 -33.5zM379 128.5
q52 34.5 63 108.5l-133 1q-78 0 -115.5 -22t-37.5 -57q0 -29 27.5 -47t77.5 -18q66 0 118 34.5zM567 606h-119l113 168h147v-10z" />
    <glyph glyph-name="Oslashacute" unicode="&#x1fe;" horiz-adv-x="857" 
d="M777.5 518q31.5 -72 31.5 -158q0 -108 -48.5 -193t-135.5 -132.5t-197 -47.5q-95 0 -175 37l-60 -86h-123l98 141q-58 50 -89.5 122.5t-31.5 158.5q0 108 49 193t135.5 132.5t196.5 47.5q97 0 176 -37l61 85h122l-98 -140q57 -51 88.5 -123zM300.5 582.5
q-55.5 -32.5 -86.5 -90.5t-31 -132q0 -106 61 -176l291 409q-50 22 -107 22q-72 0 -127.5 -32.5zM556 137.5q56 32.5 87 90.5t31 132q0 52 -16 97t-45 78l-291 -409q52 -21 106 -21q72 0 128 32.5zM469 778h-119l113 168h147v-10z" />
    <glyph glyph-name="oslashacute" unicode="&#x1ff;" horiz-adv-x="679" 
d="M616.5 392q23.5 -55 23.5 -118q0 -80 -37.5 -145.5t-106 -103.5t-156.5 -38q-71 0 -130 25l-49 -68h-115l85 119q-44 39 -67.5 93.5t-23.5 117.5q0 80 37.5 145.5t106 103.5t156.5 38q71 0 131 -26l48 69h114l-84 -118q44 -39 67.5 -94zM253 425.5q-39 -22.5 -62 -62
t-23 -89.5q0 -63 38 -111l197 274q-30 11 -63 11q-48 0 -87 -22.5zM426.5 122.5q39.5 22.5 62.5 62.5t23 89q0 63 -37 111l-198 -274q31 -11 63 -11q47 0 86.5 22.5zM381 606h-119l113 168h147v-10z" />
    <glyph glyph-name="uni0200" unicode="&#x200;" horiz-adv-x="785" 
d="M559 173h-335l-67 -173h-139l293 720h163l293 -720h-141zM515 288l-123 317l-123 -317h246zM152 946h126l83 -168h-98l-111 158v10zM341 946h125l67 -168h-98l-94 158v10z" />
    <glyph glyph-name="uni0201" unicode="&#x201;" horiz-adv-x="647" 
d="M632 106v-101q-19 -9 -50 -9q-47 0 -83 20.5t-48 60.5q-32 -46 -85 -67.5t-116 -21.5q-60 0 -110 19.5t-80 58t-30 93.5q0 84 72 131t215 47h125q-1 53 -38.5 82.5t-100.5 29.5q-41 0 -85.5 -13.5t-82.5 -41.5l-64 94q47 37 110 54.5t128 17.5q120 0 188 -58t68 -162
v-197q0 -21 11.5 -31t30.5 -10q11 0 25 4zM382.5 128q52.5 37 58.5 114h-121q-162 0 -162 -77q0 -34 27.5 -54t77.5 -20q67 0 119.5 37zM75 774h126l83 -168h-98l-111 158v10zM264 774h125l67 -168h-98l-94 158v10z" />
    <glyph glyph-name="uni0202" unicode="&#x202;" horiz-adv-x="785" 
d="M559 173h-335l-67 -173h-139l293 720h163l293 -720h-141zM515 288l-123 317l-123 -317h246zM517 903q49 -46 49 -125h-92q-1 36 -24.5 57t-57.5 21t-57.5 -21t-24.5 -57h-91q0 79 48.5 125t124.5 46t125 -46z" />
    <glyph glyph-name="uni0203" unicode="&#x203;" horiz-adv-x="647" 
d="M632 106v-101q-19 -9 -50 -9q-47 0 -83 20.5t-48 60.5q-32 -46 -85 -67.5t-116 -21.5q-60 0 -110 19.5t-80 58t-30 93.5q0 84 72 131t215 47h125q-1 53 -38.5 82.5t-100.5 29.5q-41 0 -85.5 -13.5t-82.5 -41.5l-64 94q47 37 110 54.5t128 17.5q120 0 188 -58t68 -162
v-197q0 -21 11.5 -31t30.5 -10q11 0 25 4zM382.5 128q52.5 37 58.5 114h-121q-162 0 -162 -77q0 -34 27.5 -54t77.5 -20q67 0 119.5 37zM440 731q49 -46 49 -125h-92q-1 36 -24.5 57t-57.5 21t-57.5 -21t-24.5 -57h-91q0 79 48.5 125t124.5 46t125 -46z" />
    <glyph glyph-name="uni0204" unicode="&#x204;" 
d="M678 0h-590v720h580l-19 -116h-428v-171h295v-118h-295v-199h438zM131 946h126l83 -168h-98l-111 158v10zM320 946h125l67 -168h-98l-94 158v10z" />
    <glyph glyph-name="uni0205" unicode="&#x205;" horiz-adv-x="656" 
d="M619 227h-447q14 -61 62.5 -95t122.5 -34q50 0 87.5 15t71.5 45l71 -87q-35 -37 -94 -60.5t-137 -23.5q-96 0 -167.5 37.5t-109 103t-37.5 146.5q0 79 36 144.5t102 104t154 38.5t153.5 -39t100.5 -105t35 -146q0 -25 -4 -44zM229 415.5q-43 -33.5 -57 -92.5h323
q-11 57 -54 91.5t-107 34.5q-62 0 -105 -33.5zM94 774h126l83 -168h-98l-111 158v10zM283 774h125l67 -168h-98l-94 158v10z" />
    <glyph glyph-name="uni0206" unicode="&#x206;" 
d="M678 0h-590v720h580l-19 -116h-428v-171h295v-118h-295v-199h438zM496 903q49 -46 49 -125h-92q-1 36 -24.5 57t-57.5 21t-57.5 -21t-24.5 -57h-91q0 79 48.5 125t124.5 46t125 -46z" />
    <glyph glyph-name="uni0207" unicode="&#x207;" horiz-adv-x="656" 
d="M619 227h-447q14 -61 62.5 -95t122.5 -34q50 0 87.5 15t71.5 45l71 -87q-35 -37 -94 -60.5t-137 -23.5q-96 0 -167.5 37.5t-109 103t-37.5 146.5q0 79 36 144.5t102 104t154 38.5t153.5 -39t100.5 -105t35 -146q0 -25 -4 -44zM229 415.5q-43 -33.5 -57 -92.5h323
q-11 57 -54 91.5t-107 34.5q-62 0 -105 -33.5zM459 731q49 -46 49 -125h-92q-1 36 -24.5 57t-57.5 21t-57.5 -21t-24.5 -57h-91q0 79 48.5 125t124.5 46t125 -46z" />
    <glyph glyph-name="uni0208" unicode="&#x208;" horiz-adv-x="321" 
d="M227 720v-720h-133v720h133zM-79 946h126l83 -168h-98l-111 158v10zM110 946h125l67 -168h-98l-94 158v10z" />
    <glyph glyph-name="uni0209" unicode="&#x209;" horiz-adv-x="286" 
d="M81 548h128v-548h-128v548zM-95 774h126l83 -168h-98l-111 158v10zM94 774h125l67 -168h-98l-94 158v10z" />
    <glyph glyph-name="uni020A" unicode="&#x20a;" horiz-adv-x="321" 
d="M227 720v-720h-133v720h133zM286 903q49 -46 49 -125h-92q-1 36 -24.5 57t-57.5 21t-57.5 -21t-24.5 -57h-91q0 79 48.5 125t124.5 46t125 -46z" />
    <glyph glyph-name="uni020B" unicode="&#x20b;" horiz-adv-x="286" 
d="M81 548h128v-548h-128v548zM270 731q49 -46 49 -125h-92q-1 36 -24.5 57t-57.5 21t-57.5 -21t-24.5 -57h-91q0 79 48.5 125t124.5 46t125 -46z" />
    <glyph glyph-name="uni020C" unicode="&#x20c;" horiz-adv-x="859" 
d="M232 34.5q-87 47.5 -136 132.5t-49 193t49 193t136 132.5t197 47.5t197 -47.5t136 -132.5t49 -193t-49 -193t-136 -132.5t-197 -47.5t-197 47.5zM555.5 140q55.5 32 86.5 89.5t31 130.5t-31 130.5t-86.5 89.5t-126.5 32q-70 0 -125.5 -32t-87 -89.5t-31.5 -130.5
t31.5 -130.5t87 -89.5t125.5 -32q71 0 126.5 32zM189 946h126l83 -168h-98l-111 158v10zM378 946h125l67 -168h-98l-94 158v10z" />
    <glyph glyph-name="uni020D" unicode="&#x20d;" horiz-adv-x="679" 
d="M183.5 25q-68.5 38 -106 103.5t-37.5 145.5t37.5 145.5t106 103.5t156.5 38t156.5 -38t106 -103.5t37.5 -145.5t-37.5 -145.5t-106 -103.5t-156.5 -38t-156.5 38zM426 125q39 22 62 61t23 88t-23 88t-62 61t-86 22q-48 0 -87 -22t-62 -61t-23 -88t23 -88t62 -61t87 -22
q47 0 86 22zM100 774h126l83 -168h-98l-111 158v10zM289 774h125l67 -168h-98l-94 158v10z" />
    <glyph glyph-name="uni020E" unicode="&#x20e;" horiz-adv-x="859" 
d="M232 34.5q-87 47.5 -136 132.5t-49 193t49 193t136 132.5t197 47.5t197 -47.5t136 -132.5t49 -193t-49 -193t-136 -132.5t-197 -47.5t-197 47.5zM555.5 140q55.5 32 86.5 89.5t31 130.5t-31 130.5t-86.5 89.5t-126.5 32q-70 0 -125.5 -32t-87 -89.5t-31.5 -130.5
t31.5 -130.5t87 -89.5t125.5 -32q71 0 126.5 32zM554 903q49 -46 49 -125h-92q-1 36 -24.5 57t-57.5 21t-57.5 -21t-24.5 -57h-91q0 79 48.5 125t124.5 46t125 -46z" />
    <glyph glyph-name="uni020F" unicode="&#x20f;" horiz-adv-x="679" 
d="M183.5 25q-68.5 38 -106 103.5t-37.5 145.5t37.5 145.5t106 103.5t156.5 38t156.5 -38t106 -103.5t37.5 -145.5t-37.5 -145.5t-106 -103.5t-156.5 -38t-156.5 38zM426 125q39 22 62 61t23 88t-23 88t-62 61t-86 22q-48 0 -87 -22t-62 -61t-23 -88t23 -88t62 -61t87 -22
q47 0 86 22zM465 731q49 -46 49 -125h-92q-1 36 -24.5 57t-57.5 21t-57.5 -21t-24.5 -57h-91q0 79 48.5 125t124.5 46t125 -46z" />
    <glyph glyph-name="uni0210" unicode="&#x210;" horiz-adv-x="773" 
d="M407 288h-188v-288h-131v720h391q69 0 120 -28.5t78 -78t27 -109.5q0 -74 -41 -130.5t-113 -76.5l203 -297h-155zM219 405h238q53 0 83 27t30 72t-30 71.5t-83 26.5h-238v-197zM135 946h126l83 -168h-98l-111 158v10zM324 946h125l67 -168h-98l-94 158v10z" />
    <glyph glyph-name="uni0211" unicode="&#x211;" horiz-adv-x="452" 
d="M431 550v-118q-29 5 -57 5q-75 0 -121.5 -37t-46.5 -112v-288h-128v548h121v-77q29 44 77.5 64.5t100.5 20.5q28 0 54 -6zM9 774h126l83 -168h-98l-111 158v10zM198 774h125l67 -168h-98l-94 158v10z" />
    <glyph glyph-name="uni0212" unicode="&#x212;" horiz-adv-x="773" 
d="M407 288h-188v-288h-131v720h391q69 0 120 -28.5t78 -78t27 -109.5q0 -74 -41 -130.5t-113 -76.5l203 -297h-155zM219 405h238q53 0 83 27t30 72t-30 71.5t-83 26.5h-238v-197zM500 903q49 -46 49 -125h-92q-1 36 -24.5 57t-57.5 21t-57.5 -21t-24.5 -57h-91
q0 79 48.5 125t124.5 46t125 -46z" />
    <glyph glyph-name="uni0213" unicode="&#x213;" horiz-adv-x="452" 
d="M431 550v-118q-29 5 -57 5q-75 0 -121.5 -37t-46.5 -112v-288h-128v548h121v-77q29 44 77.5 64.5t100.5 20.5q28 0 54 -6zM374 731q49 -46 49 -125h-92q-1 36 -24.5 57t-57.5 21t-57.5 -21t-24.5 -57h-91q0 79 48.5 125t124.5 46t125 -46z" />
    <glyph glyph-name="uni0214" unicode="&#x214;" horiz-adv-x="781" 
d="M223.5 21q-71.5 34 -110.5 97.5t-39 149.5v452h133v-437q0 -83 48.5 -129t135.5 -46q86 0 134.5 46t48.5 129v437h133v-452q0 -86 -38.5 -149.5t-110 -97.5t-167.5 -34t-167.5 34zM151 946h126l83 -168h-98l-111 158v10zM340 946h125l67 -168h-98l-94 158v10z" />
    <glyph glyph-name="uni0215" unicode="&#x215;" horiz-adv-x="671" 
d="M592 548v-548h-121v61q-33 -39 -80.5 -56.5t-98.5 -17.5q-65 0 -116 26t-79.5 74t-28.5 111v350h128v-323q0 -57 32.5 -88t92.5 -31q63 0 103.5 34t40.5 89v319h127zM91 774h126l83 -168h-98l-111 158v10zM280 774h125l67 -168h-98l-94 158v10z" />
    <glyph glyph-name="uni0216" unicode="&#x216;" horiz-adv-x="781" 
d="M223.5 21q-71.5 34 -110.5 97.5t-39 149.5v452h133v-437q0 -83 48.5 -129t135.5 -46q86 0 134.5 46t48.5 129v437h133v-452q0 -86 -38.5 -149.5t-110 -97.5t-167.5 -34t-167.5 34zM516 903q49 -46 49 -125h-92q-1 36 -24.5 57t-57.5 21t-57.5 -21t-24.5 -57h-91
q0 79 48.5 125t124.5 46t125 -46z" />
    <glyph glyph-name="uni0217" unicode="&#x217;" horiz-adv-x="671" 
d="M592 548v-548h-121v61q-33 -39 -80.5 -56.5t-98.5 -17.5q-65 0 -116 26t-79.5 74t-28.5 111v350h128v-323q0 -57 32.5 -88t92.5 -31q63 0 103.5 34t40.5 89v319h127zM456 731q49 -46 49 -125h-92q-1 36 -24.5 57t-57.5 21t-57.5 -21t-24.5 -57h-91q0 79 48.5 125
t124.5 46t125 -46z" />
    <glyph glyph-name="Scommaaccent" unicode="&#x218;" 
d="M177.5 19q-88.5 29 -144.5 80l82 101q53 -46 116.5 -69t131.5 -23q72 0 117 28t45 72q0 32 -27.5 54t-90.5 34l-152 29q-98 19 -147.5 68t-49.5 122q0 66 39 115t107.5 75.5t155.5 26.5q80 0 155.5 -23.5t131.5 -74.5l-77 -97q-48 39 -103 58.5t-112 19.5
q-69 0 -115 -25.5t-46 -64.5q0 -27 25.5 -46t88.5 -31l144 -27q104 -20 157 -74.5t53 -130.5q0 -67 -36.5 -118.5t-103.5 -79.5t-156 -28q-100 0 -188.5 29zM305 -53h137l-86 -161h-90z" />
    <glyph glyph-name="scommaaccent" unicode="&#x219;" horiz-adv-x="582" 
d="M188 114.5q56 -19.5 113 -19.5q56 0 86.5 18t30.5 46q0 37 -61 47l-139 24q-87 14 -128.5 54.5t-41.5 100.5q0 52 29.5 91.5t85 61.5t130.5 22q64 0 128 -17t117 -56l-64 -91q-35 25 -84.5 41.5t-98.5 16.5q-50 0 -82 -16.5t-32 -43.5q0 -18 18.5 -29t58.5 -18l126 -21
q85 -15 126.5 -55t41.5 -101q0 -54 -30.5 -95.5t-86.5 -64t-130 -22.5t-149.5 22t-122.5 60l63 95q40 -31 96 -50.5zM250 -54h137l-86 -161h-90z" />
    <glyph glyph-name="uni021A" unicode="&#x21a;" horiz-adv-x="686" 
d="M656 600h-246v-600h-133v600h-246v120h625v-120zM295 -54h137l-86 -161h-90z" />
    <glyph glyph-name="uni021B" unicode="&#x21b;" horiz-adv-x="451" 
d="M419 125v-113q-38 -20 -103 -20q-104 0 -156 50t-52 137v261h-93v108h94v120l126 59v-179h179v-108h-179v-244q0 -45 26.5 -66.5t70.5 -21.5t87 17zM193 -54h137l-86 -161h-90z" />
    <glyph glyph-name="uni022A" unicode="&#x22a;" horiz-adv-x="859" 
d="M232 34.5q-87 47.5 -136 132.5t-49 193t49 193t136 132.5t197 47.5t197 -47.5t136 -132.5t49 -193t-49 -193t-136 -132.5t-197 -47.5t-197 47.5zM555.5 140q55.5 32 86.5 89.5t31 130.5t-31 130.5t-86.5 89.5t-126.5 32q-70 0 -125.5 -32t-87 -89.5t-31.5 -130.5
t31.5 -130.5t87 -89.5t125.5 -32q71 0 126.5 32zM257 809q-22 20 -22 52q0 31 22 51.5t55 20.5q32 0 54 -20.5t22 -51.5q0 -32 -21.5 -52t-54.5 -20t-55 20zM491 809q-22 20 -22 52q0 31 22 51.5t55 20.5q32 0 54 -20.5t22 -51.5q0 -32 -21.5 -52t-54.5 -20t-55 20z
M263 1077h332v-98h-332v98z" />
    <glyph glyph-name="uni022B" unicode="&#x22b;" horiz-adv-x="679" 
d="M183.5 25q-68.5 38 -106 103.5t-37.5 145.5t37.5 145.5t106 103.5t156.5 38t156.5 -38t106 -103.5t37.5 -145.5t-37.5 -145.5t-106 -103.5t-156.5 -38t-156.5 38zM426 125q39 22 62 61t23 88t-23 88t-62 61t-86 22q-48 0 -87 -22t-62 -61t-23 -88t23 -88t62 -61t87 -22
q47 0 86 22zM168 637q-22 20 -22 52q0 31 22 51.5t55 20.5q32 0 54 -20.5t22 -51.5q0 -32 -21.5 -52t-54.5 -20t-55 20zM402 637q-22 20 -22 52q0 31 22 51.5t55 20.5q32 0 54 -20.5t22 -51.5q0 -32 -21.5 -52t-54.5 -20t-55 20zM174 905h332v-98h-332v98z" />
    <glyph glyph-name="uni022C" unicode="&#x22c;" horiz-adv-x="859" 
d="M232 34.5q-87 47.5 -136 132.5t-49 193t49 193t136 132.5t197 47.5t197 -47.5t136 -132.5t49 -193t-49 -193t-136 -132.5t-197 -47.5t-197 47.5zM555.5 140q55.5 32 86.5 89.5t31 130.5t-31 130.5t-86.5 89.5t-126.5 32q-70 0 -125.5 -32t-87 -89.5t-31.5 -130.5
t31.5 -130.5t87 -89.5t125.5 -32q71 0 126.5 32zM448.5 792q-23.5 12 -50.5 34q-17 13 -27 19t-20 6q-17 0 -26 -15.5t-11 -48.5h-96q2 72 35.5 114.5t95.5 42.5q34 0 58.5 -12.5t50.5 -34.5q16 -13 25.5 -19t19.5 -6q36 0 39 65h96q-2 -73 -35.5 -115t-96.5 -42
q-34 0 -57.5 12zM263 1118h332v-98h-332v98z" />
    <glyph glyph-name="uni022D" unicode="&#x22d;" horiz-adv-x="679" 
d="M183.5 25q-68.5 38 -106 103.5t-37.5 145.5t37.5 145.5t106 103.5t156.5 38t156.5 -38t106 -103.5t37.5 -145.5t-37.5 -145.5t-106 -103.5t-156.5 -38t-156.5 38zM426 125q39 22 62 61t23 88t-23 88t-62 61t-86 22q-48 0 -87 -22t-62 -61t-23 -88t23 -88t62 -61t87 -22
q47 0 86 22zM359.5 620q-23.5 12 -50.5 34q-17 13 -27 19t-20 6q-17 0 -26 -15.5t-11 -48.5h-96q2 72 35.5 114.5t95.5 42.5q34 0 58.5 -12.5t50.5 -34.5q16 -13 25.5 -19t19.5 -6q36 0 39 65h96q-2 -73 -35.5 -115t-96.5 -42q-34 0 -57.5 12zM174 921h332v-98h-332v98z" />
    <glyph glyph-name="uni0230" unicode="&#x230;" horiz-adv-x="859" 
d="M232 34.5q-87 47.5 -136 132.5t-49 193t49 193t136 132.5t197 47.5t197 -47.5t136 -132.5t49 -193t-49 -193t-136 -132.5t-197 -47.5t-197 47.5zM555.5 140q55.5 32 86.5 89.5t31 130.5t-31 130.5t-86.5 89.5t-126.5 32q-70 0 -125.5 -32t-87 -89.5t-31.5 -130.5
t31.5 -130.5t87 -89.5t125.5 -32q71 0 126.5 32zM373 807q-22 21 -22 54q0 32 22 53t56 21t56 -21t22 -53q0 -33 -22 -54t-56 -21t-56 21zM263 1077h332v-98h-332v98z" />
    <glyph glyph-name="uni0231" unicode="&#x231;" horiz-adv-x="679" 
d="M183.5 25q-68.5 38 -106 103.5t-37.5 145.5t37.5 145.5t106 103.5t156.5 38t156.5 -38t106 -103.5t37.5 -145.5t-37.5 -145.5t-106 -103.5t-156.5 -38t-156.5 38zM426 125q39 22 62 61t23 88t-23 88t-62 61t-86 22q-48 0 -87 -22t-62 -61t-23 -88t23 -88t62 -61t87 -22
q47 0 86 22zM284 635q-22 21 -22 54q0 32 22 53t56 21t56 -21t22 -53q0 -33 -22 -54t-56 -21t-56 21zM174 905h332v-98h-332v98z" />
    <glyph glyph-name="uni0232" unicode="&#x232;" horiz-adv-x="724" 
d="M430 244v-244h-133v241l-292 479h151l209 -357l206 357h147zM194 901h332v-98h-332v98z" />
    <glyph glyph-name="uni0233" unicode="&#x233;" horiz-adv-x="622" 
d="M618 548l-268 -606q-28 -64 -77.5 -98t-114.5 -34q-32 0 -69 8t-66 23l35 104q54 -23 95 -23q29 0 53 16t37 46l9 21l-247 543h140l171 -407l167 407h135zM146 729h332v-98h-332v98z" />
    <glyph glyph-name="uni0237" unicode="&#x237;" horiz-adv-x="291" 
d="M-32 -176v107q26 -7 45 -7q35 0 53.5 16.5t18.5 46.5v561h128v-573q0 -76 -46.5 -119t-126.5 -43q-37 0 -72 11z" />
    <glyph glyph-name="uni0259" unicode="&#x259;" horiz-adv-x="656" 
d="M37 321h447q-14 61 -62.5 95t-122.5 34q-50 0 -87.5 -15t-71.5 -45l-71 87q35 37 94 60.5t137 23.5q96 0 167.5 -37.5t109 -103t37.5 -146.5q0 -79 -36 -144.5t-102 -104t-154 -38.5t-153.5 39t-100.5 105t-35 146q0 25 4 44zM427 132.5q43 33.5 57 92.5h-323
q11 -57 54 -91.5t107 -34.5q62 0 105 33.5z" />
    <glyph glyph-name="uni02B9" unicode="&#x2b9;" horiz-adv-x="318" 
d="M124 720h143l-116 -273h-90z" />
    <glyph glyph-name="uni02BA" unicode="&#x2ba;" horiz-adv-x="523" 
d="M124 720h143l-116 -273h-90zM328 720h143l-116 -273h-90z" />
    <glyph glyph-name="uni02BB" unicode="&#x2bb;" horiz-adv-x="0" 
d="M-285 606h-137l85 168h91z" />
    <glyph glyph-name="uni02BC" unicode="&#x2bc;" horiz-adv-x="186" 
d="M55 752h126l-94 -268h-86z" />
    <glyph glyph-name="uni02BE" unicode="&#x2be;" horiz-adv-x="0" 
d="M-238.5 834q40.5 -37 40.5 -95t-40.5 -95.5t-102.5 -37.5v70q27 0 45.5 18t18.5 45t-18.5 45t-45.5 18v69q62 0 102.5 -37z" />
    <glyph glyph-name="uni02BF" unicode="&#x2bf;" horiz-adv-x="0" 
d="M-443.5 643.5q-40.5 37.5 -40.5 95.5t40.5 95t102.5 37v-69q-27 0 -45 -17.5t-18 -45.5t18 -45.5t45 -17.5v-70q-62 0 -102.5 37.5z" />
    <glyph glyph-name="circumflex" unicode="&#x2c6;" horiz-adv-x="586" 
d="M396 612l-75 84l-76 -84h-111l119 162h135l119 -162h-111z" />
    <glyph glyph-name="caron" unicode="&#x2c7;" horiz-adv-x="586" 
d="M507 774l-119 -162h-135l-119 162h111l76 -84l75 84h111z" />
    <glyph glyph-name="uni02C8" unicode="&#x2c8;" horiz-adv-x="220" 
d="M57 821h107v-232h-107v232z" />
    <glyph glyph-name="uni02C9" unicode="&#x2c9;" horiz-adv-x="586" 
d="M165 729h332v-98h-332v98z" />
    <glyph glyph-name="uni02CA" unicode="&#x2ca;" horiz-adv-x="0" 
d="M-299 606h-119l113 168h147v-10z" />
    <glyph glyph-name="uni02CB" unicode="&#x2cb;" horiz-adv-x="0" 
d="M-376 772l103 -164h-118l-132 154v10h147z" />
    <glyph glyph-name="uni02CC" unicode="&#x2cc;" horiz-adv-x="220" 
d="M57 -49h107v-232h-107v232z" />
    <glyph glyph-name="breve" unicode="&#x2d8;" horiz-adv-x="586" 
d="M173.5 649q-48.5 46 -48.5 125h91q1 -36 24.5 -57t57.5 -21t57.5 21t24.5 57h92q0 -79 -49 -125t-125 -46t-124.5 46z" />
    <glyph glyph-name="dotaccent" unicode="&#x2d9;" horiz-adv-x="586" 
d="M109 635q-22 21 -22 54q0 32 22 53t56 21t56 -21t22 -53q0 -33 -22 -54t-56 -21t-56 21z" />
    <glyph glyph-name="ring" unicode="&#x2da;" horiz-adv-x="587" 
d="M195.5 643.5q-40.5 37.5 -40.5 95.5t40.5 95.5t102.5 37.5q63 0 103.5 -37.5t40.5 -95.5t-40.5 -95.5t-103.5 -37.5q-62 0 -102.5 37.5zM343 694.5q18 17.5 18 44.5t-18 44.5t-45 17.5t-44.5 -17.5t-17.5 -44.5t18 -44.5t44 -17.5q27 0 45 17.5z" />
    <glyph glyph-name="ogonek" unicode="&#x2db;" horiz-adv-x="586" 
d="M355 0q-64 -25 -88 -43t-24 -34q0 -15 13 -23.5t34 -8.5q27 0 59 19l35 -74q-42 -34 -116 -34q-56 0 -94.5 26t-38.5 78q0 36 30.5 68.5t90.5 56.5z" />
    <glyph glyph-name="tilde" unicode="&#x2dc;" horiz-adv-x="586" 
d="M261.5 620q-23.5 12 -50.5 34q-17 13 -27 19t-20 6q-17 0 -26 -15.5t-11 -48.5h-96q2 72 35.5 114.5t95.5 42.5q34 0 58.5 -12.5t50.5 -34.5q16 -13 25.5 -19t19.5 -6q36 0 39 65h96q-2 -73 -35.5 -115t-96.5 -42q-34 0 -57.5 12z" />
    <glyph glyph-name="hungarumlaut" unicode="&#x2dd;" horiz-adv-x="586" 
d="M340 606h-98l67 168h125v-10zM512 606h-98l83 168h126v-10z" />
    <glyph glyph-name="gravecomb" unicode="&#x300;" horiz-adv-x="0" 
d="M-376 772l103 -164h-118l-132 154v10h147z" />
    <glyph glyph-name="acutecomb" unicode="&#x301;" horiz-adv-x="0" 
d="M-299 606h-119l113 168h147v-10z" />
    <glyph glyph-name="uni0302" unicode="&#x302;" horiz-adv-x="0" 
d="M-265 612l-75 84l-76 -84h-111l119 162h135l119 -162h-111z" />
    <glyph glyph-name="tildecomb" unicode="&#x303;" horiz-adv-x="0" 
d="M-320.5 620q-23.5 12 -50.5 34q-17 13 -27 19t-20 6q-17 0 -26 -15.5t-11 -48.5h-96q2 72 35.5 114.5t95.5 42.5q34 0 58.5 -12.5t50.5 -34.5q16 -13 25.5 -19t19.5 -6q36 0 39 65h96q-2 -73 -35.5 -115t-96.5 -42q-34 0 -57.5 12z" />
    <glyph glyph-name="uni0304" unicode="&#x304;" horiz-adv-x="0" 
d="M-506 729h332v-98h-332v98z" />
    <glyph glyph-name="uni0306" unicode="&#x306;" horiz-adv-x="0" 
d="M-464.5 649q-48.5 46 -48.5 125h91q1 -36 24.5 -57t57.5 -21t57.5 21t24.5 57h92q0 -79 -49 -125t-125 -46t-124.5 46z" />
    <glyph glyph-name="uni0307" unicode="&#x307;" horiz-adv-x="0" 
d="M-396 635q-22 21 -22 54q0 32 22 53t56 21t56 -21t22 -53q0 -33 -22 -54t-56 -21t-56 21z" />
    <glyph glyph-name="uni0308" unicode="&#x308;" horiz-adv-x="0" 
d="M-509 637q-22 20 -22 52q0 31 22 51.5t55 20.5q32 0 54 -20.5t22 -51.5q0 -32 -21.5 -52t-54.5 -20t-55 20zM-275 637q-22 20 -22 52q0 31 22 51.5t55 20.5q32 0 54 -20.5t22 -51.5q0 -32 -21.5 -52t-54.5 -20t-55 20z" />
    <glyph glyph-name="hookabovecomb" unicode="&#x309;" horiz-adv-x="0" 
d="M-380 620q0 27 15 48t43 45q19 15 28 26.5t9 22.5q0 15 -13 23t-33 8q-24 0 -38 -12t-15 -32h-89q2 56 41.5 89.5t107.5 33.5q58 0 96 -30t38 -77q0 -26 -13 -46.5t-41 -46.5q-33 -30 -41.5 -39.5t-8.5 -20.5v-7h-86v15z" />
    <glyph glyph-name="uni030A" unicode="&#x30a;" horiz-adv-x="0" 
d="M-444.5 643.5q-40.5 37.5 -40.5 95.5t40.5 95.5t102.5 37.5q63 0 103.5 -37.5t40.5 -95.5t-40.5 -95.5t-103.5 -37.5q-62 0 -102.5 37.5zM-297 694.5q18 17.5 18 44.5t-18 44.5t-45 17.5t-44.5 -17.5t-17.5 -44.5t18 -44.5t44 -17.5q27 0 45 17.5z" />
    <glyph glyph-name="uni030B" unicode="&#x30b;" horiz-adv-x="0" 
d="M-392 606h-98l67 168h125v-10zM-220 606h-98l83 168h126v-10z" />
    <glyph glyph-name="uni030C" unicode="&#x30c;" horiz-adv-x="0" 
d="M-154 774l-119 -162h-135l-119 162h111l76 -84l75 84h111z" />
    <glyph glyph-name="uni030F" unicode="&#x30f;" horiz-adv-x="0" 
d="M-580 774h126l83 -168h-98l-111 158v10zM-391 774h125l67 -168h-98l-94 158v10z" />
    <glyph glyph-name="uni0311" unicode="&#x311;" horiz-adv-x="0" 
d="M-215 731q49 -46 49 -125h-92q-1 36 -24.5 57t-57.5 21t-57.5 -21t-24.5 -57h-91q0 79 48.5 125t124.5 46t125 -46z" />
    <glyph glyph-name="uni0312" unicode="&#x312;" horiz-adv-x="0" 
d="M-285 606h-137l85 168h91z" />
    <glyph glyph-name="uni031B" unicode="&#x31b;" horiz-adv-x="0" 
d="M-235 467v81h43q77 0 77 66q0 36 -18 76h112q16 -29 16 -78q0 -72 -44.5 -108.5t-125.5 -36.5h-60z" />
    <glyph glyph-name="dotbelowcomb" unicode="&#x323;" horiz-adv-x="0" 
d="M-396 -188q-22 21 -22 54q0 32 22 53t56 21t56 -21t22 -53q0 -33 -22 -54t-56 -21t-56 21z" />
    <glyph glyph-name="uni0324" unicode="&#x324;" horiz-adv-x="0" 
d="M-509 -186q-22 20 -22 52q0 31 22 51.5t55 20.5q32 0 54 -20.5t22 -51.5q0 -32 -21.5 -52t-54.5 -20t-55 20zM-275 -186q-22 20 -22 52q0 31 22 51.5t55 20.5q32 0 54 -20.5t22 -51.5q0 -32 -21.5 -52t-54.5 -20t-55 20z" />
    <glyph glyph-name="uni0326" unicode="&#x326;" horiz-adv-x="0" 
d="M-388 -54h137l-86 -161h-90z" />
    <glyph glyph-name="uni0327" unicode="&#x327;" horiz-adv-x="0" 
d="M-221.5 -59q31.5 -26 31.5 -63q0 -43 -41 -69t-110 -26q-88 0 -148 35l33 55q34 -17 57.5 -23t52.5 -6q28 0 42.5 9t14.5 25q0 15 -15 24.5t-43 9.5q-26 0 -54 -7l-21 14l73 101h80l-49 -54q4 1 13 1q52 0 83.5 -26z" />
    <glyph glyph-name="uni0328" unicode="&#x328;" horiz-adv-x="0" 
d="M-111 0q-64 -25 -88 -43t-24 -34q0 -15 13 -23.5t34 -8.5q27 0 59 19l35 -74q-42 -34 -116 -34q-56 0 -94.5 26t-38.5 78q0 36 30.5 68.5t90.5 56.5z" />
    <glyph glyph-name="uni032E" unicode="&#x32e;" horiz-adv-x="0" 
d="M-465.5 -172q-48.5 46 -48.5 125h91q1 -36 24.5 -57t57.5 -21t57.5 21t24.5 57h92q0 -79 -49 -125t-125 -46t-124.5 46z" />
    <glyph glyph-name="uni0331" unicode="&#x331;" horiz-adv-x="0" 
d="M-506 -85h332v-98h-332v98z" />
    <glyph glyph-name="Xi" unicode="&#x39e;" horiz-adv-x="733" 
d="M88 720h557v-116h-557v116zM162 433h410v-118h-410v118zM88 116h557v-116h-557v116z" />
    <glyph glyph-name="pi" unicode="&#x3c0;" horiz-adv-x="759" 
d="M587 440v-290q0 -47 50 -47q23 0 44 9v-111q-32 -13 -74 -13q-67 0 -107 36.5t-40 99.5v316h-181v-440h-127v440h-137v108h712v-108h-140z" />
    <glyph glyph-name="uni058F" unicode="&#x58f;" horiz-adv-x="778" 
d="M622 319v-70h104v-83h-104v-166h-133v166h-193v83h193v70h-193v83h193v78q0 61 -43 100t-109 39t-109.5 -39t-43.5 -100v-115h-132v115q0 73 36.5 130.5t101.5 90t147 32.5t147 -32.5t101.5 -90t36.5 -130.5v-78h104v-83h-104z" />
    <glyph glyph-name="uni0E3F" unicode="&#xe3f;" horiz-adv-x="769" 
d="M694.5 316.5q32.5 -49.5 32.5 -111.5q0 -60 -29.5 -106t-85.5 -72.5t-135 -26.5h-54v-117h-83v117h-252v720h252v89h83v-89h24q71 0 121 -25t76 -68t26 -97q0 -43 -17.5 -80.5t-59.5 -62.5q69 -21 101.5 -70.5zM219 607v-185h121v185h-121zM423 607v-185h14q49 0 75 26
t26 67q0 42 -27.5 67t-79.5 25h-8zM340 113v198h-121v-198h121zM559.5 139.5q32.5 26.5 32.5 73.5q0 45 -30 71.5t-83 26.5h-56v-198h44q60 0 92.5 26.5z" />
    <glyph glyph-name="uni1E08" unicode="&#x1e08;" horiz-adv-x="762" 
d="M243 35.5q-92 48.5 -144 134t-52 190.5t52 190.5t143 134t204 48.5q86 0 160.5 -28t120.5 -81l-83 -93q-81 81 -195 81q-74 0 -134 -33t-95 -90.5t-35 -128.5t35 -128.5t96 -90.5t136 -33q119 0 197 79l84 -91q-48 -55 -123 -82t-160 -27q-115 0 -207 48.5zM539.5 -59
q31.5 -26 31.5 -63q0 -43 -41 -69t-110 -26q-88 0 -148 35l33 55q34 -17 57.5 -23t52.5 -6q28 0 42.5 9t14.5 25q0 15 -15 24.5t-43 9.5q-26 0 -54 -7l-21 14l73 101h80l-49 -54q4 1 13 1q52 0 83.5 -26zM465 778h-119l113 168h147v-10z" />
    <glyph glyph-name="uni1E09" unicode="&#x1e09;" horiz-adv-x="592" 
d="M187.5 24.5q-70.5 37.5 -109 103t-38.5 145.5q0 81 39.5 146.5t110 103.5t160.5 38q134 0 217 -83l-75 -93q-29 29 -65.5 45t-77.5 16q-48 0 -89 -21t-65.5 -60.5t-24.5 -90.5t24.5 -90t66 -60t90.5 -21q42 0 80 15.5t65 42.5l74 -92q-36 -38 -91.5 -60t-127.5 -22
q-93 0 -163.5 37.5zM445.5 -59q31.5 -26 31.5 -63q0 -43 -41 -69t-110 -26q-88 0 -148 35l33 55q34 -17 57.5 -23t52.5 -6q28 0 42.5 9t14.5 25q0 15 -15 24.5t-43 9.5q-26 0 -54 -7l-21 14l73 101h80l-49 -54q4 1 13 1q52 0 83.5 -26zM369 606h-119l113 168h147v-10z" />
    <glyph glyph-name="uni1E0C" unicode="&#x1e0c;" horiz-adv-x="816" 
d="M593.5 673q85.5 -47 130.5 -129t45 -184t-45 -184t-130.5 -129t-202.5 -47h-303v720h303q117 0 202.5 -47zM520 148.5q54 31.5 82.5 86.5t28.5 125t-28.5 125t-82.5 86.5t-130 31.5h-169v-486h169q76 0 130 31.5zM351 -188q-22 21 -22 54q0 32 22 53t56 21t56 -21t22 -53
q0 -33 -22 -54t-56 -21t-56 21z" />
    <glyph glyph-name="uni1E0D" unicode="&#x1e0d;" horiz-adv-x="712" 
d="M634 752v-752h-121v74q-72 -87 -193 -87q-82 0 -145.5 38t-99 103.5t-35.5 145.5t35.5 145.5t99 103.5t145.5 38q117 0 186 -79v270h128zM426 124.5q39 21.5 61.5 60.5t22.5 89t-22.5 89t-61.5 60.5t-88 21.5t-87.5 -22t-60 -61t-21.5 -88t21.5 -88t60 -61t87.5 -22
t88 21.5zM303 -188q-22 21 -22 54q0 32 22 53t56 21t56 -21t22 -53q0 -33 -22 -54t-56 -21t-56 21z" />
    <glyph glyph-name="uni1E0E" unicode="&#x1e0e;" horiz-adv-x="816" 
d="M593.5 673q85.5 -47 130.5 -129t45 -184t-45 -184t-130.5 -129t-202.5 -47h-303v720h303q117 0 202.5 -47zM520 148.5q54 31.5 82.5 86.5t28.5 125t-28.5 125t-82.5 86.5t-130 31.5h-169v-486h169q76 0 130 31.5zM241 -85h332v-98h-332v98z" />
    <glyph glyph-name="uni1E0F" unicode="&#x1e0f;" horiz-adv-x="712" 
d="M634 752v-752h-121v74q-72 -87 -193 -87q-82 0 -145.5 38t-99 103.5t-35.5 145.5t35.5 145.5t99 103.5t145.5 38q117 0 186 -79v270h128zM426 124.5q39 21.5 61.5 60.5t22.5 89t-22.5 89t-61.5 60.5t-88 21.5t-87.5 -22t-60 -61t-21.5 -88t21.5 -88t60 -61t87.5 -22
t88 21.5zM193 -85h332v-98h-332v98z" />
    <glyph glyph-name="uni1E14" unicode="&#x1e14;" 
d="M678 0h-590v720h580l-19 -116h-428v-171h295v-118h-295v-199h438zM205 901h332v-98h-332v98zM335 1125l103 -164h-118l-132 154v10h147z" />
    <glyph glyph-name="uni1E15" unicode="&#x1e15;" horiz-adv-x="656" 
d="M619 227h-447q14 -61 62.5 -95t122.5 -34q50 0 87.5 15t71.5 45l71 -87q-35 -37 -94 -60.5t-137 -23.5q-96 0 -167.5 37.5t-109 103t-37.5 146.5q0 79 36 144.5t102 104t154 38.5t153.5 -39t100.5 -105t35 -146q0 -25 -4 -44zM229 415.5q-43 -33.5 -57 -92.5h323
q-11 57 -54 91.5t-107 34.5q-62 0 -105 -33.5zM168 729h332v-98h-332v98zM298 953l103 -164h-118l-132 154v10h147z" />
    <glyph glyph-name="uni1E16" unicode="&#x1e16;" 
d="M678 0h-590v720h580l-19 -116h-428v-171h295v-118h-295v-199h438zM205 901h332v-98h-332v98zM412 959h-119l113 168h147v-10z" />
    <glyph glyph-name="uni1E17" unicode="&#x1e17;" horiz-adv-x="656" 
d="M619 227h-447q14 -61 62.5 -95t122.5 -34q50 0 87.5 15t71.5 45l71 -87q-35 -37 -94 -60.5t-137 -23.5q-96 0 -167.5 37.5t-109 103t-37.5 146.5q0 79 36 144.5t102 104t154 38.5t153.5 -39t100.5 -105t35 -146q0 -25 -4 -44zM229 415.5q-43 -33.5 -57 -92.5h323
q-11 57 -54 91.5t-107 34.5q-62 0 -105 -33.5zM168 729h332v-98h-332v98zM375 787h-119l113 168h147v-10z" />
    <glyph glyph-name="uni1E1C" unicode="&#x1e1c;" 
d="M678 0h-590v720h580l-19 -116h-428v-171h295v-118h-295v-199h438zM486.5 -59q31.5 -26 31.5 -63q0 -43 -41 -69t-110 -26q-88 0 -148 35l33 55q34 -17 57.5 -23t52.5 -6q28 0 42.5 9t14.5 25q0 15 -15 24.5t-43 9.5q-26 0 -54 -7l-21 14l73 101h80l-49 -54q4 1 13 1
q52 0 83.5 -26zM246.5 821q-48.5 46 -48.5 125h91q1 -36 24.5 -57t57.5 -21t57.5 21t24.5 57h92q0 -79 -49 -125t-125 -46t-124.5 46z" />
    <glyph glyph-name="uni1E1D" unicode="&#x1e1d;" horiz-adv-x="656" 
d="M619 227h-447q14 -61 62.5 -95t122.5 -34q50 0 87.5 15t71.5 45l71 -87q-35 -37 -94 -60.5t-137 -23.5q-96 0 -167.5 37.5t-109 103t-37.5 146.5q0 79 36 144.5t102 104t154 38.5t153.5 -39t100.5 -105t35 -146q0 -25 -4 -44zM229 415.5q-43 -33.5 -57 -92.5h323
q-11 57 -54 91.5t-107 34.5q-62 0 -105 -33.5zM450.5 -59q31.5 -26 31.5 -63q0 -43 -41 -69t-110 -26q-88 0 -148 35l33 55q34 -17 57.5 -23t52.5 -6q28 0 42.5 9t14.5 25q0 15 -15 24.5t-43 9.5q-26 0 -54 -7l-21 14l73 101h80l-49 -54q4 1 13 1q52 0 83.5 -26zM209.5 649
q-48.5 46 -48.5 125h91q1 -36 24.5 -57t57.5 -21t57.5 21t24.5 57h92q0 -79 -49 -125t-125 -46t-124.5 46z" />
    <glyph glyph-name="uni1E20" unicode="&#x1e20;" horiz-adv-x="824" 
d="M758 73q-113 -86 -298 -86q-119 0 -213.5 47.5t-147 132t-52.5 191.5q0 108 52 193.5t143.5 133.5t205.5 48q91 0 166 -26.5t124 -72.5l-77 -97q-40 35 -93.5 55t-119.5 20q-73 0 -133 -32t-95 -89.5t-35 -130.5t35.5 -130.5t99 -89.5t144.5 -32q50 0 88 8t75 26v157
h-207v116h338v-342zM268 901h332v-98h-332v98z" />
    <glyph glyph-name="uni1E21" unicode="&#x1e21;" horiz-adv-x="688" 
d="M620 548v-494q0 -74 -37.5 -129t-106 -85t-158.5 -30q-66 0 -126.5 14t-108.5 37l44 105q96 -46 190 -46q81 0 129 36.5t48 100.5v43q-68 -73 -180 -73q-81 0 -144 34.5t-98 95t-35 135.5t35 136.5t98 97t144 35.5q116 0 185 -82v69h121zM448 180q47 42 47 112t-47 113
t-119 43q-71 0 -117.5 -43.5t-46.5 -112.5t46.5 -111.5t117.5 -42.5q72 0 119 42zM177 729h332v-98h-332v98z" />
    <glyph glyph-name="uni1E24" unicode="&#x1e24;" horiz-adv-x="844" 
d="M756 720v-720h-133v328h-402v-328h-133v720h133v-273h402v273h133zM366 -188q-22 21 -22 54q0 32 22 53t56 21t56 -21t22 -53q0 -33 -22 -54t-56 -21t-56 21z" />
    <glyph glyph-name="uni1E25" unicode="&#x1e25;" horiz-adv-x="674" 
d="M497 535q51 -26 79.5 -74t28.5 -112v-349h-127v322q0 56 -32.5 88t-93.5 32q-65 0 -105.5 -34.5t-40.5 -89.5v-318h-128v752h128v-262q33 37 78.5 54t95.5 17q66 0 117 -26zM281 -188q-22 21 -22 54q0 32 22 53t56 21t56 -21t22 -53q0 -33 -22 -54t-56 -21t-56 21z" />
    <glyph glyph-name="uni1E2A" unicode="&#x1e2a;" horiz-adv-x="844" 
d="M756 720v-720h-133v328h-402v-328h-133v720h133v-273h402v273h133zM296.5 -172q-48.5 46 -48.5 125h91q1 -36 24.5 -57t57.5 -21t57.5 21t24.5 57h92q0 -79 -49 -125t-125 -46t-124.5 46z" />
    <glyph glyph-name="uni1E2B" unicode="&#x1e2b;" horiz-adv-x="674" 
d="M497 535q51 -26 79.5 -74t28.5 -112v-349h-127v322q0 56 -32.5 88t-93.5 32q-65 0 -105.5 -34.5t-40.5 -89.5v-318h-128v752h128v-262q33 37 78.5 54t95.5 17q66 0 117 -26zM211.5 -172q-48.5 46 -48.5 125h91q1 -36 24.5 -57t57.5 -21t57.5 21t24.5 57h92
q0 -79 -49 -125t-125 -46t-124.5 46z" />
    <glyph glyph-name="uni1E2E" unicode="&#x1e2e;" horiz-adv-x="321" 
d="M202 992h-119l113 168h147v-10zM0.5 809q-21.5 20 -21.5 52q0 31 21.5 51.5t54.5 20.5q32 0 54 -20.5t22 -51.5q0 -32 -21.5 -52t-54.5 -20t-54.5 20zM212 809q-22 20 -22 52q0 31 22 51.5t55 20.5q32 0 54 -20.5t22 -51.5q0 -32 -21.5 -52t-54.5 -20t-55 20zM227 720
v-720h-133v720h133z" />
    <glyph glyph-name="uni1E2F" unicode="&#x1e2f;" horiz-adv-x="286" 
d="M186 820h-119l113 168h147v-10zM-15.5 637q-21.5 20 -21.5 52q0 31 21.5 51.5t54.5 20.5q32 0 54 -20.5t22 -51.5q0 -32 -21.5 -52t-54.5 -20t-54.5 20zM196 637q-22 20 -22 52q0 31 22 51.5t55 20.5q32 0 54 -20.5t22 -51.5q0 -32 -21.5 -52t-54.5 -20t-55 20zM81 548
h128v-548h-128v548z" />
    <glyph glyph-name="uni1E36" unicode="&#x1e36;" horiz-adv-x="671" 
d="M639 119v-119h-551v720h133v-601h418zM308 -188q-22 21 -22 54q0 32 22 53t56 21t56 -21t22 -53q0 -33 -22 -54t-56 -21t-56 21z" />
    <glyph glyph-name="uni1E37" unicode="&#x1e37;" horiz-adv-x="322" 
d="M209 752v-597q0 -47 49 -47q23 0 45 9v-112q-32 -13 -74 -13q-67 0 -107.5 36.5t-40.5 99.5v624h128zM135 -188q-22 21 -22 54q0 32 22 53t56 21t56 -21t22 -53q0 -33 -22 -54t-56 -21t-56 21z" />
    <glyph glyph-name="uni1E3A" unicode="&#x1e3a;" horiz-adv-x="671" 
d="M639 119v-119h-551v720h133v-601h418zM198 -85h332v-98h-332v98z" />
    <glyph glyph-name="uni1E3B" unicode="&#x1e3b;" horiz-adv-x="322" 
d="M209 752v-597q0 -47 49 -47q23 0 45 9v-112q-32 -13 -74 -13q-67 0 -107.5 36.5t-40.5 99.5v624h128zM41.6182 -85h298.788v-98h-298.788v98z" />
    <glyph glyph-name="uni1E42" unicode="&#x1e42;" horiz-adv-x="1007" 
d="M919 0h-129v560l-243 -548h-90l-240 534v-546h-129v720h179l238 -531l235 531h179v-720zM448 -188q-22 21 -22 54q0 32 22 53t56 21t56 -21t22 -53q0 -33 -22 -54t-56 -21t-56 21z" />
    <glyph glyph-name="uni1E43" unicode="&#x1e43;" horiz-adv-x="1029" 
d="M855 535q50 -26 78 -74.5t28 -111.5v-349h-127v323q0 56 -31 88t-85 32q-57 0 -96 -34.5t-39 -89.5v-319h-127v323q0 56 -31 88t-84 32q-57 0 -96 -34.5t-39 -89.5v-319h-128v548h121v-62q33 40 78.5 57.5t92.5 17.5q56 0 102.5 -23.5t74.5 -65.5q36 46 88.5 67.5
t107.5 21.5q62 0 112 -26zM464 -188q-22 21 -22 54q0 32 22 53t56 21t56 -21t22 -53q0 -33 -22 -54t-56 -21t-56 21z" />
    <glyph glyph-name="uni1E44" unicode="&#x1e44;" horiz-adv-x="825" 
d="M737 720v-720h-136l-384 532v-532h-129v720h139l380 -525v525h130zM357 807q-22 21 -22 54q0 32 22 53t56 21t56 -21t22 -53q0 -33 -22 -54t-56 -21t-56 21z" />
    <glyph glyph-name="uni1E45" unicode="&#x1e45;" horiz-adv-x="674" 
d="M497 535q51 -26 79.5 -74t28.5 -112v-349h-127v323q0 57 -32.5 88t-93.5 31q-65 0 -105.5 -34t-40.5 -89v-319h-128v548h121v-62q32 39 80.5 57t100.5 18q66 0 117 -26zM287 635q-22 21 -22 54q0 32 22 53t56 21t56 -21t22 -53q0 -33 -22 -54t-56 -21t-56 21z" />
    <glyph glyph-name="uni1E46" unicode="&#x1e46;" horiz-adv-x="825" 
d="M737 720v-720h-136l-384 532v-532h-129v720h139l380 -525v525h130zM357 -188q-22 21 -22 54q0 32 22 53t56 21t56 -21t22 -53q0 -33 -22 -54t-56 -21t-56 21z" />
    <glyph glyph-name="uni1E47" unicode="&#x1e47;" horiz-adv-x="674" 
d="M497 535q51 -26 79.5 -74t28.5 -112v-349h-127v323q0 57 -32.5 88t-93.5 31q-65 0 -105.5 -34t-40.5 -89v-319h-128v548h121v-62q32 39 80.5 57t100.5 18q66 0 117 -26zM288 -188q-22 21 -22 54q0 32 22 53t56 21t56 -21t22 -53q0 -33 -22 -54t-56 -21t-56 21z" />
    <glyph glyph-name="uni1E48" unicode="&#x1e48;" horiz-adv-x="825" 
d="M737 720v-720h-136l-384 532v-532h-129v720h139l380 -525v525h130zM247 -85h332v-98h-332v98z" />
    <glyph glyph-name="uni1E49" unicode="&#x1e49;" horiz-adv-x="674" 
d="M497 535q51 -26 79.5 -74t28.5 -112v-349h-127v323q0 57 -32.5 88t-93.5 31q-65 0 -105.5 -34t-40.5 -89v-319h-128v548h121v-62q32 39 80.5 57t100.5 18q66 0 117 -26zM178 -85h332v-98h-332v98z" />
    <glyph glyph-name="uni1E4C" unicode="&#x1e4c;" horiz-adv-x="859" 
d="M232 34.5q-87 47.5 -136 132.5t-49 193t49 193t136 132.5t197 47.5t197 -47.5t136 -132.5t49 -193t-49 -193t-136 -132.5t-197 -47.5t-197 47.5zM555.5 140q55.5 32 86.5 89.5t31 130.5t-31 130.5t-86.5 89.5t-126.5 32q-70 0 -125.5 -32t-87 -89.5t-31.5 -130.5
t31.5 -130.5t87 -89.5t125.5 -32q71 0 126.5 32zM448.5 792q-23.5 12 -50.5 34q-17 13 -27 19t-20 6q-17 0 -26 -15.5t-11 -48.5h-96q2 72 35.5 114.5t95.5 42.5q34 0 58.5 -12.5t50.5 -34.5q16 -13 25.5 -19t19.5 -6q36 0 39 65h96q-2 -73 -35.5 -115t-96.5 -42
q-34 0 -57.5 12zM470 995h-119l113 168h147v-10z" />
    <glyph glyph-name="uni1E4D" unicode="&#x1e4d;" horiz-adv-x="679" 
d="M183.5 25q-68.5 38 -106 103.5t-37.5 145.5t37.5 145.5t106 103.5t156.5 38t156.5 -38t106 -103.5t37.5 -145.5t-37.5 -145.5t-106 -103.5t-156.5 -38t-156.5 38zM426 125q39 22 62 61t23 88t-23 88t-62 61t-86 22q-48 0 -87 -22t-62 -61t-23 -88t23 -88t62 -61t87 -22
q47 0 86 22zM359.5 620q-23.5 12 -50.5 34q-17 13 -27 19t-20 6q-17 0 -26 -15.5t-11 -48.5h-96q2 72 35.5 114.5t95.5 42.5q34 0 58.5 -12.5t50.5 -34.5q16 -13 25.5 -19t19.5 -6q36 0 39 65h96q-2 -73 -35.5 -115t-96.5 -42q-34 0 -57.5 12zM381 823h-119l113 168h147v-10
z" />
    <glyph glyph-name="uni1E4E" unicode="&#x1e4e;" horiz-adv-x="859" 
d="M232 34.5q-87 47.5 -136 132.5t-49 193t49 193t136 132.5t197 47.5t197 -47.5t136 -132.5t49 -193t-49 -193t-136 -132.5t-197 -47.5t-197 47.5zM555.5 140q55.5 32 86.5 89.5t31 130.5t-31 130.5t-86.5 89.5t-126.5 32q-70 0 -125.5 -32t-87 -89.5t-31.5 -130.5
t31.5 -130.5t87 -89.5t125.5 -32q71 0 126.5 32zM448.5 792q-23.5 12 -50.5 34q-17 13 -27 19t-20 6q-17 0 -26 -15.5t-11 -48.5h-96q2 72 35.5 114.5t95.5 42.5q34 0 58.5 -12.5t50.5 -34.5q16 -13 25.5 -19t19.5 -6q36 0 39 65h96q-2 -73 -35.5 -115t-96.5 -42
q-34 0 -57.5 12zM257 1026q-22 20 -22 52q0 31 22 51.5t55 20.5q32 0 54 -20.5t22 -51.5q0 -32 -21.5 -52t-54.5 -20t-55 20zM491 1026q-22 20 -22 52q0 31 22 51.5t55 20.5q32 0 54 -20.5t22 -51.5q0 -32 -21.5 -52t-54.5 -20t-55 20z" />
    <glyph glyph-name="uni1E4F" unicode="&#x1e4f;" horiz-adv-x="679" 
d="M183.5 25q-68.5 38 -106 103.5t-37.5 145.5t37.5 145.5t106 103.5t156.5 38t156.5 -38t106 -103.5t37.5 -145.5t-37.5 -145.5t-106 -103.5t-156.5 -38t-156.5 38zM426 125q39 22 62 61t23 88t-23 88t-62 61t-86 22q-48 0 -87 -22t-62 -61t-23 -88t23 -88t62 -61t87 -22
q47 0 86 22zM359.5 620q-23.5 12 -50.5 34q-17 13 -27 19t-20 6q-17 0 -26 -15.5t-11 -48.5h-96q2 72 35.5 114.5t95.5 42.5q34 0 58.5 -12.5t50.5 -34.5q16 -13 25.5 -19t19.5 -6q36 0 39 65h96q-2 -73 -35.5 -115t-96.5 -42q-34 0 -57.5 12zM168 854q-22 20 -22 52
q0 31 22 51.5t55 20.5q32 0 54 -20.5t22 -51.5q0 -32 -21.5 -52t-54.5 -20t-55 20zM402 854q-22 20 -22 52q0 31 22 51.5t55 20.5q32 0 54 -20.5t22 -51.5q0 -32 -21.5 -52t-54.5 -20t-55 20z" />
    <glyph glyph-name="uni1E50" unicode="&#x1e50;" horiz-adv-x="859" 
d="M232 34.5q-87 47.5 -136 132.5t-49 193t49 193t136 132.5t197 47.5t197 -47.5t136 -132.5t49 -193t-49 -193t-136 -132.5t-197 -47.5t-197 47.5zM555.5 140q55.5 32 86.5 89.5t31 130.5t-31 130.5t-86.5 89.5t-126.5 32q-70 0 -125.5 -32t-87 -89.5t-31.5 -130.5
t31.5 -130.5t87 -89.5t125.5 -32q71 0 126.5 32zM263 901h332v-98h-332v98zM393 1125l103 -164h-118l-132 154v10h147z" />
    <glyph glyph-name="uni1E51" unicode="&#x1e51;" horiz-adv-x="679" 
d="M183.5 25q-68.5 38 -106 103.5t-37.5 145.5t37.5 145.5t106 103.5t156.5 38t156.5 -38t106 -103.5t37.5 -145.5t-37.5 -145.5t-106 -103.5t-156.5 -38t-156.5 38zM426 125q39 22 62 61t23 88t-23 88t-62 61t-86 22q-48 0 -87 -22t-62 -61t-23 -88t23 -88t62 -61t87 -22
q47 0 86 22zM174 729h332v-98h-332v98zM304 953l103 -164h-118l-132 154v10h147z" />
    <glyph glyph-name="uni1E52" unicode="&#x1e52;" horiz-adv-x="859" 
d="M232 34.5q-87 47.5 -136 132.5t-49 193t49 193t136 132.5t197 47.5t197 -47.5t136 -132.5t49 -193t-49 -193t-136 -132.5t-197 -47.5t-197 47.5zM555.5 140q55.5 32 86.5 89.5t31 130.5t-31 130.5t-86.5 89.5t-126.5 32q-70 0 -125.5 -32t-87 -89.5t-31.5 -130.5
t31.5 -130.5t87 -89.5t125.5 -32q71 0 126.5 32zM263 901h332v-98h-332v98zM470 959h-119l113 168h147v-10z" />
    <glyph glyph-name="uni1E53" unicode="&#x1e53;" horiz-adv-x="679" 
d="M183.5 25q-68.5 38 -106 103.5t-37.5 145.5t37.5 145.5t106 103.5t156.5 38t156.5 -38t106 -103.5t37.5 -145.5t-37.5 -145.5t-106 -103.5t-156.5 -38t-156.5 38zM426 125q39 22 62 61t23 88t-23 88t-62 61t-86 22q-48 0 -87 -22t-62 -61t-23 -88t23 -88t62 -61t87 -22
q47 0 86 22zM174 729h332v-98h-332v98zM381 787h-119l113 168h147v-10z" />
    <glyph glyph-name="uni1E5A" unicode="&#x1e5a;" horiz-adv-x="773" 
d="M407 288h-188v-288h-131v720h391q69 0 120 -28.5t78 -78t27 -109.5q0 -74 -41 -130.5t-113 -76.5l203 -297h-155zM219 405h238q53 0 83 27t30 72t-30 71.5t-83 26.5h-238v-197zM319 -188q-22 21 -22 54q0 32 22 53t56 21t56 -21t22 -53q0 -33 -22 -54t-56 -21t-56 21z
" />
    <glyph glyph-name="uni1E5B" unicode="&#x1e5b;" horiz-adv-x="452" 
d="M431 550v-118q-29 5 -57 5q-75 0 -121.5 -37t-46.5 -112v-288h-128v548h121v-77q29 44 77.5 64.5t100.5 20.5q28 0 54 -6zM81 -188q-22 21 -22 54q0 32 22 53t56 21t56 -21t22 -53q0 -33 -22 -54t-56 -21t-56 21z" />
    <glyph glyph-name="uni1E5E" unicode="&#x1e5e;" horiz-adv-x="773" 
d="M407 288h-188v-288h-131v720h391q69 0 120 -28.5t78 -78t27 -109.5q0 -74 -41 -130.5t-113 -76.5l203 -297h-155zM219 405h238q53 0 83 27t30 72t-30 71.5t-83 26.5h-238v-197zM209 -85h332v-98h-332v98z" />
    <glyph glyph-name="uni1E5F" unicode="&#x1e5f;" horiz-adv-x="452" 
d="M431 550v-118q-29 5 -57 5q-75 0 -121.5 -37t-46.5 -112v-288h-128v548h121v-77q29 44 77.5 64.5t100.5 20.5q28 0 54 -6zM-12.3818 -85h298.788v-98h-298.788v98z" />
    <glyph glyph-name="uni1E60" unicode="&#x1e60;" 
d="M177.5 19q-88.5 29 -144.5 80l82 101q53 -46 116.5 -69t131.5 -23q72 0 117 28t45 72q0 32 -27.5 54t-90.5 34l-152 29q-98 19 -147.5 68t-49.5 122q0 66 39 115t107.5 75.5t155.5 26.5q80 0 155.5 -23.5t131.5 -74.5l-77 -97q-48 39 -103 58.5t-112 19.5
q-69 0 -115 -25.5t-46 -64.5q0 -27 25.5 -46t88.5 -31l144 -27q104 -20 157 -74.5t53 -130.5q0 -67 -36.5 -118.5t-103.5 -79.5t-156 -28q-100 0 -188.5 29zM297 808q-22 21 -22 54q0 32 22 53t56 21t56 -21t22 -53q0 -33 -22 -54t-56 -21t-56 21z" />
    <glyph glyph-name="uni1E61" unicode="&#x1e61;" horiz-adv-x="582" 
d="M188 114.5q56 -19.5 113 -19.5q56 0 86.5 18t30.5 46q0 37 -61 47l-139 24q-87 14 -128.5 54.5t-41.5 100.5q0 52 29.5 91.5t85 61.5t130.5 22q64 0 128 -17t117 -56l-64 -91q-35 25 -84.5 41.5t-98.5 16.5q-50 0 -82 -16.5t-32 -43.5q0 -18 18.5 -29t58.5 -18l126 -21
q85 -15 126.5 -55t41.5 -101q0 -54 -30.5 -95.5t-86.5 -64t-130 -22.5t-149.5 22t-122.5 60l63 95q40 -31 96 -50.5zM242 635q-22 21 -22 54q0 32 22 53t56 21t56 -21t22 -53q0 -33 -22 -54t-56 -21t-56 21z" />
    <glyph glyph-name="uni1E62" unicode="&#x1e62;" 
d="M177.5 19q-88.5 29 -144.5 80l82 101q53 -46 116.5 -69t131.5 -23q72 0 117 28t45 72q0 32 -27.5 54t-90.5 34l-152 29q-98 19 -147.5 68t-49.5 122q0 66 39 115t107.5 75.5t155.5 26.5q80 0 155.5 -23.5t131.5 -74.5l-77 -97q-48 39 -103 58.5t-112 19.5
q-69 0 -115 -25.5t-46 -64.5q0 -27 25.5 -46t88.5 -31l144 -27q104 -20 157 -74.5t53 -130.5q0 -67 -36.5 -118.5t-103.5 -79.5t-156 -28q-100 0 -188.5 29zM297 -187q-22 21 -22 54q0 32 22 53t56 21t56 -21t22 -53q0 -33 -22 -54t-56 -21t-56 21z" />
    <glyph glyph-name="uni1E63" unicode="&#x1e63;" horiz-adv-x="582" 
d="M188 114.5q56 -19.5 113 -19.5q56 0 86.5 18t30.5 46q0 37 -61 47l-139 24q-87 14 -128.5 54.5t-41.5 100.5q0 52 29.5 91.5t85 61.5t130.5 22q64 0 128 -17t117 -56l-64 -91q-35 25 -84.5 41.5t-98.5 16.5q-50 0 -82 -16.5t-32 -43.5q0 -18 18.5 -29t58.5 -18l126 -21
q85 -15 126.5 -55t41.5 -101q0 -54 -30.5 -95.5t-86.5 -64t-130 -22.5t-149.5 22t-122.5 60l63 95q40 -31 96 -50.5zM242 -188q-22 21 -22 54q0 32 22 53t56 21t56 -21t22 -53q0 -33 -22 -54t-56 -21t-56 21z" />
    <glyph glyph-name="uni1E64" unicode="&#x1e64;" 
d="M177.5 19q-88.5 29 -144.5 80l82 101q53 -46 116.5 -69t131.5 -23q72 0 117 28t45 72q0 32 -27.5 54t-90.5 34l-152 29q-98 19 -147.5 68t-49.5 122q0 66 39 115t107.5 75.5t155.5 26.5q80 0 155.5 -23.5t131.5 -74.5l-77 -97q-48 39 -103 58.5t-112 19.5
q-69 0 -115 -25.5t-46 -64.5q0 -27 25.5 -46t88.5 -31l144 -27q104 -20 157 -74.5t53 -130.5q0 -67 -36.5 -118.5t-103.5 -79.5t-156 -28q-100 0 -188.5 29zM420 778h-119l113 168h147v-10zM202 931q-22 21 -22 54q0 32 22 53t56 21t56 -21t22 -53q0 -33 -22 -54t-56 -21
t-56 21z" />
    <glyph glyph-name="uni1E65" unicode="&#x1e65;" horiz-adv-x="582" 
d="M188 114.5q56 -19.5 113 -19.5q56 0 86.5 18t30.5 46q0 37 -61 47l-139 24q-87 14 -128.5 54.5t-41.5 100.5q0 52 29.5 91.5t85 61.5t130.5 22q64 0 128 -17t117 -56l-64 -91q-35 25 -84.5 41.5t-98.5 16.5q-50 0 -82 -16.5t-32 -43.5q0 -18 18.5 -29t58.5 -18l126 -21
q85 -15 126.5 -55t41.5 -101q0 -54 -30.5 -95.5t-86.5 -64t-130 -22.5t-149.5 22t-122.5 60l63 95q40 -31 96 -50.5zM350 606h-119l113 168h147v-10zM139 759q-22 21 -22 54q0 32 22 53t56 21t56 -21t22 -53q0 -33 -22 -54t-56 -21t-56 21z" />
    <glyph glyph-name="uni1E66" unicode="&#x1e66;" 
d="M177.5 19q-88.5 29 -144.5 80l82 101q53 -46 116.5 -69t131.5 -23q72 0 117 28t45 72q0 32 -27.5 54t-90.5 34l-152 29q-98 19 -147.5 68t-49.5 122q0 66 39 115t107.5 75.5t155.5 26.5q80 0 155.5 -23.5t131.5 -74.5l-77 -97q-48 39 -103 58.5t-112 19.5
q-69 0 -115 -25.5t-46 -64.5q0 -27 25.5 -46t88.5 -31l144 -27q104 -20 157 -74.5t53 -130.5q0 -67 -36.5 -118.5t-103.5 -79.5t-156 -28q-100 0 -188.5 29zM539 947l-119 -162h-135l-119 162h111l76 -84l75 84h111zM297 1009q-22 21 -22 54q0 32 22 53t56 21t56 -21t22 -53
q0 -33 -22 -54t-56 -21t-56 21z" />
    <glyph glyph-name="uni1E67" unicode="&#x1e67;" horiz-adv-x="582" 
d="M188 114.5q56 -19.5 113 -19.5q56 0 86.5 18t30.5 46q0 37 -61 47l-139 24q-87 14 -128.5 54.5t-41.5 100.5q0 52 29.5 91.5t85 61.5t130.5 22q64 0 128 -17t117 -56l-64 -91q-35 25 -84.5 41.5t-98.5 16.5q-50 0 -82 -16.5t-32 -43.5q0 -18 18.5 -29t58.5 -18l126 -21
q85 -15 126.5 -55t41.5 -101q0 -54 -30.5 -95.5t-86.5 -64t-130 -22.5t-149.5 22t-122.5 60l63 95q40 -31 96 -50.5zM484 774l-119 -162h-135l-119 162h111l76 -84l75 84h111zM242 836q-22 21 -22 54q0 32 22 53t56 21t56 -21t22 -53q0 -33 -22 -54t-56 -21t-56 21z" />
    <glyph glyph-name="uni1E68" unicode="&#x1e68;" 
d="M177.5 19q-88.5 29 -144.5 80l82 101q53 -46 116.5 -69t131.5 -23q72 0 117 28t45 72q0 32 -27.5 54t-90.5 34l-152 29q-98 19 -147.5 68t-49.5 122q0 66 39 115t107.5 75.5t155.5 26.5q80 0 155.5 -23.5t131.5 -74.5l-77 -97q-48 39 -103 58.5t-112 19.5
q-69 0 -115 -25.5t-46 -64.5q0 -27 25.5 -46t88.5 -31l144 -27q104 -20 157 -74.5t53 -130.5q0 -67 -36.5 -118.5t-103.5 -79.5t-156 -28q-100 0 -188.5 29zM297 -187q-22 21 -22 54q0 32 22 53t56 21t56 -21t22 -53q0 -33 -22 -54t-56 -21t-56 21zM297 808q-22 21 -22 54
q0 32 22 53t56 21t56 -21t22 -53q0 -33 -22 -54t-56 -21t-56 21z" />
    <glyph glyph-name="uni1E69" unicode="&#x1e69;" horiz-adv-x="582" 
d="M188 114.5q56 -19.5 113 -19.5q56 0 86.5 18t30.5 46q0 37 -61 47l-139 24q-87 14 -128.5 54.5t-41.5 100.5q0 52 29.5 91.5t85 61.5t130.5 22q64 0 128 -17t117 -56l-64 -91q-35 25 -84.5 41.5t-98.5 16.5q-50 0 -82 -16.5t-32 -43.5q0 -18 18.5 -29t58.5 -18l126 -21
q85 -15 126.5 -55t41.5 -101q0 -54 -30.5 -95.5t-86.5 -64t-130 -22.5t-149.5 22t-122.5 60l63 95q40 -31 96 -50.5zM242 -188q-22 21 -22 54q0 32 22 53t56 21t56 -21t22 -53q0 -33 -22 -54t-56 -21t-56 21zM242 635q-22 21 -22 54q0 32 22 53t56 21t56 -21t22 -53
q0 -33 -22 -54t-56 -21t-56 21z" />
    <glyph glyph-name="uni1E6C" unicode="&#x1e6c;" horiz-adv-x="686" 
d="M656 600h-246v-600h-133v600h-246v120h625v-120zM287 -188q-22 21 -22 54q0 32 22 53t56 21t56 -21t22 -53q0 -33 -22 -54t-56 -21t-56 21z" />
    <glyph glyph-name="uni1E6D" unicode="&#x1e6d;" horiz-adv-x="451" 
d="M419 125v-113q-38 -20 -103 -20q-104 0 -156 50t-52 137v261h-93v108h94v120l126 59v-179h179v-108h-179v-244q0 -45 26.5 -66.5t70.5 -21.5t87 17zM185 -188q-22 21 -22 54q0 32 22 53t56 21t56 -21t22 -53q0 -33 -22 -54t-56 -21t-56 21z" />
    <glyph glyph-name="uni1E6E" unicode="&#x1e6e;" horiz-adv-x="686" 
d="M656 600h-246v-600h-133v600h-246v120h625v-120zM177 -85h332v-98h-332v98z" />
    <glyph glyph-name="uni1E6F" unicode="&#x1e6f;" horiz-adv-x="451" 
d="M419 125v-113q-38 -20 -103 -20q-104 0 -156 50t-52 137v261h-93v108h94v120l126 59v-179h179v-108h-179v-244q0 -45 26.5 -66.5t70.5 -21.5t87 17zM75 -85h332v-98h-332v98z" />
    <glyph glyph-name="uni1E78" unicode="&#x1e78;" horiz-adv-x="781" 
d="M223.5 21q-71.5 34 -110.5 97.5t-39 149.5v452h133v-437q0 -83 48.5 -129t135.5 -46q86 0 134.5 46t48.5 129v437h133v-452q0 -86 -38.5 -149.5t-110 -97.5t-167.5 -34t-167.5 34zM410.5 792q-23.5 12 -50.5 34q-17 13 -27 19t-20 6q-17 0 -26 -15.5t-11 -48.5h-96
q2 72 35.5 114.5t95.5 42.5q34 0 58.5 -12.5t50.5 -34.5q16 -13 25.5 -19t19.5 -6q36 0 39 65h96q-2 -73 -35.5 -115t-96.5 -42q-34 0 -57.5 12zM432 995h-119l113 168h147v-10z" />
    <glyph glyph-name="uni1E79" unicode="&#x1e79;" horiz-adv-x="671" 
d="M592 548v-548h-121v61q-33 -39 -80.5 -56.5t-98.5 -17.5q-65 0 -116 26t-79.5 74t-28.5 111v350h128v-323q0 -57 32.5 -88t92.5 -31q63 0 103.5 34t40.5 89v319h127zM350.5 620q-23.5 12 -50.5 34q-17 13 -27 19t-20 6q-17 0 -26 -15.5t-11 -48.5h-96q2 72 35.5 114.5
t95.5 42.5q34 0 58.5 -12.5t50.5 -34.5q16 -13 25.5 -19t19.5 -6q36 0 39 65h96q-2 -73 -35.5 -115t-96.5 -42q-34 0 -57.5 12zM372 823h-119l113 168h147v-10z" />
    <glyph glyph-name="uni1E7A" unicode="&#x1e7a;" horiz-adv-x="781" 
d="M223.5 21q-71.5 34 -110.5 97.5t-39 149.5v452h133v-437q0 -83 48.5 -129t135.5 -46q86 0 134.5 46t48.5 129v437h133v-452q0 -86 -38.5 -149.5t-110 -97.5t-167.5 -34t-167.5 34zM225 901h332v-98h-332v98zM219 990q-22 20 -22 52q0 31 22 51.5t55 20.5q32 0 54 -20.5
t22 -51.5q0 -32 -21.5 -52t-54.5 -20t-55 20zM453 990q-22 20 -22 52q0 31 22 51.5t55 20.5q32 0 54 -20.5t22 -51.5q0 -32 -21.5 -52t-54.5 -20t-55 20z" />
    <glyph glyph-name="uni1E7B" unicode="&#x1e7b;" horiz-adv-x="671" 
d="M592 548v-548h-121v61q-33 -39 -80.5 -56.5t-98.5 -17.5q-65 0 -116 26t-79.5 74t-28.5 111v350h128v-323q0 -57 32.5 -88t92.5 -31q63 0 103.5 34t40.5 89v319h127zM165 729h332v-98h-332v98zM159 818q-22 20 -22 52q0 31 22 51.5t55 20.5q32 0 54 -20.5t22 -51.5
q0 -32 -21.5 -52t-54.5 -20t-55 20zM393 818q-22 20 -22 52q0 31 22 51.5t55 20.5q32 0 54 -20.5t22 -51.5q0 -32 -21.5 -52t-54.5 -20t-55 20z" />
    <glyph glyph-name="Wgrave" unicode="&#x1e80;" horiz-adv-x="1147" 
d="M1123 720l-240 -720h-161l-149 527l-148 -527h-161l-240 720h141l182 -578l160 575h137l161 -573l181 576h137zM537 944l103 -164h-118l-132 154v10h147z" />
    <glyph glyph-name="wgrave" unicode="&#x1e81;" horiz-adv-x="983" 
d="M972 548l-202 -548h-148l-128 385l-130 -385h-149l-203 548h136l144 -425l141 421h124l140 -419l144 423h131zM457 772l103 -164h-118l-132 154v10h147z" />
    <glyph glyph-name="Wacute" unicode="&#x1e82;" horiz-adv-x="1147" 
d="M1123 720l-240 -720h-161l-149 527l-148 -527h-161l-240 720h141l182 -578l160 575h137l161 -573l181 576h137zM614 778h-119l113 168h147v-10z" />
    <glyph glyph-name="wacute" unicode="&#x1e83;" horiz-adv-x="983" 
d="M972 548l-202 -548h-148l-128 385l-130 -385h-149l-203 548h136l144 -425l141 421h124l140 -419l144 423h131zM534 606h-119l113 168h147v-10z" />
    <glyph glyph-name="Wdieresis" unicode="&#x1e84;" horiz-adv-x="1147" 
d="M1123 720l-240 -720h-161l-149 527l-148 -527h-161l-240 720h141l182 -578l160 575h137l161 -573l181 576h137zM401 809q-22 20 -22 52q0 31 22 51.5t55 20.5q32 0 54 -20.5t22 -51.5q0 -32 -21.5 -52t-54.5 -20t-55 20zM635 809q-22 20 -22 52q0 31 22 51.5t55 20.5
q32 0 54 -20.5t22 -51.5q0 -32 -21.5 -52t-54.5 -20t-55 20z" />
    <glyph glyph-name="wdieresis" unicode="&#x1e85;" horiz-adv-x="983" 
d="M972 548l-202 -548h-148l-128 385l-130 -385h-149l-203 548h136l144 -425l141 421h124l140 -419l144 423h131zM321 637q-22 20 -22 52q0 31 22 51.5t55 20.5q32 0 54 -20.5t22 -51.5q0 -32 -21.5 -52t-54.5 -20t-55 20zM555 637q-22 20 -22 52q0 31 22 51.5t55 20.5
q32 0 54 -20.5t22 -51.5q0 -32 -21.5 -52t-54.5 -20t-55 20z" />
    <glyph glyph-name="uni1E8E" unicode="&#x1e8e;" horiz-adv-x="724" 
d="M430 244v-244h-133v241l-292 479h151l209 -357l206 357h147zM304 807q-22 21 -22 54q0 32 22 53t56 21t56 -21t22 -53q0 -33 -22 -54t-56 -21t-56 21z" />
    <glyph glyph-name="uni1E8F" unicode="&#x1e8f;" horiz-adv-x="622" 
d="M618 548l-268 -606q-28 -64 -77.5 -98t-114.5 -34q-32 0 -69 8t-66 23l35 104q54 -23 95 -23q29 0 53 16t37 46l9 21l-247 543h140l171 -407l167 407h135zM256 635q-22 21 -22 54q0 32 22 53t56 21t56 -21t22 -53q0 -33 -22 -54t-56 -21t-56 21z" />
    <glyph glyph-name="uni1E92" unicode="&#x1e92;" 
d="M658 114v-114h-609v104l425 502h-405v114h573v-105l-424 -501h440zM308 -188q-22 21 -22 54q0 32 22 53t56 21t56 -21t22 -53q0 -33 -22 -54t-56 -21t-56 21z" />
    <glyph glyph-name="uni1E93" unicode="&#x1e93;" horiz-adv-x="569" 
d="M534 107v-107h-490v93l313 349h-298v106h464v-93l-312 -348h323zM237 -188q-22 21 -22 54q0 32 22 53t56 21t56 -21t22 -53q0 -33 -22 -54t-56 -21t-56 21z" />
    <glyph glyph-name="uni1E97" unicode="&#x1e97;" horiz-adv-x="451" 
d="M419 125v-113q-38 -20 -103 -20q-104 0 -156 50t-52 137v261h-93v108h94v120l126 59v-179h179v-108h-179v-244q0 -45 26.5 -66.5t70.5 -21.5t87 17zM47 770q-22 20 -22 52q0 31 22 51.5t55 20.5q32 0 54 -20.5t22 -51.5q0 -32 -21.5 -52t-54.5 -20t-55 20zM281 770
q-22 20 -22 52q0 31 22 51.5t55 20.5q32 0 54 -20.5t22 -51.5q0 -32 -21.5 -52t-54.5 -20t-55 20z" />
    <glyph glyph-name="uni1E9E" unicode="&#x1e9e;" horiz-adv-x="794" 
d="M574.5 251q54.5 -33 54.5 -68q0 -36 -36 -56t-101 -20q-99 0 -192 39v-125q51 -19 98 -26.5t105 -7.5q78 0 137.5 25t92.5 69.5t33 102.5q0 53 -23.5 91.5t-74 70.5t-137.5 66l197 225q-53 42 -134 69t-187 27q-103 0 -178.5 -34.5t-115 -99t-39.5 -151.5v-448h133v442
q0 80 53 125t148 45q72 0 130 -23l-153 -173v-89q135 -43 189.5 -76z" />
    <glyph glyph-name="uni1EA0" unicode="&#x1ea0;" horiz-adv-x="785" 
d="M559 173h-335l-67 -173h-139l293 720h163l293 -720h-141zM515 288l-123 317l-123 -317h246zM336 -188q-22 21 -22 54q0 32 22 53t56 21t56 -21t22 -53q0 -33 -22 -54t-56 -21t-56 21z" />
    <glyph glyph-name="uni1EA1" unicode="&#x1ea1;" horiz-adv-x="647" 
d="M632 106v-101q-19 -9 -50 -9q-47 0 -83 20.5t-48 60.5q-32 -46 -85 -67.5t-116 -21.5q-60 0 -110 19.5t-80 58t-30 93.5q0 84 72 131t215 47h125q-1 53 -38.5 82.5t-100.5 29.5q-41 0 -85.5 -13.5t-82.5 -41.5l-64 94q47 37 110 54.5t128 17.5q120 0 188 -58t68 -162
v-197q0 -21 11.5 -31t30.5 -10q11 0 25 4zM382.5 128q52.5 37 58.5 114h-121q-162 0 -162 -77q0 -34 27.5 -54t77.5 -20q67 0 119.5 37zM265 -188q-22 21 -22 54q0 32 22 53t56 21t56 -21t22 -53q0 -33 -22 -54t-56 -21t-56 21z" />
    <glyph glyph-name="uni1EA2" unicode="&#x1ea2;" horiz-adv-x="785" 
d="M559 173h-335l-67 -173h-139l293 720h163l293 -720h-141zM515 288l-123 317l-123 -317h246zM341 791q0 27 15 48t43 45q19 15 28 26.5t9 22.5q0 15 -13 23t-33 8q-24 0 -38 -12t-15 -32h-89q2 56 41.5 89.5t107.5 33.5q58 0 96 -30t38 -77q0 -26 -13 -46.5t-41 -46.5
q-33 -30 -41.5 -39.5t-8.5 -20.5v-7h-86v15z" />
    <glyph glyph-name="uni1EA3" unicode="&#x1ea3;" horiz-adv-x="647" 
d="M632 106v-101q-19 -9 -50 -9q-47 0 -83 20.5t-48 60.5q-32 -46 -85 -67.5t-116 -21.5q-60 0 -110 19.5t-80 58t-30 93.5q0 84 72 131t215 47h125q-1 53 -38.5 82.5t-100.5 29.5q-41 0 -85.5 -13.5t-82.5 -41.5l-64 94q47 37 110 54.5t128 17.5q120 0 188 -58t68 -162
v-197q0 -21 11.5 -31t30.5 -10q11 0 25 4zM382.5 128q52.5 37 58.5 114h-121q-162 0 -162 -77q0 -34 27.5 -54t77.5 -20q67 0 119.5 37zM264 619q0 27 15 48t43 45q19 15 28 26.5t9 22.5q0 15 -13 23t-33 8q-24 0 -38 -12t-15 -32h-89q2 56 41.5 89.5t107.5 33.5
q58 0 96 -30t38 -77q0 -26 -13 -46.5t-41 -46.5q-33 -30 -41.5 -39.5t-8.5 -20.5v-7h-86v15z" />
    <glyph glyph-name="uni1EA4" unicode="&#x1ea4;" horiz-adv-x="785" 
d="M616 893h-102l90 150h127v-9zM316 784h-111l119 153h135l119 -153h-111l-75 82zM559 173h-335l-67 -173h-139l293 720h163l293 -720h-141zM515 288l-123 317l-123 -317h246z" />
    <glyph glyph-name="uni1EA5" unicode="&#x1ea5;" horiz-adv-x="647" 
d="M654 871v-9l-115 -141h-102l90 150h127zM239 612h-111l119 153h135l119 -153h-111l-75 82zM576.5 112q11.5 -10 30.5 -10q11 0 25 4v-101q-19 -9 -50 -9q-47 0 -83 20.5t-48 60.5q-32 -46 -85 -67.5t-116 -21.5q-60 0 -110 19.5t-80 58t-30 93.5q0 84 72 131t215 47h125
q-1 53 -38.5 82.5t-100.5 29.5q-41 0 -85.5 -13.5t-82.5 -41.5l-64 94q47 37 110 54.5t128 17.5q120 0 188 -58t68 -162v-197q0 -21 11.5 -31zM382.5 128q52.5 37 58.5 114h-121q-162 0 -162 -77q0 -34 27.5 -54t77.5 -20q67 0 119.5 37z" />
    <glyph glyph-name="uni1EA6" unicode="&#x1ea6;" horiz-adv-x="785" 
d="M583 893l-114 141v9h127l90 -150h-103zM316 784h-111l119 153h135l119 -153h-111l-75 82zM559 173h-335l-67 -173h-139l293 720h163l293 -720h-141zM515 288l-123 317l-123 -317h246z" />
    <glyph glyph-name="uni1EA7" unicode="&#x1ea7;" horiz-adv-x="647" 
d="M506 721l-114 141v9h127l90 -150h-103zM239 612h-111l119 153h135l119 -153h-111l-75 82zM632 106v-101q-19 -9 -50 -9q-47 0 -83 20.5t-48 60.5q-32 -46 -85 -67.5t-116 -21.5q-60 0 -110 19.5t-80 58t-30 93.5q0 84 72 131t215 47h125q-1 53 -38.5 82.5t-100.5 29.5
q-41 0 -85.5 -13.5t-82.5 -41.5l-64 94q47 37 110 54.5t128 17.5q120 0 188 -58t68 -162v-197q0 -21 11.5 -31t30.5 -10q11 0 25 4zM382.5 128q52.5 37 58.5 114h-121q-162 0 -162 -77q0 -34 27.5 -54t77.5 -20q67 0 119.5 37z" />
    <glyph glyph-name="uni1EA8" unicode="&#x1ea8;" horiz-adv-x="785" 
d="M552.5 1028q-11.5 -10 -12.5 -29h-80q2 49 36.5 78.5t93.5 29.5q51 0 84.5 -26.5t33.5 -67.5q0 -23 -11 -41.5t-35 -39.5q-29 -26 -36.5 -34.5t-7.5 -18.5v-6h-78v13q0 24 13 42t38 39q31 26 31 43q0 14 -10.5 21t-27.5 7q-20 0 -31.5 -10zM316 784h-111l119 153h135
l119 -153h-111l-75 82zM559 173h-335l-67 -173h-139l293 720h163l293 -720h-141zM515 288l-123 317l-123 -317h246z" />
    <glyph glyph-name="uni1EA9" unicode="&#x1ea9;" horiz-adv-x="647" 
d="M475.5 856q-11.5 -10 -12.5 -29h-80q2 49 36.5 78.5t93.5 29.5q51 0 84.5 -26.5t33.5 -67.5q0 -23 -11 -41.5t-35 -39.5q-29 -26 -36.5 -34.5t-7.5 -18.5v-6h-78v13q0 24 13 42t38 39q31 26 31 43q0 14 -10.5 21t-27.5 7q-20 0 -31.5 -10zM239 612h-111l119 153h135
l119 -153h-111l-75 82zM632 106v-101q-19 -9 -50 -9q-47 0 -83 20.5t-48 60.5q-32 -46 -85 -67.5t-116 -21.5q-60 0 -110 19.5t-80 58t-30 93.5q0 84 72 131t215 47h125q-1 53 -38.5 82.5t-100.5 29.5q-41 0 -85.5 -13.5t-82.5 -41.5l-64 94q47 37 110 54.5t128 17.5
q120 0 188 -58t68 -162v-197q0 -21 11.5 -31t30.5 -10q11 0 25 4zM382.5 128q52.5 37 58.5 114h-121q-162 0 -162 -77q0 -34 27.5 -54t77.5 -20q67 0 119.5 37z" />
    <glyph glyph-name="uni1EAA" unicode="&#x1eaa;" horiz-adv-x="785" 
d="M299.5 1024q-9.5 -17 -11.5 -50h-86q2 72 32 114t86 42q32 0 54 -13t46 -36q15 -14 23 -20t17 -6q14 0 23.5 17.5t11.5 49.5h87q-3 -72 -33 -114t-86 -42q-32 0 -54 13t-45 36q-15 14 -23.5 20t-17.5 6q-14 0 -23.5 -17zM459 937l119 -153h-111l-75 82l-76 -82h-111
l119 153h135zM559 173h-335l-67 -173h-139l293 720h163l293 -720h-141zM515 288l-123 317l-123 -317h246z" />
    <glyph glyph-name="uni1EAB" unicode="&#x1eab;" horiz-adv-x="647" 
d="M222.5 852q-9.5 -17 -11.5 -50h-86q2 72 32 114t86 42q32 0 54 -13t46 -36q15 -14 23 -20t17 -6q14 0 23.5 17.5t11.5 49.5h87q-3 -72 -33 -114t-86 -42q-32 0 -54 13t-45 36q-15 14 -23.5 20t-17.5 6q-14 0 -23.5 -17zM382 765l119 -153h-111l-75 82l-76 -82h-111
l119 153h135zM632 106v-101q-19 -9 -50 -9q-47 0 -83 20.5t-48 60.5q-32 -46 -85 -67.5t-116 -21.5q-60 0 -110 19.5t-80 58t-30 93.5q0 84 72 131t215 47h125q-1 53 -38.5 82.5t-100.5 29.5q-41 0 -85.5 -13.5t-82.5 -41.5l-64 94q47 37 110 54.5t128 17.5q120 0 188 -58
t68 -162v-197q0 -21 11.5 -31t30.5 -10q11 0 25 4zM382.5 128q52.5 37 58.5 114h-121q-162 0 -162 -77q0 -34 27.5 -54t77.5 -20q67 0 119.5 37z" />
    <glyph glyph-name="uni1EAC" unicode="&#x1eac;" horiz-adv-x="785" 
d="M559 173h-335l-67 -173h-139l293 720h163l293 -720h-141zM515 288l-123 317l-123 -317h246zM336 -188q-22 21 -22 54q0 32 22 53t56 21t56 -21t22 -53q0 -33 -22 -54t-56 -21t-56 21zM467 784l-75 84l-76 -84h-111l119 162h135l119 -162h-111z" />
    <glyph glyph-name="uni1EAD" unicode="&#x1ead;" horiz-adv-x="647" 
d="M632 106v-101q-19 -9 -50 -9q-47 0 -83 20.5t-48 60.5q-32 -46 -85 -67.5t-116 -21.5q-60 0 -110 19.5t-80 58t-30 93.5q0 84 72 131t215 47h125q-1 53 -38.5 82.5t-100.5 29.5q-41 0 -85.5 -13.5t-82.5 -41.5l-64 94q47 37 110 54.5t128 17.5q120 0 188 -58t68 -162
v-197q0 -21 11.5 -31t30.5 -10q11 0 25 4zM382.5 128q52.5 37 58.5 114h-121q-162 0 -162 -77q0 -34 27.5 -54t77.5 -20q67 0 119.5 37zM265 -188q-22 21 -22 54q0 32 22 53t56 21t56 -21t22 -53q0 -33 -22 -54t-56 -21t-56 21zM390 612l-75 84l-76 -84h-111l119 162h135
l119 -162h-111z" />
    <glyph glyph-name="uni1EAE" unicode="&#x1eae;" horiz-adv-x="785" 
d="M438 948h-102l90 150h127v-9zM268.5 819.5q-48.5 44.5 -48.5 117.5h90q1 -30 25 -50t57 -20q34 0 57.5 20t24.5 50h92q0 -72 -49.5 -117t-124.5 -45t-123.5 44.5zM559 173h-335l-67 -173h-139l293 720h163l293 -720h-141zM515 288l-123 317l-123 -317h246z" />
    <glyph glyph-name="uni1EAF" unicode="&#x1eaf;" horiz-adv-x="647" 
d="M361 776h-102l90 150h127v-9zM191.5 647.5q-48.5 44.5 -48.5 117.5h90q1 -30 25 -50t57 -20q34 0 57.5 20t24.5 50h92q0 -72 -49.5 -117t-124.5 -45t-123.5 44.5zM632 106v-101q-19 -9 -50 -9q-47 0 -83 20.5t-48 60.5q-32 -46 -85 -67.5t-116 -21.5q-60 0 -110 19.5
t-80 58t-30 93.5q0 84 72 131t215 47h125q-1 53 -38.5 82.5t-100.5 29.5q-41 0 -85.5 -13.5t-82.5 -41.5l-64 94q47 37 110 54.5t128 17.5q120 0 188 -58t68 -162v-197q0 -21 11.5 -31t30.5 -10q11 0 25 4zM382.5 128q52.5 37 58.5 114h-121q-162 0 -162 -77q0 -34 27.5 -54
t77.5 -20q67 0 119.5 37z" />
    <glyph glyph-name="uni1EB0" unicode="&#x1eb0;" horiz-adv-x="785" 
d="M345 948l-114 141v9h127l90 -150h-103zM268.5 819.5q-48.5 44.5 -48.5 117.5h90q1 -30 25 -50t57 -20q34 0 57.5 20t24.5 50h92q0 -72 -49.5 -117t-124.5 -45t-123.5 44.5zM559 173h-335l-67 -173h-139l293 720h163l293 -720h-141zM515 288l-123 317l-123 -317h246z" />
    <glyph glyph-name="uni1EB1" unicode="&#x1eb1;" horiz-adv-x="647" 
d="M268 776l-114 141v9h127l90 -150h-103zM191.5 647.5q-48.5 44.5 -48.5 117.5h90q1 -30 25 -50t57 -20q34 0 57.5 20t24.5 50h92q0 -72 -49.5 -117t-124.5 -45t-123.5 44.5zM632 106v-101q-19 -9 -50 -9q-47 0 -83 20.5t-48 60.5q-32 -46 -85 -67.5t-116 -21.5
q-60 0 -110 19.5t-80 58t-30 93.5q0 84 72 131t215 47h125q-1 53 -38.5 82.5t-100.5 29.5q-41 0 -85.5 -13.5t-82.5 -41.5l-64 94q47 37 110 54.5t128 17.5q120 0 188 -58t68 -162v-197q0 -21 11.5 -31t30.5 -10q11 0 25 4zM382.5 128q52.5 37 58.5 114h-121
q-162 0 -162 -77q0 -34 27.5 -54t77.5 -20q67 0 119.5 37z" />
    <glyph glyph-name="uni1EB2" unicode="&#x1eb2;" horiz-adv-x="785" 
d="M360.5 1089q-11.5 -10 -12.5 -29h-80q2 49 36.5 78.5t93.5 29.5q51 0 84.5 -26.5t33.5 -67.5q0 -23 -11 -41.5t-35 -39.5q-29 -26 -36.5 -34.5t-7.5 -18.5v-6h-78v13q0 24 13 42t38 39q31 26 31 43q0 14 -10.5 21t-27.5 7q-20 0 -31.5 -10zM268.5 819.5
q-48.5 44.5 -48.5 117.5h90q1 -30 25 -50t57 -20q34 0 57.5 20t24.5 50h92q0 -72 -49.5 -117t-124.5 -45t-123.5 44.5zM559 173h-335l-67 -173h-139l293 720h163l293 -720h-141zM515 288l-123 317l-123 -317h246z" />
    <glyph glyph-name="uni1EB3" unicode="&#x1eb3;" horiz-adv-x="647" 
d="M283.5 917q-11.5 -10 -12.5 -29h-80q2 49 36.5 78.5t93.5 29.5q51 0 84.5 -26.5t33.5 -67.5q0 -23 -11 -41.5t-35 -39.5q-29 -26 -36.5 -34.5t-7.5 -18.5v-6h-78v13q0 24 13 42t38 39q31 26 31 43q0 14 -10.5 21t-27.5 7q-20 0 -31.5 -10zM191.5 647.5
q-48.5 44.5 -48.5 117.5h90q1 -30 25 -50t57 -20q34 0 57.5 20t24.5 50h92q0 -72 -49.5 -117t-124.5 -45t-123.5 44.5zM632 106v-101q-19 -9 -50 -9q-47 0 -83 20.5t-48 60.5q-32 -46 -85 -67.5t-116 -21.5q-60 0 -110 19.5t-80 58t-30 93.5q0 84 72 131t215 47h125
q-1 53 -38.5 82.5t-100.5 29.5q-41 0 -85.5 -13.5t-82.5 -41.5l-64 94q47 37 110 54.5t128 17.5q120 0 188 -58t68 -162v-197q0 -21 11.5 -31t30.5 -10q11 0 25 4zM382.5 128q52.5 37 58.5 114h-121q-162 0 -162 -77q0 -34 27.5 -54t77.5 -20q67 0 119.5 37z" />
    <glyph glyph-name="uni1EB4" unicode="&#x1eb4;" horiz-adv-x="785" 
d="M299.5 1025q-9.5 -17 -11.5 -50h-86q2 72 32 114t86 42q32 0 54 -13t46 -36q15 -14 23 -20t17 -6q14 0 23.5 17.5t11.5 49.5h87q-3 -72 -33 -114t-86 -42q-32 0 -54 13t-45 36q-15 14 -23.5 20t-17.5 6q-14 0 -23.5 -17zM449.5 887q23.5 20 24.5 50h92q0 -72 -49.5 -117
t-124.5 -45t-123.5 44.5t-48.5 117.5h90q1 -30 25 -50t57 -20q34 0 57.5 20zM559 173h-335l-67 -173h-139l293 720h163l293 -720h-141zM515 288l-123 317l-123 -317h246z" />
    <glyph glyph-name="uni1EB5" unicode="&#x1eb5;" horiz-adv-x="647" 
d="M222.5 853q-9.5 -17 -11.5 -50h-86q2 72 32 114t86 42q32 0 54 -13t46 -36q15 -14 23 -20t17 -6q14 0 23.5 17.5t11.5 49.5h87q-3 -72 -33 -114t-86 -42q-32 0 -54 13t-45 36q-15 14 -23.5 20t-17.5 6q-14 0 -23.5 -17zM372.5 715q23.5 20 24.5 50h92q0 -72 -49.5 -117
t-124.5 -45t-123.5 44.5t-48.5 117.5h90q1 -30 25 -50t57 -20q34 0 57.5 20zM632 106v-101q-19 -9 -50 -9q-47 0 -83 20.5t-48 60.5q-32 -46 -85 -67.5t-116 -21.5q-60 0 -110 19.5t-80 58t-30 93.5q0 84 72 131t215 47h125q-1 53 -38.5 82.5t-100.5 29.5q-41 0 -85.5 -13.5
t-82.5 -41.5l-64 94q47 37 110 54.5t128 17.5q120 0 188 -58t68 -162v-197q0 -21 11.5 -31t30.5 -10q11 0 25 4zM382.5 128q52.5 37 58.5 114h-121q-162 0 -162 -77q0 -34 27.5 -54t77.5 -20q67 0 119.5 37z" />
    <glyph glyph-name="uni1EB6" unicode="&#x1eb6;" horiz-adv-x="785" 
d="M559 173h-335l-67 -173h-139l293 720h163l293 -720h-141zM515 288l-123 317l-123 -317h246zM336 -188q-22 21 -22 54q0 32 22 53t56 21t56 -21t22 -53q0 -33 -22 -54t-56 -21t-56 21zM267.5 821q-48.5 46 -48.5 125h91q1 -36 24.5 -57t57.5 -21t57.5 21t24.5 57h92
q0 -79 -49 -125t-125 -46t-124.5 46z" />
    <glyph glyph-name="uni1EB7" unicode="&#x1eb7;" horiz-adv-x="647" 
d="M632 106v-101q-19 -9 -50 -9q-47 0 -83 20.5t-48 60.5q-32 -46 -85 -67.5t-116 -21.5q-60 0 -110 19.5t-80 58t-30 93.5q0 84 72 131t215 47h125q-1 53 -38.5 82.5t-100.5 29.5q-41 0 -85.5 -13.5t-82.5 -41.5l-64 94q47 37 110 54.5t128 17.5q120 0 188 -58t68 -162
v-197q0 -21 11.5 -31t30.5 -10q11 0 25 4zM382.5 128q52.5 37 58.5 114h-121q-162 0 -162 -77q0 -34 27.5 -54t77.5 -20q67 0 119.5 37zM265 -188q-22 21 -22 54q0 32 22 53t56 21t56 -21t22 -53q0 -33 -22 -54t-56 -21t-56 21zM190.5 649q-48.5 46 -48.5 125h91
q1 -36 24.5 -57t57.5 -21t57.5 21t24.5 57h92q0 -79 -49 -125t-125 -46t-124.5 46z" />
    <glyph glyph-name="uni1EB8" unicode="&#x1eb8;" 
d="M678 0h-590v720h580l-19 -116h-428v-171h295v-118h-295v-199h438zM315 -188q-22 21 -22 54q0 32 22 53t56 21t56 -21t22 -53q0 -33 -22 -54t-56 -21t-56 21z" />
    <glyph glyph-name="uni1EB9" unicode="&#x1eb9;" horiz-adv-x="656" 
d="M619 227h-447q14 -61 62.5 -95t122.5 -34q50 0 87.5 15t71.5 45l71 -87q-35 -37 -94 -60.5t-137 -23.5q-96 0 -167.5 37.5t-109 103t-37.5 146.5q0 79 36 144.5t102 104t154 38.5t153.5 -39t100.5 -105t35 -146q0 -25 -4 -44zM229 415.5q-43 -33.5 -57 -92.5h323
q-11 57 -54 91.5t-107 34.5q-62 0 -105 -33.5zM279 -188q-22 21 -22 54q0 32 22 53t56 21t56 -21t22 -53q0 -33 -22 -54t-56 -21t-56 21z" />
    <glyph glyph-name="uni1EBA" unicode="&#x1eba;" 
d="M678 0h-590v720h580l-19 -116h-428v-171h295v-118h-295v-199h438zM320 791q0 27 15 48t43 45q19 15 28 26.5t9 22.5q0 15 -13 23t-33 8q-24 0 -38 -12t-15 -32h-89q2 56 41.5 89.5t107.5 33.5q58 0 96 -30t38 -77q0 -26 -13 -46.5t-41 -46.5q-33 -30 -41.5 -39.5
t-8.5 -20.5v-7h-86v15z" />
    <glyph glyph-name="uni1EBB" unicode="&#x1ebb;" horiz-adv-x="656" 
d="M619 227h-447q14 -61 62.5 -95t122.5 -34q50 0 87.5 15t71.5 45l71 -87q-35 -37 -94 -60.5t-137 -23.5q-96 0 -167.5 37.5t-109 103t-37.5 146.5q0 79 36 144.5t102 104t154 38.5t153.5 -39t100.5 -105t35 -146q0 -25 -4 -44zM229 415.5q-43 -33.5 -57 -92.5h323
q-11 57 -54 91.5t-107 34.5q-62 0 -105 -33.5zM283 619q0 27 15 48t43 45q19 15 28 26.5t9 22.5q0 15 -13 23t-33 8q-24 0 -38 -12t-15 -32h-89q2 56 41.5 89.5t107.5 33.5q58 0 96 -30t38 -77q0 -26 -13 -46.5t-41 -46.5q-33 -30 -41.5 -39.5t-8.5 -20.5v-7h-86v15z" />
    <glyph glyph-name="uni1EBC" unicode="&#x1ebc;" 
d="M678 0h-590v720h580l-19 -116h-428v-171h295v-118h-295v-199h438zM390.5 792q-23.5 12 -50.5 34q-17 13 -27 19t-20 6q-17 0 -26 -15.5t-11 -48.5h-96q2 72 35.5 114.5t95.5 42.5q34 0 58.5 -12.5t50.5 -34.5q16 -13 25.5 -19t19.5 -6q36 0 39 65h96q-2 -73 -35.5 -115
t-96.5 -42q-34 0 -57.5 12z" />
    <glyph glyph-name="uni1EBD" unicode="&#x1ebd;" horiz-adv-x="656" 
d="M619 227h-447q14 -61 62.5 -95t122.5 -34q50 0 87.5 15t71.5 45l71 -87q-35 -37 -94 -60.5t-137 -23.5q-96 0 -167.5 37.5t-109 103t-37.5 146.5q0 79 36 144.5t102 104t154 38.5t153.5 -39t100.5 -105t35 -146q0 -25 -4 -44zM229 415.5q-43 -33.5 -57 -92.5h323
q-11 57 -54 91.5t-107 34.5q-62 0 -105 -33.5zM353.5 620q-23.5 12 -50.5 34q-17 13 -27 19t-20 6q-17 0 -26 -15.5t-11 -48.5h-96q2 72 35.5 114.5t95.5 42.5q34 0 58.5 -12.5t50.5 -34.5q16 -13 25.5 -19t19.5 -6q36 0 39 65h96q-2 -73 -35.5 -115t-96.5 -42
q-34 0 -57.5 12z" />
    <glyph glyph-name="uni1EBE" unicode="&#x1ebe;" 
d="M710 1043v-9l-115 -141h-102l90 150h127zM295 784h-111l119 153h135l119 -153h-111l-75 82zM659 116l19 -116h-590v720h580l-19 -116h-428v-171h295v-118h-295v-199h438z" />
    <glyph glyph-name="uni1EBF" unicode="&#x1ebf;" horiz-adv-x="656" 
d="M673 871v-9l-115 -141h-102l90 150h127zM258 612h-111l119 153h135l119 -153h-111l-75 82zM487.5 522q65.5 -39 100.5 -105t35 -146q0 -25 -4 -44h-447q14 -61 62.5 -95t122.5 -34q50 0 87.5 15t71.5 45l71 -87q-35 -37 -94 -60.5t-137 -23.5q-96 0 -167.5 37.5t-109 103
t-37.5 146.5q0 79 36 144.5t102 104t154 38.5t153.5 -39zM229 415.5q-43 -33.5 -57 -92.5h323q-11 57 -54 91.5t-107 34.5q-62 0 -105 -33.5z" />
    <glyph glyph-name="uni1EC0" unicode="&#x1ec0;" 
d="M562 893l-114 141v9h127l90 -150h-103zM295 784h-111l119 153h135l119 -153h-111l-75 82zM678 0h-590v720h580l-19 -116h-428v-171h295v-118h-295v-199h438z" />
    <glyph glyph-name="uni1EC1" unicode="&#x1ec1;" horiz-adv-x="656" 
d="M525 721l-114 141v9h127l90 -150h-103zM258 612h-111l119 153h135l119 -153h-111l-75 82zM487.5 522q65.5 -39 100.5 -105t35 -146q0 -25 -4 -44h-447q14 -61 62.5 -95t122.5 -34q50 0 87.5 15t71.5 45l71 -87q-35 -37 -94 -60.5t-137 -23.5q-96 0 -167.5 37.5t-109 103
t-37.5 146.5q0 79 36 144.5t102 104t154 38.5t153.5 -39zM229 415.5q-43 -33.5 -57 -92.5h323q-11 57 -54 91.5t-107 34.5q-62 0 -105 -33.5z" />
    <glyph glyph-name="uni1EC2" unicode="&#x1ec2;" 
d="M531.5 1028q-11.5 -10 -12.5 -29h-80q2 49 36.5 78.5t93.5 29.5q51 0 84.5 -26.5t33.5 -67.5q0 -23 -11 -41.5t-35 -39.5q-29 -26 -36.5 -34.5t-7.5 -18.5v-6h-78v13q0 24 13 42t38 39q31 26 31 43q0 14 -10.5 21t-27.5 7q-20 0 -31.5 -10zM295 784h-111l119 153h135
l119 -153h-111l-75 82zM659 116l19 -116h-590v720h580l-19 -116h-428v-171h295v-118h-295v-199h438z" />
    <glyph glyph-name="uni1EC3" unicode="&#x1ec3;" horiz-adv-x="656" 
d="M494.5 856q-11.5 -10 -12.5 -29h-80q2 49 36.5 78.5t93.5 29.5q51 0 84.5 -26.5t33.5 -67.5q0 -23 -11 -41.5t-35 -39.5q-29 -26 -36.5 -34.5t-7.5 -18.5v-6h-78v13q0 24 13 42t38 39q31 26 31 43q0 14 -10.5 21t-27.5 7q-20 0 -31.5 -10zM258 612h-111l119 153h135
l119 -153h-111l-75 82zM487.5 522q65.5 -39 100.5 -105t35 -146q0 -25 -4 -44h-447q14 -61 62.5 -95t122.5 -34q50 0 87.5 15t71.5 45l71 -87q-35 -37 -94 -60.5t-137 -23.5q-96 0 -167.5 37.5t-109 103t-37.5 146.5q0 79 36 144.5t102 104t154 38.5t153.5 -39zM229 415.5
q-43 -33.5 -57 -92.5h323q-11 57 -54 91.5t-107 34.5q-62 0 -105 -33.5z" />
    <glyph glyph-name="uni1EC4" unicode="&#x1ec4;" 
d="M278.5 1024q-9.5 -17 -11.5 -50h-86q2 72 32 114t86 42q32 0 54 -13t46 -36q15 -14 23 -20t17 -6q14 0 23.5 17.5t11.5 49.5h87q-3 -72 -33 -114t-86 -42q-32 0 -54 13t-45 36q-15 14 -23.5 20t-17.5 6q-14 0 -23.5 -17zM438 937l119 -153h-111l-75 82l-76 -82h-111
l119 153h135zM678 0h-590v720h580l-19 -116h-428v-171h295v-118h-295v-199h438z" />
    <glyph glyph-name="uni1EC5" unicode="&#x1ec5;" horiz-adv-x="656" 
d="M241.5 852q-9.5 -17 -11.5 -50h-86q2 72 32 114t86 42q32 0 54 -13t46 -36q15 -14 23 -20t17 -6q14 0 23.5 17.5t11.5 49.5h87q-3 -72 -33 -114t-86 -42q-32 0 -54 13t-45 36q-15 14 -23.5 20t-17.5 6q-14 0 -23.5 -17zM401 765l119 -153h-111l-75 82l-76 -82h-111
l119 153h135zM619 227h-447q14 -61 62.5 -95t122.5 -34q50 0 87.5 15t71.5 45l71 -87q-35 -37 -94 -60.5t-137 -23.5q-96 0 -167.5 37.5t-109 103t-37.5 146.5q0 79 36 144.5t102 104t154 38.5t153.5 -39t100.5 -105t35 -146q0 -25 -4 -44zM229 415.5q-43 -33.5 -57 -92.5
h323q-11 57 -54 91.5t-107 34.5q-62 0 -105 -33.5z" />
    <glyph glyph-name="uni1EC6" unicode="&#x1ec6;" 
d="M678 0h-590v720h580l-19 -116h-428v-171h295v-118h-295v-199h438zM315 -188q-22 21 -22 54q0 32 22 53t56 21t56 -21t22 -53q0 -33 -22 -54t-56 -21t-56 21zM446 784l-75 84l-76 -84h-111l119 162h135l119 -162h-111z" />
    <glyph glyph-name="uni1EC7" unicode="&#x1ec7;" horiz-adv-x="656" 
d="M619 227h-447q14 -61 62.5 -95t122.5 -34q50 0 87.5 15t71.5 45l71 -87q-35 -37 -94 -60.5t-137 -23.5q-96 0 -167.5 37.5t-109 103t-37.5 146.5q0 79 36 144.5t102 104t154 38.5t153.5 -39t100.5 -105t35 -146q0 -25 -4 -44zM229 415.5q-43 -33.5 -57 -92.5h323
q-11 57 -54 91.5t-107 34.5q-62 0 -105 -33.5zM279 -188q-22 21 -22 54q0 32 22 53t56 21t56 -21t22 -53q0 -33 -22 -54t-56 -21t-56 21zM409 612l-75 84l-76 -84h-111l119 162h135l119 -162h-111z" />
    <glyph glyph-name="uni1EC8" unicode="&#x1ec8;" horiz-adv-x="321" 
d="M227 720v-720h-133v720h133zM110 791q0 27 15 48t43 45q19 15 28 26.5t9 22.5q0 15 -13 23t-33 8q-24 0 -38 -12t-15 -32h-89q2 56 41.5 89.5t107.5 33.5q58 0 96 -30t38 -77q0 -26 -13 -46.5t-41 -46.5q-33 -30 -41.5 -39.5t-8.5 -20.5v-7h-86v15z" />
    <glyph glyph-name="uni1EC9" unicode="&#x1ec9;" horiz-adv-x="286" 
d="M81 548h128v-548h-128v548zM94 619q0 27 15 48t43 45q19 15 28 26.5t9 22.5q0 15 -13 23t-33 8q-24 0 -38 -12t-15 -32h-89q2 56 41.5 89.5t107.5 33.5q58 0 96 -30t38 -77q0 -26 -13 -46.5t-41 -46.5q-33 -30 -41.5 -39.5t-8.5 -20.5v-7h-86v15z" />
    <glyph glyph-name="uni1ECA" unicode="&#x1eca;" horiz-adv-x="321" 
d="M227 720v-720h-133v720h133zM105 -188q-22 21 -22 54q0 32 22 53t56 21t56 -21t22 -53q0 -33 -22 -54t-56 -21t-56 21z" />
    <glyph glyph-name="uni1ECB" unicode="&#x1ecb;" horiz-adv-x="286" 
d="M81 548h128v-548h-128v548zM89 635q-22 21 -22 54q0 32 22 53t56 21t56 -21t22 -53q0 -33 -22 -54t-56 -21t-56 21zM92 -188q-22 21 -22 54q0 32 22 53t56 21t56 -21t22 -53q0 -33 -22 -54t-56 -21t-56 21z" />
    <glyph glyph-name="uni1ECC" unicode="&#x1ecc;" horiz-adv-x="859" 
d="M232 34.5q-87 47.5 -136 132.5t-49 193t49 193t136 132.5t197 47.5t197 -47.5t136 -132.5t49 -193t-49 -193t-136 -132.5t-197 -47.5t-197 47.5zM555.5 140q55.5 32 86.5 89.5t31 130.5t-31 130.5t-86.5 89.5t-126.5 32q-70 0 -125.5 -32t-87 -89.5t-31.5 -130.5
t31.5 -130.5t87 -89.5t125.5 -32q71 0 126.5 32zM373 -188q-22 21 -22 54q0 32 22 53t56 21t56 -21t22 -53q0 -33 -22 -54t-56 -21t-56 21z" />
    <glyph glyph-name="uni1ECD" unicode="&#x1ecd;" horiz-adv-x="679" 
d="M183.5 25q-68.5 38 -106 103.5t-37.5 145.5t37.5 145.5t106 103.5t156.5 38t156.5 -38t106 -103.5t37.5 -145.5t-37.5 -145.5t-106 -103.5t-156.5 -38t-156.5 38zM426 125q39 22 62 61t23 88t-23 88t-62 61t-86 22q-48 0 -87 -22t-62 -61t-23 -88t23 -88t62 -61t87 -22
q47 0 86 22zM284 -188q-22 21 -22 54q0 32 22 53t56 21t56 -21t22 -53q0 -33 -22 -54t-56 -21t-56 21z" />
    <glyph glyph-name="uni1ECE" unicode="&#x1ece;" horiz-adv-x="859" 
d="M232 34.5q-87 47.5 -136 132.5t-49 193t49 193t136 132.5t197 47.5t197 -47.5t136 -132.5t49 -193t-49 -193t-136 -132.5t-197 -47.5t-197 47.5zM555.5 140q55.5 32 86.5 89.5t31 130.5t-31 130.5t-86.5 89.5t-126.5 32q-70 0 -125.5 -32t-87 -89.5t-31.5 -130.5
t31.5 -130.5t87 -89.5t125.5 -32q71 0 126.5 32zM378 791q0 27 15 48t43 45q19 15 28 26.5t9 22.5q0 15 -13 23t-33 8q-24 0 -38 -12t-15 -32h-89q2 56 41.5 89.5t107.5 33.5q58 0 96 -30t38 -77q0 -26 -13 -46.5t-41 -46.5q-33 -30 -41.5 -39.5t-8.5 -20.5v-7h-86v15z" />
    <glyph glyph-name="uni1ECF" unicode="&#x1ecf;" horiz-adv-x="679" 
d="M183.5 25q-68.5 38 -106 103.5t-37.5 145.5t37.5 145.5t106 103.5t156.5 38t156.5 -38t106 -103.5t37.5 -145.5t-37.5 -145.5t-106 -103.5t-156.5 -38t-156.5 38zM426 125q39 22 62 61t23 88t-23 88t-62 61t-86 22q-48 0 -87 -22t-62 -61t-23 -88t23 -88t62 -61t87 -22
q47 0 86 22zM289 619q0 27 15 48t43 45q19 15 28 26.5t9 22.5q0 15 -13 23t-33 8q-24 0 -38 -12t-15 -32h-89q2 56 41.5 89.5t107.5 33.5q58 0 96 -30t38 -77q0 -26 -13 -46.5t-41 -46.5q-33 -30 -41.5 -39.5t-8.5 -20.5v-7h-86v15z" />
    <glyph glyph-name="uni1ED0" unicode="&#x1ed0;" horiz-adv-x="859" 
d="M653 893h-102l90 150h127v-9zM353 784h-111l119 153h135l119 -153h-111l-75 82zM626 685.5q87 -47.5 136 -132.5t49 -193t-49 -193t-136 -132.5t-197 -47.5t-197 47.5t-136 132.5t-49 193t49 193t136 132.5t197 47.5t197 -47.5zM555.5 140q55.5 32 86.5 89.5t31 130.5
t-31 130.5t-86.5 89.5t-126.5 32q-70 0 -125.5 -32t-87 -89.5t-31.5 -130.5t31.5 -130.5t87 -89.5t125.5 -32q71 0 126.5 32z" />
    <glyph glyph-name="uni1ED1" unicode="&#x1ed1;" horiz-adv-x="679" 
d="M679 871v-9l-115 -141h-102l90 150h127zM264 612h-111l119 153h135l119 -153h-111l-75 82zM496.5 523q68.5 -38 106 -103.5t37.5 -145.5t-37.5 -145.5t-106 -103.5t-156.5 -38t-156.5 38t-106 103.5t-37.5 145.5t37.5 145.5t106 103.5t156.5 38t156.5 -38zM426 125
q39 22 62 61t23 88t-23 88t-62 61t-86 22q-48 0 -87 -22t-62 -61t-23 -88t23 -88t62 -61t87 -22q47 0 86 22z" />
    <glyph glyph-name="uni1ED2" unicode="&#x1ed2;" horiz-adv-x="859" 
d="M620 893l-114 141v9h127l90 -150h-103zM353 784h-111l119 153h135l119 -153h-111l-75 82zM626 685.5q87 -47.5 136 -132.5t49 -193t-49 -193t-136 -132.5t-197 -47.5t-197 47.5t-136 132.5t-49 193t49 193t136 132.5t197 47.5t197 -47.5zM555.5 140q55.5 32 86.5 89.5
t31 130.5t-31 130.5t-86.5 89.5t-126.5 32q-70 0 -125.5 -32t-87 -89.5t-31.5 -130.5t31.5 -130.5t87 -89.5t125.5 -32q71 0 126.5 32z" />
    <glyph glyph-name="uni1ED3" unicode="&#x1ed3;" horiz-adv-x="679" 
d="M531 721l-114 141v9h127l90 -150h-103zM264 612h-111l119 153h135l119 -153h-111l-75 82zM496.5 523q68.5 -38 106 -103.5t37.5 -145.5t-37.5 -145.5t-106 -103.5t-156.5 -38t-156.5 38t-106 103.5t-37.5 145.5t37.5 145.5t106 103.5t156.5 38t156.5 -38zM426 125
q39 22 62 61t23 88t-23 88t-62 61t-86 22q-48 0 -87 -22t-62 -61t-23 -88t23 -88t62 -61t87 -22q47 0 86 22z" />
    <glyph glyph-name="uni1ED4" unicode="&#x1ed4;" horiz-adv-x="859" 
d="M589.5 1028q-11.5 -10 -12.5 -29h-80q2 49 36.5 78.5t93.5 29.5q51 0 84.5 -26.5t33.5 -67.5q0 -23 -11 -41.5t-35 -39.5q-29 -26 -36.5 -34.5t-7.5 -18.5v-6h-78v13q0 24 13 42t38 39q31 26 31 43q0 14 -10.5 21t-27.5 7q-20 0 -31.5 -10zM353 784h-111l119 153h135
l119 -153h-111l-75 82zM626 685.5q87 -47.5 136 -132.5t49 -193t-49 -193t-136 -132.5t-197 -47.5t-197 47.5t-136 132.5t-49 193t49 193t136 132.5t197 47.5t197 -47.5zM555.5 140q55.5 32 86.5 89.5t31 130.5t-31 130.5t-86.5 89.5t-126.5 32q-70 0 -125.5 -32t-87 -89.5
t-31.5 -130.5t31.5 -130.5t87 -89.5t125.5 -32q71 0 126.5 32z" />
    <glyph glyph-name="uni1ED5" unicode="&#x1ed5;" horiz-adv-x="679" 
d="M500.5 856q-11.5 -10 -12.5 -29h-80q2 49 36.5 78.5t93.5 29.5q51 0 84.5 -26.5t33.5 -67.5q0 -23 -11 -41.5t-35 -39.5q-29 -26 -36.5 -34.5t-7.5 -18.5v-6h-78v13q0 24 13 42t38 39q31 26 31 43q0 14 -10.5 21t-27.5 7q-20 0 -31.5 -10zM264 612h-111l119 153h135
l119 -153h-111l-75 82zM496.5 523q68.5 -38 106 -103.5t37.5 -145.5t-37.5 -145.5t-106 -103.5t-156.5 -38t-156.5 38t-106 103.5t-37.5 145.5t37.5 145.5t106 103.5t156.5 38t156.5 -38zM426 125q39 22 62 61t23 88t-23 88t-62 61t-86 22q-48 0 -87 -22t-62 -61t-23 -88
t23 -88t62 -61t87 -22q47 0 86 22z" />
    <glyph glyph-name="uni1ED6" unicode="&#x1ed6;" horiz-adv-x="859" 
d="M336.5 1024q-9.5 -17 -11.5 -50h-86q2 72 32 114t86 42q32 0 54 -13t46 -36q15 -14 23 -20t17 -6q14 0 23.5 17.5t11.5 49.5h87q-3 -72 -33 -114t-86 -42q-32 0 -54 13t-45 36q-15 14 -23.5 20t-17.5 6q-14 0 -23.5 -17zM496 937l119 -153h-111l-75 82l-76 -82h-111
l119 153h135zM626 685.5q87 -47.5 136 -132.5t49 -193t-49 -193t-136 -132.5t-197 -47.5t-197 47.5t-136 132.5t-49 193t49 193t136 132.5t197 47.5t197 -47.5zM555.5 140q55.5 32 86.5 89.5t31 130.5t-31 130.5t-86.5 89.5t-126.5 32q-70 0 -125.5 -32t-87 -89.5
t-31.5 -130.5t31.5 -130.5t87 -89.5t125.5 -32q71 0 126.5 32z" />
    <glyph glyph-name="uni1ED7" unicode="&#x1ed7;" horiz-adv-x="679" 
d="M247.5 852q-9.5 -17 -11.5 -50h-86q2 72 32 114t86 42q32 0 54 -13t46 -36q15 -14 23 -20t17 -6q14 0 23.5 17.5t11.5 49.5h87q-3 -72 -33 -114t-86 -42q-32 0 -54 13t-45 36q-15 14 -23.5 20t-17.5 6q-14 0 -23.5 -17zM407 765l119 -153h-111l-75 82l-76 -82h-111
l119 153h135zM496.5 523q68.5 -38 106 -103.5t37.5 -145.5t-37.5 -145.5t-106 -103.5t-156.5 -38t-156.5 38t-106 103.5t-37.5 145.5t37.5 145.5t106 103.5t156.5 38t156.5 -38zM426 125q39 22 62 61t23 88t-23 88t-62 61t-86 22q-48 0 -87 -22t-62 -61t-23 -88t23 -88
t62 -61t87 -22q47 0 86 22z" />
    <glyph glyph-name="uni1ED8" unicode="&#x1ed8;" horiz-adv-x="859" 
d="M232 34.5q-87 47.5 -136 132.5t-49 193t49 193t136 132.5t197 47.5t197 -47.5t136 -132.5t49 -193t-49 -193t-136 -132.5t-197 -47.5t-197 47.5zM555.5 140q55.5 32 86.5 89.5t31 130.5t-31 130.5t-86.5 89.5t-126.5 32q-70 0 -125.5 -32t-87 -89.5t-31.5 -130.5
t31.5 -130.5t87 -89.5t125.5 -32q71 0 126.5 32zM373 -188q-22 21 -22 54q0 32 22 53t56 21t56 -21t22 -53q0 -33 -22 -54t-56 -21t-56 21zM504 784l-75 84l-76 -84h-111l119 162h135l119 -162h-111z" />
    <glyph glyph-name="uni1ED9" unicode="&#x1ed9;" horiz-adv-x="679" 
d="M183.5 25q-68.5 38 -106 103.5t-37.5 145.5t37.5 145.5t106 103.5t156.5 38t156.5 -38t106 -103.5t37.5 -145.5t-37.5 -145.5t-106 -103.5t-156.5 -38t-156.5 38zM426 125q39 22 62 61t23 88t-23 88t-62 61t-86 22q-48 0 -87 -22t-62 -61t-23 -88t23 -88t62 -61t87 -22
q47 0 86 22zM284 -188q-22 21 -22 54q0 32 22 53t56 21t56 -21t22 -53q0 -33 -22 -54t-56 -21t-56 21zM415 612l-75 84l-76 -84h-111l119 162h135l119 -162h-111z" />
    <glyph glyph-name="uni1EDA" unicode="&#x1eda;" horiz-adv-x="861" 
d="M812 672q-46 -39 -127 -39h-1q63 -47 96 -117t33 -156q0 -108 -49.5 -192.5t-136.5 -132.5t-197 -48t-197.5 47.5t-136.5 132.5t-49 193t49 193t136.5 132.5t197.5 47.5q67 0 149 -8q52 -5 82 -5q43 0 61 16.5t18 49.5q0 34 -18 76h119q17 -33 17 -78q0 -73 -46 -112z
M556.5 140q55.5 32 86.5 89.5t31 130.5t-31 130.5t-86.5 89.5t-126.5 32t-126.5 -32t-86.5 -89.5t-31 -130.5t31 -130.5t86.5 -89.5t126.5 -32t126.5 32zM471 778h-119l113 168h147v-10z" />
    <glyph glyph-name="uni1EDB" unicode="&#x1edb;" horiz-adv-x="680" 
d="M652 511q-37 -36 -105 -43q45 -37 67 -86.5t22 -107.5q0 -80 -37 -145.5t-104.5 -103.5t-156.5 -38t-156.5 38t-104.5 103.5t-37 145.5t37 145.5t104.5 103.5t156.5 38q31 0 79 -6q44 -7 84 -7q77 0 77 66q0 36 -18 76h112q17 -31 17 -78q0 -65 -37 -101zM423.5 125
q38.5 22 61 61t22.5 88t-22.5 88t-61 61t-85.5 22q-48 0 -86.5 -22t-61 -61t-22.5 -88t22.5 -88t61 -61t86.5 -22q47 0 85.5 22zM381 606h-119l113 168h147v-10z" />
    <glyph glyph-name="uni1EDC" unicode="&#x1edc;" horiz-adv-x="861" 
d="M812 672q-46 -39 -127 -39h-1q63 -47 96 -117t33 -156q0 -108 -49.5 -192.5t-136.5 -132.5t-197 -48t-197.5 47.5t-136.5 132.5t-49 193t49 193t136.5 132.5t197.5 47.5q67 0 149 -8q52 -5 82 -5q43 0 61 16.5t18 49.5q0 34 -18 76h119q17 -33 17 -78q0 -73 -46 -112z
M556.5 140q55.5 32 86.5 89.5t31 130.5t-31 130.5t-86.5 89.5t-126.5 32t-126.5 -32t-86.5 -89.5t-31 -130.5t31 -130.5t86.5 -89.5t126.5 -32t126.5 32zM394 944l103 -164h-118l-132 154v10h147z" />
    <glyph glyph-name="uni1EDD" unicode="&#x1edd;" horiz-adv-x="680" 
d="M652 511q-37 -36 -105 -43q45 -37 67 -86.5t22 -107.5q0 -80 -37 -145.5t-104.5 -103.5t-156.5 -38t-156.5 38t-104.5 103.5t-37 145.5t37 145.5t104.5 103.5t156.5 38q31 0 79 -6q44 -7 84 -7q77 0 77 66q0 36 -18 76h112q17 -31 17 -78q0 -65 -37 -101zM423.5 125
q38.5 22 61 61t22.5 88t-22.5 88t-61 61t-85.5 22q-48 0 -86.5 -22t-61 -61t-22.5 -88t22.5 -88t61 -61t86.5 -22q47 0 85.5 22zM304 772l103 -164h-118l-132 154v10h147z" />
    <glyph glyph-name="uni1EDE" unicode="&#x1ede;" horiz-adv-x="861" 
d="M812 672q-46 -39 -127 -39h-1q63 -47 96 -117t33 -156q0 -108 -49.5 -192.5t-136.5 -132.5t-197 -48t-197.5 47.5t-136.5 132.5t-49 193t49 193t136.5 132.5t197.5 47.5q67 0 149 -8q52 -5 82 -5q43 0 61 16.5t18 49.5q0 34 -18 76h119q17 -33 17 -78q0 -73 -46 -112z
M556.5 140q55.5 32 86.5 89.5t31 130.5t-31 130.5t-86.5 89.5t-126.5 32t-126.5 -32t-86.5 -89.5t-31 -130.5t31 -130.5t86.5 -89.5t126.5 -32t126.5 32zM379 791q0 27 15 48t43 45q19 15 28 26.5t9 22.5q0 15 -13 23t-33 8q-24 0 -38 -12t-15 -32h-89q2 56 41.5 89.5
t107.5 33.5q58 0 96 -30t38 -77q0 -26 -13 -46.5t-41 -46.5q-33 -30 -41.5 -39.5t-8.5 -20.5v-7h-86v15z" />
    <glyph glyph-name="uni1EDF" unicode="&#x1edf;" horiz-adv-x="680" 
d="M652 511q-37 -36 -105 -43q45 -37 67 -86.5t22 -107.5q0 -80 -37 -145.5t-104.5 -103.5t-156.5 -38t-156.5 38t-104.5 103.5t-37 145.5t37 145.5t104.5 103.5t156.5 38q31 0 79 -6q44 -7 84 -7q77 0 77 66q0 36 -18 76h112q17 -31 17 -78q0 -65 -37 -101zM423.5 125
q38.5 22 61 61t22.5 88t-22.5 88t-61 61t-85.5 22q-48 0 -86.5 -22t-61 -61t-22.5 -88t22.5 -88t61 -61t86.5 -22q47 0 85.5 22zM289 619q0 27 15 48t43 45q19 15 28 26.5t9 22.5q0 15 -13 23t-33 8q-24 0 -38 -12t-15 -32h-89q2 56 41.5 89.5t107.5 33.5q58 0 96 -30
t38 -77q0 -26 -13 -46.5t-41 -46.5q-33 -30 -41.5 -39.5t-8.5 -20.5v-7h-86v15z" />
    <glyph glyph-name="uni1EE0" unicode="&#x1ee0;" horiz-adv-x="861" 
d="M812 672q-46 -39 -127 -39h-1q63 -47 96 -117t33 -156q0 -108 -49.5 -192.5t-136.5 -132.5t-197 -48t-197.5 47.5t-136.5 132.5t-49 193t49 193t136.5 132.5t197.5 47.5q67 0 149 -8q52 -5 82 -5q43 0 61 16.5t18 49.5q0 34 -18 76h119q17 -33 17 -78q0 -73 -46 -112z
M556.5 140q55.5 32 86.5 89.5t31 130.5t-31 130.5t-86.5 89.5t-126.5 32t-126.5 -32t-86.5 -89.5t-31 -130.5t31 -130.5t86.5 -89.5t126.5 -32t126.5 32zM449.5 792q-23.5 12 -50.5 34q-17 13 -27 19t-20 6q-17 0 -26 -15.5t-11 -48.5h-96q2 72 35.5 114.5t95.5 42.5
q34 0 58.5 -12.5t50.5 -34.5q16 -13 25.5 -19t19.5 -6q36 0 39 65h96q-2 -73 -35.5 -115t-96.5 -42q-34 0 -57.5 12z" />
    <glyph glyph-name="uni1EE1" unicode="&#x1ee1;" horiz-adv-x="680" 
d="M243 666q-10 -18 -12 -51h-86q2 72 32 114.5t88 42.5q33 0 55.5 -13t46.5 -36q16 -15 24.5 -21t18.5 -6q16 0 26 18t11 51h87q-2 -72 -32.5 -114.5t-87.5 -42.5q-33 0 -56 13t-47 36q-14 14 -23.5 20.5t-19.5 6.5q-15 0 -25 -18zM652 511q-37 -36 -105 -43
q45 -37 67 -86.5t22 -107.5q0 -80 -37 -145.5t-104.5 -103.5t-156.5 -38t-156.5 38t-104.5 103.5t-37 145.5t37 145.5t104.5 103.5t156.5 38q31 0 79 -6q44 -7 84 -7q77 0 77 66q0 36 -18 76h112q17 -31 17 -78q0 -65 -37 -101zM423.5 125q38.5 22 61 61t22.5 88t-22.5 88
t-61 61t-85.5 22q-48 0 -86.5 -22t-61 -61t-22.5 -88t22.5 -88t61 -61t86.5 -22q47 0 85.5 22z" />
    <glyph glyph-name="uni1EE2" unicode="&#x1ee2;" horiz-adv-x="861" 
d="M812 672q-46 -39 -127 -39h-1q63 -47 96 -117t33 -156q0 -108 -49.5 -192.5t-136.5 -132.5t-197 -48t-197.5 47.5t-136.5 132.5t-49 193t49 193t136.5 132.5t197.5 47.5q67 0 149 -8q52 -5 82 -5q43 0 61 16.5t18 49.5q0 34 -18 76h119q17 -33 17 -78q0 -73 -46 -112z
M556.5 140q55.5 32 86.5 89.5t31 130.5t-31 130.5t-86.5 89.5t-126.5 32t-126.5 -32t-86.5 -89.5t-31 -130.5t31 -130.5t86.5 -89.5t126.5 -32t126.5 32zM374 -188q-22 21 -22 54q0 32 22 53t56 21t56 -21t22 -53q0 -33 -22 -54t-56 -21t-56 21z" />
    <glyph glyph-name="uni1EE3" unicode="&#x1ee3;" horiz-adv-x="680" 
d="M652 511q-37 -36 -105 -43q45 -37 67 -86.5t22 -107.5q0 -80 -37 -145.5t-104.5 -103.5t-156.5 -38t-156.5 38t-104.5 103.5t-37 145.5t37 145.5t104.5 103.5t156.5 38q31 0 79 -6q44 -7 84 -7q77 0 77 66q0 36 -18 76h112q17 -31 17 -78q0 -65 -37 -101zM423.5 125
q38.5 22 61 61t22.5 88t-22.5 88t-61 61t-85.5 22q-48 0 -86.5 -22t-61 -61t-22.5 -88t22.5 -88t61 -61t86.5 -22q47 0 85.5 22zM284 -188q-22 21 -22 54q0 32 22 53t56 21t56 -21t22 -53q0 -33 -22 -54t-56 -21t-56 21z" />
    <glyph glyph-name="uni1EE4" unicode="&#x1ee4;" horiz-adv-x="781" 
d="M223.5 21q-71.5 34 -110.5 97.5t-39 149.5v452h133v-437q0 -83 48.5 -129t135.5 -46q86 0 134.5 46t48.5 129v437h133v-452q0 -86 -38.5 -149.5t-110 -97.5t-167.5 -34t-167.5 34zM335 -188q-22 21 -22 54q0 32 22 53t56 21t56 -21t22 -53q0 -33 -22 -54t-56 -21t-56 21z
" />
    <glyph glyph-name="uni1EE5" unicode="&#x1ee5;" horiz-adv-x="671" 
d="M592 548v-548h-121v61q-33 -39 -80.5 -56.5t-98.5 -17.5q-65 0 -116 26t-79.5 74t-28.5 111v350h128v-323q0 -57 32.5 -88t92.5 -31q63 0 103.5 34t40.5 89v319h127zM275 -188q-22 21 -22 54q0 32 22 53t56 21t56 -21t22 -53q0 -33 -22 -54t-56 -21t-56 21z" />
    <glyph glyph-name="uni1EE6" unicode="&#x1ee6;" horiz-adv-x="781" 
d="M223.5 21q-71.5 34 -110.5 97.5t-39 149.5v452h133v-437q0 -83 48.5 -129t135.5 -46q86 0 134.5 46t48.5 129v437h133v-452q0 -86 -38.5 -149.5t-110 -97.5t-167.5 -34t-167.5 34zM340 791q0 27 15 48t43 45q19 15 28 26.5t9 22.5q0 15 -13 23t-33 8q-24 0 -38 -12
t-15 -32h-89q2 56 41.5 89.5t107.5 33.5q58 0 96 -30t38 -77q0 -26 -13 -46.5t-41 -46.5q-33 -30 -41.5 -39.5t-8.5 -20.5v-7h-86v15z" />
    <glyph glyph-name="uni1EE7" unicode="&#x1ee7;" horiz-adv-x="671" 
d="M592 548v-548h-121v61q-33 -39 -80.5 -56.5t-98.5 -17.5q-65 0 -116 26t-79.5 74t-28.5 111v350h128v-323q0 -57 32.5 -88t92.5 -31q63 0 103.5 34t40.5 89v319h127zM280 619q0 27 15 48t43 45q19 15 28 26.5t9 22.5q0 15 -13 23t-33 8q-24 0 -38 -12t-15 -32h-89
q2 56 41.5 89.5t107.5 33.5q58 0 96 -30t38 -77q0 -26 -13 -46.5t-41 -46.5q-33 -30 -41.5 -39.5t-8.5 -20.5v-7h-86v15z" />
    <glyph glyph-name="uni1EE8" unicode="&#x1ee8;" horiz-adv-x="804" 
d="M823 675q-42 -39 -116 -42v-365q0 -86 -38.5 -149.5t-110 -97.5t-167.5 -34t-167.5 34t-110.5 97.5t-39 149.5v452h133v-437q0 -83 48.5 -129t135.5 -46q86 0 134.5 46t48.5 129v437h97q77 0 77 66q0 34 -18 76h119q16 -31 16 -78q0 -70 -42 -109zM432 778h-119l113 168
h147v-10z" />
    <glyph glyph-name="uni1EE9" unicode="&#x1ee9;" horiz-adv-x="714" 
d="M592 548v-548h-121v61q-33 -39 -80.5 -56.5t-98.5 -17.5q-65 0 -116 26t-79.5 74t-28.5 111v350h128v-323q0 -57 32.5 -88t92.5 -31q63 0 103.5 34t40.5 89v319h127zM531 467v81h43q77 0 77 66q0 36 -18 76h112q16 -29 16 -78q0 -72 -44.5 -108.5t-125.5 -36.5h-60z
M372 606h-119l113 168h147v-10z" />
    <glyph glyph-name="uni1EEA" unicode="&#x1eea;" horiz-adv-x="804" 
d="M823 675q-42 -39 -116 -42v-365q0 -86 -38.5 -149.5t-110 -97.5t-167.5 -34t-167.5 34t-110.5 97.5t-39 149.5v452h133v-437q0 -83 48.5 -129t135.5 -46q86 0 134.5 46t48.5 129v437h97q77 0 77 66q0 34 -18 76h119q16 -31 16 -78q0 -70 -42 -109zM355 944l103 -164h-118
l-132 154v10h147z" />
    <glyph glyph-name="uni1EEB" unicode="&#x1eeb;" horiz-adv-x="714" 
d="M592 548v-548h-121v61q-33 -39 -80.5 -56.5t-98.5 -17.5q-65 0 -116 26t-79.5 74t-28.5 111v350h128v-323q0 -57 32.5 -88t92.5 -31q63 0 103.5 34t40.5 89v319h127zM531 467v81h43q77 0 77 66q0 36 -18 76h112q16 -29 16 -78q0 -72 -44.5 -108.5t-125.5 -36.5h-60z
M295 772l103 -164h-118l-132 154v10h147z" />
    <glyph glyph-name="uni1EEC" unicode="&#x1eec;" horiz-adv-x="804" 
d="M823 675q-42 -39 -116 -42v-365q0 -86 -38.5 -149.5t-110 -97.5t-167.5 -34t-167.5 34t-110.5 97.5t-39 149.5v452h133v-437q0 -83 48.5 -129t135.5 -46q86 0 134.5 46t48.5 129v437h97q77 0 77 66q0 34 -18 76h119q16 -31 16 -78q0 -70 -42 -109zM340 791q0 27 15 48
t43 45q19 15 28 26.5t9 22.5q0 15 -13 23t-33 8q-24 0 -38 -12t-15 -32h-89q2 56 41.5 89.5t107.5 33.5q58 0 96 -30t38 -77q0 -26 -13 -46.5t-41 -46.5q-33 -30 -41.5 -39.5t-8.5 -20.5v-7h-86v15z" />
    <glyph glyph-name="uni1EED" unicode="&#x1eed;" horiz-adv-x="714" 
d="M592 548v-548h-121v61q-33 -39 -80.5 -56.5t-98.5 -17.5q-65 0 -116 26t-79.5 74t-28.5 111v350h128v-323q0 -57 32.5 -88t92.5 -31q63 0 103.5 34t40.5 89v319h127zM531 467v81h43q77 0 77 66q0 36 -18 76h112q16 -29 16 -78q0 -72 -44.5 -108.5t-125.5 -36.5h-60z
M280 619q0 27 15 48t43 45q19 15 28 26.5t9 22.5q0 15 -13 23t-33 8q-24 0 -38 -12t-15 -32h-89q2 56 41.5 89.5t107.5 33.5q58 0 96 -30t38 -77q0 -26 -13 -46.5t-41 -46.5q-33 -30 -41.5 -39.5t-8.5 -20.5v-7h-86v15z" />
    <glyph glyph-name="uni1EEE" unicode="&#x1eee;" horiz-adv-x="804" 
d="M823 675q-42 -39 -116 -42v-365q0 -86 -38.5 -149.5t-110 -97.5t-167.5 -34t-167.5 34t-110.5 97.5t-39 149.5v452h133v-437q0 -83 48.5 -129t135.5 -46q86 0 134.5 46t48.5 129v437h97q77 0 77 66q0 34 -18 76h119q16 -31 16 -78q0 -70 -42 -109zM410.5 792
q-23.5 12 -50.5 34q-17 13 -27 19t-20 6q-17 0 -26 -15.5t-11 -48.5h-96q2 72 35.5 114.5t95.5 42.5q34 0 58.5 -12.5t50.5 -34.5q16 -13 25.5 -19t19.5 -6q36 0 39 65h96q-2 -73 -35.5 -115t-96.5 -42q-34 0 -57.5 12z" />
    <glyph glyph-name="uni1EEF" unicode="&#x1eef;" horiz-adv-x="714" 
d="M592 548v-548h-121v61q-33 -39 -80.5 -56.5t-98.5 -17.5q-65 0 -116 26t-79.5 74t-28.5 111v350h128v-323q0 -57 32.5 -88t92.5 -31q63 0 103.5 34t40.5 89v319h127zM531 467v81h43q77 0 77 66q0 36 -18 76h112q16 -29 16 -78q0 -72 -44.5 -108.5t-125.5 -36.5h-60z
M350.5 620q-23.5 12 -50.5 34q-17 13 -27 19t-20 6q-17 0 -26 -15.5t-11 -48.5h-96q2 72 35.5 114.5t95.5 42.5q34 0 58.5 -12.5t50.5 -34.5q16 -13 25.5 -19t19.5 -6q36 0 39 65h96q-2 -73 -35.5 -115t-96.5 -42q-34 0 -57.5 12z" />
    <glyph glyph-name="uni1EF0" unicode="&#x1ef0;" horiz-adv-x="804" 
d="M823 675q-42 -39 -116 -42v-365q0 -86 -38.5 -149.5t-110 -97.5t-167.5 -34t-167.5 34t-110.5 97.5t-39 149.5v452h133v-437q0 -83 48.5 -129t135.5 -46q86 0 134.5 46t48.5 129v437h97q77 0 77 66q0 34 -18 76h119q16 -31 16 -78q0 -70 -42 -109zM335 -188
q-22 21 -22 54q0 32 22 53t56 21t56 -21t22 -53q0 -33 -22 -54t-56 -21t-56 21z" />
    <glyph glyph-name="uni1EF1" unicode="&#x1ef1;" horiz-adv-x="714" 
d="M592 548v-548h-121v61q-33 -39 -80.5 -56.5t-98.5 -17.5q-65 0 -116 26t-79.5 74t-28.5 111v350h128v-323q0 -57 32.5 -88t92.5 -31q63 0 103.5 34t40.5 89v319h127zM531 467v81h43q77 0 77 66q0 36 -18 76h112q16 -29 16 -78q0 -72 -44.5 -108.5t-125.5 -36.5h-60z
M275 -188q-22 21 -22 54q0 32 22 53t56 21t56 -21t22 -53q0 -33 -22 -54t-56 -21t-56 21z" />
    <glyph glyph-name="Ygrave" unicode="&#x1ef2;" horiz-adv-x="724" 
d="M430 244v-244h-133v241l-292 479h151l209 -357l206 357h147zM324 944l103 -164h-118l-132 154v10h147z" />
    <glyph glyph-name="ygrave" unicode="&#x1ef3;" horiz-adv-x="622" 
d="M618 548l-268 -606q-28 -64 -77.5 -98t-114.5 -34q-32 0 -69 8t-66 23l35 104q54 -23 95 -23q29 0 53 16t37 46l9 21l-247 543h140l171 -407l167 407h135zM276 772l103 -164h-118l-132 154v10h147z" />
    <glyph glyph-name="uni1EF4" unicode="&#x1ef4;" horiz-adv-x="724" 
d="M430 244v-244h-133v241l-292 479h151l209 -357l206 357h147zM306 -188q-22 21 -22 54q0 32 22 53t56 21t56 -21t22 -53q0 -33 -22 -54t-56 -21t-56 21z" />
    <glyph glyph-name="uni1EF5" unicode="&#x1ef5;" horiz-adv-x="622" 
d="M618 548l-268 -606q-28 -64 -77.5 -98t-114.5 -34q-32 0 -69 8t-66 23l35 104q54 -23 95 -23q29 0 53 16t37 46l9 21l-247 543h140l171 -407l167 407h135zM526.5 -77.5q21.5 -20.5 21.5 -52.5t-21 -52t-55 -20q-33 0 -54.5 20t-21.5 52q0 31 22 52t54 21q33 0 54.5 -20.5
z" />
    <glyph glyph-name="uni1EF6" unicode="&#x1ef6;" horiz-adv-x="724" 
d="M430 244v-244h-133v241l-292 479h151l209 -357l206 357h147zM309 791q0 27 15 48t43 45q19 15 28 26.5t9 22.5q0 15 -13 23t-33 8q-24 0 -38 -12t-15 -32h-89q2 56 41.5 89.5t107.5 33.5q58 0 96 -30t38 -77q0 -26 -13 -46.5t-41 -46.5q-33 -30 -41.5 -39.5t-8.5 -20.5
v-7h-86v15z" />
    <glyph glyph-name="uni1EF7" unicode="&#x1ef7;" horiz-adv-x="622" 
d="M618 548l-268 -606q-28 -64 -77.5 -98t-114.5 -34q-32 0 -69 8t-66 23l35 104q54 -23 95 -23q29 0 53 16t37 46l9 21l-247 543h140l171 -407l167 407h135zM261 619q0 27 15 48t43 45q19 15 28 26.5t9 22.5q0 15 -13 23t-33 8q-24 0 -38 -12t-15 -32h-89q2 56 41.5 89.5
t107.5 33.5q58 0 96 -30t38 -77q0 -26 -13 -46.5t-41 -46.5q-33 -30 -41.5 -39.5t-8.5 -20.5v-7h-86v15z" />
    <glyph glyph-name="uni1EF8" unicode="&#x1ef8;" horiz-adv-x="724" 
d="M430 244v-244h-133v241l-292 479h151l209 -357l206 357h147zM379.5 792q-23.5 12 -50.5 34q-17 13 -27 19t-20 6q-17 0 -26 -15.5t-11 -48.5h-96q2 72 35.5 114.5t95.5 42.5q34 0 58.5 -12.5t50.5 -34.5q16 -13 25.5 -19t19.5 -6q36 0 39 65h96q-2 -73 -35.5 -115
t-96.5 -42q-34 0 -57.5 12z" />
    <glyph glyph-name="uni1EF9" unicode="&#x1ef9;" horiz-adv-x="622" 
d="M618 548l-268 -606q-28 -64 -77.5 -98t-114.5 -34q-32 0 -69 8t-66 23l35 104q54 -23 95 -23q29 0 53 16t37 46l9 21l-247 543h140l171 -407l167 407h135zM331.5 620q-23.5 12 -50.5 34q-17 13 -27 19t-20 6q-17 0 -26 -15.5t-11 -48.5h-96q2 72 35.5 114.5t95.5 42.5
q34 0 58.5 -12.5t50.5 -34.5q16 -13 25.5 -19t19.5 -6q36 0 39 65h96q-2 -73 -35.5 -115t-96.5 -42q-34 0 -57.5 12z" />
    <glyph glyph-name="uni2007" unicode="&#x2007;" horiz-adv-x="753" 
 />
    <glyph glyph-name="uni2008" unicode="&#x2008;" horiz-adv-x="276" 
 />
    <glyph glyph-name="uni2009" unicode="&#x2009;" horiz-adv-x="178" 
 />
    <glyph glyph-name="uni200A" unicode="&#x200a;" horiz-adv-x="60" 
 />
    <glyph glyph-name="uni200B" unicode="&#x200b;" horiz-adv-x="0" 
 />
    <glyph glyph-name="uni2010" unicode="&#x2010;" horiz-adv-x="368" 
d="M331 380l-19 -119h-275l19 119h275z" />
    <glyph glyph-name="figuredash" unicode="&#x2012;" horiz-adv-x="543" 
d="M43 268v103h457v-103h-457z" />
    <glyph glyph-name="endash" unicode="&#x2013;" horiz-adv-x="543" 
d="M43 268v103h457v-103h-457z" />
    <glyph glyph-name="emdash" unicode="&#x2014;" horiz-adv-x="894" 
d="M43 268v103h808v-103h-808z" />
    <glyph glyph-name="uni2015" unicode="&#x2015;" horiz-adv-x="894" 
d="M43 268v103h808v-103h-808z" />
    <glyph glyph-name="quoteleft" unicode="&#x2018;" horiz-adv-x="260" 
d="M65.5 443q-25.5 35 -25.5 86q0 57 34.5 110t109.5 84l35 -65q-36 -16 -60.5 -42t-28.5 -56q4 1 12 1q35 0 56.5 -21.5t21.5 -55.5q0 -33 -22.5 -54.5t-58.5 -21.5q-48 0 -73.5 35z" />
    <glyph glyph-name="quoteright" unicode="&#x2019;" horiz-adv-x="260" 
d="M194.5 688q25.5 -35 25.5 -86q0 -57 -34.5 -110t-109.5 -84l-35 65q36 16 60.5 42t28.5 56q-4 -1 -12 -1q-35 0 -56.5 21.5t-21.5 55.5q0 33 22.5 54.5t58.5 21.5q48 0 73.5 -35z" />
    <glyph glyph-name="quotesinglbase" unicode="&#x201a;" horiz-adv-x="280" 
d="M204.5 137q25.5 -35 25.5 -86q0 -57 -34.5 -110t-109.5 -84l-35 65q36 16 60.5 42t28.5 56q-4 -1 -12 -1q-35 0 -56.5 21.5t-21.5 55.5q0 33 22.5 54.5t58.5 21.5q48 0 73.5 -35z" />
    <glyph glyph-name="quotereversed" unicode="&#x201b;" horiz-adv-x="260" 
d="M65.5 688q-25.5 -35 -25.5 -86q0 -57 34.5 -110t109.5 -84l35 65q-36 16 -60.5 42t-28.5 56q4 -1 12 -1q35 0 56.5 21.5t21.5 55.5q0 33 -22.5 54.5t-58.5 21.5q-48 0 -73.5 -35z" />
    <glyph glyph-name="quotedblleft" unicode="&#x201c;" horiz-adv-x="477" 
d="M282.5 446q-25.5 35 -25.5 86q0 57 34.5 110t109.5 84l35 -65q-36 -16 -60.5 -42t-28.5 -56q4 1 12 1q35 0 56.5 -21.5t21.5 -55.5q0 -33 -22.5 -54.5t-58.5 -21.5q-48 0 -73.5 35zM65.5 446q-25.5 35 -25.5 86q0 57 34.5 110t109.5 84l35 -65q-36 -16 -60.5 -42
t-28.5 -56q4 1 12 1q35 0 56.5 -21.5t21.5 -55.5q0 -33 -22.5 -54.5t-58.5 -21.5q-48 0 -73.5 35z" />
    </font>
</defs>
</svg>
