<svg version="1.2" xmlns="http://www.w3.org/2000/svg" viewBox="0 0 115 115" width="115" height="115">
	<title>&lt;Group&gt;</title>
	<style>
		.s0 { fill: #f5882b } 
		.s1 { fill: #000001 } 
		.s2 { fill: #fefefe } 
	</style>
	<g id="&lt;Group&gt;">
		<path id="&lt;Path&gt;" class="s0" d="m0.9 57.5c0-31.5 25.5-57.1 57-57.1 31.5 0 57 25.6 57 57.1 0 31.5-25.5 57-57 57-31.5 0-57-25.5-57-57z"/>
		<path id="&lt;Path&gt;" class="s1" d="m61.9 17.4c-18.7 0-33.8 15.1-33.8 33.9 0 0.6-0.5 11.8-18.1 11.4-3-0.1-6 0.3-8.8 1 3 28 26.3 49.8 54.8 50.8 10.1-5.9 16.9-16.8 16.9-29.4q0-0.9 0-1.8c13.3-4.5 22.9-17.2 22.9-32 0-18.8-15.2-33.9-33.9-33.9z"/>
		<path id="&lt;Path&gt;" class="s1" d="m57.9 114.5c15.4 0 29.4-6.1 39.7-16.1l-9-11.9c-6.7-8.9-17.8-13.3-28.8-11.4l-52.3 9c9.5 18.1 28.5 30.4 50.4 30.4z"/>
		<path id="&lt;Path&gt;" class="s2" d="m42 86.5c-1.8-0.9-2.5-3.1-1.7-4.9l13.8-28.4 16.5 7.9-8.9 18.5c-3.5 7.3-12.3 10.4-19.7 6.9z"/>
		<path id="&lt;Path&gt;" class="s2" d="m72.7 67.5h-17.2c-7.7 0-14-6.2-14-13.9v-16.6c0-5.3 4.4-9.6 9.7-9.6h20.3c6.8 0 12.4 5.6 12.4 12.4v16.5c0 6.2-5 11.2-11.2 11.2z"/>
		<g id="&lt;Group&gt;">
			<path id="&lt;Path&gt;" class="s1" d="m75.5 68.9h-11.6c-2.4 0-4.8-0.3-7.1-1.1-0.4-0.1-0.6-0.5-0.5-0.9 0.2-0.3 0.6-0.5 0.9-0.4q3.3 1 6.7 1h11.6c0.4 0 0.7 0.4 0.7 0.7 0 0.4-0.3 0.7-0.7 0.7z"/>
		</g>
		<path id="&lt;Path&gt;" class="s1" d="m57.6 17.7c-16.2 2-28.9 15.6-29.5 32.3 3.7 2.5 8.1 3.9 12.9 3.9 12.6 0 22.7-9.7 22.7-21.6 0-5.6-2.3-10.8-6.1-14.6z"/>
		<path id="&lt;Path&gt;" class="s2" d="m50.9 58.1c0 4.7-3.8 8.6-8.5 8.6-4.8 0-8.6-3.9-8.6-8.6 0-4.8 3.8-8.6 8.6-8.6 4.7 0 8.5 3.8 8.5 8.6z"/>
		<g id="&lt;Group&gt;">
			<path id="&lt;Path&gt;" class="s1" d="m45.7 58.6c-0.3 0-0.6-0.3-0.7-0.6 0-0.1-0.7-3-3.1-3.9-0.4-0.1-0.6-0.5-0.5-0.9 0.2-0.4 0.6-0.6 1-0.4 3.1 1.1 4 4.7 4 4.9 0.1 0.4-0.2 0.8-0.6 0.8q0 0.1-0.1 0.1z"/>
		</g>
		<path id="&lt;Path&gt;" class="s1" d="m65.1 47.3c0.2 1.1 1 1.9 1.7 1.7 0.7-0.1 1.1-1.2 0.9-2.3-0.3-1.1-1.1-1.9-1.8-1.8-0.7 0.2-1.1 1.2-0.8 2.4z"/>
		<path id="&lt;Path&gt;" class="s1" d="m77.6 46.5c0.3 1.1 1 1.9 1.7 1.7 0.8-0.1 1.1-1.2 0.9-2.3-0.2-1.1-1-1.9-1.7-1.7-0.8 0.1-1.1 1.2-0.9 2.3z"/>
		<g id="&lt;Group&gt;">
			<path id="&lt;Path&gt;" class="s1" d="m61.8 43.4q-0.3 0-0.5-0.1c-0.3-0.3-0.3-0.7 0-1 2.3-2.6 6.1-2 6.2-2 0.4 0.1 0.7 0.4 0.6 0.8-0.1 0.4-0.4 0.7-0.8 0.6-0.1 0-3.2-0.5-5 1.5q-0.2 0.2-0.5 0.2z"/>
		</g>
		<g id="&lt;Group&gt;">
			<path id="&lt;Compound Path&gt;" fill-rule="evenodd" class="s1" d="m72.1 61.1q-0.5 0-0.9-0.1-2.7-0.7-3.8-5.5c-0.1-0.2 0-0.4 0.2-0.6 0.2-0.2 0.4-0.2 0.6-0.2l9.2 2c0.3 0 0.5 0.2 0.6 0.4 0.1 0.3 0 0.5-0.2 0.7-0.1 0.2-2.9 3.3-5.7 3.3zm-3-4.8c0.4 1.5 1.2 3 2.4 3.3 1.5 0.4 3.3-0.8 4.4-1.8z"/>
		</g>
		<g id="&lt;Group&gt;">
			<path id="&lt;Path&gt;" class="s1" d="m77 51.3q-0.1 0-0.2 0c-2.8-1.3-4-4.8-2.6-7.9 1.3-3.2 4.7-4.7 7.5-3.5 0.4 0.2 0.6 0.6 0.4 1-0.2 0.3-0.6 0.5-0.9 0.3-2.1-0.9-4.7 0.3-5.8 2.7-1 2.4-0.2 5.2 1.9 6.1 0.4 0.1 0.5 0.5 0.4 0.9-0.1 0.3-0.4 0.4-0.7 0.4z"/>
		</g>
		<path id="&lt;Path&gt;" class="s2" d="m66.8 77.9q0-1.7-0.6-3.2-2.6-0.1-5.2 0.3l-34.1 5.9c2.1 5.7 10.1 9.9 19.7 9.9 11.2 0 20.2-5.8 20.2-12.9z"/>
	</g>
</svg>