<svg version="1.2" xmlns="http://www.w3.org/2000/svg" viewBox="0 0 115 115" width="115" height="115">
	<title>&lt;Group&gt;</title>
	<style>
		.s0 { fill: #78d1ef } 
		.s1 { fill: #000001 } 
		.s2 { fill: #fefefe } 
	</style>
	<g id="&lt;Group&gt;">
		<path id="&lt;Path&gt;" class="s0" d="m0.6 57.3c0-31.5 25.5-57.1 57-57.1 31.5 0 57.1 25.6 57.1 57.1 0 31.5-25.6 57-57.1 57-31.5 0-57-25.5-57-57z"/>
		<path id="&lt;Path&gt;" class="s1" d="m57.6 114.3c19.7 0 37.1-10 47.4-25.2l-2.5-2.8c-4.5-5.1-11.4-7.2-17.9-5.6l-38.7 9.4c-7.4 1.8-12.8 8-13.7 15.4l-0.3 2.6c7.7 4 16.5 6.2 25.7 6.2z"/>
		<path id="&lt;Path&gt;" class="s2" d="m69.6 83.9l-9.6 15.1c-2.5 4-8.6 3.2-9.9-1.3l-10.9-35.6 21.4-6.7z"/>
		<path id="&lt;Path&gt;" class="s1" d="m64.6 72.2l-5.3-16.8-20.1 6.3 5.8 18.1c7.1 0.6 14.4-2 19.6-7.6z"/>
		<path id="&lt;Path&gt;" class="s1" d="m56.1 21.4l-5.4 0.6c-12.6 1.5-22.4 10.9-23.9 22.8l-1.7 14.3c-0.7 5.3 3.3 10.2 9 10.9l21.7 2.7z"/>
		<path id="&lt;Path&gt;" class="s1" d="m46 21.8l6.2-0.4c14.6-1 27.6 6.7 31.5 18.6l4.8 14.5c1.7 5.4-1.9 11.3-8.2 13.2l-24.3 7.3z"/>
		<g id="&lt;Group&gt;">
			<path id="&lt;Path&gt;" class="s1" d="m48.1 27.9c-0.2 0-0.5-0.1-0.6-0.4l-5-13.2c-0.9-2.2-0.5-4.6 1-6.6 0.3-0.3 0.7-0.4 1-0.1 0.3 0.2 0.4 0.6 0.2 0.9-1.3 1.7-1.6 3.5-0.9 5.3l5 13.2c0.1 0.4 0 0.8-0.4 0.9q-0.1 0-0.3 0z"/>
		</g>
		<path id="&lt;Path&gt;" class="s1" d="m48.4 27.4l-3.4-13.5c-1.1-4.2 2-8.4 6.6-8.9l5.1-0.5c5-0.6 9.2 3.6 8.4 8.3l-2.6 15.6z"/>
		<path id="&lt;Path&gt;" class="s2" d="m83.2 44.9c-1-3.5-4.7-5.5-8.2-4.4h-0.1c-2.9-10.1-10.5-17.3-19.4-17.3-9.9 0-18.1 8.8-20.2 20.6-3 0.1-5.7 2.4-6.2 5.5-0.6 3.6 1.8 7 5.4 7.7l1.2 0.1c2.5 11 10.4 18.9 19.8 18.9 10.2 0 18.7-9.5 20.3-22l3-0.8c3.5-1.1 5.5-4.8 4.4-8.3z"/>
		<path id="&lt;Path&gt;" class="s1" d="m64.6 24.7c-2.9-1.8-6-2.9-9.4-2.9-10.1 0-18.6 9.6-20.7 22.4q-1 0-2 0.4c11.9 0.6 24.1-7.1 32.1-19.9z"/>
		<g id="&lt;Group&gt;">
			<path id="&lt;Path&gt;" class="s1" d="m40.4 47.1c-0.3 0-0.6-0.3-0.7-0.7 0-0.4 0.3-0.7 0.7-0.7 9.1-0.9 17.7-8.2 22.4-19.1 0.1-0.4 0.5-0.5 0.9-0.4 0.4 0.2 0.5 0.6 0.4 1-4.9 11.3-14 18.9-23.6 19.9q0 0-0.1 0z"/>
		</g>
		<g id="&lt;Group&gt;">
			<path id="&lt;Path&gt;" class="s1" d="m60.5 37.4q-0.2 0-0.4-0.2c-0.4-0.2-0.4-0.6-0.2-1 2.2-3.1 3.5-6.9 3.9-11.2 0-0.4 0.4-0.7 0.7-0.6 0.4 0 0.7 0.3 0.7 0.7-0.4 4.6-1.8 8.6-4.2 12-0.1 0.1-0.3 0.3-0.5 0.3z"/>
		</g>
		<g id="&lt;Group&gt;">
			<path id="&lt;Path&gt;" class="s1" d="m75.6 49.5c-0.4 0-0.7-0.2-0.7-0.5-0.6-3.2 2-4.8 2.1-4.9 0.4-0.2 0.8-0.1 1 0.3 0.2 0.3 0.1 0.8-0.2 1-0.1 0-1.9 1.1-1.5 3.3 0 0.4-0.2 0.8-0.6 0.8q-0.1 0-0.1 0z"/>
		</g>
		<g id="&lt;Group&gt;">
			<path id="&lt;Path&gt;" class="s1" d="m34.6 52.5q-0.1 0-0.1 0c-0.4-0.1-0.7-0.4-0.6-0.8 0-0.1 0.2-2.2-1.7-3.3-0.4-0.1-0.5-0.6-0.3-0.9 0.2-0.4 0.6-0.5 0.9-0.3 2.9 1.6 2.5 4.6 2.5 4.7-0.1 0.3-0.4 0.6-0.7 0.6z"/>
		</g>
		<g id="&lt;Group&gt;">
			<path id="&lt;Compound Path&gt;" fill-rule="evenodd" class="s0" d="m48.6 57c-4.5 0-8.1-3.6-8.1-8 0-4.4 3.6-8 8.1-8 4.4 0 8 3.6 8 8 0 4.4-3.6 8-8 8zm0-14.6c-3.7 0-6.6 3-6.6 6.6 0 3.7 2.9 6.6 6.6 6.6 3.6 0 6.6-2.9 6.6-6.6 0-3.6-3-6.6-6.6-6.6z"/>
		</g>
		<g id="&lt;Group&gt;">
			<path id="&lt;Compound Path&gt;" fill-rule="evenodd" class="s0" d="m65.7 57c-4.4 0-8-3.6-8-8 0-4.4 3.6-8 8-8 4.4 0 8 3.6 8 8 0 4.4-3.6 8-8 8zm0-14.6c-3.7 0-6.6 3-6.6 6.6 0 3.7 2.9 6.6 6.6 6.6 3.6 0 6.6-2.9 6.6-6.6 0-3.6-3-6.6-6.6-6.6z"/>
		</g>
		<g id="&lt;Group&gt;">
			<path id="&lt;Path&gt;" class="s0" d="m57.8 50.5h-1.5c-0.4 0-0.7-0.4-0.7-0.8 0-0.3 0.3-0.7 0.7-0.7h1.5c0.4 0 0.7 0.4 0.7 0.7 0 0.4-0.3 0.8-0.7 0.8z"/>
		</g>
		<path id="&lt;Path&gt;" class="s1" d="m48.3 49.5c0.1 1.4 0.8 2.4 1.7 2.4 0.8-0.1 1.5-1.2 1.4-2.6-0.1-1.3-0.9-2.4-1.8-2.3-0.8 0.1-1.4 1.2-1.3 2.5z"/>
		<path id="&lt;Path&gt;" class="s1" d="m62 49.4c0 1.3 0.7 2.4 1.5 2.4 0.9 0 1.6-1.1 1.6-2.4 0-1.4-0.7-2.5-1.6-2.5-0.8 0-1.5 1.1-1.5 2.5z"/>
		<g id="&lt;Group&gt;">
			<path id="&lt;Path&gt;" class="s1" d="m55.1 67.9q-0.1 0-0.1 0c-4.5-1-6.6-4.2-6.7-4.3-0.2-0.4-0.1-0.8 0.2-1 0.4-0.2 0.8-0.1 1 0.2 0 0.1 1.9 2.9 5.8 3.7 0.3 0.1 0.6 0.4 0.5 0.8-0.1 0.4-0.4 0.6-0.7 0.6z"/>
		</g>
		<g id="&lt;Group&gt;">
			<path id="&lt;Path&gt;" class="s1" d="m57.6 60.1c-0.4 0-0.7-0.3-0.7-0.6-0.1-0.4 0.1-0.7 0.5-0.8 0.5-0.2 1-0.5 1.2-1 0.3-0.4 0.3-1 0.2-1.5l-1.7-4.9c-0.1-0.4 0.1-0.8 0.4-0.9 0.4-0.1 0.8 0.1 0.9 0.4l1.7 5c0.3 0.9 0.2 1.8-0.2 2.6-0.5 0.9-1.3 1.4-2.2 1.6q-0.1 0.1-0.1 0.1z"/>
		</g>
		<g id="&lt;Group&gt;">
			<path id="&lt;Path&gt;" class="s0" d="m46.1 23.1c-0.2 0-0.5-0.2-0.6-0.5-0.1-0.3 0-0.7 0.4-0.9 10.7-3.8 18.1-0.6 18.4-0.4 0.3 0.1 0.5 0.6 0.3 0.9-0.1 0.4-0.5 0.5-0.9 0.4-0.1-0.1-7.2-3.1-17.3 0.5q-0.1 0-0.3 0z"/>
		</g>
	</g>
</svg>