<svg version="1.2" xmlns="http://www.w3.org/2000/svg" viewBox="0 0 115 115" width="115" height="115">
	<title>&lt;Group&gt;</title>
	<style>
		.s0 { fill: #fbb02b } 
		.s1 { fill: #000001 } 
		.s2 { fill: #fefefe } 
	</style>
	<g id="&lt;Group&gt;">
		<path id="&lt;Path&gt;" class="s0" d="m114.6 57.7c0 31.5-25.5 57-57 57-31.5 0-57-25.5-57-57 0-31.5 25.5-57 57-57 31.5 0 57 25.5 57 57z"/>
		<g id="&lt;Group&gt;">
			<path id="&lt;Path&gt;" class="s1" d="m57.6 114.7c21.6 0 40.3-11.9 50-29.6-6-5.5-11-9.9-14.2-12.7-2.7-2.3-6.5-3-10.2-2.1-11.6 2.9-36.5 9.6-43.7 14.5-4.1 2.8-6.6 12.8-8.3 23.5 7.9 4.1 16.9 6.4 26.4 6.4z"/>
			<g id="&lt;Group&gt;">
				<path id="&lt;Path&gt;" class="s0" d="m65.5 72.2l4.6-0.5 4.3 7.4-6.6 12.1-9.6-6.1-7.3 8.4 0.9-14.4z"/>
				<path id="&lt;Path&gt;" class="s1" d="m50.9 94.2q-0.1 0-0.3-0.1c-0.2-0.1-0.4-0.4-0.4-0.7l0.9-14.3c0-0.4 0.3-0.7 0.7-0.7 0.4 0 0.7 0.4 0.7 0.8l-0.8 12.2 6-6.8c0.2-0.2 0.6-0.3 0.9-0.1l9 5.7 6-11.1-3.8-6.7-4.2 0.5c-0.4 0.1-0.7-0.2-0.8-0.6 0-0.4 0.3-0.7 0.7-0.8l4.6-0.5c0.2-0.1 0.5 0.1 0.7 0.3l4.3 7.5c0.1 0.2 0.1 0.4 0 0.7l-6.6 12q-0.2 0.3-0.5 0.4-0.3 0-0.5-0.1l-9.2-5.8-6.9 7.9q-0.2 0.3-0.5 0.3z"/>
			</g>
			<g id="&lt;Group&gt;">
				<path id="&lt;Path&gt;" class="s2" d="m68.2 75.1l-10 10-11.9-11.9 10-10z"/>
				<path id="&lt;Compound Path&gt;" fill-rule="evenodd" class="s1" d="m58.2 85.8q-0.3 0-0.5-0.2l-11.9-11.9c-0.3-0.3-0.3-0.7 0-1l10-10c0.3-0.2 0.7-0.2 1 0l11.9 11.9c0.2 0.3 0.2 0.7 0 1l-10 10q-0.2 0.2-0.5 0.2zm-10.9-12.6l10.9 10.9 9-9-10.9-10.9z"/>
			</g>
			<path id="&lt;Path&gt;" class="s1" d="m82.2 42.7c0.2-1.4-0.1-2.7-0.9-3.8-0.6-0.9-1.4-1.5-2.4-1.8q0.3-0.3 0.5-0.6c0.8-1.1 1.1-2.4 0.8-3.8-0.4-2.4-2.5-4.1-4.9-4.1q-0.1 0-0.1 0c0.6-1.4 0.6-3.1-0.2-4.5-0.9-1.6-2.6-2.5-4.4-2.5q-0.9 0-1.7 0.3 0-0.4 0-0.8c-0.1-1.3-0.8-2.5-1.8-3.4-0.9-0.7-2.1-1.2-3.2-1.2-1.2 0-2.4 0.5-3.3 1.3-0.4-1.5-1.5-2.8-3.1-3.4q-0.8-0.3-1.7-0.3c-1.8 0-3.5 1-4.4 2.6-0.9-1.2-2.4-2-4-2-2.5 0-4.6 1.8-5 4.1-0.8-0.5-1.7-0.8-2.7-0.8q-0.9 0-1.8 0.3c-1.2 0.5-2.2 1.4-2.8 2.6-0.4 1-0.6 2-0.4 3q-0.5-0.1-1.1-0.1c-1.2 0-2.4 0.4-3.3 1.2-1 0.8-1.6 2-1.8 3.4 0 1 0.2 2.1 0.7 3-1.6 0.1-3 1.1-3.8 2.4-0.6 1.2-0.8 2.6-0.5 3.9 0.3 1 0.9 1.9 1.7 2.5-1.4 0.7-2.4 2-2.7 3.6-0.3 1.4 0 2.7 0.8 3.8 0.6 0.9 1.5 1.5 2.5 1.9-1.1 1.1-1.6 2.7-1.4 4.3 0.5 2.4 2.5 4.1 5 4.1q0 0 0 0c-0.6 1.5-0.5 3.1 0.3 4.5 0.9 1.6 2.5 2.6 4.3 2.6q0.9 0 1.8-0.4 0 0.4 0 0.8c0.1 1.3 0.7 2.5 1.8 3.4 0.9 0.8 2 1.2 3.2 1.2 1.2 0 2.4-0.5 3.3-1.2 0.4 1.4 1.5 2.7 3 3.3q0.9 0.3 1.8 0.3c1.8 0 3.5-1 4.3-2.6 1 1.3 2.4 2.1 4.1 2.1 2.5 0 4.5-1.9 4.9-4.2 0.8 0.5 1.8 0.8 2.8 0.8q0.9 0 1.7-0.3c1.3-0.5 2.3-1.4 2.9-2.6 0.4-1 0.5-2 0.3-3q0.6 0.1 1.2 0.1c1.2 0 2.3-0.4 3.2-1.2 1.9-1.6 2.4-4.3 1.1-6.3 1.6-0.2 3-1.1 3.8-2.5 0.7-1.2 0.9-2.5 0.5-3.8-0.2-1.1-0.8-2-1.6-2.6 1.4-0.7 2.4-2 2.7-3.6z"/>
			<g id="&lt;Group&gt;">
				<path id="&lt;Path&gt;" class="s2" d="m64.7 52.4c-0.9 0-1.7 0.2-2.5 0.7-1.4-4.9-3.4-10.5-3.4-10.5h-19.1c0 0-5.9 17.9-2.7 24.1 3.3 6.2 8.9 10.2 8.9 10.2l13.1-4.8c0 0 4.7-1.9 4.9-10.6q0.4 0.1 0.8 0.1c2.6 0 4.7-2.1 4.7-4.6 0-2.6-2.1-4.6-4.7-4.6z"/>
				<path id="&lt;Compound Path&gt;" fill-rule="evenodd" class="s1" d="m45.9 77.6q-0.2 0-0.4-0.1c-0.2-0.2-5.8-4.2-9.1-10.5-3.4-6.3 2.4-23.9 2.7-24.6 0.1-0.3 0.3-0.5 0.6-0.5h19.1c0.3 0 0.6 0.2 0.7 0.5 0 0 1.7 5 3.2 9.7q0.9-0.4 2-0.4c3 0 5.4 2.3 5.4 5.3 0 2.9-2.4 5.3-5.4 5.3q-0.1 0-0.1 0c-0.5 8.4-5.1 10.4-5.3 10.5l-13.1 4.8q-0.2 0-0.3 0zm-5.6-34.3c-0.9 2.9-5.4 17.8-2.6 23.1 2.7 5.1 7.2 8.8 8.3 9.7l12.8-4.7c0.1 0 4.2-1.8 4.4-9.9q0-0.3 0.2-0.5 0.3-0.2 0.6-0.2 0.4 0.1 0.7 0.1c2.2 0 3.9-1.8 3.9-3.9 0-2.2-1.7-3.9-3.9-3.9-0.7 0-1.5 0.2-2.1 0.6-0.2 0.1-0.4 0.1-0.6 0.1-0.2-0.1-0.4-0.3-0.4-0.5-1.2-4-2.8-8.5-3.3-10z"/>
			</g>
			<g id="&lt;Group&gt;">
				<path id="&lt;Path&gt;" class="s1" d="m50.7 69.5h-5.2c-0.4 0-0.8-0.4-0.8-0.7 0-0.4 0.4-0.7 0.8-0.7h5.1c0.3-0.1 1.5-0.5 2-2.2 0.1-0.4 0.5-0.6 0.9-0.5 0.4 0.1 0.6 0.5 0.5 0.9-0.8 2.7-3.1 3.1-3.1 3.2q-0.1 0-0.2 0z"/>
			</g>
			<path id="&lt;Path&gt;" class="s1" d="m38.6 56.5c0.3 0.7 0.9 1.1 1.4 0.9 0.5-0.2 0.7-0.9 0.4-1.6-0.2-0.7-0.9-1.1-1.4-0.9-0.5 0.2-0.7 0.9-0.4 1.6z"/>
			<path id="&lt;Path&gt;" class="s1" d="m48.1 56.5c0.3 0.7 0.9 1.1 1.5 0.9 0.5-0.2 0.6-0.9 0.4-1.6-0.3-0.7-0.9-1.1-1.4-0.9-0.6 0.2-0.7 0.9-0.5 1.6z"/>
			<g id="&lt;Group&gt;">
				<path id="&lt;Path&gt;" class="s1" d="m52.6 53.5h-5.4c-0.4 0-0.7-0.4-0.7-0.7 0-0.4 0.3-0.8 0.7-0.8h5.4c0.4 0 0.7 0.4 0.7 0.8 0 0.3-0.3 0.7-0.7 0.7z"/>
			</g>
			<g id="&lt;Group&gt;">
				<path id="&lt;Path&gt;" class="s1" d="m42.5 53.5h-5.3c-0.4 0-0.7-0.4-0.7-0.7 0-0.4 0.3-0.8 0.7-0.8h5.3c0.4 0 0.7 0.4 0.7 0.8 0 0.3-0.3 0.7-0.7 0.7z"/>
			</g>
			<g id="&lt;Group&gt;">
				<path id="&lt;Path&gt;" class="s1" d="m44.4 62.1h-2.8c-0.2 0-0.4-0.1-0.5-0.3q-0.2-0.2-0.2-0.6l2.1-9.8c0.1-0.3 0.5-0.6 0.9-0.5 0.3 0.1 0.6 0.4 0.5 0.8l-1.9 9h1.9c0.4 0 0.7 0.3 0.7 0.7 0 0.4-0.3 0.7-0.7 0.7z"/>
			</g>
			<g id="&lt;Group&gt;">
				<path id="&lt;Path&gt;" class="s1" d="m63.9 59.5c-0.3 0-0.5-0.1-0.6-0.4-1.3-1.9-0.1-3.9 0.7-4.7 0.3-0.3 0.7-0.3 1 0 0.3 0.2 0.3 0.7 0 1-0.1 0-1.5 1.5-0.5 3 0.2 0.3 0.1 0.8-0.3 1q-0.1 0.1-0.3 0.1z"/>
			</g>
		</g>
	</g>
</svg>