<svg version="1.2" xmlns="http://www.w3.org/2000/svg" viewBox="0 0 115 115" width="115" height="115">
	<title>&lt;Group&gt;</title>
	<style>
		.s0 { fill: #7cc79a } 
		.s1 { fill: #000001 } 
		.s2 { fill: #fefefe } 
	</style>
	<g id="&lt;Group&gt;">
		<path id="&lt;Path&gt;" class="s0" d="m114.3 57.1c0 31.5-25.6 57-57.1 57-31.5 0-57-25.5-57-57 0-31.5 25.5-57.1 57-57.1 31.5 0 57.1 25.6 57.1 57.1z"/>
		<path id="&lt;Path&gt;" class="s1" d="m81 80.9h-48.5c-8.9 0-17.1 3.7-21.5 9.6 10.4 14.3 27.2 23.6 46.2 23.6 18.7 0 35.4-9 45.8-22.9-4.3-6.3-12.8-10.3-22-10.3z"/>
		<g id="&lt;Group&gt;">
			<path id="&lt;Path&gt;" class="s1" d="m35.1 49.7c0 0-5.8-21.5-1.6-27.9 4.4-6.5 9.8-5.6 17.6-1.6 7.8 4 6.9-2.4 17.5 1.2 5.8 2 9.7 6.4 9.3 10.8-0.3 4.4-0.3 15.9-4.2 20.3-3.9 4.4-32.4 8.4-38.6-2.8z"/>
			<g id="&lt;Group&gt;">
				<path id="&lt;Path&gt;" class="s2" d="m54.8 89.7h0.1c-4.8 0-8.7-3.8-8.7-8.6v-31.5c0-4.8 3.9-8.6 8.7-8.6h-0.1c4.8 0 8.7 3.8 8.7 8.6v31.5c0 4.8-3.9 8.6-8.7 8.6z"/>
				<path id="&lt;Compound Path&gt;" fill-rule="evenodd" class="s1" d="m54.9 90.4q-0.1 0-0.1 0 0 0 0 0c-5.1 0-9.3-4.2-9.3-9.3v-31.5c0-5.1 4.2-9.3 9.3-9.3q0 0 0 0 0.1 0 0.1 0c5.1 0 9.3 4.2 9.3 9.3v31.5c0 5.1-4.2 9.3-9.3 9.3q0 0 0 0zm-0.1-48.7c-4.3 0-7.9 3.5-7.9 7.9v31.5c0 4.4 3.6 7.9 7.9 7.9 4.4 0 8-3.5 8-7.9v-31.5c0-4.4-3.6-7.9-8-7.9z"/>
			</g>
			<g id="&lt;Group&gt;">
				<path id="&lt;Path&gt;" class="s2" d="m41.3 52.1c1.1 3.9 0.3 7.6-1.8 8.2-2.1 0.5-4.7-2.2-5.7-6.2-1.1-4-0.3-7.6 1.8-8.2 2.1-0.6 4.6 2.2 5.7 6.2z"/>
				<path id="&lt;Compound Path&gt;" fill-rule="evenodd" class="s1" d="m38.9 61.1c-1 0-2.1-0.6-3.2-1.7-1.1-1.3-2.1-3.1-2.6-5.1-1.2-4.4-0.2-8.4 2.3-9.1 1.3-0.3 2.7 0.2 3.9 1.6 1.2 1.3 2.1 3.1 2.7 5.1 1.2 4.4 0.2 8.4-2.3 9.1q-0.4 0.1-0.8 0.1zm-2.8-14.6q-0.2 0-0.3 0.1c-1.5 0.4-2.4 3.5-1.4 7.3 0.5 1.8 1.4 3.4 2.4 4.5 0.8 1 1.8 1.4 2.5 1.2 1.5-0.4 2.4-3.5 1.3-7.3-0.5-1.9-1.3-3.4-2.3-4.5-0.7-0.8-1.5-1.3-2.2-1.3z"/>
			</g>
			<g id="&lt;Group&gt;">
				<path id="&lt;Path&gt;" class="s2" d="m67.5 52.1c-1 3.9-0.2 7.6 1.9 8.2 2 0.5 4.6-2.2 5.7-6.2 1.1-4 0.2-7.6-1.8-8.2-2.1-0.6-4.7 2.2-5.8 6.2z"/>
				<path id="&lt;Compound Path&gt;" fill-rule="evenodd" class="s1" d="m69.9 61.1q-0.4 0-0.7-0.1c-2.5-0.7-3.5-4.7-2.3-9.1q0 0 0 0c1.2-4.4 4.1-7.4 6.5-6.7 1.3 0.4 2.2 1.6 2.6 3.4 0.4 1.6 0.3 3.7-0.2 5.7-1.1 4-3.6 6.8-5.9 6.8zm-1.7-8.8c-1 3.8-0.1 6.9 1.3 7.3 1.5 0.4 3.9-1.8 4.9-5.7 0.5-1.8 0.6-3.6 0.3-5-0.3-1.3-0.9-2.1-1.6-2.3-1.5-0.4-3.8 1.8-4.9 5.7z"/>
			</g>
			<g id="&lt;Group&gt;">
				<path id="&lt;Path&gt;" class="s2" d="m61 78.3h-13.1c-5.4 0-9.7-4.4-9.7-9.7v-32.5c0-5.3 4.3-9.7 9.7-9.7h13.1c5.4 0 9.7 4.4 9.7 9.7v32.5c0 5.3-4.3 9.7-9.7 9.7z"/>
				<path id="&lt;Compound Path&gt;" fill-rule="evenodd" class="s1" d="m60.2 79h-11.4c-6.3 0-11.3-5.1-11.3-11.3v-30.7c0-6.2 5-11.3 11.3-11.3h11.4c6.2 0 11.2 5.1 11.2 11.3v30.7c0 6.2-5 11.3-11.2 11.3zm-11.4-51.9c-5.5 0-9.9 4.4-9.9 9.9v30.7c0 5.4 4.4 9.8 9.9 9.8h11.4c5.4 0 9.8-4.4 9.8-9.8v-30.7c0-5.5-4.4-9.9-9.8-9.9z"/>
			</g>
			<path id="&lt;Path&gt;" class="s1" d="m43.9 52.7c0.5 1.1 1.5 1.7 2.2 1.4 0.8-0.3 1.1-1.4 0.7-2.5-0.4-1.1-1.4-1.7-2.2-1.4-0.8 0.3-1.1 1.4-0.7 2.5z"/>
			<g id="&lt;Group&gt;">
				<path id="&lt;Path&gt;" class="s1" d="m49.3 49.3q-0.2 0-0.4-0.2c-0.8-0.6-1.8-0.9-2.9-1-1.4-0.1-2.6 0.2-3.4 0.9-0.3 0.3-0.8 0.2-1-0.1-0.3-0.3-0.2-0.7 0.1-1 1-0.9 2.7-1.3 4.4-1.2 1.4 0.1 2.7 0.6 3.6 1.3 0.4 0.2 0.4 0.7 0.2 1-0.2 0.2-0.4 0.3-0.6 0.3z"/>
			</g>
			<path id="&lt;Path&gt;" class="s1" d="m60.3 52.7c0.4 1.1 1.4 1.7 2.2 1.4 0.8-0.3 1-1.4 0.6-2.5-0.4-1.1-1.4-1.7-2.2-1.4-0.8 0.3-1 1.4-0.6 2.5z"/>
			<g id="&lt;Group&gt;">
				<path id="&lt;Path&gt;" class="s1" d="m65.6 49.3q-0.2 0-0.4-0.2c-0.7-0.6-1.7-0.9-2.9-1-1.3-0.1-2.6 0.2-3.4 0.9-0.3 0.3-0.8 0.2-1-0.1-0.2-0.3-0.2-0.7 0.1-1 1.1-0.9 2.7-1.3 4.4-1.2 1.4 0.1 2.7 0.6 3.7 1.3 0.3 0.2 0.3 0.7 0.1 1-0.1 0.2-0.3 0.3-0.6 0.3z"/>
			</g>
			<g id="&lt;Group&gt;">
				<path id="&lt;Path&gt;" class="s1" d="m53.6 60.2c-0.4 0-0.9-0.2-1.2-0.6-0.5-0.6-0.5-1.5-0.5-2 0.2-3.1 0.5-6.1 0.9-9.2 0-0.3 0.3-0.6 0.7-0.6 0.4 0.1 0.7 0.4 0.7 0.8-0.4 3-0.6 6-0.8 9-0.1 0.5-0.1 0.9 0.1 1.1q0 0 0.1 0c0.1-0.3 0.4-0.5 0.8-0.4 0.3 0.1 0.6 0.4 0.6 0.8-0.1 0.5-0.5 0.9-1 1q-0.2 0.1-0.4 0.1z"/>
			</g>
			<g id="&lt;Group&gt;">
				<path id="&lt;Path&gt;" class="s1" d="m56.9 65.3q-0.8 0-1.6-0.3c-0.4-0.1-0.5-0.5-0.4-0.9 0.1-0.3 0.6-0.5 0.9-0.4 0.8 0.3 1.8 0.3 2.7-0.2 0.9-0.5 1.6-1.2 1.8-2.1 0.1-0.4 0.5-0.6 0.9-0.5 0.3 0.1 0.6 0.5 0.5 0.9-0.4 1.2-1.3 2.3-2.5 3-0.8 0.3-1.5 0.5-2.3 0.5z"/>
			</g>
			<path id="&lt;Path&gt;" class="s1" d="m39.3 43.4c0 0 1.3-10.6 4.6-9.2 3.2 1.5 3.3 4.5 8.4 4.9 5.1 0.3 8.3-1.5 10.2 0.3 1.8 1.8 5 5.8 9.4 2.9 4.3-2.9 4.7-9.8-2.1-13.4-6.9-3.7-17.2-4.2-23-4.6-5.8-0.3-11.8 10.4-7.5 19.1z"/>
		</g>
	</g>
</svg>