<svg version="1.2" xmlns="http://www.w3.org/2000/svg" viewBox="0 0 98 99" width="98" height="99">
	<title>&lt;Path&gt;</title>
	<defs>
		<linearGradient id="g1" x2="1" gradientUnits="userSpaceOnUse" gradientTransform="matrix(97.435,0,0,97.445,.503,.645)">
			<stop offset="0" stop-color="#78d1ef"/>
			<stop offset=".2" stop-color="#7cc79a"/>
			<stop offset=".4" stop-color="#fbb02b"/>
			<stop offset=".6" stop-color="#f5882b"/>
			<stop offset=".8" stop-color="#f1662a"/>
			<stop offset="1" stop-color="#ed2a28"/>
		</linearGradient>
		<linearGradient id="g2" x2="1" gradientUnits="userSpaceOnUse" gradientTransform="matrix(50.645,0,0,45.92,36.716,38.305)">
			<stop offset="0" stop-color="#78d1ef"/>
			<stop offset=".2" stop-color="#7cc79a"/>
			<stop offset=".4" stop-color="#fbb02b"/>
			<stop offset=".6" stop-color="#f5882b"/>
			<stop offset=".8" stop-color="#f1662a"/>
			<stop offset="1" stop-color="#ed2a28"/>
		</linearGradient>
	</defs>
	<style>
		.s0 { fill: url(#g1) } 
		.s1 { fill: url(#g2) } 
	</style>
	<path id="&lt;Compound Path&gt;" fill-rule="evenodd" class="s0" d="m94.1 68.2c-4.6 11-13 19.8-23.7 25-6.7 3.3-13.9 4.9-21.2 4.9-6.7 0-13.4-1.4-19.7-4.2-5.4-2.4-10.3-5.7-14.5-9.9-0.1 0-0.4-0.3-0.4-0.4-7.8-7.9-12.8-18.3-13.9-29.4-1.1-11 1.7-22.2 7.8-31.5 3-4.6 6.8-8.7 11.2-12.1 15.5-11.8 36.4-13.2 53.3-3.7 3.8 2.1 7.3 4.8 10.4 7.8l0.9 0.9h-0.1c3.2 3.2 5.8 6.9 8 10.8 1.1 2.1 2 4.2 2.8 6.4 4.2 11.5 3.9 24.1-0.9 35.4zm-11.7-49.5l-63.9 63.8c8.4 7.8 19.3 12.1 30.7 12.1q0 0 0 0c11.5 0 22.5-4.4 30.9-12.2 8.8-8.3 13.9-19.5 14.3-31.5 0.4-12-3.9-23.4-12-32.2zm-70.9 12.2q-1.4-0.8-2.6-1.9c-8.5 16.8-5.7 37.3 7.2 51.1l63.8-63.9c-13.7-12.6-33.9-15.6-50.6-7.3 4.3 2.4 9.6 5.6 11.4 7.5 2.1 2.1 5.9 6.9 5.9 10.6 0 1.9-0.1 5.2-0.1 7.2l-0.1 0.3 6.1 1c0.5 0 0.9 0.3 1.2 0.6 0.3 0.4 0.5 0.8 0.4 1.3 0 1-0.9 1.7-1.9 1.6q-0.1 0-0.2 0l-10.6-1.8 0.5 0.9 5.9 3.3c0.4 0.2 0.7 0.6 0.8 1.1 0.1 0.4 0 0.9-0.2 1.3-0.2 0.4-0.6 0.7-1.1 0.8-0.4 0.1-0.9 0.1-1.3-0.1l-1.3-0.8c0.4 2.5-0.4 5-2.2 6.7-1.1 1-2.5 1.6-3.9 1.6q-0.6 0-1.2-0.1c-1.9-0.4-3.7-1.4-5-2.8q-0.7-0.8-1.3-1.6l-0.1-0.2c-0.6-0.8-1.4-2-3.1-4l-0.4-0.6-7.6 13 8.8 5.1c0.5 0.3 0.9 0.9 0.9 1.5 0 0.5-0.2 0.9-0.5 1.3-0.4 0.3-0.8 0.5-1.3 0.5q0 0 0 0-0.5 0-0.9-0.3l-10.3-5.9q-0.1-0.1-0.2-0.2l-0.3-0.3-0.2-0.2q0-0.2 0-0.3-0.1 0-0.1-0.1 0-0.1 0-0.2 0-0.1 0-0.2v-0.1q0 0 0-0.1v-0.1q0-0.2 0.1-0.3 0-0.1 0.1-0.3l2.8-4.8q-0.1 0-0.2 0c-1.7 0-3.2-0.9-4.2-2.4-0.6-1-4.9-9-4.9-11.4 0-1.4 1-3.9 2-6zm14.1-20c-6 3.7-11.2 8.8-14.9 14.9 2.3 2.5 4.8 3 7 3.5h0.2c1.6 0.4 3.2 0.7 4.3 2q0.2 0.3 0.6 0.6l0.3 0.4c1.1 1.2 2.9 3.1 5.2 5.8q0.4 0.3 0.5 0.7 0.9 1 1.9 2.2c1.9 2.4 2.8 3.7 3.3 4.5q0.4 0.6 0.9 1.1c0.8 0.9 1.9 1.6 3.1 1.9 0.7 0.1 1.5-0.1 2-0.6 1.1-1.1 2.1-3 0.3-5.7-1.3-2-1.3-2-11.4-17.7l-1.8-2.7c-0.5-0.8-0.3-1.9 0.5-2.5 0.9-0.5 1.9-0.3 2.5 0.5l1.7 2.8c1.7 2.6 3.1 4.8 4.3 6.6q1.6 2.4 2.7 4.1l4.2 0.6c0-1.6 0.1-4.9 0.1-6.9 0-1.9-2.5-5.7-4.8-8.1-1.4-1.3-6.5-4.6-12.7-8zm-5.3 28.6c0.4 0.6 0.9 1.4 1.3 2.1q0.5 0.8 1.3 2l2.2-3.8c-2-2.3-3.5-4-4.5-5.1l-0.3-0.2c-0.2 2-0.2 4.4 0 5zm0.1 6.6c-0.6-0.8-1.1-1.6-1.7-2.4l-0.1-0.2c-0.5-0.8-0.9-1.5-1.2-1.9-1.3-1.6-0.7-6.5-0.4-8.8q-1.1-0.2-2.3-0.5c-0.9 1.9-1.7 4-1.7 4.7 0.1 1.1 3.3 7.8 4.4 9.4 0.4 0.7 1.3 1 2 0.6 0.5-0.2 0.8-0.5 1-0.9z"/>
	<path id="&lt;Path&gt;" class="s1" d="m66.2 38.6c-0.4 0.3-0.6 0.7-0.7 1.2-0.2 0.9 0.4 1.8 1.4 2l16.6 2.9-4.6 23.1-5.7-0.9 3.9-7c0.5-0.8 0.2-1.9-0.7-2.4l-17.1-9.6c-0.5-0.3-0.9-0.3-1.4-0.2-0.4 0.1-0.8 0.4-1.1 0.8-0.5 0.9-0.2 1.9 0.7 2.4l15.7 8.8-11.3 20.3-22.6-13.1c-0.9-0.4-1.9-0.1-2.4 0.8-0.4 0.8-0.1 1.8 0.6 2.3l24.2 14q0.4 0.2 0.8 0.2 0.3 0 0.5 0c0.5-0.2 0.9-0.5 1.1-0.9l7.3-13.2 8.6 1.5q0.2 0 0.3 0 0 0 0 0c0.8 0 1.6-0.6 1.7-1.4l5.3-26.5c0.1-0.5 0-1-0.3-1.4-0.2-0.4-0.7-0.6-1.1-0.7l-18.4-3.3c-0.4 0-0.9 0.1-1.3 0.3z"/>
</svg>