<svg version="1.2" xmlns="http://www.w3.org/2000/svg" viewBox="0 0 82 96" width="82" height="96">
	<title>&lt;Compound Path&gt;</title>
	<defs>
		<linearGradient id="g1" x2="1" gradientUnits="userSpaceOnUse" gradientTransform="matrix(81.056,0,0,94.824,.603,.722)">
			<stop offset="0" stop-color="#78d1ef"/>
			<stop offset=".2" stop-color="#7cc79a"/>
			<stop offset=".4" stop-color="#fbb02b"/>
			<stop offset=".6" stop-color="#f5882b"/>
			<stop offset=".8" stop-color="#f1662a"/>
			<stop offset="1" stop-color="#ed2a28"/>
		</linearGradient>
	</defs>
	<style>
		.s0 { fill: url(#g1) } 
	</style>
	<path id="&lt;Compound Path&gt;" fill-rule="evenodd" class="s0" d="m57.2 62.1c-1.4-0.1-3.5-0.8-5.2-2.2v2.4c3.2 5.3 5.1 7.6 5.1 12.3 0 4.4 0.1 3.5-3.6 14.2v5.2c0 0.9-0.7 1.5-1.6 1.5h-19.2c-0.9 0-1.6-0.6-1.6-1.5v-5.1l-10-19.7c-1.6-3.1-1.5-6.8 0.1-9.8l3.6-6.5c-17.2 0-0.1 0-17.3 0-3.8 0-6.9-3.1-6.9-6.9v-38.3c0-3.9 3.1-7 6.9-7h67.2c3.8 0 7 3.1 7 7v38.3c0 3.8-3.2 6.9-7 6.9h-15.8c0 8.3 0.2 8.2-0.5 8.8-0.4 0.3-0.8 0.4-1.2 0.4zm-3.2 13.8c0.1-5.3-0.9-5.9-4.9-12.4-0.3-0.5-0.2-0.1-0.2-12.1 0-7.6 0.4-8.8-1.3-10.4-2.2-2.2-6-1.5-7.1 1.7-0.4 1.6 0 18.1-0.3 19-0.1 0.4 0.2 0-4.7 5.8-1.4 1.6-3.7-0.4-2.4-2l4.1-4.9v-7.7h-8.8l-4.5 8c-1.1 2.1-1.2 4.7-0.1 6.9 10.6 20.7 10.4 20.2 10.4 20.7v3.9h16.2c0-4.2 0-4 0.1-4.4 3.1-9 3.5-9.7 3.5-12.1zm-50.3-50.6h2.9c-1.2-2.1-0.9-4.7 0.6-6.4 2.2-2.6 6.1-2.8 8.5-0.5l4.7 4.7v-19.3h-12.9c-2.1 0-3.8 1.7-3.8 3.9zm71-21.5h-51.3v19.3l4.7-4.7c4.7-4.5 12.2 1.1 9.1 6.9h41.4v-17.7c0-2.1-1.8-3.8-3.9-3.8zm-42.7 21.4c2.5 0 3.6-2.7 2.2-4.4-1-1.2-2.8-1.3-3.9-0.2l-4.7 4.7h6.5zm-20.4 0h6.5c-4.8-4.8-5-5.4-6.5-5.4-0.9 0-1.6 0.3-2.1 0.9-1.4 1.8-0.2 4.5 2.1 4.5zm-8 20.7c0 2.1 1.7 3.8 3.8 3.8h12.9v-19.3c-2.2 1.6-5.7 3.4-10.8 3.4-2.1 0-2.1-3.1 0-3.1 4 0 6.7-1.2 8.5-2.5h-14.4zm19.8-15.4v19.3c5.3 0 0 0 13.7 0 0-4.7-0.6-8.2 2.2-11 2.8-2.8 7.5-3 10.4 0 2.8 2.7 2.2 5.5 2.2 11h22.7c2.2 0 3.9-1.7 3.9-3.9v-17.6h-52.9c1.8 1.2 4.5 2.5 8.6 2.5 2 0 2 3 0 3-5.2 0-8.7-1.7-10.9-3.3zm32.4 22.4h-3.8c-0.1 2.8 1.4 4.7 3.8 5.6zm2-33.4c-5.4 0-8.1-6.6-4.3-10.4 2.2-2.3 4.3-1.8 10.1-1.8 5.4 0 8.1 6.6 4.3 10.4-2.3 2.2-4.3 1.8-10.1 1.8zm5.8-9.1h-5.8c-1.6 0-3 1.3-3 3 0 1.6 1.4 3 3 3h5.8c1.6 0 3-1.3 3-3 0-1.7-1.3-3-3-3zm-6.3 22.5h16.3c2.1 0 2.1 3 0 3h-16.3c-2 0-2-3 0-3zm0 8h16.3c2.1 0 2.1 3.1 0 3.1h-16.3c-2 0-2-3.1 0-3.1z"/>
</svg>