<svg version="1.2" xmlns="http://www.w3.org/2000/svg" viewBox="0 0 91 89" width="91" height="89">
	<title>&lt;Compound Path&gt;</title>
	<defs>
		<linearGradient id="g1" x2="1" gradientUnits="userSpaceOnUse" gradientTransform="matrix(90,0,0,88,.327,.766)">
			<stop offset="0" stop-color="#78d1ef"/>
			<stop offset=".2" stop-color="#7cc79a"/>
			<stop offset=".4" stop-color="#fbb02b"/>
			<stop offset=".6" stop-color="#f5882b"/>
			<stop offset=".8" stop-color="#f1662a"/>
			<stop offset="1" stop-color="#ed2a28"/>
		</linearGradient>
	</defs>
	<style>
		.s0 { fill: url(#g1) } 
	</style>
	<path id="&lt;Compound Path&gt;" fill-rule="evenodd" class="s0" d="m90.3 86.8c0 1.1-0.9 2-2 2h-86c-1.1 0-2-0.9-2-2 0-1.1 0.9-2 2-2h11v-41.2l-0.5 0.3c-1.2 0.8-2.7 1.2-4.1 1.2-1.2 0-2.4-0.3-3.5-0.9-2.4-1.3-3.9-3.8-3.9-6.5 0-2.5 1.2-4.8 3.3-6.2l8.7-5.8v-16.9c0-4.4 3.6-8 8-8 4.4 0 8 3.6 8 8v6.3l14.9-10c0.7-0.4 1.5-0.4 2.2 0l39.6 26.4c2.1 1.4 3.3 3.7 3.3 6.2 0 2.7-1.5 5.2-3.9 6.5-2.4 1.3-5.3 1.1-7.6-0.4l-0.5-0.3v41.3h11c1.1 0 2 0.9 2 2zm-73-78v14.2l8-5.3v-8.9c0-2.2-1.8-4-4-4-2.2 0-4 1.8-4 4zm-3.1 29.3l30-20c0.7-0.4 1.5-0.4 2.2 0l30 20 3.6 2.4c1.1 0.7 2.4 0.8 3.5 0.2 1.1-0.6 1.8-1.7 1.8-3 0-1.1-0.5-2.2-1.5-2.8l-38.5-25.7-16.9 11.3-12 8-9.6 6.4c-0.9 0.6-1.5 1.7-1.5 2.8 0 1.3 0.7 2.4 1.8 3 1.1 0.6 2.4 0.5 3.5-0.2zm3.1 46.7h56v-43.9l-28-18.7-28 18.7zm48-26c0 6.4-3 12.2-8.1 16.1-3.5 2.5-7.6 3.9-11.9 3.9-4.3 0-8.4-1.4-11.9-3.9-5.1-3.9-8.1-9.7-8.1-16.1 0-11 9-20 20-20 11 0 20 9 20 20zm-4 0c0-8.8-7.2-16-16-16-8.8 0-16 7.2-16 16 0 4.2 1.7 8 4.5 11 2.1-4.2 6.5-7 11.5-7 4.9 0 9.3 2.7 11.5 7 2.9-2.9 4.5-6.8 4.5-11zm-16 4c-3.9 0-7-3.1-7-7 0-3.9 3.1-7 7-7 3.9 0 7 3.1 7 7 0 3.9-3.1 7-7 7zm0 12c3 0 5.8-0.8 8.3-2.4-1.3-3.3-4.6-5.6-8.3-5.6-3.7 0-7 2.3-8.3 5.6 2.5 1.6 5.3 2.4 8.3 2.4zm3-19c0-1.7-1.3-3-3-3-1.7 0-3 1.3-3 3 0 1.7 1.3 3 3 3 1.7 0 3-1.3 3-3z"/>
</svg>